<svg width="150" height="150" viewBox="0 0 150 150" fill="none" xmlns="http://www.w3.org/2000/svg">
<g clip-path="url(#clip0)">
<ellipse cx="78.4077" cy="78.7245" rx="49.5488" ry="71.7058" transform="rotate(9.22935 78.4077 78.7245)" fill="#EAEAEA"/>
<path d="M66.1358 37.0467C66.1358 37.0467 65.1171 32.6667 61.7825 41.1121C58.4465 49.5574 56.3505 53.9441 57.5278 56.7881C58.7065 59.6307 61.9225 55.1454 61.9225 55.1454C61.9225 55.1454 69.8625 44.8307 66.1358 37.0467" fill="#FFBE9E"/>
<path d="M84.1598 90.384C84.1598 90.384 85.1158 86.612 86.4198 88.1533C87.7238 89.6986 94.8598 101.489 94.5798 103.789C94.2984 106.087 92.4371 111.589 92.8344 112.921C93.2318 114.252 92.8798 114.477 95.5678 113.072C98.2558 111.668 98.3331 111.524 98.4131 110.173C98.4931 108.82 98.8718 104.417 98.8718 104.417L98.3971 101.633C98.3971 101.633 96.9798 100.097 96.6824 99.0986C96.3851 98.1013 94.1864 89.1 92.8931 87.1906C91.5998 85.2826 90.0598 89.3413 90.0598 89.3413C90.0598 89.3413 89.7131 65.2266 88.4398 63.4026C87.1678 61.576 84.5144 57.3973 84.5144 57.3973L78.1104 59.1666C78.1104 59.1666 75.6918 65.8573 76.9011 69.212C78.1104 72.5666 83.1184 89.3413 84.1598 90.384" fill="#FFBE9E"/>
<path d="M71.8164 105.053C71.8164 105.053 70.7617 105.76 71.559 106.557C72.3697 107.369 76.2164 106.331 77.9804 105.664C79.743 104.996 79.339 103.319 79.339 103.319C79.339 103.319 79.8884 104.903 79.8884 105.924C79.8884 106.947 79.819 107.479 79.1084 107.891C78.3964 108.301 75.7764 107.6 75.099 107.891C74.4217 108.18 71.819 110.053 69.911 109.768C68.0017 109.481 65.7457 108.217 65.7457 108.217C65.7457 108.217 64.5924 107.359 69.723 105.356C70.8257 104.927 71.8164 105.053 71.8164 105.053" fill="#9DBDC4"/>
<path d="M72.476 53.364C72.476 53.364 69.5826 54.2213 69.0053 59.52C68.4266 64.816 70.6253 73.608 72.476 77.1946C74.3266 80.7813 73.2853 82.1293 74.0946 82.9373C74.9053 83.748 74.9053 83.672 74.9053 87.7226C74.9053 91.772 74.9053 102.764 74.9053 102.764L70.5093 104.796C70.5093 104.796 69.5653 104.203 68.6586 105.111C67.7493 106.02 66.46 106.137 66.46 107.225C66.46 108.313 70.0466 108.084 70.6826 108.084C71.3186 108.084 73.0533 106.496 75.7146 106.496C78.376 106.496 79.1146 107.289 79.5546 105.893C79.9946 104.497 78.884 103.224 79.5546 100.564C80.2266 97.9026 83.1186 90.6146 82.1933 88.4173C81.268 86.2186 80.3026 82.768 80.3026 80.7333C80.3026 78.7 80.984 74.9973 80.4893 71.5266C79.9946 68.056 78.6066 52.3213 72.476 53.364" fill="#FFBE9E"/>
<path d="M83.7845 79.82C82.0751 73.176 80.9751 71.7614 80.9365 66.9574C80.8978 62.152 75.5698 52.0907 71.3245 55.3254L70.5938 54.904C70.5938 54.904 67.7071 59.1587 68.4365 64.2694C69.1671 69.38 72.1005 79.74 72.8165 82.344C73.4231 84.5427 74.3845 87.8294 74.7578 90.816L74.3765 102.46C74.3765 102.46 74.6418 103.652 76.9845 103.501C79.3258 103.352 81.5698 102.195 81.5698 102.195C81.5698 102.195 85.4925 86.4654 83.7845 79.82" fill="#0295AD"/>
<path d="M71.8158 104.193C71.8158 104.193 70.7611 104.901 71.5584 105.699C72.3691 106.508 76.2158 105.472 77.9798 104.805C79.7425 104.136 79.5064 103.464 79.5064 103.464C79.5064 103.464 79.8878 104.041 79.8878 105.064C79.8878 106.087 79.8184 106.62 79.1078 107.031C78.3958 107.44 75.7758 106.74 75.0985 107.031C74.4211 107.32 71.8184 109.193 69.9104 108.908C68.0011 108.621 65.7451 107.359 65.7451 107.359C65.7451 107.359 68.5398 104.496 69.7224 104.496C70.9051 104.496 71.8158 104.193 71.8158 104.193Z" fill="#6CB3C4"/>
<path d="M96.3084 87.4694C95.5684 84.8747 90.6378 82.2027 90.6378 82.2027C90.6378 82.2027 91.1871 68.4307 89.4791 62.86C87.7698 57.2907 80.8084 54.1094 76.3458 56.6867C71.8831 59.2614 82.3604 89.2094 82.3604 89.2094C82.3604 89.2094 90.3724 94.6 91.7631 97.444C93.1551 100.289 93.7244 102.201 93.7244 102.201C93.7244 102.201 93.6204 103.884 96.0471 102.401C98.4724 100.917 99.2338 98.176 99.2338 98.176L96.3084 87.4694" fill="#0AA1C4"/>
<path d="M64.4432 45.368C62.7592 43.1053 61.0405 37.1786 67.4685 33.3066C71.9859 30.5866 80.8365 29.7133 83.2259 32.6053C85.7765 35.6946 88.2672 42.028 87.2632 47.896C86.3485 53.244 87.1099 51.5666 88.7712 56.6706C90.4339 61.776 89.4792 62.86 89.4792 62.86C89.4792 62.86 86.3592 67.324 81.6859 67.324C77.0112 67.324 68.0752 64.0653 68.0752 64.0653C68.0752 64.0653 66.7125 62.0146 67.8472 57.7306C69.1125 52.952 66.2139 47.7413 64.4432 45.368Z" fill="#3BAAC4"/>
<path d="M68.4766 32.484C68.4766 32.484 68.8206 33.3573 68.8779 34.488C68.9339 35.6173 69.9072 39.5 70.1979 39.9786C71.2926 41.7733 74.5486 33.236 76.2379 31.6547C77.1792 30.7733 73.8779 31.1013 73.7739 29.0613C73.6699 27.0213 72.4099 25.7227 72.4099 25.7227L68.4766 32.484Z" fill="#FFB28D"/>
<path d="M68.7016 15.9627C68.4483 16.0534 64.1976 18.0067 63.5256 20.9267C62.8536 23.8481 64.2016 25.1254 64.3256 25.8961C64.4496 26.6654 63.927 26.5747 64.1203 27.7734C64.3137 28.9734 65.263 29.5334 65.3656 30.1707C65.4683 30.8094 66.4883 31.1307 66.6843 32.3494C66.8803 33.5707 68.3123 33.3534 69.6697 32.8827C71.5937 32.2134 76.1296 27.3467 76.4736 24.3774C76.831 21.2881 76.263 13.2507 68.7016 15.9627" fill="#FFCCB3"/>
<path d="M64.5693 18.5521C64.5693 18.5521 66.892 23.9027 68.6293 25.1561C70.3653 26.4121 75.0427 27.6627 75.0427 27.6627C75.0427 27.6627 74.9267 29.5147 75.34 29.9001C76.16 30.6667 80.0227 31.7321 80.0227 31.7321C80.0227 31.7321 79.4533 28.5334 78.5133 27.8534C77.5733 27.1747 76.4133 26.0014 76.4133 26.0014C76.4133 26.0014 80.588 17.6747 73.768 14.8294C66.188 11.6707 64.5693 18.5521 64.5693 18.5521" fill="#A38588"/>
<path d="M72.6778 25.5133C72.6965 25.48 73.3298 24.456 73.7858 24.8547C74.2418 25.256 74.4938 25.9466 74.2245 26.816C73.9565 27.6853 73.3685 28.7253 72.7645 28.6453C72.1605 28.564 71.9658 28.624 71.6951 28.1173C71.4231 27.6093 71.6805 27.0907 71.6805 27.0907L72.6778 25.5133Z" fill="#FF884D"/>
<path d="M72.4213 25.5707C72.4413 25.536 73.0747 24.5107 73.5293 24.9107C73.9867 25.312 74.2373 26.0027 73.968 26.872C73.7 27.7427 73.112 28.7813 72.5093 28.7013C71.9053 28.62 71.7107 28.68 71.4387 28.172C71.168 27.6653 71.424 27.1453 71.424 27.1453L72.4213 25.5707" fill="#FFCCB3"/>
<path d="M72.8639 25.8973C72.8639 25.8973 72.9906 26.452 73.0333 26.692C73.0759 26.9307 73.1026 27.3213 72.9546 27.4893C72.8079 27.66 72.6772 27.7667 72.6772 27.7667C72.6772 27.7667 72.8172 26.8373 72.7812 26.476C72.7452 26.112 72.7572 25.7973 72.9426 25.5546C73.1292 25.3146 73.2946 24.9947 73.4986 25.3293C73.7026 25.6653 73.8586 26.0293 73.7333 26.5826C73.6079 27.1373 73.3559 27.708 73.0679 27.9333C72.7786 28.1573 72.4199 28.236 72.4199 28.236C72.4199 28.236 73.1439 28.0293 73.3559 27.4053C73.5679 26.7813 73.7466 25.7986 73.5732 25.604C73.3999 25.4106 73.3772 25.3706 73.3279 25.6106C73.2772 25.8493 73.3679 26.2253 73.2106 26.088C73.0519 25.948 73.0746 25.6106 72.9533 25.7346C72.8306 25.8586 72.8639 25.8973 72.8639 25.8973" fill="#FF884D"/>
<path d="M72.5979 26.9453L72.4646 26.4133C72.3526 26.416 72.3286 26.416 72.238 26.584C72.146 26.7506 72.1273 26.816 71.9673 26.7466C71.81 26.6786 71.7139 26.5213 71.8259 26.7773C71.9366 27.032 72.0099 26.7853 72.2286 26.9786C72.4473 27.1693 72.3379 27.3853 72.4979 27.4226C72.6593 27.4573 72.61 27.088 72.5713 26.9786L72.5979 26.9453" fill="#FF884D"/>
<path d="M63.7864 22.7213C63.7864 22.7213 62.5797 20.676 63.2864 18.924C63.9931 17.1746 65.7624 17.2906 65.7624 17.2906C65.7624 17.2906 66.9437 17.876 66.1757 18.9786C65.4077 20.0826 63.7744 21.376 63.7864 22.7213" fill="#A38588"/>
<path d="M50.9187 117.844C50.2453 117.62 49.572 117.62 49.1227 117.169C49.3467 117.62 49.796 118.068 50.2453 118.292C49.572 118.292 49.1227 117.844 48.6733 117.62C48.4493 117.62 48.2253 117.62 48.4493 117.844C48.8987 118.068 49.1227 118.517 49.572 118.741C48.8987 118.741 48.4493 118.068 47.7747 118.068C48.2253 118.292 48.2253 118.967 48.6733 119.191C48.2253 118.967 47.7747 118.292 47.1027 118.292C47.3267 118.517 47.3267 118.967 47.3267 119.415C46.8773 118.967 47.1027 118.292 46.6533 118.068C46.6533 118.517 46.4293 118.967 45.98 119.415C45.7547 118.967 46.204 118.517 46.204 118.068C45.7547 118.517 45.3053 118.741 44.8573 119.191C44.8573 118.741 45.0813 118.292 45.5307 117.844C44.8573 117.844 44.632 118.741 43.9587 118.741C43.9587 118.292 44.632 118.068 44.632 117.62C44.184 117.844 43.7347 118.292 43.0613 118.292C43.2853 118.068 43.7347 117.62 43.9587 117.395C43.2853 117.395 42.8373 118.068 42.1627 118.068C42.388 117.62 43.2853 117.62 43.2853 116.945C42.612 116.945 42.1627 117.395 41.7147 117.62C41.9387 117.169 42.388 116.945 42.612 116.496C42.1627 117.169 41.2653 116.945 40.816 117.395C41.0413 116.72 41.7147 116.72 41.9387 116.272C41.2653 116.272 40.816 116.72 40.368 116.945C40.1427 116.945 40.1427 116.945 40.1427 116.72C40.368 116.272 41.0413 116.496 41.2653 115.823C40.592 115.823 40.1427 116.496 39.4693 116.496C39.6933 116.048 40.368 116.048 40.592 115.373C39.9173 115.599 39.4693 115.823 38.796 116.048C39.02 116.048 39.244 115.823 39.244 115.823C39.4693 115.599 39.4693 115.373 39.9173 115.148C39.244 115.373 38.796 115.599 38.1227 115.823C38.3467 115.148 39.02 115.148 39.244 114.701C38.572 114.701 38.1227 115.148 37.6733 115.373C37.448 115.373 37.448 115.373 37.448 115.148C37.6733 114.701 38.3467 114.924 38.572 114.252C37.8973 114.252 37.448 114.701 37 114.924C36.7747 114.924 36.7747 114.924 36.7747 114.701C37 114.252 37.6733 114.477 37.8973 113.803C37.224 114.028 36.7747 114.252 36.1027 114.477C36.3267 114.028 37 114.028 37.224 113.579C36.5507 113.353 36.1027 114.028 35.428 114.028C36.1027 114.028 36.1027 113.131 36.7747 113.131C36.1027 113.353 35.428 113.353 34.7547 113.803C35.204 113.353 35.6533 113.131 36.1027 112.68C35.428 112.68 34.7547 113.353 34.0813 113.353C34.5307 112.905 34.98 112.68 35.428 112.231C34.7547 112.231 34.0813 112.905 33.408 112.905C33.856 112.456 34.3053 112.231 34.7547 111.781C34.0813 111.781 33.408 112.456 32.7347 112.456C33.408 112.231 33.632 111.781 34.0813 111.333C33.408 111.781 32.5107 111.559 32.0613 112.231C32.5107 111.781 32.7347 111.333 33.408 111.108C32.7347 111.108 32.0613 111.781 31.3867 111.781C31.836 111.333 32.2853 111.108 32.7347 110.884C32.9587 110.659 32.7347 110.659 32.5107 110.659C31.836 110.884 31.3867 111.108 30.7147 111.333C31.1627 110.884 31.612 110.659 32.0613 110.435C32.2853 110.209 32.0613 110.209 31.836 110.209C31.3867 110.659 30.9387 110.884 30.2653 110.884C30.4893 110.435 31.1627 110.209 31.3867 109.761C30.9387 110.209 30.0413 110.209 29.592 110.659C29.816 110.209 30.2653 109.761 30.7147 109.537C30.0413 109.537 29.592 109.987 28.9173 110.209C29.1427 109.537 30.0413 109.761 30.2653 109.089C29.592 109.312 28.9173 109.312 28.4693 109.761C28.244 109.987 28.02 109.761 28.244 109.537C28.6933 109.312 29.1427 109.089 29.592 108.639C28.9173 108.864 28.244 109.089 27.5707 109.312C28.02 108.864 28.4693 108.416 29.1427 108.416C28.244 108.416 27.5707 108.639 26.8973 108.864C27.5707 108.639 28.02 108.416 28.4693 107.967C27.796 108.191 27.3467 107.967 26.6733 108.416C26.4493 108.416 26.4493 108.191 26.4493 108.191C27.1227 108.191 27.5707 107.741 28.244 107.516C27.5707 107.292 26.6733 107.741 26 107.741C26.6733 107.292 27.5707 107.292 28.244 107.292C27.5707 107.067 26.6733 107.067 26 106.844C26.6733 106.619 27.5707 107.067 28.244 107.067C27.796 106.395 27.1227 106.619 26.6733 106.169C27.3467 105.945 28.02 106.619 28.6933 106.619C28.244 106.169 27.796 105.945 27.3467 105.72C28.02 105.72 28.6933 106.395 29.3667 106.169C28.6933 106.169 28.6933 105.272 28.02 105.272C28.9173 105.047 29.1427 105.945 30.0413 105.945C29.592 105.497 29.1427 105.272 28.6933 104.823C29.3667 104.823 30.0413 105.497 30.7147 105.497C30.2653 105.047 29.816 104.823 29.3667 104.373C30.0413 104.373 30.7147 105.047 31.3867 105.047C30.7147 104.823 30.7147 104.373 30.2653 103.924C30.7147 104.373 31.1627 104.597 31.836 104.823C31.836 104.373 31.3867 104.148 31.1627 103.701C31.612 104.148 32.0613 104.373 32.5107 104.823C32.5107 104.373 32.5107 103.924 32.5107 103.476C32.9587 103.924 32.7347 104.373 32.9587 104.823C33.408 104.373 33.408 103.924 33.856 103.476C33.856 103.924 33.408 104.373 33.632 104.823C34.0813 104.373 34.5307 104.148 34.98 103.701C34.5307 104.148 34.3053 104.597 34.3053 105.047C34.7547 104.597 35.204 104.148 35.8773 104.148C35.8773 104.823 34.7547 104.823 34.98 105.272C35.204 105.497 35.6533 105.047 36.1027 104.597C36.3267 104.373 36.5507 104.373 36.7747 104.373C36.3267 104.597 36.1027 105.272 35.6533 105.497C36.3267 105.497 36.7747 104.823 37.448 104.823C37.224 105.047 36.7747 105.497 36.5507 105.72C37.224 105.72 37.6733 105.272 38.1227 105.047C38.1227 105.72 37 105.72 37.224 105.945C37.6733 106.395 38.3467 105.497 39.02 105.497C38.796 105.945 37.8973 105.945 37.8973 106.619C38.572 106.619 39.02 106.169 39.4693 105.945C39.244 106.169 38.796 106.619 38.572 106.844C39.244 106.619 39.6933 106.395 40.368 106.169C40.368 106.844 39.244 106.619 39.244 107.292C39.9173 107.292 40.368 106.844 40.816 106.619C41.0413 106.619 41.0413 106.619 41.0413 106.844C40.816 107.067 40.368 107.067 40.1427 107.292C39.9173 107.292 39.9173 107.741 39.9173 107.741C40.592 107.967 41.0413 107.067 41.7147 107.067C41.4893 107.516 40.816 107.516 40.592 107.967C41.2653 108.191 41.7147 107.741 42.1627 107.516C41.7147 107.741 41.7147 108.416 41.0413 108.416C41.7147 108.191 42.388 108.191 43.0613 107.967C42.388 107.967 42.388 108.864 41.7147 108.864C42.388 108.639 43.0613 108.639 43.7347 108.191C43.2853 108.639 42.8373 108.864 42.388 109.312C43.0613 109.312 43.7347 108.639 44.408 108.639C44.184 109.312 43.2853 109.089 43.0613 109.761C43.7347 109.761 44.184 109.089 44.8573 109.089C44.8573 109.312 44.632 109.312 44.632 109.537C44.408 109.761 43.9587 109.761 43.7347 109.987C44.408 110.209 44.8573 109.537 45.5307 109.537C45.3053 109.537 45.0813 109.761 45.0813 109.761C44.8573 109.987 44.8573 110.209 44.408 110.435C45.0813 110.209 45.5307 109.987 46.204 109.761C46.204 110.435 45.0813 110.209 45.0813 110.884C45.7547 110.884 46.204 110.435 46.6533 110.209C46.8773 110.209 47.1027 110.209 46.8773 110.435C46.4293 110.659 45.98 110.884 45.5307 111.333C46.204 111.108 46.6533 110.884 47.3267 110.659C47.1027 111.333 46.4293 111.333 46.204 111.781C46.8773 111.781 47.3267 110.884 48.2253 111.108C47.5507 111.108 47.5507 112.007 46.8773 112.007C47.5507 112.007 48.2253 111.559 48.8987 111.333C48.4493 111.781 48 112.007 47.5507 112.456C48.2253 112.231 48.8987 112.007 49.572 111.781C49.1227 112.231 48.4493 112.231 48.2253 112.905C48.6733 112.456 49.3467 112.456 50.02 112.231C49.572 112.68 49.1227 112.905 48.6733 113.353C49.3467 113.131 50.02 112.68 50.6933 112.68C50.2453 112.905 49.796 113.353 49.3467 113.579C50.02 113.579 50.6933 112.905 51.368 113.131C50.6933 113.131 50.4693 114.028 49.796 114.028C50.4693 113.803 51.368 113.803 52.0413 113.353C51.592 114.028 50.9187 113.803 50.4693 114.477C51.1427 114.252 51.816 114.028 52.4907 114.028C52.0413 114.252 51.368 114.477 50.9187 114.701C50.6933 114.924 50.9187 114.924 51.1427 114.924C51.816 114.477 52.2653 114.701 52.9387 114.477C52.4907 114.924 51.816 114.924 51.1427 115.148C51.816 115.148 52.7147 115.148 53.388 115.148C52.7147 115.148 52.0413 115.599 51.368 115.373C52.0413 115.823 52.7147 115.599 53.388 115.823C52.7147 115.823 51.816 115.823 51.1427 115.823C51.816 116.048 52.2653 116.272 52.9387 116.496C52.2653 116.496 51.592 116.048 50.9187 116.272C51.368 116.72 52.0413 116.496 52.2653 117.169C51.816 116.72 51.1427 116.72 50.4693 116.496C50.4693 117.169 51.592 116.945 51.592 117.62C50.9187 117.395 50.4693 116.945 49.796 116.945C50.02 116.945 50.2453 117.169 50.2453 117.169C50.4693 117.395 50.4693 117.62 50.9187 117.844" fill="#FF8C6E"/>
<path d="M29.1269 104.868C29.7735 104.868 30.4202 105.084 30.8522 105.299C30.4202 105.084 30.4202 104.437 29.7735 104.437C30.4202 104.437 31.0682 105.084 31.7149 105.084C31.4989 104.652 30.8522 104.652 30.6362 104.221C30.4202 104.005 30.6362 104.005 30.8522 104.005C31.2842 104.437 31.9309 104.437 32.1455 104.868C32.1455 104.437 31.4989 104.005 31.4989 103.575C31.9309 104.005 32.3615 104.221 32.7935 104.652C32.7935 104.221 32.7935 104.005 32.5775 103.575L32.7935 103.359C33.0082 103.791 32.7935 104.437 33.2242 104.437C33.6562 104.652 33.6562 103.791 34.0869 103.359C34.0869 103.791 33.6562 104.221 33.8722 104.652C34.0869 104.221 34.7335 104.005 35.1655 103.575C34.7335 104.005 34.5189 104.437 34.5189 104.868C34.9495 104.437 35.3815 104.005 36.0282 104.005C35.8122 104.437 35.1655 104.437 35.1655 105.084C35.8122 105.084 36.2429 104.652 36.6749 104.437C36.2429 104.652 36.2429 105.299 35.8122 105.299C36.4589 105.299 36.8895 104.652 37.5375 104.652C37.1055 105.084 36.8895 105.299 36.4589 105.729C37.1055 105.729 37.5375 105.084 38.1842 105.084C37.7535 105.299 37.7536 105.945 37.1056 105.945C37.7536 105.729 38.4002 105.729 39.0482 105.299C38.6162 105.729 38.1842 105.945 37.7535 106.377C38.4002 106.377 39.0482 105.729 39.6935 105.729C39.2629 106.161 38.8309 106.377 38.4002 106.809C39.0482 106.809 39.6935 106.161 40.3415 106.161C39.6935 106.377 39.4789 106.809 39.0482 107.24C39.4789 106.809 40.3416 107.024 40.7722 106.592C40.3416 106.809 40.3415 107.456 39.6935 107.456C40.3415 107.24 40.9882 107.24 41.6349 106.809C41.2042 107.24 40.7722 107.456 40.3415 107.887C40.9882 107.887 41.6349 107.24 42.2815 107.24C41.8509 107.672 41.4189 107.887 40.9882 108.317C41.6349 108.317 42.2815 107.672 42.9282 107.672C42.4975 108.103 42.0655 108.317 41.6349 108.751C42.2815 108.535 42.9282 108.103 43.5749 108.103C42.9282 108.103 42.9282 108.967 42.2815 108.967C42.9282 108.967 43.3602 108.535 44.0069 108.535C43.5749 108.751 43.3602 109.181 42.9282 109.397C43.5749 109.181 44.0069 108.967 44.6535 108.751C44.4389 109.397 43.7922 109.397 43.5749 109.828C44.2229 109.828 44.6535 109.397 45.0855 109.181C45.3002 109.181 45.3002 109.181 45.3002 109.397C45.0855 109.828 44.4389 109.612 44.2229 110.257C44.8695 110.257 45.3002 109.828 45.7322 109.612C45.9482 109.612 45.9482 109.612 45.9482 109.828C45.7322 110.257 45.0855 110.044 44.8695 110.691C45.5162 110.475 45.9482 110.257 46.5949 110.044C46.1629 110.257 45.9482 110.691 45.5162 110.905C46.1629 110.691 46.5949 110.475 47.2415 110.257C46.8109 110.691 46.5949 111.121 45.9482 111.337C46.5949 111.337 47.0269 110.905 47.6735 110.691C47.8882 110.691 48.1042 110.691 47.8882 110.905C47.4576 111.121 47.0269 111.337 46.5949 111.768C47.2415 111.552 47.6735 111.337 48.3202 111.121C48.5362 111.121 48.7509 111.121 48.5362 111.337C48.1042 111.552 47.6735 111.768 47.2415 112.2C47.8882 112.2 48.5362 111.552 49.1829 111.552C48.5362 111.768 48.3202 112.2 47.8882 112.632C48.5362 112.2 49.1829 112.2 49.8295 111.768C49.3989 112.2 49.1829 112.632 48.5362 112.847C49.1829 112.847 49.8295 112.2 50.4762 112.2C50.0455 112.632 49.6149 112.847 49.1829 113.063C48.9669 113.279 49.1829 113.279 49.3989 113.279C50.0455 113.063 50.4762 112.847 51.1242 112.632C50.6922 113.279 50.0455 113.279 49.6149 113.709C50.2615 113.493 50.9082 113.279 51.5549 113.063C51.3389 113.493 50.6922 113.709 50.2615 113.925C50.9082 113.925 51.5549 113.709 52.2029 113.493C51.7709 113.709 51.3389 114.141 50.6922 114.357C51.5549 114.357 52.2029 114.141 52.8495 113.925C52.2029 114.357 51.5549 114.357 50.9082 114.788C51.5549 115.004 52.4175 114.573 53.0642 114.573C52.4175 115.004 51.7709 114.788 51.1242 115.004C51.7709 115.435 52.4175 115.004 53.0642 115.435C52.4175 115.651 51.5549 115.22 50.9082 115.22C51.3389 115.651 51.9869 115.651 52.4175 116.081C51.7709 115.867 51.1242 115.651 50.4762 115.651C51.1242 115.651 51.1242 116.513 51.7709 116.513C51.1242 116.728 50.6922 115.867 50.0455 116.081C50.4762 116.297 50.6922 116.728 51.1242 116.944C50.4762 116.728 49.8295 116.728 49.3989 116.297C49.3989 116.944 50.4762 116.728 50.4762 117.375C49.8295 117.375 49.3989 116.944 48.9669 116.728C48.7509 116.728 48.7509 116.728 48.7509 116.944C48.9669 117.375 49.3989 117.375 49.8295 117.591C49.1829 117.808 48.7509 117.16 48.1042 117.16C48.5362 117.375 48.5362 118.023 49.1829 118.023C48.5362 118.023 48.1042 117.591 47.6735 117.375C47.4575 117.375 47.4575 117.375 47.4575 117.591C47.8882 117.808 48.1042 118.023 48.1042 118.455C47.6735 118.239 47.4575 117.591 47.0269 117.591C46.8109 117.375 46.8109 118.023 47.0269 118.455L46.8109 118.669C46.5949 118.239 46.5949 117.808 46.3802 117.375C46.3802 118.023 45.5162 118.023 45.7322 118.669C45.7322 118.239 45.7322 118.023 45.9482 117.591L45.7322 117.375C45.5162 117.808 44.8695 117.808 44.6535 118.455C44.6535 118.023 45.0855 117.591 45.0855 117.16C44.6535 117.591 44.2229 117.808 43.7922 118.023C43.7922 117.591 44.6536 117.375 44.4389 116.944C44.0069 116.728 43.5749 117.591 43.1442 117.808C42.9282 118.023 42.9282 117.808 42.9282 117.591C43.1442 117.16 43.7922 117.16 43.7922 116.728C43.1442 116.728 42.7135 117.16 42.2815 117.375C42.2815 116.728 43.1442 116.728 43.1442 116.297C42.4975 116.513 42.0655 116.728 41.4189 116.944C42.0655 116.944 41.8509 116.081 42.4975 116.081C41.8509 116.081 41.4189 116.513 40.9882 116.728C40.7722 116.728 40.7722 116.728 40.7722 116.513C40.9882 116.081 41.6349 116.081 41.8509 115.651C41.2042 115.651 40.7722 116.297 40.1255 116.297C40.5562 115.867 40.7722 115.651 41.2042 115.22C40.5562 115.651 39.9095 115.435 39.4789 116.081C39.6935 115.435 39.9095 115.22 40.5562 115.004C39.9095 115.004 39.4789 115.435 38.8309 115.651C38.8309 115.004 39.6935 115.004 39.9095 114.573C39.2629 114.573 38.8309 115.004 38.4002 115.22C38.1842 115.22 38.1842 115.22 38.1842 115.004C38.4002 114.573 39.2629 114.788 39.2629 114.141C38.6162 114.141 38.1842 114.788 37.5375 114.788C37.7535 114.357 38.4002 114.141 38.6162 113.709C37.9682 113.925 37.5375 114.141 36.8895 114.357C37.1055 114.357 37.3216 114.141 37.3216 114.141C37.5376 113.925 37.5375 113.709 37.9682 113.493C37.3215 113.709 36.8895 113.925 36.2429 114.141C36.4589 113.493 37.1056 113.493 37.3216 113.063C36.6749 113.063 36.2429 113.493 35.8122 113.709C35.5962 113.709 35.5962 113.709 35.5962 113.493C35.8122 113.279 36.2429 113.279 36.4589 113.063C36.6749 113.063 36.6749 112.632 36.6749 112.632C36.0282 112.416 35.5962 113.279 34.9495 113.279C35.3815 112.847 35.8122 112.632 36.2429 112.2C35.8122 112.632 34.9495 112.416 34.5189 112.847C34.9495 112.632 34.9495 111.984 35.5962 111.984C34.9495 112.2 34.3015 112.2 33.6562 112.632C34.0869 112.2 34.5189 111.984 34.9495 111.552C34.3015 111.552 33.6562 112.2 33.0082 112.2C33.4402 111.768 33.8722 111.552 34.3015 111.337C34.5189 111.121 34.3015 111.121 34.0869 111.121C33.6562 111.552 33.0082 111.337 32.5775 111.768C32.5775 111.121 33.4402 111.337 33.6562 110.905C33.8722 110.691 33.6562 110.691 33.4402 110.691C33.0082 111.121 32.5775 111.337 31.9309 111.337C32.1455 111.337 32.3615 111.121 32.3615 111.121C32.5775 110.905 32.5775 110.691 33.0082 110.475C32.3615 110.475 31.7149 110.691 31.2842 111.121C31.4989 110.691 32.1455 110.475 32.5775 110.044C31.9309 110.257 31.2842 110.257 30.8522 110.691C30.6362 110.905 30.4202 110.691 30.6362 110.475C31.0682 110.257 31.4989 110.044 31.9309 109.612C31.2842 109.828 30.6362 110.044 29.9895 110.257C30.4202 109.828 30.8522 109.612 31.2842 109.397C31.4989 109.181 31.2842 109.181 31.0682 109.181C30.6362 109.612 29.9895 109.828 29.3429 109.828C29.9895 109.828 30.2055 108.751 30.8522 108.967C30.2055 108.751 29.5575 109.612 28.9109 109.397C29.5575 109.397 29.5576 108.535 30.2056 108.535C29.5576 108.317 28.9109 108.967 28.2642 108.967C28.6949 108.535 29.3429 108.535 29.7735 108.103C29.1269 108.317 28.4802 108.535 27.6175 108.535C28.2642 108.317 28.6949 107.887 29.3429 107.672C28.6949 107.887 28.0482 108.103 27.1855 108.103C27.8322 107.887 28.2642 107.672 28.9109 107.456C28.2642 107.456 27.4015 107.456 26.7549 107.456C27.6175 107.456 28.2642 107.24 28.9109 107.024C28.2642 107.24 27.4015 106.809 26.7549 106.809C27.4015 106.809 28.2642 106.809 28.9109 106.809C28.4802 106.377 27.8322 106.377 27.1855 106.161C27.8322 106.161 28.6949 106.592 29.3429 106.377C28.6949 106.377 28.2642 105.945 27.8322 105.515C28.4802 105.945 29.1269 105.945 29.7735 106.161C29.3429 105.729 28.9109 105.515 28.4802 105.084C29.1269 105.299 29.7735 105.515 30.4202 105.729C29.9895 105.515 29.7735 104.868 29.1269 104.868" fill="#FFBFAE"/>
<path d="M45.294 117.04L29.5127 107.928L34.742 104.911L50.5234 114.021L45.294 117.04Z" fill="#FF7133"/>
<path d="M38.4455 107.061L46.8495 111.915L41.5895 114.952L33.1855 110.099L33.4335 109.761C34.1242 108.82 34.9376 108.061 35.7722 107.581L35.7975 107.565C36.5322 107.141 37.2549 106.949 37.8909 107.009L38.4455 107.061" fill="#FF3C08"/>
<path d="M41.8069 109.003L43.6749 110.083L38.4135 113.119L36.5469 112.04L36.7949 111.701C37.4855 110.761 38.3002 110.003 39.1335 109.521L39.1589 109.507C39.8935 109.083 40.6175 108.891 41.2535 108.951L41.8069 109.003" fill="#FF8C6E"/>
<path d="M41.8069 109.003L38.2389 111.064L36.5469 112.04L36.7949 111.701C37.4855 110.761 38.3002 110.003 39.1335 109.521L39.1589 109.507C39.8935 109.083 40.6175 108.891 41.2535 108.951L41.8069 109.003" fill="#FF3C08"/>
<path d="M40.014 111.403L39.062 110.853C38.9447 110.785 38.874 110.661 38.874 110.528V110.173C38.874 109.883 39.1874 109.701 39.4367 109.848L40.546 110.487C40.726 110.592 40.7874 110.823 40.682 111.003L40.526 111.267C40.4207 111.445 40.1927 111.505 40.014 111.403" fill="#FF716E"/>
<path d="M43.6744 110.083L38.4131 113.119L38.6624 112.78C39.3531 111.841 40.1678 111.081 41.0011 110.599L41.0251 110.587C41.7611 110.16 42.4838 109.968 43.1211 110.029L43.6744 110.083" fill="#FF3C08"/>
<path d="M46.8499 111.915L41.5898 114.952L41.8379 114.613C42.5285 113.673 43.3432 112.915 44.1778 112.432L44.2019 112.419C45.5139 111.585 45.8245 111.685 46.2965 111.863L46.8499 111.915" fill="#FF5A2E"/>
<path d="M93.7979 107.333C93.7686 107.409 93.6926 107.605 93.5859 107.864C93.6619 107.62 93.7526 107.409 93.7979 107.333Z" fill="#6CB3C4"/>
<path d="M100.122 103.355C99.7415 104.611 98.7669 108.673 98.8722 109.621C98.9602 110.419 98.9255 112.339 97.1709 113.353C95.4162 114.352 91.8015 114.035 91.8015 114.035C91.8015 114.035 91.5749 113.732 91.3935 113.337C91.1962 112.855 91.0749 112.204 91.5442 111.735C92.0735 111.205 92.8295 109.617 93.3135 108.483C93.4042 108.271 93.4949 108.075 93.5709 107.909C93.4949 108.104 93.4495 108.347 93.4495 108.559C93.4495 108.936 93.6309 109.269 94.1909 109.269C94.1909 109.269 96.5429 110.132 97.1775 107.864C97.7975 105.593 98.1389 101.237 98.1389 101.237C98.1389 101.237 99.1669 101.615 99.7575 102.221V102.236C100.06 102.553 100.242 102.931 100.122 103.355" fill="#9DBDC4"/>
<path d="M99.7575 102.221V102.236C99.7882 102.387 99.7882 102.539 99.7415 102.704C99.3642 103.945 98.5082 108.2 98.5082 108.991C98.5082 110.596 98.5482 111.675 96.7935 112.688C95.0389 113.701 91.4229 113.368 91.4229 113.368L91.3935 113.337C91.1962 112.855 91.0749 112.204 91.5442 111.735C92.0735 111.205 92.8295 109.617 93.3135 108.483L93.4495 108.559C93.4495 108.936 93.6309 109.269 94.1909 109.269C94.1909 109.269 96.0375 109.151 96.9975 106.999C97.9295 104.911 98.1389 101.237 98.1389 101.237C98.1389 101.237 99.1669 101.615 99.7575 102.221" fill="#6CB3C4"/>
<path d="M109.403 109.125C109.46 109.371 109.727 109.68 110.034 109.859L117.063 113.917C117.464 114.148 117.767 114.061 117.694 113.737L117.175 111.543C117.119 111.299 116.851 110.988 116.544 110.812L109.515 106.755C109.114 106.523 108.812 106.609 108.884 106.932L109.403 109.125ZM118.916 110.596L123.735 131.009L121.514 129.728L121.078 127.904C120.998 127.571 120.639 127.157 120.227 126.928C118.744 126.103 115.351 124.107 113.691 123.129C113.172 122.821 112.77 122.912 112.839 123.316C112.952 123.993 113.122 124.883 113.122 124.883L110.748 123.512L106.064 103.096L118.916 110.596" fill="#FFBFAE"/>
<path d="M109.403 109.492C109.46 109.739 109.727 110.048 110.034 110.225L117.063 114.284C117.464 114.516 117.767 114.428 117.694 114.105L117.175 111.912C117.119 111.665 116.851 111.356 116.544 111.179L109.515 107.121C109.114 106.889 108.812 106.976 108.884 107.299L109.403 109.492ZM118.916 110.965L123.735 131.376L121.514 130.093L121.078 128.271C120.998 127.937 120.639 127.527 120.227 127.296C118.744 126.471 115.351 124.476 113.691 123.496C113.172 123.191 112.77 123.279 112.839 123.684C112.952 124.36 113.122 125.251 113.122 125.251L110.748 123.88L106.064 103.464L118.916 110.965" fill="#FFAE30"/>
<path d="M115.593 115.693L115.159 115.443L108.566 111.632C108.159 111.4 107.855 110.8 107.934 110.387L108.449 107.603C108.494 107.365 108.655 107.256 108.862 107.293L109.081 107.369L116.107 111.425C116.514 111.657 116.817 112.257 116.741 112.676L116.223 115.455C116.166 115.771 115.902 115.868 115.593 115.693V115.693ZM106.702 103.464L101.893 129.333L103.473 130.251L104.11 130.617L104.549 128.309C104.607 128.005 104.814 127.852 105.083 127.891L105.399 128.013C106.882 128.916 110.274 130.816 111.937 131.745C112.453 132.029 112.859 132.791 112.789 133.344C112.671 134.272 112.503 135.46 112.503 135.46L114.238 136.464L119.047 110.593L106.702 103.464Z" fill="#FF884D"/>
<path d="M114.947 115.371L107.92 111.309C107.514 111.077 107.211 110.479 107.288 110.065L107.804 107.28C107.863 106.964 108.127 106.868 108.436 107.048L108.862 107.293L115.463 111.103C115.868 111.335 116.172 111.935 116.095 112.355L115.579 115.133C115.534 115.371 115.372 115.487 115.159 115.443L114.947 115.371ZM106.702 103.464L106.064 103.096L101.247 129.012L103.466 130.295L103.472 130.251L103.904 127.987C103.982 127.568 104.342 127.439 104.755 127.692L105.083 127.891C106.695 128.852 109.744 130.56 111.292 131.423C111.807 131.705 112.214 132.468 112.143 133.023C112.027 133.951 111.859 135.137 111.859 135.137L114.231 136.509L114.238 136.464L119.047 110.593L106.702 103.464" fill="#FFBE59"/>
<path d="M114.228 136.831L114.168 136.825C113.993 136.793 113.879 136.625 113.909 136.451L118.732 110.544C118.76 110.393 118.889 110.284 119.041 110.281C119.279 110.313 119.428 110.409 119.363 110.529L124.185 130.944C124.225 131.117 124.119 131.291 123.945 131.331C123.769 131.371 123.597 131.265 123.557 131.091L119.087 112.164L114.545 136.568C114.516 136.723 114.381 136.831 114.228 136.831" fill="#FFCE83"/>
<path d="M109.889 117.915C109.678 118.353 109.057 118.443 108.502 118.115C107.946 117.788 107.667 117.168 107.878 116.728C108.09 116.291 108.711 116.201 109.266 116.528C109.822 116.856 110.101 117.477 109.889 117.915Z" fill="#331A1C"/>
<path d="M112.66 125.603C112.497 125.603 112.357 125.493 112.319 125.336L111.723 122.919L109.837 121.868L110.509 123.553L108.463 125.025L108.256 125.091L107.969 124.943C107.855 124.787 107.892 124.565 108.049 124.451L109.649 123.303L108.785 121.132L108.643 119.423L107.421 119.579L107.753 120.957C107.799 121.145 107.683 121.336 107.495 121.383L107.411 121.392C107.247 121.392 107.107 121.283 107.069 121.123L106.551 118.98L108.581 118.717L108.521 118.037C108.504 117.844 108.648 117.672 108.841 117.653H108.844C109.056 117.653 109.207 117.792 109.223 117.976L109.297 118.812L111.123 119.889L112.127 119.364L112.289 119.324C112.421 119.324 112.543 119.396 112.603 119.513L112.628 119.78L112.453 119.988L111.103 120.696L109.375 119.676L109.477 120.861L112.333 122.451L113.003 125.165C113.049 125.355 112.933 125.545 112.745 125.591L112.66 125.603" fill="#331A1C"/>
<path d="M59.6534 52.5507C59.6534 52.5507 56.7547 54.5934 57.8894 56.7881C59.0227 58.9787 69.016 61.3694 69.608 61.3694C70.2014 61.3694 77.092 60.4667 74.5907 59.8627C64.38 57.3974 63.8134 51.2921 59.6534 52.5507Z" fill="#FFBE9E"/>
<path d="M84.9043 54.6973L82.8976 57.6013C82.6043 59.008 81.2576 59.9346 79.8403 59.7053L77.679 59.36C77.679 59.36 76.1656 56.876 78.3083 55.7226C80.4523 54.5693 82.0256 54.2306 82.3749 53.7706C82.7229 53.3106 84.9043 54.6973 84.9043 54.6973" fill="#FF5D0D"/>
<path d="M40.7159 110.941L39.5039 110.037L88.1399 44.9094L89.3519 45.8121L40.7159 110.941Z" fill="#9DBDC4"/>
<path d="M83.1407 32.0627L83.026 32.1933C82.5247 32.7827 80.6327 35.2507 82.3834 37.0027C84.3874 39.0053 84.8487 38.7907 87.0554 40.064C89.2634 41.34 90.1087 42.72 90.1087 42.72C90.1087 42.72 88.7767 42.7133 87.8954 45.3627C87.0127 48.008 86.454 49.892 85.854 50.2373C85.2567 50.584 86.6287 51.7933 86.6287 51.7933C86.6287 51.7933 95.606 46.1053 95.606 43.0013C95.606 39.8973 87.2674 31.3013 83.1407 32.0627" fill="#FFBE9E"/>
<path d="M86.8615 46.2413L82.4322 52.1733C82.4322 52.1733 80.8829 52.4226 80.8829 53.5066C80.8829 54.5893 79.9482 55.2613 79.9482 55.2613C79.9482 55.2613 78.1149 57.1386 78.5695 57.5933C79.0255 58.0493 79.1909 57.972 79.1909 57.972L84.2442 55.364L90.1389 49.4C90.1389 49.4 91.7709 48.656 89.1309 47.132C86.4909 45.6066 86.8615 46.2413 86.8615 46.2413" fill="#FF7133"/>
<path d="M75.4082 59.3987L77.9176 61.8174C77.9176 61.8174 79.0549 62.6361 78.3256 63.3667C77.5949 64.0947 76.8296 63.5654 76.8296 63.5654C76.8296 63.5654 77.1016 64.2427 76.3376 64.6747C75.6296 65.0747 75.0629 64.4814 75.0629 64.4814C75.0629 64.4814 75.6082 65.1574 74.8576 65.4454C74.4989 65.5841 73.8269 65.3921 73.8269 65.3921C73.8269 65.3921 73.8829 65.9121 73.0442 65.6934C72.2069 65.4761 71.4602 64.8801 71.2696 64.0921C71.0789 63.3054 70.6456 62.9521 70.6456 62.9521L64.9482 60.6067C64.9482 60.6067 63.6789 58.8427 64.5776 56.8227C65.3856 55.0081 67.2376 55.9841 67.2376 55.9841L75.4082 59.3987" fill="#FF7133"/>
<path d="M79.8506 33.9013C79.8506 33.9013 81.1839 30.2266 84.5679 31.3066C87.9519 32.384 92.2999 36.3546 92.2999 36.3546C92.2999 36.3546 92.5173 38.7546 91.2186 40.052C89.9213 41.3493 87.7173 42.028 87.7173 42.028C87.7173 42.028 79.8506 39.1986 79.8506 33.9013" fill="#3BAAC4"/>
<path d="M66.3815 34.3867C66.3815 34.3867 63.7415 34.5827 62.1162 39.4681C60.4895 44.3534 59.5908 45.3627 59.5908 45.3627C59.5908 45.3627 59.9988 47.3947 62.1642 48.6454C64.3295 49.8947 65.6348 50.6467 65.6348 50.6467L67.1308 45.9281L66.7962 34.3867H66.3815" fill="#3BAAC4"/>
</g>
<defs>
<clipPath id="clip0">
<rect width="150" height="150" fill="white"/>
</clipPath>
</defs>
</svg>
