<svg width="150" height="150" viewBox="0 0 150 150" fill="none" xmlns="http://www.w3.org/2000/svg">
<g clip-path="url(#clip0)">
<ellipse cx="78.4077" cy="78.7245" rx="49.5488" ry="71.7058" transform="rotate(9.22935 78.4077 78.7245)" fill="#EAEAEA"/>
<path d="M86.1961 22.122C86.1961 22.122 86.6415 22.01 87.1068 21.0807C87.5721 20.1513 89.5761 18.6207 91.5455 19.086C93.5148 19.5513 95.7135 22.1087 95.3855 25.5499C95.0575 28.99 93.8668 32.6088 94.4388 32.6088C95.0108 32.6088 94.6881 33.5593 93.0415 32.6088C91.3948 31.6608 93.7695 27.2181 89.8348 24.7993C85.8975 22.382 85.8975 22.122 85.8975 22.122H86.1961" fill="black"/>
<path d="M63.0461 60.6061L59.0168 60.7446C59.0168 60.7446 58.2808 61.2821 58.4354 62.8312C58.5928 64.3832 58.7328 65.4488 59.5541 65.7941C60.3754 66.1394 63.3808 63.0645 63.3808 63.0645L63.1554 60.3473L63.0461 60.6061" fill="#D2E1F7"/>
<path d="M79.0671 38.0165C83.5298 37.5899 76.7911 46.9181 75.7458 50.0473C74.6991 53.1727 75.2178 52.6873 74.1724 55.8139C73.1271 58.9421 69.4338 59.5525 66.4898 61.3566C63.5444 63.1618 59.4804 64.4821 59.4804 64.4821L57.2871 61.9061C57.2871 61.9061 62.8871 61.3191 64.5831 58.8686C66.5471 56.0353 70.6311 55.343 70.6311 55.343C70.6311 55.343 74.0458 44.5446 74.6538 43.0727C75.6911 40.5607 76.4724 38.2659 79.0671 38.0165Z" fill="#FFF1D9"/>
<path d="M61.4414 63.0327C61.4414 63.0327 60.9388 61.3113 59.4508 60.6671C57.9641 60.0249 56.1041 60.9739 56.1041 60.9739C56.1041 60.9739 55.0028 62.3712 56.3241 64.5619C56.5548 64.9447 59.5588 65.0671 60.3414 64.7275C60.6134 64.6113 61.4414 63.0327 61.4414 63.0327" fill="#FFF1D9"/>
<path d="M59.7991 60.4431V59.5061L56.0404 61.0712L55.0444 62.3739L54.6084 64.2004C54.6084 64.2004 55.3884 64.3473 55.5577 63.7379C55.7271 63.126 55.8871 62.6327 55.8871 62.6327L56.6031 61.9155L58.5191 61.4405L59.7991 60.4431" fill="#FFF1D9"/>
<path d="M56.6683 62.7061L56.5683 62.7405L54.1923 63.5473L53.1576 64.9978L52.751 66.9951C52.751 66.9951 53.6043 67.1274 53.7643 66.4577C53.927 65.7899 54.083 65.2457 54.083 65.2457L54.835 64.4421L56.8963 63.855L56.6683 62.7061" fill="#FFF1D9"/>
<path d="M57.0553 63.7992L56.97 63.8232L54.9619 64.3336L54.0206 65.4634L53.5566 67.082C53.5566 67.082 54.2499 67.2446 54.4259 66.7044C54.6006 66.1634 54.7646 65.7259 54.7646 65.7259L55.4353 65.1112L57.1686 64.7607L57.0553 63.7992" fill="#FFF1D9"/>
<path d="M56.9511 64.4577L56.8924 64.4764L55.5057 64.8941L54.8817 65.7113L54.6084 66.8551C54.6084 66.8551 55.0964 66.9473 55.2031 66.566C55.3097 66.1832 55.4111 65.8739 55.4111 65.8739L55.859 65.4249L57.6804 65.0499L56.9511 64.4577Z" fill="#FFF1D9"/>
<path d="M80.7266 38.0421C80.7266 38.0421 76.9093 35.3097 74.3493 42.0941C71.788 48.8806 69.7053 55.1791 69.7053 55.1791C69.7053 55.1791 66.5799 55.49 63.3693 57.8165C60.1599 60.143 59.2666 60.8498 59.2666 60.8498C59.2666 60.8498 61.0773 60.4405 61.2653 62.5806C61.3973 64.0754 60.0693 65.7285 60.0693 65.7285C60.0693 65.7285 72.2786 61.8738 74.5346 58.155C76.7906 54.4353 85.1719 41.2113 80.7266 38.0421" fill="#79C7D3"/>
<path d="M89.2066 37.5301C89.2066 37.5301 91.0253 39.3487 93.9093 40.7154C96.9693 42.1645 97.4706 42.155 96.9399 47.9926C96.4106 53.8285 91.5573 59.2821 91.5573 63.3071C91.5573 64.1061 93.3026 67.0754 94.3626 68.8191C95.4239 70.5618 95.1213 77.9915 95.1213 77.9915C95.1213 77.9915 97.3199 78.7738 90.3453 77.1061C83.3693 75.4394 71.632 72.4915 75.256 66.1883C76.26 64.4446 77.8133 63.7123 77.3586 61.2858C76.9039 58.8593 74.9613 53.5337 77.0799 50.1233C80.1906 45.1165 77.2906 37.6061 79.6533 36.2405C82.0199 34.8763 83.8106 36.9978 85.524 37.5301C87.236 38.0593 89.2066 37.5301 89.2066 37.5301Z" fill="#FF9E6E"/>
<path d="M80.5501 50.8915C80.5501 52.9857 78.8527 54.682 76.7594 54.682C74.6661 54.682 72.9688 52.9857 72.9688 50.8915C72.9688 48.7992 76.3074 45.5659 76.3074 45.5659C76.3074 45.5659 80.5501 48.7992 80.5501 50.8915" fill="#FEB30F"/>
<path d="M88.8287 53.3754C88.8287 57.0916 85.8821 59.554 83.7901 59.554C81.6954 59.554 79.998 57.8566 79.998 55.7634C79.998 53.6702 81.6954 51.9728 83.7901 51.9728C85.8821 51.9728 88.8287 51.2806 88.8287 53.3754" fill="#FEB30F"/>
<path d="M85.2657 71.7216C84.3564 68.8128 75.4844 66.9456 75.4844 66.9456C75.4844 66.9456 73.8164 68.1915 73.059 76.9325C72.3004 85.6727 74.159 97.0071 75.6364 98.4857C77.1164 99.9644 77.9857 106.978 77.9857 110.123C77.9857 113.27 77.607 116.175 76.395 117.755C75.183 119.334 73.259 121.503 72.8324 121.933C72.4044 122.361 72.3831 125.119 73.2111 125.599C74.0364 126.075 77.4604 124.1 78.5191 123.043C79.5764 121.986 81.191 118.862 82.099 118.862C83.0097 118.862 81.9297 116.466 81.9297 114.186C81.9297 111.906 84.2857 105.916 83.6377 103.035C82.991 100.154 82.1577 100.071 81.8537 96.3087C81.5497 92.5472 82.7257 78.2325 82.7257 78.2325L85.2657 71.7216Z" fill="#F4DEBE"/>
<path d="M86.858 120.621C86.858 120.621 85.5313 123.543 83.7487 125.326C81.9673 127.107 81.1033 128.919 81.866 129.361C83.4647 130.282 82.4887 129.902 84.5353 129.902C86.582 129.902 88.602 127.638 89.2073 126.424C89.5407 125.759 90.49 124.806 91.2793 124.081C91.962 123.454 92.1927 122.483 91.882 121.611C91.5887 120.791 91.2967 119.755 91.2967 118.902C91.2967 117.885 90.9727 115.688 92.034 112.75C93.0953 109.81 94.382 104.962 91.6353 97.879C89.6633 92.7993 96.79 78.7951 95.122 75.8284C93.454 72.8607 81.7074 66.2003 82.158 73.7754C82.158 73.7754 82.9153 96.0993 84.6593 99.8128C86.4033 103.527 86.526 105.388 86.6767 107.437C86.8287 109.483 86.858 120.621 86.858 120.621" fill="#FFF1D9"/>
<path d="M92.0514 122.218C92.0514 122.218 92.3168 123.354 92.3168 124.093C92.3168 124.831 91.8808 125.552 91.8808 125.552L90.7248 126.221L90.4034 126.026C90.4034 126.026 87.4528 129.914 85.9874 130.483C84.5248 131.051 82.0554 131.662 80.5594 130.798C79.0634 129.935 81.0874 128.207 81.4181 128.016C81.7474 127.827 86.1661 127.733 86.1661 127.733L92.0514 122.218Z" fill="#506589"/>
<path d="M82.93 116.985C82.93 116.985 83.1953 118.122 83.1953 118.862C83.1953 119.6 82.7593 120.323 82.7593 120.323L81.6033 120.99L81.282 120.795C81.282 120.795 78.7833 124.23 77.4247 125.021C76.106 125.788 73.4407 126.535 71.9447 125.67C70.4473 124.807 72.2966 122.785 72.626 122.595C72.9566 122.405 77.0447 122.5 77.0447 122.5L82.93 116.985" fill="#506589"/>
<path d="M83.1686 125.942C83.1686 125.942 82.4419 126.676 83.9766 127.221C86.9713 128.282 90.2406 122.971 90.9699 121.591C91.4819 120.623 91.558 120.309 91.558 120.309C91.558 120.309 92.6379 121.678 92.2219 123.354C91.8033 125.028 90.7166 125.122 89.5486 126.766C88.1379 128.751 85.8513 131.286 81.5606 130.718C79.3353 130.422 81.1019 128.246 81.6273 127.721C82.1499 127.195 83.1686 125.942 83.1686 125.942" fill="#5CA9C2"/>
<path d="M74.4323 120.143C74.4323 120.143 73.1163 121.819 74.7069 122.159C76.3003 122.5 80.2896 119.049 81.0203 117.667C81.531 116.7 82.0203 115.529 82.0203 115.529C82.0203 115.529 83.539 117.015 83.123 118.692C82.7056 120.367 81.6176 119.663 80.4509 121.307C79.0403 123.293 77.1229 126.166 72.8323 125.599C70.6056 125.304 71.2389 123.922 73.0043 121.754C73.4709 121.176 74.4323 120.143 74.4323 120.143" fill="#5CA9C2"/>
<path d="M75.7485 63.1645C75.2419 64.7703 77.0965 65.8619 80.1579 67.6285C84.2592 69.9952 88.0885 70.6327 90.6352 69.1619C91.9685 68.3916 93.5072 67.6369 92.8925 66.3097C92.8925 66.3097 95.1552 69.3285 95.9045 72.0004C96.5418 74.2764 95.5258 96.8927 95.1618 98.8275C95.1618 98.8275 92.7605 107.349 84.5512 104.746C76.3419 102.142 74.9992 100.466 74.1832 98.6072C73.3659 96.7473 71.9699 69.9036 74.5205 66.4207C76.0205 64.3712 75.7485 63.1645 75.7485 63.1645Z" fill="#FEB516"/>
<path d="M79.9976 49.7326C79.9976 49.7326 85.1203 45.478 87.935 42.8858C90.7496 40.2952 90.1936 38.4728 90.1936 38.4728L96.795 41.6244C96.795 41.6244 97.7976 47.4993 96.3056 51.0353C94.815 54.567 90.8643 62.2926 92.7323 64.1618C94.599 66.0274 97.6043 76.2181 97.6043 82.6884C97.6043 89.1566 95.1616 99.6217 95.1616 99.6217C95.1616 99.6217 93.3856 106.269 88.8283 105.505C84.2696 104.743 77.6816 102.581 77.6816 102.581C77.6816 102.581 77.683 72.9686 78.903 69.255C80.1256 65.5405 79.9976 49.7326 79.9976 49.7326Z" fill="#3BAAC4"/>
<path d="M80.7538 42.8858C79.9551 44.5764 80.0138 50.3326 80.0138 50.3326C80.0138 50.3326 81.7244 63.2858 80.4644 65.6217C79.2031 67.9608 78.1218 103.052 78.1218 103.052C78.1218 103.052 72.9697 99.5369 71.7591 98.326C70.5484 97.1154 71.9204 68.1165 75.5458 64.4941C78.3831 61.6566 75.3898 55.7421 74.5404 54.8916C73.6911 54.043 70.5258 51.4993 75.1484 46.1993C77.7924 43.1702 76.9244 36.99 79.6538 36.2405C82.3844 35.4941 84.0324 38.9728 84.0324 38.9728C84.0324 38.9728 81.2498 41.8369 80.7538 42.8858" fill="#0AA1C4"/>
<path d="M78.1201 42.0473L80.0134 41.49L78.1201 40.6206L83.6081 36.1353L86.1094 37.5806C86.1094 37.5806 83.2281 38.1728 81.4895 41.814C79.7521 45.455 80.0134 50.3326 80.0134 50.3326L78.1201 42.0473" fill="#79C7D3"/>
<path d="M80.7539 37.7754C80.7539 37.7754 82.8019 40.6192 82.8019 41.4728C82.8019 42.326 82.0059 42.4952 82.4046 43.69C82.8019 44.8848 86.9712 43.9645 88.8672 41.3832C90.7619 38.7993 90.1939 38.4728 90.1939 38.4728C90.1939 38.4728 88.7726 36.4686 88.7726 34.6488C88.7726 32.8285 80.7539 37.7754 80.7539 37.7754" fill="#F4DEBE"/>
<path d="M93.1523 28.4405C93.1523 24.543 89.9936 21.3846 86.0962 21.3846C83.2589 21.3846 80.8136 23.0566 79.6922 25.4711V25.4727C79.6922 25.4727 78.4043 27.779 78.4043 28.9951C78.4043 30.2113 78.9336 29.6301 78.6683 30.7926C78.4043 31.955 77.6109 32.4847 78.6163 34.4941C79.6203 36.5019 79.9109 38.2019 80.1123 38.4045C80.3163 38.6071 79.8843 39.355 83.3203 38.7217C86.7563 38.0873 89.1349 36.3951 90.1922 35.3378C90.7176 34.8139 91.2176 33.7806 91.5843 32.8727C92.5656 31.6618 93.1523 30.1191 93.1523 28.4405" fill="#FFF1D9"/>
<path d="M79.3447 50.3326L89.8247 44.2446L88.4821 42.4728L90.6501 43.7088C90.6501 43.7088 92.9807 40.8088 92.3167 39.226C91.6541 37.6462 89.8247 36.1353 89.8247 36.1353C89.8247 36.1353 89.6927 37.4312 89.0287 38.9728C86.11 45.7738 79.3447 50.3326 79.3447 50.3326Z" fill="#79C7D3"/>
<path d="M82.6354 23.2337C82.6354 23.6993 80.83 25.9312 83.246 27.326C85.6607 28.7181 85.4434 28.066 86.374 29.4978C87.3034 30.9301 86.818 34.4848 86.818 34.4848C86.818 34.4848 88.0567 30.6088 89.654 31.5712C91.2487 32.5326 89.17 36.5249 89.17 36.5249C89.17 36.5249 94.2567 33.1832 93.606 28.5337C92.9567 23.8848 92.0247 23.1274 90.274 22.1166C88.5247 21.1073 83.8447 19.6073 81.0554 22.3953C77.7647 25.6873 78.9034 27.5097 78.9034 27.5097L82.6354 23.2337Z" fill="#253538"/>
<path d="M89.0681 30.967C89.0828 30.9284 89.6442 29.7582 90.1788 30.1336C90.7135 30.5096 91.0615 31.2205 90.8735 32.1831C90.6855 33.1472 90.1762 34.3284 89.5215 34.3112C88.8642 34.294 88.6628 34.3806 88.3135 33.8686C87.9655 33.3566 88.1815 32.7711 88.1815 32.7711L89.0681 30.967" fill="#FFEAE1"/>
<path d="M88.8017 31.0566C88.8177 31.018 89.3777 29.8472 89.9124 30.2232C90.447 30.6003 90.795 31.3112 90.607 32.2738C90.4177 33.2352 89.9097 34.4164 89.2537 34.3992C88.5977 34.3831 88.3977 34.4702 88.047 33.9576C87.6977 33.443 87.9137 32.8592 87.9137 32.8592L88.8017 31.0566" fill="#FFF1D9"/>
<path d="M89.3108 31.3566C89.3108 31.3566 89.5108 31.9369 89.5828 32.1873C89.6575 32.4405 89.7295 32.8539 89.5921 33.0514C89.4548 33.2498 89.3281 33.3806 89.3281 33.3806C89.3281 33.3806 89.3695 32.3702 89.2908 31.9858C89.2095 31.6019 89.1868 31.2618 89.3575 30.9821C89.5282 30.7019 89.6695 30.3394 89.9268 30.6763C90.1828 31.0113 90.3922 31.3831 90.3215 31.9899C90.2508 32.5978 90.0468 33.2394 89.7628 33.5123C89.4801 33.7873 89.1055 33.9139 89.1055 33.9139C89.1055 33.9139 89.8575 33.6071 90.0121 32.9154C90.1681 32.2217 90.2468 31.1498 90.0375 30.9618C89.8308 30.7738 89.8015 30.7353 89.7748 30.9967C89.7495 31.2566 89.8908 31.6514 89.7041 31.5191C89.5201 31.3883 89.5042 31.0249 89.3882 31.1711C89.2722 31.3181 89.3108 31.3566 89.3108 31.3566" fill="#E5AC7F"/>
<path d="M89.1459 32.5096L88.9419 31.9539C88.8232 31.9711 88.7992 31.9727 88.7206 32.1618C88.6406 32.3524 88.6272 32.4248 88.4499 32.3702C88.2712 32.3139 88.1499 32.1582 88.3005 32.418C88.4512 32.6779 88.4992 32.406 88.7539 32.5872C89.0112 32.7686 88.9192 33.0112 89.0952 33.0311C89.2699 33.0514 89.1752 32.6607 89.1219 32.5487L89.1459 32.5096" fill="#E5AC7F"/>
<path d="M51.332 68.0992L53.296 85.2702V85.3394C53.296 85.8191 53.6107 86.291 54.24 86.6487L67.3307 93.9872C67.8547 94.2831 68.5267 94.467 69.2174 94.5096C70.1694 94.5806 71.1654 94.406 71.8987 93.9872L80.1867 89.2003C80.6761 88.9216 80.9707 88.5727 81.084 88.206V88.1872L81.1294 87.7951L83.1027 70.4071L69.2174 71.5249L51.332 68.0992" fill="#FF7D3D"/>
<path d="M51.332 68.0992L53.296 85.2702V85.3394C53.296 85.8191 53.6107 86.291 54.24 86.6487L67.3307 93.9872C67.8547 94.2831 68.5267 94.467 69.2174 94.5096V71.5248L51.332 68.0992" fill="#F46E34"/>
<path d="M72.1148 77.8301L82.6441 71.7514C84.2468 70.8274 84.7028 67.2821 83.1028 66.3593L68.1041 60.2284C66.5041 59.306 63.9094 59.306 62.3081 60.2284L50.8241 64.506C49.2228 65.4311 50.1801 68.73 51.7788 69.655L66.3214 77.8301C67.9214 78.7525 70.5161 78.7525 72.1148 77.8301" fill="#FF9E6E"/>
<path d="M69.471 75.402C68.4537 75.402 67.5057 75.1764 66.7964 74.767L52.2497 66.5916C51.6244 66.2285 51.2764 65.7728 51.2764 65.3045C51.2764 64.8369 51.6244 64.3806 52.2537 64.0165L62.7857 57.9378C63.4924 57.5285 64.4417 57.3045 65.459 57.3045C66.4763 57.3045 67.427 57.5285 68.135 57.9378L82.6817 66.114C83.3057 66.4764 83.655 66.9353 83.655 67.402C83.655 67.8686 83.3057 68.326 82.6764 68.69L72.147 74.767C71.439 75.1764 70.4897 75.402 69.471 75.402" fill="#FF5D0D"/>
<path d="M82.4554 68.3044C82.9274 68.0326 83.2114 67.694 83.2114 67.4003C83.2114 67.1087 82.9274 66.7702 82.4554 66.4951L67.922 58.3274C67.282 57.9566 66.3873 57.7472 65.4593 57.7472C64.5313 57.7472 63.638 57.9566 63.006 58.3206L52.4767 64.3992C52.0034 64.6727 51.7207 65.0112 51.7207 65.3044C51.7207 65.5978 52.0034 65.9352 52.4767 66.2087L67.01 74.3806C67.65 74.7498 68.5447 74.9576 69.4714 74.9576C70.3994 74.9576 71.2954 74.7498 71.9247 74.3847L82.4554 68.3044" fill="#FF5D0D"/>
<path d="M67.0094 74.3806L52.476 66.2088C52.0027 65.9353 51.7201 65.5978 51.7201 65.3045C51.7201 65.0113 52.0027 64.6728 52.476 64.3993L63.0054 58.3206C63.6374 57.9566 64.5307 57.7473 65.4587 57.7473C66.3867 57.7473 67.2814 57.9566 67.9214 58.3274L82.4547 66.4952C82.9267 66.7702 83.2107 67.1088 83.2107 67.4004C83.2107 67.6941 82.9267 68.0326 82.4547 68.3045L71.9241 74.3848C71.2947 74.7498 70.3987 74.9577 69.4707 74.9577C68.544 74.9577 67.6494 74.7498 67.0094 74.3806V74.3806ZM82.8987 65.7285L68.3574 57.5514C67.5574 57.0916 66.508 56.8593 65.4587 56.8593C64.412 56.8593 63.3614 57.0916 62.5627 57.5514L52.032 63.6312C50.432 64.554 50.432 66.0525 52.032 66.978L66.5747 75.154C67.3747 75.6154 68.4214 75.8457 69.4707 75.8457C70.5214 75.8457 71.5694 75.6154 72.368 75.154L82.8987 69.0738C84.4974 68.1498 84.4974 66.6525 82.8987 65.7285" fill="#FFCCB3"/>
<path d="M59.1793 68.7285L57.4833 72.2634C56.9673 72.5618 54.7859 70.8764 54.7353 70.3968L54.3086 66.3353C54.3073 64.5645 57.6886 60.9952 57.6886 60.9952C58.6006 59.89 59.3513 58.7582 59.8806 59.4061L59.9739 59.4405C60.4139 59.602 60.6606 61.014 60.6579 61.6165L60.1846 67.1608C60.1806 67.7097 59.7313 68.4097 59.1793 68.7285Z" fill="#95D3E0"/>
<path d="M60.787 61.225L59.8896 61.7447C58.671 62.4474 57.6816 62.0422 57.6816 60.837V57.6379L59.7963 56.4166L60.787 61.225Z" fill="#AADCE6"/>
<path d="M62.0751 61.9687L61.0657 68.8182C59.8471 69.5207 58.9697 62.7848 58.9697 61.5807V58.3822L61.0831 57.1608L62.0751 61.9687Z" fill="#79C7D3"/>
<path d="M58.7382 58.6124L57.4502 57.8703V57.1447L58.7382 57.8874V58.6124Z" fill="#FF9764"/>
<path d="M61.325 57.1192L58.7383 58.6124V57.8874L61.325 56.3942V57.1192Z" fill="#FFB28D"/>
<path d="M55.2753 60.9207L55.2726 60.9234C55.1513 61.0182 55.1326 60.9046 55.2073 60.7234C55.902 59.1182 55.498 58.3062 56.3887 56.9088C59.626 54.6739 57.998 57.1968 58.4353 57.0379C57.0046 56.7739 55.9073 61.254 55.9073 61.254L55.2753 60.9207" fill="#FFB48F"/>
<path d="M55.91 61.2514L55.9073 61.254C55.786 61.3473 55.766 61.2369 55.8406 61.055C56.534 59.4488 56.1327 58.6369 57.0233 57.2394C60.2593 55.0045 58.6326 57.5274 59.07 57.3686C57.638 57.1045 57.31 58.9457 56.3887 60.6566C56.0567 61.102 55.9686 61.2061 55.91 61.2514" fill="#FF9764"/>
<path d="M59.6637 56.0472L57.245 57.5154C57.245 57.5154 56.5024 56.9139 55.957 56.7727C56.0037 56.5274 56.0223 55.6462 56.073 55.3978L60.981 53.218C60.0624 54.3248 59.7197 55.4378 59.6637 56.0472Z" fill="#FF5D0D"/>
<path d="M61.4256 70.2764L57.9843 72.2645C57.4683 72.5634 57.0336 72.4259 56.9829 71.9446L56.5576 67.8847C56.5563 66.1123 58.9709 61.702 58.9709 61.702C59.8843 60.5952 61.7216 60.4883 61.7216 60.4883C62.6363 60.9259 62.9083 62.5618 62.9056 63.1645L62.4323 68.7097C62.4283 69.2582 61.9789 69.9577 61.4256 70.2764" fill="#79C7D3"/>
<path d="M57.9844 71.3916L57.8618 71.3525L57.4404 67.3395C57.4778 66.4165 58.9911 63.9796 60.0604 62.5337C60.2311 62.3593 60.4164 62.2124 60.6031 62.1045C60.9471 61.9061 61.2711 61.8473 61.5191 61.9395L61.6004 61.9671C61.7804 62.1072 62.0178 63.0499 62.0231 63.6379L61.5498 69.1764V69.214L61.4257 69.4045L57.9844 71.3916" fill="#0AA1C4"/>
<path d="M58.0775 71.1165L61.3295 69.2394L61.7988 63.7473C61.7922 63.1806 61.5575 62.3431 61.4268 62.2124L61.3628 62.1884C61.0522 62.0754 60.5762 62.2635 60.1762 62.6593C58.9962 64.2608 57.7135 66.4337 57.6668 67.2045L58.0775 71.1165ZM61.4255 69.6275L57.9842 71.614C57.8042 71.7181 57.6562 71.6703 57.6362 71.5045L57.2148 67.4764L57.2162 67.4608C57.2575 66.4072 58.8975 63.8233 59.9215 62.4394L59.9695 62.3848C60.1668 62.1806 60.3868 62.0072 60.6028 61.8832C61.0042 61.6514 61.3842 61.5821 61.6735 61.6873L61.7815 61.7312C62.0068 61.9061 62.2428 62.9113 62.2468 63.5061L61.7735 69.067L61.7748 69.0848C61.7735 69.2738 61.6162 69.5181 61.4255 69.6275" fill="#FFCCB3"/>
<path d="M62.2684 53.9618L57.3604 56.7968V56.1421L61.7217 53.6243L62.2684 53.9618" fill="#FF864A"/>
<path d="M60.9521 56.7899L59.5121 57.6206C58.5508 57.7353 57.7881 57.6593 57.2441 57.5154C57.2908 57.2711 57.2708 57.0634 57.3215 56.8181L62.2681 53.9618C61.3481 55.067 61.0081 56.1821 60.9521 56.7899" fill="#FFC4A7"/>
<path d="M61.7216 53.6244L57.3603 56.1421L56.0723 55.3978L60.4323 52.8821L61.7216 53.6244Z" fill="#FF884D"/>
<path d="M57.0417 56.7567C57.0417 56.4551 56.8337 56.0927 56.5737 55.9431C56.4284 55.8593 56.3017 55.8635 56.215 55.9337L56.2137 55.9312L55.3457 56.5884L55.6257 57.0337L55.9257 57.4594L56.8137 57.0859L56.9324 57.0369L56.9404 57.0337L56.939 57.0312C57.003 56.9739 57.0417 56.8821 57.0417 56.7567" fill="#FF884D"/>
<path d="M55.9976 57.2488C55.9976 57.4859 55.831 57.5832 55.6256 57.4645C55.4176 57.3447 55.251 57.054 55.251 56.8181C55.251 56.5791 55.4176 56.4832 55.6256 56.602C55.831 56.7207 55.9976 57.0097 55.9976 57.2488" fill="#FFC4A7"/>
<path d="M76.0409 72.9577L77.7382 76.4941C78.2542 76.791 80.4342 75.1071 80.4835 74.6259L80.9115 70.5645C80.9142 68.7941 77.5302 65.2259 77.5302 65.2259C76.6209 64.1206 75.8702 62.9873 75.3395 63.6353L75.2475 63.6702C74.8075 63.8311 74.5595 65.243 74.5635 65.8457L75.0369 71.3883C75.0395 71.9394 75.4889 72.6394 76.0409 72.9577" fill="#95D3E0"/>
<path d="M74.4326 65.4566L75.3313 65.9738C76.5499 66.6779 77.5393 66.2711 77.5393 65.0659V61.867L75.4246 60.6473L74.4326 65.4566" fill="#AADCE6"/>
<path d="M73.1445 66.2003L74.1539 73.0473C75.3725 73.7498 76.2499 67.0165 76.2499 65.8097V62.6097L74.1365 61.3899L73.1445 66.2003" fill="#79C7D3"/>
<path d="M76.4834 62.8422L77.7714 62.0994V61.3755L76.4834 62.1182V62.8422Z" fill="#FF9764"/>
<path d="M73.8955 61.3488L76.4835 62.8422V62.1182L73.8955 60.6244V61.3488" fill="#FFB28D"/>
<path d="M79.9445 65.1498L79.9485 65.1525C80.0671 65.2473 80.0885 65.1353 80.0138 64.954C79.3191 63.3473 79.7218 62.5378 78.8324 61.1405C75.5938 58.9036 77.2231 61.4274 76.7831 61.267C78.2138 61.0045 79.3138 65.4832 79.3138 65.4832L79.9445 65.1498" fill="#FFB48F"/>
<path d="M79.31 65.4806L79.314 65.4832C79.434 65.5764 79.4553 65.466 79.3793 65.2848C78.686 63.678 79.0873 62.867 78.198 61.4702C74.9607 59.2337 76.5887 61.7582 76.15 61.5978C77.5807 61.3353 77.9113 63.1764 78.8313 64.8848C79.1647 65.3301 79.2527 65.4353 79.31 65.4806Z" fill="#FF9764"/>
<path d="M75.5566 60.2764L77.9753 61.7457C77.9753 61.7457 78.7192 61.1463 79.2646 61.002C79.2179 60.7567 79.1979 59.8755 79.1459 59.6285L74.2393 57.4488C75.1593 58.5551 75.5006 59.6687 75.5566 60.2764Z" fill="#FF5D0D"/>
<path d="M73.7941 74.5072L77.2355 76.4952C77.7515 76.7941 78.1875 76.6551 78.2368 76.1755L78.6621 72.114C78.6648 70.3447 76.2475 65.9312 76.2475 65.9312C75.3368 64.825 73.4995 64.7181 73.4995 64.7181C72.5821 65.1551 72.3115 66.7941 72.3155 67.3952L72.7888 72.9406C72.7915 73.4884 73.2421 74.1884 73.7941 74.5072Z" fill="#79C7D3"/>
<path d="M77.2356 75.6217L77.3596 75.5832L77.7796 71.5702C77.7423 70.6462 76.2289 68.2088 75.1596 66.7634C74.9889 66.5884 74.8036 66.4405 74.6156 66.3337C74.2743 66.1369 73.9489 66.0764 73.7009 66.167L73.6209 66.1978C73.4409 66.3369 73.2022 67.279 73.1982 67.867L73.6716 73.4072V73.443L73.7956 73.6353L77.2356 75.6217" fill="#0AA1C4"/>
<path d="M77.142 75.3474L73.89 73.4687L73.422 67.9764C73.4287 67.4098 73.6633 66.5728 73.794 66.4422L73.8567 66.4192C74.1673 66.3046 74.6447 66.4927 75.0433 66.8884C76.2233 68.49 77.5073 70.6619 77.554 71.4354L77.142 75.3474ZM73.794 73.8583L77.2353 75.8447C77.414 75.9488 77.5647 75.9004 77.582 75.7354L78.0047 71.7072V71.6916C77.962 70.6395 76.3206 68.0515 75.2993 66.6671L75.2513 66.614C75.054 66.4114 74.8327 66.2379 74.6153 66.1114C74.2153 65.8807 73.8367 65.813 73.5447 65.9182L73.438 65.9619C73.214 66.137 72.978 67.1406 72.9727 67.7354L73.446 73.2968V73.3155C73.4473 73.5036 73.6033 73.7474 73.794 73.8583" fill="#FFCCB3"/>
<path d="M72.9512 58.1927L77.8591 61.026V60.3728L73.4992 57.8551L72.9512 58.1927Z" fill="#FF864A"/>
<path d="M74.2685 61.0206L75.7085 61.8514C76.6685 61.966 77.4298 61.8884 77.9752 61.7457C77.9298 61.4993 77.9472 61.2941 77.8965 61.0473L72.9512 58.1926C73.8698 59.2993 74.2125 60.4123 74.2685 61.0206Z" fill="#FFC4A7"/>
<path d="M73.499 57.8551L77.859 60.3728L79.1457 59.6285L74.787 57.1097L73.499 57.8551" fill="#FF884D"/>
<path d="M78.1768 60.9858C78.1768 60.6873 78.3874 60.3233 78.6461 60.1738C78.7914 60.0899 78.9168 60.0941 79.0048 60.1618L79.0061 60.1607L79.8754 60.8181L79.5954 61.2634L79.2954 61.6899L78.4048 61.3154L78.2888 61.267L78.2794 61.2634L78.2808 61.2607C78.2168 61.2061 78.1768 61.1123 78.1768 60.9858" fill="#FF884D"/>
<path d="M79.2217 61.4796C79.2217 61.7165 79.3897 61.8129 79.595 61.6952C79.803 61.5754 79.9683 61.2858 79.9683 61.0473C79.9683 60.8088 79.803 60.7124 79.595 60.8312C79.3897 60.9498 79.2217 61.2405 79.2217 61.4796Z" fill="#FFC4A7"/>
<path d="M66.1485 72.2764V72.3567H66.1445L66.1485 72.2764Z" fill="#0D252D"/>
<path d="M65.9991 65.6431V72.2764L65.9937 72.3567C65.9617 72.7004 65.7191 73.0405 65.2604 73.3061C64.2751 73.8739 62.679 73.8739 61.6924 73.3061C61.239 73.0405 60.9964 72.7004 60.9644 72.3567H60.9551V65.6431H65.9991" fill="#FFAE30"/>
<path d="M65.9993 65.4873C65.9046 64.254 64.7259 63.814 64.7259 63.814L64.4379 64.2525C64.1099 64.1738 63.7606 64.1394 63.4113 64.1462V64.1045L62.2073 63.814C62.2073 63.814 61.1366 64.7192 61.0126 65.2884V65.2952C60.8433 65.7618 61.0673 66.266 61.6926 66.6274C62.6779 67.1952 64.2753 67.1952 65.2593 66.6274C65.7846 66.326 66.0206 65.9217 65.9873 65.5249L65.9993 65.4873Z" fill="#FFBE59"/>
<path d="M64.461 64.7097C63.917 65.0233 63.0356 65.0233 62.493 64.7097C61.949 64.3952 61.949 63.8873 62.493 63.5739C63.0356 63.2593 63.917 63.2593 64.461 63.5739C65.005 63.8873 65.005 64.3952 64.461 64.7097Z" fill="#FFCE83"/>
<path d="M64.3636 62.9979V63.9406L64.3609 63.9687C64.3503 64.0927 64.2609 64.2166 64.0956 64.313C63.7369 64.5192 63.1583 64.5192 62.7996 64.313C62.6343 64.2166 62.5449 64.0927 62.5343 63.9687H62.5303V62.9979H64.3636" fill="#07A2B2"/>
<path d="M64.0957 63.355C63.7371 63.5618 63.1584 63.5618 62.7998 63.355C62.4424 63.1498 62.4411 62.8154 62.7998 62.6072C63.1584 62.402 63.7371 62.402 64.0957 62.6072C64.4544 62.8154 64.4544 63.1498 64.0957 63.355Z" fill="#BFE5EC"/>
<path d="M72.5789 75.0165V75.1285H72.5723L72.5789 75.0165Z" fill="#0D252D"/>
<path d="M72.3634 65.5249V75.0165L72.3581 75.1285C72.3115 75.6206 71.9635 76.1061 71.3061 76.4858C69.8968 77.2993 67.6141 77.2993 66.2035 76.4858C65.5541 76.1061 65.2061 75.6206 65.1608 75.1285H65.1475V65.5249H72.3634Z" fill="#0295AD"/>
<path d="M72.3631 65.2993C72.2284 63.5369 70.5391 62.9087 70.5391 62.9087L70.1311 63.5369C69.6617 63.4249 69.1604 63.3763 68.6617 63.3831V63.3249L66.9404 62.9087C66.9404 62.9087 65.4084 64.2045 65.2311 65.0181L65.2297 65.0301C64.9871 65.6951 65.3071 66.4165 66.2031 66.9337C67.6137 67.7473 69.8977 67.7473 71.3057 66.9353C72.0564 66.4993 72.3937 65.9249 72.3457 65.3582L72.3631 65.2993" fill="#0AA1C4"/>
<path d="M70.1619 64.19C69.3846 64.6395 68.126 64.6395 67.3486 64.19C66.5713 63.7421 66.5713 63.014 67.3486 62.5645C68.126 62.1165 69.3846 62.1165 70.1619 62.5645C70.9393 63.014 70.9393 63.7421 70.1619 64.19Z" fill="#79C7D3"/>
<path d="M70.0237 61.7422V63.09L70.0224 63.1302C70.005 63.3072 69.8783 63.4848 69.6397 63.6217C69.129 63.9192 68.2997 63.9192 67.7877 63.6217C67.5504 63.4848 67.4237 63.3072 67.409 63.1302H67.4023V61.7422H70.0237" fill="#FF3830"/>
<path d="M69.6393 62.2551C69.1286 62.5499 68.2993 62.5499 67.7873 62.2551C67.2753 61.9578 67.2753 61.4807 67.7873 61.1832C68.2993 60.8884 69.1286 60.8884 69.6393 61.1832C70.1513 61.4807 70.1513 61.9578 69.6393 62.2551Z" fill="#FF884D"/>
<path d="M87.2923 72.5154C87.2923 72.5154 86.2977 75.5821 85.5497 75.2951C84.803 75.0071 83.811 75.2249 82.999 72.5405C82.7857 71.8337 82.935 68.6473 85.351 69.5738C87.763 70.5003 87.2923 72.5154 87.2923 72.5154" fill="#D9E6F9"/>
<path d="M78.8486 76.2045C78.8486 76.2045 79.4073 76.5993 79.7326 76.9993C80.0566 77.3993 80.9846 77.2539 80.9846 77.2539L82.274 76.8369L83.8113 75.2249L82.7313 74.9883L78.8486 76.2045" fill="#FFF1D9"/>
<path d="M77.959 76.0139C77.959 76.0139 78.519 76.4096 78.843 76.8096C79.167 77.2112 80.0963 77.0634 80.0963 77.0634L81.3857 76.6472L82.615 75.7539L81.843 74.7978L77.959 76.0139" fill="#FFF1D9"/>
<path d="M76.9668 75.4831C76.9668 75.4831 77.5255 75.8763 77.8508 76.2763C78.1748 76.6779 79.1028 76.53 79.1028 76.53L80.3921 76.1139L81.6228 75.2191L80.8495 74.2659L76.9668 75.4831Z" fill="#FFF1D9"/>
<path d="M92.7734 43.4352C93.5227 42.6487 95.5227 39.8644 97.3521 42.3951C99.1827 44.9259 98.6427 49.1404 97.4627 52.218C96.2787 55.2967 96.2161 58.8456 95.0321 61.9248C93.8507 65.0035 92.5241 65.5806 90.3868 68.291C88.2468 71.0035 85.1747 73.955 85.1747 73.955L81.9414 71.994C81.9414 71.994 87.3748 68.8566 88.1201 65.9702C88.9788 62.6326 91.1401 60.2978 91.1401 60.2978C91.1401 60.2978 91.0654 52.2123 91.1854 50.6243C91.3867 47.9154 90.9761 45.3206 92.7734 43.4352Z" fill="#FFF1D9"/>
<path d="M84.8354 71.4686C84.8354 71.4686 83.8261 70.8112 82.4034 71.443C80.9781 72.0779 80.1074 73.4992 80.1074 73.4992C80.1074 73.4992 81.7608 76.1368 81.9368 76.53C82.1114 76.9232 85.9901 73.3311 85.8741 73.0727C85.7581 72.8128 84.8354 71.4686 84.8354 71.4686" fill="#FFF1D9"/>
<path d="M84.2177 71.2326C84.2177 71.2326 82.3537 70.7404 81.0884 70.9404C79.827 71.1404 78.7297 72.2805 77.9457 71.9805C77.1604 71.6779 77.627 72.8498 78.1537 73.0524C78.6817 73.2566 80.5937 72.6539 80.779 73.067C80.9644 73.4831 84.2177 71.2326 84.2177 71.2326Z" fill="#FFF1D9"/>
<path d="M80.8927 74.3072L80.8101 74.3686L78.8741 75.8097L77.3394 76.5566L75.8594 75.9446C75.8594 75.9446 76.6047 74.7514 77.2234 74.9884C77.8394 75.2249 77.4687 74.966 77.4687 74.966L78.5154 74.266L80.1074 73.4993L80.8927 74.3072" fill="#FFF1D9"/>
<path d="M95.666 40.402C95.666 40.402 97.3501 40.678 98.7221 42.755C100.093 44.8301 97.7687 59.2378 96.1021 63.578C94.4354 67.9181 85.5501 75.2952 85.5501 75.2952C85.5501 75.2952 87.6447 72.6582 86.1701 70.8353C84.6954 69.014 83.7754 69.6181 83.7754 69.6181C83.7754 69.6181 88.3954 62.8952 89.3967 59.254C90.398 55.6097 89.2434 49.866 90.8687 45.6312C92.4941 41.3968 93.2634 39.978 95.666 40.402Z" fill="#79C7D3"/>
</g>
<defs>
<clipPath id="clip0">
<rect width="150" height="150" fill="white"/>
</clipPath>
</defs>
</svg>
