<svg width="150" height="150" viewBox="0 0 150 150" fill="none" xmlns="http://www.w3.org/2000/svg">
<g clip-path="url(#clip0)">
<ellipse cx="78.4077" cy="78.7245" rx="49.5488" ry="71.7058" transform="rotate(9.22935 78.4077 78.7245)" fill="#EAEAEA"/>
<path d="M69.5596 99.5047L91.9076 112.407V23.934L69.5596 11.0313V99.5047Z" fill="#79C7D3"/>
<path d="M45.7377 102.685L90.4311 76.8794L68.0857 63.9767L25.3311 89.782L45.7377 102.685Z" fill="#E6F4F7"/>
<path d="M85.3145 78.9873L87.8238 77.538V65.4446L85.3145 66.894V78.9873Z" fill="#FED176"/>
<path d="M85.5967 68.094V70.8099L87.5407 69.6886V66.9713L85.5967 68.094Z" fill="#FEFEFE"/>
<path d="M87.5407 70.3927L85.5967 71.5153V77.4594L87.5407 76.338V70.3927Z" fill="#FEFEFE"/>
<path d="M85.5967 71.5153V77.4594L87.5407 76.338V70.3927L85.5967 71.5153Z" fill="#FEFEFE"/>
<path d="M85.5967 71.5153V77.4594L87.5407 76.338V70.3927L85.5967 71.5153Z" fill="#FEFEFE"/>
<path d="M85.6059 66.7633L87.6472 65.5846L86.5326 64.9406L84.4912 66.1193L85.6059 66.7633Z" fill="#FEB516"/>
<path d="M81.4286 63.0487L78.6406 62.3687V71.1354L85.6433 66.6687V66.062L81.4286 63.0487Z" fill="#ABDCE3"/>
<path d="M85.5705 66.226C85.7599 65.8686 86.2465 65.5886 86.8652 65.4779C85.3732 64.6179 81.5279 62.4819 80.0345 61.6206C79.6039 61.8699 79.1732 62.1193 78.7412 62.3686C80.2332 63.23 84.0799 65.3646 85.5705 66.226Z" fill="#FBFDFE"/>
<path d="M87.4585 65.6207L87.8238 65.4101L80.4425 61.1474L80.0931 61.1554L80.0905 61.1567L80.0771 61.3581L87.4585 65.6207" fill="#FECD6A"/>
<path d="M85.2772 66.8806L85.6439 66.6686L78.2599 62.4073L77.9105 62.4139L77.9079 62.4166L77.8945 62.618L85.2772 66.8806Z" fill="#FECD6A"/>
<path d="M85.2769 66.8806C86.4663 66.6459 87.4196 66.0966 87.8236 65.4099L87.5369 65.2433C87.1329 65.9299 86.1782 66.4806 84.9902 66.7153L85.2769 66.8806" fill="#FECD6A"/>
<path d="M85.3593 78.9594C86.5459 78.726 87.4193 78.202 87.8233 77.5167L87.5366 77.3513C87.1326 78.0367 86.2593 78.5607 85.0713 78.794L85.3593 78.9594Z" fill="#FED176"/>
<path d="M77.8291 74.6127L85.3598 78.9594V66.8674L77.8291 62.5207V74.6127Z" fill="#FEB516"/>
<path d="M81.4531 80.7793L83.7091 79.478V68.606L81.4531 69.91V80.7793Z" fill="#45CCB8"/>
<path d="M81.707 70.9887V73.4301L83.4537 72.422V69.9794L81.707 70.9887Z" fill="#FEFEFE"/>
<path d="M83.4537 73.054L81.707 74.0633V79.406L83.4537 78.3993V73.054Z" fill="#FEFEFE"/>
<path d="M81.707 74.0633V79.406L83.4537 78.3993V73.054L81.707 74.0633Z" fill="#FEFEFE"/>
<path d="M81.707 74.0633V79.406L83.4537 78.3993V73.054L81.707 74.0633Z" fill="#FEFEFE"/>
<path d="M81.7156 69.7927L83.5489 68.7327L82.5476 68.1541L80.7129 69.2127L81.7156 69.7927" fill="#2FB299"/>
<path d="M77.9611 66.4514L75.4531 65.8421V73.722L81.7491 69.7074V69.1607L77.9611 66.4514" fill="#ABDCE3"/>
<path d="M81.682 69.3087C81.854 68.9874 82.2887 68.7354 82.846 68.6367C81.5047 67.862 78.0473 65.9434 76.706 65.17C76.3193 65.394 75.9313 65.618 75.542 65.842C76.8833 66.6154 80.3407 68.5354 81.682 69.3087Z" fill="#FBFDFE"/>
<path d="M83.3792 68.7646L83.7085 68.5753L77.0725 64.7433L76.7578 64.75L76.7565 64.7526L76.7432 64.934L83.3792 68.7646" fill="#37BFA8"/>
<path d="M81.4179 69.8967L81.7485 69.7074L75.1112 65.8767L74.7979 65.882L74.7938 65.8847L74.7832 66.0661L81.4179 69.8967Z" fill="#37BFA8"/>
<path d="M81.4185 69.8967C82.4865 69.6874 83.3451 69.1914 83.7091 68.5754L83.4505 68.4261C83.0865 69.0434 82.2291 69.538 81.1611 69.7487L81.4185 69.8967" fill="#37BFA8"/>
<path d="M81.4911 80.7554C82.5591 80.546 83.3444 80.074 83.7084 79.458L83.4498 79.3087C83.0858 79.9261 82.3018 80.3967 81.2324 80.6061L81.4911 80.7554Z" fill="#45CCB8"/>
<path d="M74.7236 76.8487L81.4916 80.7554V69.8847L74.7236 65.978V76.8487Z" fill="#2FB299"/>
<path d="M78.3477 82.5726L80.6036 81.27V70.3993L78.3477 71.702V82.5726Z" fill="#FED176"/>
<path d="M78.6006 72.7807V75.2234L80.3486 74.2154V71.7714L78.6006 72.7807" fill="#FEFEFE"/>
<path d="M80.3486 74.846L78.6006 75.8553V81.1993L80.3486 80.1913V74.846Z" fill="#FEFEFE"/>
<path d="M78.6006 75.8553V81.1993L80.3486 80.1913V74.846L78.6006 75.8553Z" fill="#FEFEFE"/>
<path d="M78.6006 75.8553V81.1993L80.3486 80.1913V74.846L78.6006 75.8553Z" fill="#FEFEFE"/>
<path d="M78.6101 71.5847L80.4448 70.5247L79.4434 69.946L77.6074 71.0061L78.6101 71.5847Z" fill="#FEB516"/>
<path d="M74.8557 68.2447L72.3477 67.6341V75.514L78.6423 71.4994V70.954L74.8557 68.2447" fill="#ABDCE3"/>
<path d="M78.5771 71.1021C78.7491 70.7794 79.1851 70.5274 79.7411 70.43C78.4011 69.6567 74.9425 67.7367 73.6025 66.962C73.2145 67.186 72.8265 67.41 72.4385 67.634C73.7785 68.4087 77.2371 70.3274 78.5771 71.1021Z" fill="#FBFDFE"/>
<path d="M80.2757 70.558L80.6036 70.3673L73.9676 66.5367L73.653 66.5433L73.6503 66.546L73.6396 66.726L80.2757 70.558Z" fill="#FECD6A"/>
<path d="M78.3124 71.6901L78.6417 71.4994L72.0071 67.6687L71.6924 67.6754L71.6897 67.6767L71.6777 67.8581L78.3124 71.6901" fill="#FECD6A"/>
<path d="M78.313 71.6901C79.381 71.4794 80.2396 70.9847 80.6036 70.3674L80.3463 70.2181C79.981 70.8354 79.125 71.3301 78.0557 71.5407L78.313 71.6901Z" fill="#FECD6A"/>
<path d="M78.3863 82.5487C79.4556 82.338 80.2396 81.8674 80.6036 81.25L80.3463 81.1021C79.9809 81.7181 79.1969 82.1887 78.1289 82.3994L78.3863 82.5487Z" fill="#FED176"/>
<path d="M71.6182 78.6407L78.3862 82.5487V71.678L71.6182 67.7701V78.6407Z" fill="#FEB516"/>
<path d="M76.3887 84.3646L79.0286 82.8406V70.1206L76.3887 71.6446V84.3646Z" fill="#45CCB8"/>
<path d="M76.6865 72.9073V75.7646L78.7305 74.5846V71.726L76.6865 72.9073Z" fill="#FEFEFE"/>
<path d="M78.7305 75.3247L76.6865 76.5047V82.7581L78.7305 81.578V75.3247Z" fill="#FEFEFE"/>
<path d="M76.6865 76.5047V82.7581L78.7305 81.578V75.3247L76.6865 76.5047Z" fill="#FEFEFE"/>
<path d="M76.6865 76.5047V82.7581L78.7305 81.578V75.3247L76.6865 76.5047Z" fill="#FEFEFE"/>
<path d="M76.6954 71.5073L78.8435 70.2673L77.6688 69.59L75.5234 70.8286L76.6954 71.5073Z" fill="#2FB299"/>
<path d="M72.3019 67.5994L69.3672 66.8847V76.1061L76.7325 71.4074V70.7701L72.3019 67.5994" fill="#ABDCE3"/>
<path d="M76.6553 70.942C76.858 70.566 77.3673 70.27 78.0193 70.1553C76.45 69.2487 72.4033 67.0033 70.834 66.098C70.3807 66.3593 69.9273 66.622 69.4727 66.8847C71.0407 67.79 75.0873 70.0353 76.6553 70.942Z" fill="#FBFDFE"/>
<path d="M78.6436 70.3047L79.0289 70.082L71.2623 65.5993L70.8956 65.6074L70.8916 65.61L70.877 65.822L78.6436 70.3047" fill="#37BFA8"/>
<path d="M76.3493 71.63L76.7333 71.4073L68.9693 66.9247L68.6 66.9327L68.596 66.9353L68.584 67.146L76.3493 71.63" fill="#37BFA8"/>
<path d="M76.3486 71.63C77.5979 71.3833 78.6005 70.8047 79.0285 70.082L78.7259 69.9087C78.3005 70.6314 77.2966 71.21 76.0459 71.4567L76.3486 71.63Z" fill="#37BFA8"/>
<path d="M76.4341 84.3367C77.6848 84.09 78.6008 83.5393 79.0288 82.818L78.7261 82.6446C78.3008 83.366 77.3821 83.9167 76.1328 84.162L76.4341 84.3367" fill="#45CCB8"/>
<path d="M68.5127 79.7633L76.434 84.3367V71.6153L68.5127 67.0433V79.7633" fill="#2FB299"/>
<path d="M72.1387 86.158L74.3933 84.8553V73.9846L72.1387 75.2873V86.158Z" fill="#45CCB8"/>
<path d="M72.3916 76.366V78.8074L74.1396 77.8007V75.3567L72.3916 76.366Z" fill="#FEFEFE"/>
<path d="M74.1396 78.4313L72.3916 79.4407V84.7847L74.1396 83.7767V78.4313Z" fill="#FEFEFE"/>
<path d="M72.3916 79.4407V84.7847L74.1396 83.7767V78.4313L72.3916 79.4407Z" fill="#FEFEFE"/>
<path d="M72.3916 79.4407V84.7847L74.1396 83.7767V78.4313L72.3916 79.4407Z" fill="#FEFEFE"/>
<path d="M72.3998 75.17L74.2358 74.11L73.2331 73.5314L71.3984 74.5914L72.3998 75.17Z" fill="#2FB299"/>
<path d="M68.6453 71.83L66.1387 71.2194V79.0994L72.432 75.086V74.5394L68.6453 71.83" fill="#ABDCE3"/>
<path d="M72.3672 74.6874C72.5365 74.3647 72.9752 74.114 73.5312 74.0154C72.1912 73.2407 68.7325 71.322 67.3925 70.5474C67.0045 70.7714 66.6152 70.9954 66.2285 71.2194C67.5685 71.994 71.0272 73.9127 72.3672 74.6874Z" fill="#FBFDFE"/>
<path d="M74.0647 74.1433L74.3927 73.9527L67.7567 70.122L67.4434 70.1287L67.4407 70.13L67.4287 70.3113L74.0647 74.1433" fill="#37BFA8"/>
<path d="M72.1038 75.2754L72.4318 75.086L65.7971 71.254L65.4825 71.2607L65.4798 71.2634L65.4678 71.4434L72.1038 75.2754" fill="#37BFA8"/>
<path d="M72.103 75.2754C73.171 75.0647 74.0297 74.57 74.3924 73.9527L74.1364 73.8034C73.771 74.4207 72.9137 74.9154 71.8457 75.126L72.103 75.2754Z" fill="#37BFA8"/>
<path d="M72.1772 86.1327C73.2466 85.9234 74.0306 85.4527 74.3932 84.8354L74.1372 84.6873C73.7719 85.3033 72.9866 85.774 71.9199 85.9847L72.1772 86.1327" fill="#45CCB8"/>
<path d="M65.4092 82.226L72.1772 86.1327V75.2634L65.4092 71.3553V82.226Z" fill="#2FB299"/>
<path d="M69.0332 87.95L71.2892 86.6486V75.7766L69.0332 77.0806V87.95Z" fill="#45CCB8"/>
<path d="M69.2871 78.1594V80.6007L71.0338 79.5927V77.15L69.2871 78.1594Z" fill="#FEFEFE"/>
<path d="M71.0338 80.2247L69.2871 81.234V86.5767L71.0338 85.57V80.2247Z" fill="#FEFEFE"/>
<path d="M69.2871 81.234V86.5767L71.0338 85.57V80.2247L69.2871 81.234Z" fill="#FEFEFE"/>
<path d="M69.2871 81.234V86.5767L71.0338 85.57V80.2247L69.2871 81.234Z" fill="#FEFEFE"/>
<path d="M69.2956 76.9634L71.1303 75.9034L70.1276 75.3247L68.293 76.3834L69.2956 76.9634Z" fill="#2FB299"/>
<path d="M65.5395 73.622L63.0342 73.0127V80.8927L69.3275 76.878V76.3314L65.5395 73.622Z" fill="#ABDCE3"/>
<path d="M69.2604 76.4794C69.4324 76.158 69.8684 75.9061 70.4257 75.8074C69.0857 75.0341 65.6284 73.1141 64.2871 72.3407C63.8991 72.5634 63.511 72.7887 63.123 73.0127C64.4644 73.786 67.9217 75.706 69.2604 76.4794Z" fill="#FBFDFE"/>
<path d="M70.9599 75.9353L71.2892 75.7446L64.6532 71.9139L64.3399 71.922L64.3359 71.9233L64.3252 72.1046L70.9599 75.9353" fill="#37BFA8"/>
<path d="M68.9979 77.0674L69.3273 76.878L62.6913 73.0474L62.378 73.054L62.3726 73.0554L62.3633 73.2367L68.9979 77.0674" fill="#37BFA8"/>
<path d="M68.9985 77.0674C70.0679 76.8567 70.9239 76.362 71.2892 75.7447L71.0319 75.5967C70.6679 76.214 69.8092 76.7087 68.7412 76.9194L68.9985 77.0674Z" fill="#37BFA8"/>
<path d="M69.0718 87.926C70.1398 87.7154 70.9238 87.2447 71.2891 86.6287L71.0318 86.4793C70.6678 87.0967 69.8825 87.5673 68.8145 87.778L69.0718 87.926Z" fill="#45CCB8"/>
<path d="M62.3037 84.0194L69.0717 87.926V77.0554L62.3037 73.1487V84.0194Z" fill="#2FB299"/>
<path d="M65.9258 89.7433L68.1831 88.4406V77.57L65.9258 78.8726V89.7433Z" fill="#FED176"/>
<path d="M66.1826 79.9514V82.394L67.9293 81.3847V78.9421L66.1826 79.9514Z" fill="#FEFEFE"/>
<path d="M67.9293 82.0166L66.1826 83.026V88.37L67.9293 87.362V82.0166Z" fill="#FEFEFE"/>
<path d="M66.1826 83.026V88.37L67.9293 87.362V82.0166L66.1826 83.026Z" fill="#FEFEFE"/>
<path d="M66.1826 83.026V88.37L67.9293 87.362V82.0166L66.1826 83.026Z" fill="#FEFEFE"/>
<path d="M66.1901 78.7554L68.0261 77.6954L67.0235 77.1167L65.1875 78.1767L66.1901 78.7554Z" fill="#FEB516"/>
<path d="M62.4354 75.4154L59.9287 74.8047V82.6847L66.2221 78.6714V78.1247L62.4354 75.4154" fill="#ABDCE3"/>
<path d="M66.1559 78.2714C66.3279 77.9514 66.7639 77.6994 67.3199 77.6007C65.9799 76.826 62.5239 74.9074 61.1839 74.1327C60.7946 74.3567 60.4066 74.5807 60.0186 74.8047C61.3586 75.5794 64.8159 77.498 66.1559 78.2714" fill="#FBFDFE"/>
<path d="M67.8551 77.7286L68.1831 77.538L61.5471 73.7073L61.2338 73.714L61.2311 73.7153L61.2178 73.8966L67.8551 77.7286" fill="#FECD6A"/>
<path d="M65.8942 78.8607L66.2222 78.6714L59.5875 74.8394L59.2715 74.846L59.2688 74.8474L59.2568 75.0287L65.8942 78.8607" fill="#FECD6A"/>
<path d="M65.894 78.8607C66.962 78.6501 67.8181 78.1554 68.1834 77.5381L67.926 77.3887C67.562 78.006 66.7034 78.5007 65.6367 78.7114L65.894 78.8607Z" fill="#FECD6A"/>
<path d="M65.9676 89.7194C67.0343 89.5087 67.8183 89.038 68.1837 88.4207L67.9263 88.2727C67.5623 88.8887 66.7783 89.3594 65.709 89.57L65.9676 89.7194Z" fill="#FED176"/>
<path d="M59.1992 85.8114L65.9672 89.7194V78.8487L59.1992 74.9407V85.8114Z" fill="#FEB516"/>
<path d="M61.9844 91.89L64.2857 91.2167L65.5084 80.626L63.111 81.4433L61.9844 91.89" fill="#45CCB8"/>
<path d="M63.2593 82.522L63.0127 84.8594L64.8447 84.2674L65.1087 81.9021L63.2593 82.522" fill="#FEFEFE"/>
<path d="M64.7739 84.8793L62.9473 85.4673L62.3779 90.626L64.1686 90.0926L64.7739 84.8793Z" fill="#FEFEFE"/>
<path d="M62.9473 85.4673L62.3779 90.626L64.1686 90.0926L64.7739 84.8793L62.9473 85.4673Z" fill="#FEFEFE"/>
<path d="M62.9473 85.4673L62.3779 90.626L64.1686 90.0926L64.7739 84.8793L62.9473 85.4673Z" fill="#FEFEFE"/>
<path d="M63.3859 81.382L65.3365 80.718L64.3859 79.9766L62.4365 80.6393L63.3859 81.382Z" fill="#2FB299"/>
<path d="M59.8926 77.5607L57.386 76.5767L56.834 83.75L63.426 81.3074L63.4793 80.7873L59.8926 77.5607Z" fill="#ABDCE3"/>
<path d="M63.4012 80.9153C63.6038 80.6419 64.0678 80.4846 64.6385 80.494C63.3638 79.5086 60.0238 77.106 58.7105 76.174C58.2998 76.3153 57.8878 76.454 57.4785 76.5913C58.7878 77.5246 62.1265 79.9286 63.4012 80.9153" fill="#FBFDFE"/>
<path d="M65.1623 80.7167L65.513 80.5954L59.1157 75.8447L58.793 75.8007L58.7903 75.802L58.7637 75.966L65.1623 80.7167" fill="#37BFA8"/>
<path d="M63.0808 81.4247L63.4261 81.3074L57.0341 76.5487L56.7142 76.502L56.7115 76.5034L56.6875 76.6647L63.0808 81.4247Z" fill="#37BFA8"/>
<path d="M63.0813 81.4247C64.1706 81.4327 65.0826 81.122 65.5133 80.5953L65.2693 80.4047C64.8386 80.9287 63.9266 81.2407 62.8359 81.2327L63.0813 81.4247" fill="#37BFA8"/>
<path d="M62.0252 91.878C63.0652 91.9606 63.8679 91.7087 64.2893 91.198L64.0599 90.9846C63.6399 91.494 62.8359 91.746 61.7959 91.6633L62.0252 91.878" fill="#45CCB8"/>
<path d="M55.8877 86.4487L62.025 91.8781L63.153 81.4274L56.633 76.5754L55.8877 86.4487Z" fill="#2FB299"/>
<path d="M45.7377 85.45L90.4311 59.6459L68.0857 46.7433L25.3311 72.5486L45.7377 85.45Z" fill="#E6F4F7"/>
<path d="M71.2578 66.6273L85.8765 58.1873V44.114L71.2578 52.554V66.6273Z" fill="#37BFA8"/>
<path d="M56.6406 58.1873L71.2579 66.6273V52.554L56.6406 44.114V58.1873Z" fill="#2FB299"/>
<path d="M56.6406 44.1139L71.2579 52.554L85.8766 44.326L71.2579 35.886L56.6406 44.1139Z" fill="#FED176"/>
<path d="M50.6592 77.9634L65.2779 69.5234V55.45L50.6592 63.89V77.9634Z" fill="#FEBB29"/>
<path d="M36.042 69.5234L50.6593 77.9634V63.89L36.042 55.45V69.5234Z" fill="#FEB30F"/>
<path d="M36.042 55.45L50.6593 63.89L65.278 55.662L50.6593 47.2233L36.042 55.45Z" fill="#FED176"/>
<path d="M45.7377 68.262L90.4311 42.458L68.0857 29.5553L25.3311 55.3593L45.7377 68.262Z" fill="#E6F4F7"/>
<path d="M86.4688 43.1566L88.9781 41.7073V29.6139L86.4688 31.0633V43.1566Z" fill="#FED176"/>
<path d="M86.752 32.2634V34.9794L88.6959 33.858V31.1407L86.752 32.2634Z" fill="#FEFEFE"/>
<path d="M88.6959 34.5607L86.752 35.6833V41.6287L88.6959 40.5073V34.5607" fill="#FEFEFE"/>
<path d="M86.752 35.6833V41.6287L88.6959 40.5073V34.5607L86.752 35.6833" fill="#FEFEFE"/>
<path d="M86.752 35.6833V41.6287L88.6959 40.5073V34.5607L86.752 35.6833" fill="#FEFEFE"/>
<path d="M86.7592 30.9327L88.8005 29.7541L87.6859 29.1101L85.6445 30.2887L86.7592 30.9327Z" fill="#FEB516"/>
<path d="M82.5837 27.2167L79.793 26.538V35.3047L86.797 30.838V30.2313L82.5837 27.2167" fill="#ABDCE3"/>
<path d="M86.7219 30.3954C86.9126 30.0381 87.3979 29.758 88.0179 29.6474C86.5273 28.786 82.6806 26.6514 81.1886 25.79C80.7566 26.0394 80.3246 26.2887 79.8926 26.5381C81.3846 27.3994 85.2313 29.5341 86.7219 30.3954Z" fill="#FBFDFE"/>
<path d="M88.6112 29.79L88.9779 29.578L81.5938 25.3154L81.2459 25.3247L81.2432 25.326L81.2285 25.5274L88.6112 29.79" fill="#FECD6A"/>
<path d="M86.4292 31.0487L86.7972 30.8381L79.4145 26.5767L79.0638 26.5834L79.0598 26.5847L79.0479 26.7874L86.4292 31.0487" fill="#FECD6A"/>
<path d="M86.4289 31.0487C87.6169 30.8154 88.5729 30.2647 88.9782 29.578L88.6915 29.4127C88.2862 30.0994 87.3316 30.65 86.1436 30.8834L86.4289 31.0487" fill="#FECD6A"/>
<path d="M86.5117 43.1287C87.6997 42.8953 88.573 42.3713 88.9783 41.686L88.6916 41.5193C88.2863 42.206 87.413 42.73 86.2236 42.9633L86.5117 43.1287" fill="#FED176"/>
<path d="M78.9805 38.782L86.5111 43.1287V31.0353L78.9805 26.6887V38.782Z" fill="#FEB516"/>
<path d="M82.3477 45.4526L84.989 43.9286V31.2073L82.3477 32.7326V45.4526" fill="#45CCB8"/>
<path d="M82.6445 33.994V36.8527L84.6912 35.6727V32.814L82.6445 33.994Z" fill="#FEFEFE"/>
<path d="M84.6912 36.4113L82.6445 37.5926V43.8459L84.6912 42.666V36.4113" fill="#FEFEFE"/>
<path d="M82.6445 37.5926V43.8459L84.6912 42.666V36.4113L82.6445 37.5926" fill="#FEFEFE"/>
<path d="M82.6445 37.5926V43.8459L84.6912 42.666V36.4113L82.6445 37.5926" fill="#FEFEFE"/>
<path d="M82.6558 32.594L84.8037 31.3553L83.6304 30.678L81.4824 31.9167L82.6558 32.594Z" fill="#2FB299"/>
<path d="M78.2605 28.686L75.3271 27.9713V37.1926L82.6938 32.4953V31.8566L78.2605 28.686" fill="#ABDCE3"/>
<path d="M82.6166 32.03C82.8166 31.654 83.3273 31.358 83.9793 31.2433C82.4113 30.338 78.3646 28.0914 76.7953 27.186C76.3419 27.4474 75.8873 27.71 75.4326 27.9714C77.002 28.878 81.0473 31.1247 82.6166 32.03Z" fill="#FBFDFE"/>
<path d="M84.6019 31.3927L84.9886 31.17L77.2232 26.6874L76.8565 26.6954L76.8526 26.6967L76.8379 26.91L84.6019 31.3927Z" fill="#37BFA8"/>
<path d="M82.3106 32.718L82.6946 32.4954L74.9279 28.0127L74.5613 28.0207L74.5573 28.022L74.5439 28.234L82.3106 32.718" fill="#37BFA8"/>
<path d="M82.3105 32.718C83.5598 32.4714 84.5625 31.8927 84.9892 31.17L84.6878 30.9954C84.2612 31.718 83.2571 32.298 82.0078 32.5433L82.3105 32.718Z" fill="#37BFA8"/>
<path d="M82.3931 45.4247C83.6451 45.178 84.5625 44.6287 84.9892 43.906L84.6878 43.7314C84.2612 44.4527 83.3425 45.0047 82.0918 45.25L82.3931 45.4247Z" fill="#45CCB8"/>
<path d="M74.4746 40.8527L82.3933 45.4247V32.7034L74.4746 28.1314V40.8527Z" fill="#2FB299"/>
<path d="M78.3379 47.1273L80.5912 45.826V34.954L78.3379 36.2566V47.1273Z" fill="#FED176"/>
<path d="M78.5918 37.3366V39.7766L80.3398 38.77V36.3273L78.5918 37.3366Z" fill="#FEFEFE"/>
<path d="M80.3398 39.402L78.5918 40.41V45.754L80.3398 44.746V39.402Z" fill="#FEFEFE"/>
<path d="M78.5918 40.41V45.754L80.3398 44.746V39.402L78.5918 40.41Z" fill="#FEFEFE"/>
<path d="M78.5918 40.41V45.754L80.3398 44.746V39.402L78.5918 40.41Z" fill="#FEFEFE"/>
<path d="M78.5993 36.1394L80.434 35.0807L79.4313 34.5021L77.5967 35.5607L78.5993 36.1394Z" fill="#FEB516"/>
<path d="M74.8446 32.7994L72.3379 32.1887V40.0701L78.6326 36.0554V35.5087L74.8446 32.7994Z" fill="#ABDCE3"/>
<path d="M78.5677 35.6566C78.7384 35.3353 79.1744 35.0833 79.7317 34.9846C78.3904 34.2113 74.9331 32.2913 73.5917 31.5179C73.2051 31.7419 72.8157 31.9646 72.4277 32.1886C73.7691 32.9633 77.2264 34.8819 78.5677 35.6566" fill="#FBFDFE"/>
<path d="M80.2636 35.1127L80.5916 34.922L73.9582 31.0913L73.6436 31.0994L73.6409 31.1007L73.6289 31.282L80.2636 35.1127" fill="#FECD6A"/>
<path d="M78.304 36.2446L78.6333 36.0553L71.9973 32.2233L71.684 32.2313L71.68 32.2326L71.668 32.414L78.304 36.2446" fill="#FECD6A"/>
<path d="M78.3036 36.2446C79.3716 36.034 80.2302 35.5393 80.5916 34.922L80.3356 34.774C79.9716 35.39 79.1129 35.886 78.0449 36.0966L78.3036 36.2446Z" fill="#FECD6A"/>
<path d="M78.3768 47.1034C79.4448 46.8927 80.2301 46.4234 80.5915 45.8061L80.3355 45.6567C79.9715 46.2727 79.1875 46.7434 78.1182 46.9554L78.3768 47.1034Z" fill="#FED176"/>
<path d="M71.6074 43.1954L78.3768 47.1034V36.2327L71.6074 32.326V43.1954" fill="#FEB516"/>
<path d="M76.377 48.9207L79.017 47.3967V34.6753L76.377 36.1993V48.9207Z" fill="#45CCB8"/>
<path d="M76.6758 37.462V40.3193L78.7198 39.1407V36.282L76.6758 37.462" fill="#FEFEFE"/>
<path d="M78.7198 39.8793L76.6758 41.0606V47.3126L78.7198 46.134V39.8793Z" fill="#FEFEFE"/>
<path d="M76.6758 41.0606V47.3126L78.7198 46.134V39.8793L76.6758 41.0606Z" fill="#FEFEFE"/>
<path d="M76.6758 41.0606V47.3126L78.7198 46.134V39.8793L76.6758 41.0606Z" fill="#FEFEFE"/>
<path d="M76.6847 36.062L78.8313 34.8233L77.658 34.1447L75.5127 35.3847L76.6847 36.062" fill="#2FB299"/>
<path d="M72.2911 32.154L69.3564 31.4393V40.6606L76.7231 35.9633V35.3246L72.2911 32.154" fill="#ABDCE3"/>
<path d="M76.6452 35.4967C76.8465 35.1207 77.3585 34.826 78.0092 34.71C76.4399 33.8047 72.3945 31.558 70.8252 30.6527C70.3705 30.9154 69.9185 31.178 69.4639 31.4394C71.0332 32.346 75.0785 34.5914 76.6452 35.4967Z" fill="#FBFDFE"/>
<path d="M78.6325 34.8594L79.0165 34.6381L71.2525 30.1554L70.8832 30.162L70.8805 30.1647L70.8672 30.3767L78.6325 34.8594" fill="#37BFA8"/>
<path d="M76.3369 36.186L76.7235 35.9634L68.9582 31.4794L68.5902 31.4874L68.5876 31.49L68.5742 31.7021L76.3369 36.186Z" fill="#37BFA8"/>
<path d="M76.3365 36.186C77.5898 35.9394 78.5898 35.3594 79.0165 34.6381L78.7152 34.4634C78.2898 35.186 77.2858 35.766 76.0352 36.0114L76.3365 36.186Z" fill="#37BFA8"/>
<path d="M76.4234 48.8914C77.6727 48.646 78.5901 48.0954 79.0167 47.374L78.7154 47.1994C78.2901 47.9207 77.3714 48.4713 76.1221 48.7167L76.4234 48.8914Z" fill="#45CCB8"/>
<path d="M68.5039 44.3194L76.4239 48.8914V36.1714L68.5039 31.598V44.3194" fill="#2FB299"/>
<path d="M72.1279 50.7126L74.3826 49.41V38.5407L72.1279 39.8433V50.7126Z" fill="#45CCB8"/>
<path d="M72.3818 40.9221V43.3621L74.1298 42.3554V39.9127L72.3818 40.9221Z" fill="#FEFEFE"/>
<path d="M74.1298 42.9873L72.3818 43.9967V49.3394L74.1298 48.3313V42.9873" fill="#FEFEFE"/>
<path d="M72.3818 43.9967V49.3394L74.1298 48.3313V42.9873L72.3818 43.9967" fill="#FEFEFE"/>
<path d="M72.3818 43.9967V49.3394L74.1298 48.3313V42.9873L72.3818 43.9967" fill="#FEFEFE"/>
<path d="M72.3903 39.7247L74.225 38.6661L73.2224 38.0874L71.3877 39.1461L72.3903 39.7247Z" fill="#2FB299"/>
<path d="M68.6356 36.3847L66.1289 35.7754V43.6554L72.4236 39.6407V39.0954L68.6356 36.3847" fill="#ABDCE3"/>
<path d="M72.3564 39.2421C72.5284 38.9207 72.9644 38.6687 73.5218 38.5701C72.1804 37.7967 68.7231 35.8767 67.3818 35.1034C66.9924 35.3274 66.6058 35.5501 66.2178 35.7754C67.5591 36.5487 71.0151 38.4674 72.3564 39.2421" fill="#FBFDFE"/>
<path d="M74.0546 38.698L74.3826 38.5073L67.7493 34.6766L67.4332 34.6833L67.4306 34.686L67.4199 34.8673L74.0546 38.698" fill="#37BFA8"/>
<path d="M72.0927 39.83L72.4233 39.6406L65.786 35.8086L65.4727 35.8166L65.4687 35.8179L65.458 35.9993L72.0927 39.83" fill="#37BFA8"/>
<path d="M72.0933 39.83C73.1626 39.6193 74.02 39.1246 74.3826 38.5073L74.1266 38.3593C73.7613 38.9753 72.9039 39.4713 71.8359 39.6819L72.0933 39.83Z" fill="#37BFA8"/>
<path d="M72.1665 50.6887C73.2345 50.4781 74.0199 50.0074 74.3825 49.3914L74.1265 49.2421C73.7612 49.8581 72.9785 50.3301 71.9092 50.5394L72.1665 50.6887" fill="#45CCB8"/>
<path d="M65.3984 46.7807L72.1664 50.6887V39.818L65.3984 35.91V46.7807Z" fill="#2FB299"/>
<path d="M66.6621 53.7594L69.1715 52.3101V40.2167L66.6621 41.6661V53.7594Z" fill="#FED176"/>
<path d="M66.9453 42.866V45.582L68.8893 44.4607V41.7434L66.9453 42.866Z" fill="#FEFEFE"/>
<path d="M68.8893 45.1633L66.9453 46.286V52.2313L68.8893 51.11V45.1633" fill="#FEFEFE"/>
<path d="M66.9453 46.286V52.2313L68.8893 51.11V45.1633L66.9453 46.286" fill="#FEFEFE"/>
<path d="M66.9453 46.286V52.2313L68.8893 51.11V45.1633L66.9453 46.286" fill="#FEFEFE"/>
<path d="M66.9545 41.5354L68.9958 40.3567L67.8812 39.7127L65.8398 40.8914L66.9545 41.5354Z" fill="#FEB516"/>
<path d="M62.7766 37.8193L59.9873 37.1407V45.906L66.9899 41.4407V40.834L62.7766 37.8193" fill="#ABDCE3"/>
<path d="M66.9182 40.998C67.1089 40.6394 67.5915 40.3594 68.2129 40.25C66.7209 39.3887 62.8742 37.254 61.3835 36.3927C60.9529 36.642 60.5209 36.8914 60.0889 37.1407C61.5795 38.0007 65.4249 40.1367 66.9182 40.998Z" fill="#FBFDFE"/>
<path d="M68.8078 40.3927L69.1718 40.182L61.7905 35.918L61.4412 35.9274L61.4372 35.9287L61.4238 36.13L68.8078 40.3927" fill="#FECD6A"/>
<path d="M66.6245 41.6514L66.9898 41.4407L59.6085 37.1794L59.2578 37.186L59.2565 37.1874L59.2432 37.39L66.6245 41.6514" fill="#FECD6A"/>
<path d="M66.6245 41.6514C67.8125 41.418 68.7672 40.8674 69.1712 40.182L68.8846 40.0154C68.4806 40.702 67.5272 41.2527 66.3379 41.486L66.6245 41.6514Z" fill="#FECD6A"/>
<path d="M66.7052 53.7313C67.8946 53.498 68.7679 52.974 69.1719 52.2873L68.8853 52.122C68.4813 52.8086 67.6079 53.3327 66.4199 53.566L66.7052 53.7313Z" fill="#FED176"/>
<path d="M59.1768 49.3846L66.7048 53.7313V41.638L59.1768 37.2913V49.3846Z" fill="#FEB516"/>
<path d="M63.3965 56.0793L65.6512 54.778V43.9087L63.3965 45.21V56.0793Z" fill="#45CCB8"/>
<path d="M63.6504 46.2886V48.73L65.3984 47.7233V45.2793L63.6504 46.2886Z" fill="#FEFEFE"/>
<path d="M65.3984 48.354L63.6504 49.3634V54.7074L65.3984 53.6994V48.354Z" fill="#FEFEFE"/>
<path d="M63.6504 49.3634V54.7074L65.3984 53.6994V48.354L63.6504 49.3634Z" fill="#FEFEFE"/>
<path d="M63.6504 49.3634V54.7074L65.3984 53.6994V48.354L63.6504 49.3634Z" fill="#FEFEFE"/>
<path d="M63.6586 45.0927L65.4932 44.0327L64.4906 43.454L62.6572 44.514L63.6586 45.0927" fill="#2FB299"/>
<path d="M59.9032 41.7526L57.3965 41.142V49.022L63.6911 45.0073V44.4633L59.9032 41.7526Z" fill="#ABDCE3"/>
<path d="M63.6263 44.61C63.797 44.2887 64.2343 44.0367 64.7903 43.9367C63.4503 43.1633 59.9917 41.2447 58.6503 40.47C58.2637 40.694 57.8743 40.918 57.4863 41.142C58.8277 41.9167 62.2863 43.8353 63.6263 44.61Z" fill="#FBFDFE"/>
<path d="M65.3218 44.066L65.6511 43.8754L59.0165 40.0447L58.7018 40.0514L58.6991 40.0527L58.6885 40.234L65.3218 44.066" fill="#37BFA8"/>
<path d="M63.3639 45.198L63.6919 45.0073L57.0546 41.1766L56.7426 41.1833L56.7399 41.186L56.7266 41.366L63.3639 45.198Z" fill="#37BFA8"/>
<path d="M63.3635 45.198C64.4302 44.9873 65.2875 44.4927 65.6515 43.8753L65.3942 43.7273C65.0315 44.3433 64.1728 44.8393 63.1035 45.0486L63.3635 45.198" fill="#37BFA8"/>
<path d="M63.4337 56.0553C64.5031 55.846 65.2871 55.3753 65.6511 54.758L65.3937 54.61C65.0311 55.226 64.2457 55.6966 63.1777 55.9073L63.4337 56.0553" fill="#45CCB8"/>
<path d="M56.668 52.1486L63.4346 56.0553V45.186L56.668 41.278V52.1486" fill="#2FB299"/>
<path d="M59.7129 57.8047L61.9702 56.5034V45.6313L59.7129 46.9354V57.8047Z" fill="#45CCB8"/>
<path d="M59.9678 48.014V50.4553L61.7145 49.4473V47.0047L59.9678 48.014Z" fill="#FEFEFE"/>
<path d="M61.7145 50.0794L59.9678 51.0874V56.4327L61.7145 55.4234V50.0794Z" fill="#FEFEFE"/>
<path d="M59.9678 51.0874V56.4327L61.7145 55.4234V50.0794L59.9678 51.0874Z" fill="#FEFEFE"/>
<path d="M59.9678 51.0874V56.4327L61.7145 55.4234V50.0794L59.9678 51.0874Z" fill="#FEFEFE"/>
<path d="M59.9773 46.818L61.8119 45.758L60.8106 45.1793L58.9746 46.2393L59.9773 46.818Z" fill="#2FB299"/>
<path d="M56.2205 43.4766L53.7139 42.8673V50.7473L60.0085 46.7327V46.1873L56.2205 43.4766" fill="#ABDCE3"/>
<path d="M59.9434 46.334C60.114 46.0127 60.55 45.7606 61.1074 45.662C59.766 44.8873 56.3087 42.9686 54.9687 42.1953C54.5807 42.418 54.1927 42.642 53.8047 42.8673C55.1447 43.6407 58.602 45.5593 59.9434 46.334Z" fill="#FBFDFE"/>
<path d="M61.6422 45.79L61.9702 45.6007L55.3342 41.7687L55.0196 41.7754L55.0169 41.778L55.0049 41.9594L61.6422 45.79" fill="#37BFA8"/>
<path d="M59.6799 46.922L60.0093 46.7327L53.3733 42.9007L53.0599 42.9087L53.056 42.91L53.0439 43.0913L59.6799 46.922" fill="#37BFA8"/>
<path d="M59.6799 46.922C60.7479 46.7127 61.6052 46.2167 61.9705 45.6007L61.7118 45.4513C61.3478 46.0687 60.4905 46.5633 59.4238 46.7727L59.6799 46.922Z" fill="#37BFA8"/>
<path d="M59.7542 57.7806C60.8208 57.57 61.6048 57.0993 61.9701 56.4833L61.7115 56.334C61.3475 56.9513 60.5635 57.4207 59.4941 57.6313L59.7542 57.7806" fill="#45CCB8"/>
<path d="M52.9834 53.8727L59.7541 57.7806V46.91L52.9834 43.0033V53.8727" fill="#2FB299"/>
<path d="M56.1299 59.7581L58.3846 58.4554V47.5847L56.1299 48.8874V59.7581Z" fill="#FED176"/>
<path d="M56.3848 49.966V52.4087L58.1327 51.4007V48.9567L56.3848 49.966" fill="#FEFEFE"/>
<path d="M58.1327 52.0313L56.3848 53.0407V58.3833L58.1327 57.3766V52.0313Z" fill="#FEFEFE"/>
<path d="M56.3848 53.0407V58.3833L58.1327 57.3766V52.0313L56.3848 53.0407Z" fill="#FEFEFE"/>
<path d="M56.3848 53.0407V58.3833L58.1327 57.3766V52.0313L56.3848 53.0407Z" fill="#FEFEFE"/>
<path d="M56.3933 48.77L58.228 47.7113L57.2253 47.1313L55.3906 48.1913L56.3933 48.77Z" fill="#FEB516"/>
<path d="M52.6385 45.43L50.1318 44.8193V52.6993L56.4252 48.6847V48.1393L52.6385 45.43" fill="#ABDCE3"/>
<path d="M56.3593 48.2874C56.5313 47.9647 56.966 47.714 57.5247 47.6153C56.1833 46.8407 52.726 44.922 51.3847 44.1473C50.9967 44.3713 50.6087 44.5967 50.2207 44.8194C51.562 45.594 55.018 47.514 56.3593 48.2874" fill="#FBFDFE"/>
<path d="M58.0569 47.7433L58.3849 47.5526L51.7516 43.722L51.4355 43.7286L51.4329 43.73L51.4209 43.9113L58.0569 47.7433" fill="#FECD6A"/>
<path d="M56.0956 48.8754L56.4249 48.6847L49.789 44.854L49.4756 44.8607L49.4716 44.862L49.4609 45.0447L56.0956 48.8754" fill="#FECD6A"/>
<path d="M56.0952 48.8754C57.1645 48.6647 58.0219 48.17 58.3846 47.5527L58.1285 47.4047C57.7632 48.0207 56.9059 48.5167 55.8379 48.726L56.0952 48.8754" fill="#FECD6A"/>
<path d="M56.1685 59.7327C57.2365 59.522 58.0218 59.0527 58.3845 58.4353L58.1285 58.2873C57.7631 58.9047 56.9791 59.374 55.9111 59.5847L56.1685 59.7327" fill="#FED176"/>
<path d="M49.4004 55.826L56.1684 59.7327V48.8633L49.4004 44.9553V55.826Z" fill="#FEB516"/>
<path d="M52.1875 61.9047L54.4888 61.2313L55.7115 50.6407L53.3128 51.458L52.1875 61.9047" fill="#45CCB8"/>
<path d="M53.4632 52.5367L53.2139 54.874L55.0459 54.2807L55.3112 51.9167L53.4632 52.5367" fill="#FEFEFE"/>
<path d="M54.9767 54.8941L53.1487 55.4821L52.582 60.6407L54.37 60.1074L54.9767 54.8941Z" fill="#FEFEFE"/>
<path d="M53.1487 55.4821L52.582 60.6407L54.37 60.1074L54.9767 54.8941L53.1487 55.4821Z" fill="#FEFEFE"/>
<path d="M53.1487 55.4821L52.582 60.6407L54.37 60.1074L54.9767 54.8941L53.1487 55.4821Z" fill="#FEFEFE"/>
<path d="M53.5886 51.3967L55.538 50.7327L54.5886 49.9914L52.6406 50.6541L53.5886 51.3967Z" fill="#2FB299"/>
<path d="M50.0951 47.5753L47.5885 46.59L47.0352 53.7646L53.6298 51.3233L53.6832 50.802L50.0951 47.5753" fill="#ABDCE3"/>
<path d="M53.6033 50.9314C53.8073 50.6567 54.27 50.4994 54.8393 50.5087C53.566 49.5234 50.2247 47.1221 48.914 46.1887C48.5007 46.3287 48.09 46.4687 47.6807 46.6061C48.9887 47.5394 52.3287 49.9434 53.6033 50.9314Z" fill="#FBFDFE"/>
<path d="M55.3651 50.7313L55.7145 50.61L49.3171 45.8593L48.9958 45.8153L48.9918 45.8166L48.9678 45.9793L55.3651 50.7313Z" fill="#37BFA8"/>
<path d="M53.2823 51.4393L53.6303 51.3233L47.2383 46.5633L46.9183 46.5166L46.9143 46.518L46.8916 46.6793L53.2823 51.4393" fill="#37BFA8"/>
<path d="M53.2825 51.4393C54.3718 51.446 55.2838 51.1353 55.7145 50.61L55.4718 50.418C55.0411 50.9433 54.1304 51.254 53.0371 51.2473L53.2825 51.4393" fill="#37BFA8"/>
<path d="M52.2274 61.8927C53.266 61.974 54.07 61.722 54.49 61.2127L54.2607 60.9994C53.842 61.5087 53.0394 61.7607 51.998 61.6793L52.2274 61.8927Z" fill="#45CCB8"/>
<path d="M46.0898 56.4634L52.2272 61.8927L53.3565 51.442L46.8352 46.59L46.0898 56.4634Z" fill="#2FB299"/>
<path d="M48.6866 135.658L90.4319 111.555V26.4873L48.6866 50.5886V135.658ZM91.9079 23.934V112.407L47.2119 138.211V49.738L91.9079 23.934" fill="#B5E0E7"/>
<path d="M90.4318 44.4767V42.3807L48.6865 66.4807V68.5793L90.4318 44.4767" fill="#B5E0E7"/>
<path d="M90.4318 61.73V59.6313L48.6865 83.734V85.8313L90.4318 61.73" fill="#B5E0E7"/>
<path d="M90.4318 78.982V76.8847L48.6865 100.986V103.085L90.4318 78.982" fill="#B5E0E7"/>
<path d="M24.8506 125.309L47.1972 138.211V49.738L24.8506 36.8353V125.309Z" fill="#98D4DD"/>
<path d="M47.2119 49.738L91.9079 23.934L69.5599 11.0314L24.8652 36.8354L47.2119 49.738Z" fill="#E6F4F7"/>
<path d="M90.4316 78.9819V111.555L69.5596 123.607V91.0326L90.4316 78.9819Z" fill="#B5E0E7"/>
<path d="M70.3673 91.5007V122.205L89.6233 111.089V80.3846L70.3673 91.5007ZM68.75 125.009V90.566L91.242 77.5806V112.022L68.75 125.009Z" fill="#79C7D3"/>
<path d="M48.6865 103.085L69.5598 91.0326V123.607L48.6865 135.658V103.085Z" fill="#B5E0E7"/>
<path d="M49.4956 103.551V134.257L68.7503 123.139V92.4353L49.4956 103.551ZM47.877 137.061V102.618L70.3676 89.6313V124.074L47.877 137.061Z" fill="#79C7D3"/>
<path d="M65.3262 102.902L66.1449 103.374C67.1062 103.929 67.8862 105.281 67.8862 106.39V108.354C67.8862 109.465 67.1062 109.914 66.1449 109.359L65.3262 108.887V102.902Z" fill="#B5E0E7"/>
<path d="M66.9266 110.349C66.5532 110.349 66.1559 110.235 65.7679 110.01L64.9506 109.539C64.5906 109.331 64.4679 108.871 64.6746 108.511C64.8826 108.151 65.3439 108.027 65.7026 108.235L66.5213 108.707C66.7746 108.853 66.9452 108.862 66.9986 108.829C67.0546 108.798 67.1332 108.645 67.1332 108.354V106.39C67.1332 105.551 66.4959 104.446 65.7692 104.026L64.9493 103.554C64.5906 103.346 64.4679 102.885 64.6746 102.525C64.8826 102.165 65.3452 102.042 65.7026 102.25L66.5226 102.722C67.7093 103.407 68.6399 105.019 68.6399 106.39V108.354C68.6399 109.159 68.3159 109.807 67.7533 110.133C67.5026 110.277 67.2212 110.349 66.9266 110.349Z" fill="#88CDD8"/>
<path d="M72.5273 99.554L73.3447 100.026C74.3074 100.581 75.086 101.933 75.086 103.043V105.006C75.086 106.117 74.3074 106.567 73.3447 106.011L72.5273 105.539V99.554Z" fill="#B5E0E7"/>
<path d="M74.1264 107.001C73.7544 107.001 73.3571 106.887 72.9691 106.663L72.1504 106.191C71.7904 105.985 71.6664 105.523 71.8744 105.163C72.0824 104.803 72.5424 104.681 72.9024 104.887L73.7211 105.359C73.9744 105.505 74.1464 105.515 74.1997 105.481C74.253 105.45 74.333 105.298 74.333 105.006V103.043C74.333 102.203 73.6957 101.098 72.9691 100.679L72.1491 100.206C71.7904 99.9981 71.6664 99.538 71.8744 99.178C72.0824 98.818 72.5437 98.6954 72.9037 98.9021L73.7211 99.3754C74.9091 100.061 75.8397 101.671 75.8397 103.043V105.006C75.8397 105.811 75.5171 106.461 74.9517 106.786C74.7024 106.93 74.4224 107.001 74.1264 107.001" fill="#88CDD8"/>
<path d="M87.8955 74.4554C88.0235 74.3274 89.1662 70.5834 90.0129 67.9167C90.8609 65.2487 93.3262 62.67 95.0422 62.9807C96.7582 63.29 97.4969 66.2727 96.7782 68.81C96.0582 71.346 91.2635 78.4247 90.0902 78.7727C88.9155 79.1207 87.8955 74.4554 87.8955 74.4554" fill="#ADD4E1"/>
<path d="M80.1865 69.65C80.1865 69.65 83.2959 76.3967 85.9185 77.8527C87.9799 78.9994 90.2638 80.4741 91.0998 76.7367C91.6385 74.3287 88.4959 72.8834 85.8212 70.814C84.3465 69.6714 83.1332 67.1967 82.4772 66.9567C80.6292 66.2781 80.1865 69.65 80.1865 69.65Z" fill="#FFDFCF"/>
<path d="M79.4697 68.2767C79.4697 68.2767 80.7244 71.1287 81.3671 72.2967C82.0084 73.462 84.1271 76.6993 84.1271 76.6993C84.1271 76.6993 86.6884 76.4447 87.3457 74.4127C88.0017 72.382 87.8951 71.7033 87.8951 71.7033C87.8951 71.7033 85.4844 70.7047 84.723 69.7087C83.9617 68.714 82.4937 66.7393 82.4937 66.7393L79.4697 68.2767Z" fill="#FF7D3D"/>
<path d="M97.7048 90.454C97.7048 90.454 96.7462 94.234 98.7248 96.574C100.705 98.9127 101.394 99.0993 101.904 99.3927C102.413 99.6873 104.754 99.0633 104.904 98.9127C105.054 98.7633 107.246 92.3087 106.942 92.134C106.641 91.9593 97.7048 90.454 97.7048 90.454Z" fill="#2E1010"/>
<path d="M113.209 130.43C113.209 130.43 113.407 130.923 113.407 132.007C113.407 133.093 112.026 134.275 111.534 135.262C111.039 136.247 109.562 137.923 107.59 138.515C105.618 139.106 104.78 139.155 104.463 138.439C104.042 137.493 105.09 135.518 106.011 134.595C107.407 133.201 108.97 131.406 108.97 131.406L113.209 130.43" fill="#571A04"/>
<path d="M108.131 131.527C108.131 131.527 108.715 127.122 108.111 123.241C107.508 119.359 106.105 118.234 105.265 116.609C102.779 111.795 103.628 103.931 103.196 99.3606C102.764 94.79 103.196 93.4966 103.196 93.4966C105.869 89.2713 110.527 91.1686 112.252 92.8926C113.977 94.618 111.044 112.641 111.044 113.073C111.044 113.505 113.113 117.989 113.804 119.799C114.493 121.61 113.716 130.406 113.716 130.406C113.716 130.406 111.955 132.17 108.131 131.527" fill="#07A2B2"/>
<path d="M99.5195 126.007V126.358L101.666 127.598V126.79L99.5195 126.007" fill="black"/>
<path d="M103.191 126.031C103.182 126.246 102.963 125.386 102.681 125.549L101.666 126.79V127.598L102.753 126.971C102.997 126.83 103.141 126.651 103.181 126.467C103.211 126.329 103.203 126.159 103.191 126.031Z" fill="#571A04"/>
<path d="M103.202 125.039V126.046C103.188 126.046 102.184 126.79 101.422 126.935C100.625 127.085 98.2423 129.917 96.9236 130.534C92.7756 132.479 92.3583 130.587 92.3903 130.411C92.5129 129.727 93.4183 128.789 94.0489 128.425C94.8423 127.966 95.5809 126.41 95.9596 125.798C96.3383 125.185 97.2103 123.894 97.8289 124.25C98.4489 124.609 99.8956 125.798 99.8956 125.798C99.8956 125.798 101.93 124.689 102.257 124.134C102.584 123.579 102.692 122.763 102.692 122.763C102.692 122.763 103.202 124.105 103.202 125.039" fill="#571A04"/>
<path d="M102.257 124.134C102.527 123.677 102.647 123.039 102.681 122.831C102.613 122.722 102.482 122.63 102.257 122.501C101.61 122.127 100.707 122.607 100.114 123.201C99.77 123.545 98.9206 124.117 98.2646 124.538C98.954 125.023 99.8953 125.798 99.8953 125.798C99.8953 125.798 101.93 124.689 102.257 124.134Z" fill="#AB4003"/>
<path d="M101.746 122.369C101.187 122.369 100.562 122.753 100.114 123.201C99.77 123.545 98.558 124.326 97.9033 124.746L99.5487 126.021C99.5487 126.021 101.93 124.689 102.257 124.134C102.527 123.677 102.647 123.039 102.681 122.831C102.613 122.722 102.482 122.63 102.257 122.501C102.099 122.41 101.925 122.369 101.746 122.369V122.369ZM101.746 122.485C101.914 122.485 102.066 122.523 102.201 122.601C102.37 122.698 102.493 122.779 102.559 122.859C102.521 123.087 102.401 123.662 102.158 124.077C101.913 124.494 100.258 125.487 99.5593 125.882L98.102 124.755C98.746 124.341 99.8633 123.615 100.197 123.282C100.582 122.897 101.191 122.485 101.746 122.485Z" fill="#E0A273"/>
<path d="M103.202 125.039V125.769C103.194 125.769 102.774 125.955 102.29 126.218C101.839 126.462 101.163 126.281 100.878 126.563C100.701 126.739 100.267 127.298 99.862 127.701C98.9527 128.602 97.8473 129.857 96.9233 130.257C93.8047 131.606 92.8567 131.411 92.5514 130.249C92.3754 129.577 93.5953 128.266 94.226 127.901C94.6873 127.635 94.6273 127.542 95.198 126.935C95.6073 126.497 95.7993 126.054 95.9593 125.798C96.198 125.414 96.6287 124.762 97.0713 124.418C97.3327 124.214 97.598 124.118 97.8287 124.251L98.098 124.422L98.2647 124.538C98.954 125.025 99.894 125.798 99.894 125.798C99.894 125.798 101.93 124.689 102.257 124.134C102.527 123.677 102.647 123.039 102.681 122.831L102.691 122.763C102.691 122.763 102.915 123.354 103.067 124.023C103.145 124.363 103.202 124.725 103.202 125.039" fill="#4D1602"/>
<path d="M94.2773 87.8286C94.2773 87.8286 94.5707 86.3446 94.6547 90.7073C94.6867 92.2913 94.6907 94.6446 94.6427 98.1193C94.528 106.667 95.2293 108.499 96.1773 110.886C97.4627 114.127 96.5613 124.194 96.5613 124.194C96.5613 124.194 98.7014 126.401 100.355 125.549C103.744 123.803 102.955 121.979 102.955 121.979C102.955 121.979 103.097 114.406 102.055 110.603C101.676 109.222 103.351 103.639 103.667 100.598C104.737 90.2793 105.341 97.326 103.781 91.506C103.145 89.138 94.2773 87.8286 94.2773 87.8286Z" fill="#07A2B2"/>
<path d="M104.348 62.9673C104.348 62.9673 111.844 64.6833 113.534 66.7633C115.226 68.8447 112.349 69.2113 111.818 73.8206C111.289 78.4273 110.633 81.2313 110.633 84.4166C110.633 85.0473 110.962 87.814 111.804 89.194C112.644 90.5753 112.882 94.5927 112.882 94.5927C112.882 94.5927 110.341 94.5726 104.822 93.2513C99.3024 91.9326 92.1717 91.0366 95.0397 86.05C95.8344 84.67 95.9744 81.4927 95.6131 79.574C95.2557 77.654 92.565 64.122 94.4597 63.0873C96.3557 62.0526 104.348 62.9673 104.348 62.9673" fill="#ADD4E1"/>
<path d="M97.0533 64.3354C96.02 65.3674 95.3066 73.2274 95.3066 73.2274V73.566L97.0533 73.3967C97.0533 73.3967 97.2146 70.6874 97.2146 68.9927C97.2146 67.2994 99.1227 63.9034 99.1227 63.9034C99.1227 63.9034 98.0853 63.3034 97.0533 64.3354" fill="#07A2B2"/>
<path d="M97.7207 69.8673L97.77 69.8393L97.7354 69.55C97.726 69.738 97.7207 69.8673 97.7207 69.8673" fill="#DED2D2"/>
<path d="M97.8916 64.0886C97.8916 64.0886 99.4583 66.3766 99.441 67.0513C99.425 67.726 98.7769 68.7886 99.0703 69.7406C99.3636 70.6926 101.534 68.046 103.27 66.854C105.36 65.418 105.736 63.4793 105.736 63.4793C105.736 63.4793 104.257 63.206 104.292 61.766C104.326 60.326 97.8916 64.0886 97.8916 64.0886" fill="#F0A96D"/>
<path d="M94.7845 54.3114C94.7845 54.3114 93.9378 57.386 94.4325 58.346C94.9271 59.3074 95.2005 58.6234 95.1738 59.83C95.1445 61.038 94.6738 60.8527 94.9578 61.9127C95.2204 62.8927 95.5005 63.462 96.0111 64.5274C96.6058 65.7714 98.9098 65.6874 100.402 64.8714C101.894 64.0554 104.867 62.1314 105.518 60.162C106.071 58.49 108.391 52.4647 103.748 50.33C103.474 50.2047 103.175 50.0927 102.848 49.9967C99.9645 49.77 97.2538 48.4154 95.3391 53.0354C94.9871 53.758 94.7845 54.3114 94.7845 54.3114" fill="#FFCCB3"/>
<path d="M103.578 58.262C103.592 58.2313 104.057 57.3153 104.473 57.6233C104.888 57.93 105.15 58.5007 104.984 59.258C104.816 60.0167 104.392 60.9407 103.873 60.914C103.356 60.8873 103.194 60.9527 102.928 60.5407C102.661 60.13 102.842 59.6713 102.842 59.6713L103.578 58.262Z" fill="#FFEAE1"/>
<path d="M103.366 58.3273C103.378 58.2966 103.844 57.382 104.258 57.6886C104.674 57.9953 104.937 58.566 104.77 59.3233C104.604 60.0806 104.18 61.006 103.66 60.9793C103.142 60.954 102.981 61.0193 102.714 60.606C102.448 60.1953 102.63 59.7367 102.63 59.7367L103.366 58.3273Z" fill="#FFCCB3"/>
<path d="M103.764 58.574C103.764 58.574 103.91 59.0353 103.964 59.2367C104.017 59.4367 104.066 59.766 103.954 59.9193C103.841 60.074 103.738 60.1753 103.738 60.1753C103.738 60.1753 103.79 59.3767 103.734 59.0713C103.68 58.766 103.666 58.4953 103.808 58.278C103.948 58.0593 104.066 57.7766 104.261 58.0473C104.46 58.3166 104.617 58.614 104.55 59.094C104.482 59.5727 104.309 60.0766 104.081 60.2886C103.853 60.4993 103.552 60.5927 103.552 60.5927C103.552 60.5927 104.152 60.3646 104.289 59.8193C104.424 59.2753 104.506 58.4273 104.345 58.274C104.185 58.1233 104.161 58.0913 104.137 58.2967C104.112 58.502 104.214 58.8166 104.072 58.71C103.926 58.6033 103.924 58.3153 103.828 58.4287L103.764 58.574" fill="#FF884D"/>
<path d="M103.611 59.4833L103.46 59.0393C103.366 59.05 103.347 59.0513 103.28 59.2006C103.213 59.35 103.201 59.406 103.061 59.358C102.924 59.3113 102.829 59.186 102.944 59.394C103.056 59.6033 103.1 59.3886 103.301 59.5366C103.5 59.6846 103.422 59.8753 103.56 59.894C103.7 59.9126 103.632 59.6033 103.59 59.5126L103.611 59.4833Z" fill="#FF884D"/>
<path d="M97.1408 56.5794C99.8701 57.6154 101.666 57.4327 101.666 58.6327C101.666 59.834 102.221 61.3087 102.221 61.3087C102.221 61.3087 102.893 55.1807 105.034 57.926C106.239 59.4687 105.117 60.9807 105.117 60.9807C105.117 60.9807 110.902 55.8367 106.822 50.8714C106.51 50.4914 104.05 49.442 103.695 49.3474C96.1101 47.314 95.2208 53.538 93.3154 52.946C93.3154 52.946 94.4114 55.5434 97.1408 56.5794Z" fill="#331A1C"/>
<path d="M83.3466 75.1287C83.196 75.6207 82.788 75.7127 82.4373 75.3367C81.1306 69.6127 79.8213 63.8887 78.5146 58.166C78.864 58.542 79.2707 58.4487 79.4227 57.958C80.7293 63.682 82.0386 69.406 83.3466 75.1287" fill="#D5EDF3"/>
<path d="M79.4132 60.0607C79.5212 60.5247 79.3345 59.706 78.9252 57.926C79.3345 59.706 79.5212 60.5247 79.4118 60.062C79.5198 60.5247 79.3332 59.706 78.9252 57.926C79.3332 59.706 79.5198 60.5247 79.4118 60.062C79.5185 60.5247 79.3318 59.706 78.9238 57.926C79.3318 59.706 79.5185 60.5247 79.4105 60.062C79.5172 60.5247 79.3305 59.706 78.9238 57.926C79.3305 59.706 79.5158 60.526 79.4092 60.062C79.5158 60.526 79.3292 59.706 78.9212 57.9274C79.3279 59.7074 79.5145 60.526 79.4065 60.062C79.5132 60.526 79.3265 59.7074 78.9199 57.9274C79.3252 59.7074 79.5118 60.526 79.4038 60.0634C79.5105 60.5274 79.3225 59.7087 78.9159 57.9287C79.3212 59.7087 79.5078 60.5274 79.4012 60.0634C79.5052 60.5274 79.3172 59.7087 78.9118 57.93C79.3158 59.71 79.5012 60.5287 79.3958 60.0647C79.4985 60.53 79.3105 59.7114 78.9038 57.9314C79.3065 59.7114 79.4905 60.5314 79.3839 60.0674C79.4865 60.5327 79.2959 59.7154 78.8892 57.9354C79.2879 59.7167 79.4705 60.5354 79.3678 60.0714C79.4625 60.538 79.2705 59.7207 78.8665 57.9394C79.0305 59.7554 78.9999 60.606 78.7865 60.158C78.9439 60.6087 78.9118 59.7634 78.7052 57.9487C78.4758 59.7274 78.0945 60.546 77.7172 60.078C77.9999 60.5234 78.2798 59.6834 78.4465 57.8887C77.9305 59.5607 77.3118 60.2914 76.8318 59.7887C77.1865 60.2354 77.6759 59.4434 78.1145 57.7287C77.4025 59.282 76.6345 59.926 76.1105 59.4034C76.4972 59.8394 77.1332 59.102 77.7665 57.4847C76.9078 58.9207 76.0372 59.4914 75.4985 58.9674C75.9012 59.382 76.6425 58.6927 77.4292 57.1754C76.4518 58.4981 75.5065 59.006 74.9678 58.4967C75.3772 58.8794 76.2012 58.2367 77.1185 56.822C76.0412 58.0354 75.0385 58.4914 74.5065 58.0074C74.9185 58.3514 75.8118 57.746 76.8358 56.434C75.6732 57.5367 74.6212 57.942 74.0958 57.49C74.5105 57.79 75.4665 57.2234 76.5852 56.014C75.3479 57.006 74.2545 57.3674 73.7358 56.954C74.1545 57.206 75.1652 56.6754 76.3678 55.574C75.0678 56.4527 73.9372 56.7687 73.4238 56.3967C73.8505 56.598 74.9105 56.1034 76.1879 55.11C74.8305 55.8727 73.6678 56.1434 73.1585 55.8154C73.5932 55.9687 74.7012 55.5167 76.0412 54.6394C74.6492 55.3407 73.4718 55.622 72.9785 55.3714C73.4038 55.4514 74.5265 54.9927 75.9052 54.1807C74.4745 54.818 73.2812 55.1034 72.7958 54.926C73.2118 54.934 74.3532 54.47 75.7678 53.7207C74.3012 54.2967 73.0905 54.59 72.6159 54.486C73.0239 54.422 74.1812 53.9554 75.6345 53.2714C74.1305 53.782 72.9025 54.0807 72.4372 54.0487C72.8345 53.9114 74.0092 53.438 75.4985 52.8167C73.9572 53.2634 72.7118 53.566 72.2572 53.6047C72.6425 53.3927 73.8332 52.9114 75.3612 52.3527C73.7798 52.734 72.5185 53.0407 72.0732 53.154C72.4465 52.8674 73.6559 52.382 75.2225 51.8887C73.6025 52.206 72.3238 52.518 71.8905 52.7047C72.2545 52.346 73.4799 51.854 75.0852 51.4247C73.4252 51.674 72.1292 51.9927 71.7052 52.2527C72.0598 51.8194 73.3039 51.3234 74.9465 50.9594C73.2519 51.1447 71.9345 51.4687 71.5225 51.8034C71.8652 51.294 73.1252 50.7887 74.8078 50.4887C73.0718 50.606 71.7385 50.934 71.3345 51.342C71.6652 50.7567 72.9438 50.246 74.6652 50.0127C72.8812 50.03 71.5185 50.33 71.1159 50.7967C71.4292 50.1047 72.7278 49.5714 74.4972 49.406C72.6638 49.318 71.2759 49.606 70.8812 50.158C71.1999 49.382 72.5332 48.8607 74.3559 48.802C72.4785 48.6034 71.0678 48.8714 70.6785 49.502C71.0065 48.646 72.3772 48.1474 74.2519 48.2034C72.3425 47.882 70.9092 48.1207 70.5199 48.8234C70.8679 47.8967 72.2798 47.4327 74.1985 47.6127C72.2665 47.1567 70.8185 47.3474 70.4238 48.1114C70.8038 47.1287 72.2572 46.7167 74.2078 47.0394C72.2852 46.4234 70.8318 46.5394 70.4278 47.3434C70.8532 46.3274 72.3425 46.002 74.3092 46.494C72.4372 45.6754 71.0172 45.6674 70.6078 46.4767C71.0812 45.482 72.5772 45.3074 74.5078 46.0207C72.7945 44.946 71.4919 44.7447 71.1159 45.498C71.5905 44.606 72.9972 44.6754 74.7799 45.678C73.4119 44.2967 72.4159 43.8207 72.1812 44.4407C72.5372 43.7287 73.6572 44.1194 75.0985 45.4567C74.2465 43.8074 73.7345 43.082 73.7638 43.5647C73.9305 43.002 74.6332 43.654 75.5892 45.262C75.2452 43.4647 75.1892 42.6114 75.4412 43.038C75.3278 42.5767 75.5158 43.394 75.9332 45.1714C75.5158 43.394 75.3278 42.5754 75.4425 43.038C75.3292 42.5754 75.5172 43.394 75.9345 45.1714C75.5185 43.394 75.3305 42.5754 75.4438 43.0367C75.3305 42.5754 75.5198 43.394 75.9358 45.1714C75.5198 43.394 75.3318 42.5754 75.4465 43.0367C75.3332 42.5754 75.5212 43.3927 75.9372 45.17C75.5225 43.3927 75.3345 42.574 75.4492 43.0367C75.3359 42.574 75.5252 43.3914 75.9398 45.17C75.5265 43.3914 75.3385 42.574 75.4519 43.0354C75.3399 42.5727 75.5292 43.3914 75.9438 45.1687C75.5305 43.39 75.3425 42.5727 75.4559 43.034C75.3452 42.5727 75.5345 43.39 75.9492 45.1674C75.5345 43.3887 75.3492 42.5714 75.4638 43.0327C75.3518 42.57 75.5412 43.3887 75.9559 45.166C75.5439 43.3874 75.3598 42.5687 75.4732 43.0314C75.3638 42.5674 75.5532 43.3847 75.9665 45.1634C75.5598 43.3834 75.3759 42.5647 75.4879 43.0274C75.3839 42.5634 75.5759 43.3807 75.9879 45.1594C75.5879 43.378 75.4065 42.5567 75.5199 43.0207C75.4225 42.554 75.6145 43.3727 76.0238 45.1514C75.9118 43.3127 76.0318 42.4354 76.3345 42.8634C76.2825 42.3954 76.4025 43.2354 76.6452 45.05C77.0305 43.186 77.5718 42.302 78.0572 42.7487C77.7465 42.3074 77.3719 43.1927 77.0825 45.054C77.9759 43.2687 78.9718 42.4794 79.6798 42.998C79.1158 42.522 78.2585 43.3487 77.4492 45.1514C78.7092 43.53 80.0132 42.91 80.8465 43.534C80.1532 43.002 78.9945 43.7087 77.8265 45.3727C79.2892 43.934 80.7292 43.4727 81.5772 44.1727C80.8532 43.614 79.5465 44.2074 78.1745 45.7154C79.7438 44.446 81.2265 44.106 82.0358 44.8314C81.3225 44.2794 79.9545 44.786 78.4692 46.1487C80.0905 45.0274 81.5758 44.774 82.3345 45.4874C81.6452 44.966 80.2518 45.406 78.7012 46.6314C80.3505 45.6434 81.8198 45.45 82.5305 46.1274C81.8705 45.6554 80.4732 46.0487 78.8865 47.1514C80.5479 46.2887 81.9972 46.1434 82.6625 46.77C82.0345 46.3567 80.6398 46.7127 79.0332 47.6954C80.6972 46.9514 82.1239 46.8407 82.7492 47.4074C82.1452 47.0607 80.7639 47.3887 79.1492 48.2594C80.8105 47.6314 82.2118 47.5527 82.8025 48.0514C82.2265 47.7767 80.8625 48.078 79.2465 48.8367C80.8972 48.2954 82.2758 48.2127 82.8385 48.622C82.2892 48.43 80.9452 48.7287 79.3372 49.398C80.9798 48.9447 82.3372 48.8647 82.8732 49.19C82.3518 49.0834 81.0292 49.3794 79.4278 49.9607C81.0638 49.5967 82.4012 49.5207 82.9105 49.7634C82.4145 49.7407 81.1132 50.034 79.5199 50.5274C81.1465 50.2514 82.4638 50.1794 82.9452 50.3367C82.4772 50.3967 81.1972 50.6847 79.6105 51.0874C81.2305 50.8994 82.5252 50.8287 82.9798 50.9034C82.5385 51.0487 81.2785 51.3354 79.7012 51.6527C81.3145 51.554 82.5892 51.4874 83.0172 51.478C82.6012 51.706 81.3638 51.99 79.7932 52.2167C81.3985 52.2074 82.6492 52.142 83.0532 52.05C82.6625 52.3634 81.4479 52.6447 79.8839 52.7834C81.4825 52.8634 82.7118 52.8034 83.0905 52.6274C82.7265 53.0234 81.5332 53.302 79.9772 53.35C81.5678 53.5194 82.7758 53.4607 83.1238 53.1994C82.7892 53.6847 81.6172 53.962 80.0692 53.9234C81.6518 54.1834 82.8398 54.1314 83.1612 53.7874C82.8532 54.3567 81.7012 54.6327 80.1625 54.502C81.7358 54.854 82.8985 54.8047 83.1932 54.374C82.9052 54.9834 81.7625 55.21 80.2185 54.962C81.7812 55.434 82.9212 55.4367 83.1852 54.9647C82.9119 55.61 81.7798 55.7834 80.2398 55.4154C81.7798 56.014 82.8892 56.0727 83.1278 55.5674C82.8665 56.242 81.7492 56.354 80.2199 55.8567C81.7279 56.5887 82.8012 56.714 83.0159 56.1794C82.7625 56.8754 81.6678 56.914 80.1598 56.282C81.6198 57.1594 82.6452 57.3607 82.8358 56.8074C82.5932 57.5154 81.5265 57.4687 80.0545 56.69C81.4439 57.7207 82.4105 58.0127 82.5732 57.4487C82.3438 58.15 81.3198 57.998 79.9078 57.0567C81.1972 58.2527 82.0812 58.6487 82.2092 58.0887C82.0038 58.7634 81.0478 58.486 79.7238 57.3674C80.8678 58.738 81.6359 59.2554 81.7225 58.7154C81.5545 59.3434 80.7065 58.918 79.5132 57.61C80.4572 59.154 81.0572 59.8007 81.0798 59.294C80.9772 59.862 80.2905 59.2807 79.2918 57.7794C79.9705 59.474 80.3518 60.234 80.2918 59.7634C80.2692 60.2727 79.7958 59.554 79.0572 57.8887C79.4305 59.678 79.5665 60.5114 79.4132 60.0607" fill="#FF5D0D"/>
<path d="M79.4102 60.062C79.5182 60.5246 79.3315 59.706 78.9235 57.926C79.3302 59.706 79.5169 60.5246 79.4102 60.062C79.5169 60.5246 79.3302 59.706 78.9235 57.926C79.3302 59.706 79.5169 60.5246 79.4089 60.062C79.5169 60.526 79.3289 59.706 78.9222 57.9273C79.3289 59.706 79.5156 60.526 79.4089 60.062C79.5156 60.526 79.3276 59.7073 78.9209 57.9273C79.3276 59.7073 79.5142 60.526 79.4076 60.062C79.5142 60.526 79.3262 59.7073 78.9196 57.9273C79.3262 59.7073 79.5129 60.526 79.4062 60.0633C79.5116 60.526 79.3249 59.7073 78.9182 57.9273C79.3236 59.7073 79.5102 60.5273 79.4035 60.0633C79.5089 60.5273 79.3222 59.7086 78.9156 57.9286C79.3209 59.7086 79.5075 60.5273 79.4009 60.0633C79.5062 60.5273 79.3182 59.7086 78.9116 57.9286C79.3156 59.71 79.5022 60.5286 79.3969 60.0646C79.4995 60.5286 79.3115 59.71 78.9049 57.93C79.3102 59.7113 79.4942 60.53 79.3876 60.066C79.4902 60.5313 79.3009 59.714 78.8942 57.934C79.2942 59.7153 79.4782 60.534 79.3729 60.07C79.4716 60.5353 79.2809 59.718 78.8742 57.938C79.0902 59.742 79.1049 60.582 78.9156 60.1286C79.0596 60.5833 78.9956 59.7433 78.7489 57.9393C78.6449 59.6873 78.3796 60.4806 78.0556 60.0006C78.3022 60.4553 78.4862 59.6353 78.5369 57.8673C78.2022 59.498 77.7409 60.1926 77.3342 59.674C77.6382 60.1313 77.9929 59.3713 78.2635 57.6926C77.7662 59.198 77.1822 59.7993 76.7396 59.2593C77.0689 59.7086 77.5436 59.0086 77.9769 57.4366C77.3542 58.8193 76.6862 59.3433 76.2302 58.8006C76.5715 59.2286 77.1329 58.5806 77.6929 57.1153C76.9715 58.3806 76.2382 58.8393 75.7849 58.31C76.1289 58.7073 76.7595 58.1086 77.4262 56.7513C76.6222 57.9033 75.8422 58.3073 75.3929 57.8033C75.7369 58.1633 76.4236 57.606 77.1849 56.354C76.3062 57.3926 75.4822 57.746 75.0409 57.274C75.3862 57.59 76.1235 57.0726 76.9635 55.9273C76.0209 56.854 75.1622 57.1593 74.7302 56.7273C75.0755 56.9953 75.8595 56.518 76.7702 55.4806C75.7689 56.2926 74.8809 56.5526 74.4542 56.1606C74.8036 56.3793 75.6289 55.938 76.6035 55.014C75.5555 55.7073 74.6382 55.9206 74.2142 55.5753C74.5702 55.7446 75.4342 55.3486 76.4662 54.542C75.3849 55.1713 74.4569 55.3966 74.0489 55.126C74.3929 55.2233 75.2702 54.8233 76.3355 54.082C75.2209 54.6473 74.2809 54.8753 73.8836 54.678C74.2169 54.7033 75.1076 54.298 76.2062 53.6206C75.0582 54.1233 74.1036 54.358 73.7209 54.234C74.0422 54.1886 74.9462 53.7806 76.0782 53.17C74.8982 53.606 73.9302 53.846 73.5569 53.7926C73.8675 53.6753 74.7862 53.2606 75.9489 52.714C74.7369 53.0846 73.7555 53.326 73.3929 53.3446C73.6902 53.1526 74.6209 52.7326 75.8169 52.2486C74.5702 52.5526 73.5755 52.798 73.2249 52.89C73.5102 52.6246 74.4569 52.2006 75.6862 51.7833C74.4062 52.022 73.3969 52.2726 73.0582 52.438C73.3315 52.0993 74.2902 51.6686 75.5556 51.3166C74.2396 51.4886 73.2169 51.7433 72.8902 51.982C73.1529 51.57 74.1262 51.134 75.4235 50.8513C74.0742 50.9566 73.0369 51.2166 72.7222 51.5286C72.9742 51.0406 73.9582 50.598 75.2902 50.3793C73.9062 50.4153 72.8556 50.678 72.5516 51.0633C72.7902 50.4993 73.7876 50.0526 75.1542 49.9006C73.7276 49.8366 72.6516 50.0713 72.3516 50.514C72.5716 49.8446 73.5862 49.3753 74.9902 49.2926C73.5222 49.122 72.4249 49.3433 72.1369 49.8713C72.3529 49.1166 73.3956 48.6633 74.8502 48.6886C73.3422 48.406 72.2262 48.606 71.9422 49.2126C72.1649 48.382 73.2396 47.9513 74.7409 48.0913C73.1996 47.6873 72.0636 47.8566 71.7849 48.534C72.0196 47.6326 73.1275 47.2393 74.6689 47.5046C73.1062 46.9646 71.9569 47.086 71.6756 47.8246C71.9329 46.87 73.0782 46.53 74.6529 46.938C73.0862 46.2406 71.9289 46.2886 71.6436 47.0646C71.9356 46.0793 73.1129 45.826 74.7062 46.4033C73.1742 45.506 72.0369 45.4353 71.7476 46.2166C72.0796 45.2526 73.2676 45.1486 74.8449 45.9433C73.4236 44.8006 72.3756 44.542 72.1076 45.2713C72.4476 44.41 73.5769 44.5433 75.0476 45.6166C73.8889 44.186 73.0716 43.6713 72.9116 44.274C73.1649 43.586 74.0795 44.0233 75.2915 45.4113C74.5342 43.7433 74.0915 43.0006 74.1382 43.4793C74.2462 42.93 74.8356 43.6073 75.6756 45.2433C75.3169 43.4486 75.2342 42.602 75.4556 43.0353C75.3422 42.5726 75.5316 43.39 75.9449 45.1686C75.5316 43.39 75.3436 42.5726 75.4556 43.034C75.3436 42.5726 75.5329 43.39 75.9462 45.1686C75.5329 43.39 75.3449 42.5726 75.4569 43.034C75.3449 42.5713 75.5342 43.39 75.9476 45.1673C75.5342 43.39 75.3462 42.5713 75.4582 43.034C75.3475 42.5713 75.5342 43.39 75.9489 45.1673C75.5356 43.3886 75.3489 42.5713 75.4622 43.034C75.3489 42.5713 75.5369 43.3886 75.9516 45.1673C75.5369 43.3886 75.3515 42.57 75.4649 43.0326C75.3529 42.57 75.5396 43.3886 75.9542 45.166C75.5409 43.3873 75.3542 42.57 75.4675 43.0326C75.3569 42.57 75.5435 43.3873 75.9582 45.166C75.5462 43.3873 75.3596 42.5686 75.4729 43.0313C75.3622 42.5686 75.5502 43.386 75.9635 45.1646C75.5529 43.3846 75.3676 42.5673 75.4782 43.0286C75.3716 42.566 75.5609 43.3833 75.9742 45.162C75.5662 43.382 75.3809 42.5633 75.4915 43.026C75.3875 42.562 75.5782 43.3806 75.9889 45.1593C75.5876 43.378 75.4062 42.558 75.5169 43.0206C75.4182 42.5553 75.6089 43.3726 76.0182 45.1526C75.8436 43.3286 75.8995 42.4646 76.1622 42.902C76.0982 42.4366 76.2316 43.2726 76.5102 45.0806C76.7329 43.2526 77.1235 42.4046 77.5329 42.8686C77.2649 42.4166 77.0062 43.2753 76.8595 45.106C77.4915 43.3793 78.2529 42.6433 78.8422 43.19C78.3676 42.6926 77.7222 43.4713 77.1556 45.2166C78.0902 43.6713 79.1035 43.1166 79.7995 43.7726C79.2209 43.2153 78.3262 43.8606 77.4689 45.454C78.5742 44.098 79.7022 43.7073 80.4142 44.438C79.8089 43.8526 78.7929 44.3806 77.7622 45.81C78.9595 44.626 80.1289 44.3566 80.8102 45.1113C80.2142 44.5326 79.1436 44.9713 78.0182 46.2513C79.2636 45.2166 80.4382 45.0326 81.0796 45.774C80.5049 45.2273 79.4102 45.598 78.2249 46.7393C79.4995 45.838 80.6649 45.714 81.2649 46.4166C80.7155 45.9193 79.6155 46.2433 78.3969 47.262C79.6862 46.486 80.8395 46.4086 81.4009 47.0593C80.8769 46.6206 79.7796 46.9086 78.5396 47.8086C79.8356 47.1486 80.9729 47.1033 81.4982 47.6926C80.9995 47.322 79.9115 47.5833 78.6595 48.3713C79.9582 47.826 81.0755 47.8126 81.5715 48.3326C81.0969 48.0353 80.0195 48.2713 78.7622 48.9473C80.0582 48.486 81.1569 48.4673 81.6262 48.8993C81.1769 48.6846 80.1155 48.918 78.8622 49.506C80.1542 49.1326 81.2356 49.1166 81.6796 49.4633C81.2569 49.334 80.2129 49.566 78.9595 50.0673C80.2515 49.782 81.3155 49.7673 81.7342 50.0313C81.3382 49.9873 80.3102 50.2166 79.0582 50.6326C80.3475 50.434 81.3969 50.422 81.7889 50.602C81.4169 50.638 80.4062 50.866 79.1556 51.1913C80.4436 51.078 81.4769 51.0686 81.8449 51.1633C81.4969 51.286 80.5035 51.514 79.2569 51.754C80.5409 51.73 81.5555 51.7233 81.8995 51.734C81.5782 51.9406 80.6009 52.1646 79.3556 52.318C80.6396 52.3806 81.6369 52.374 81.9542 52.3006C81.6569 52.5926 80.6982 52.8166 79.4542 52.882C80.7369 53.034 81.7169 53.0313 82.0089 52.874C81.7369 53.25 80.7956 53.47 79.5529 53.446C80.8329 53.686 81.7982 53.6846 82.0635 53.442C81.8169 53.906 80.8929 54.1273 79.6529 54.018C80.9316 54.3486 81.8782 54.3513 82.1209 54.0246C81.9009 54.5753 80.9916 54.7953 79.7556 54.5953C81.0302 55.0153 81.9569 55.0206 82.1716 54.606C81.9689 55.1966 81.0676 55.3686 79.8209 55.0526C81.0916 55.5913 82.0022 55.646 82.1929 55.1913C82.0035 55.818 81.1075 55.9366 79.8595 55.502C81.1182 56.1646 82.0076 56.274 82.1756 55.7846C81.9969 56.4406 81.1089 56.4993 79.8635 55.938C81.1022 56.7326 81.9662 56.9046 82.1129 56.386C81.9436 57.062 81.0689 57.0513 79.8342 56.3566C81.0409 57.2913 81.8715 57.538 81.9982 56.9993C81.8369 57.6873 80.9809 57.594 79.7689 56.7553C80.9262 57.838 81.7129 58.1726 81.8169 57.622C81.6662 58.3046 80.8422 58.1073 79.6675 57.1113C80.7542 58.354 81.4782 58.7873 81.5556 58.2393C81.4222 58.8966 80.6462 58.578 79.5342 57.41C80.5142 58.8193 81.1502 59.3646 81.1955 58.8353C81.0902 59.4486 80.3929 58.99 79.3782 57.6406C80.2022 59.2126 80.7129 59.8806 80.7076 59.3793C80.6502 59.9366 80.0756 59.3286 79.2102 57.7993C79.8289 59.506 80.1689 60.2766 80.0982 59.8073C80.1035 60.31 79.6942 59.578 79.0275 57.8966C79.4075 59.6833 79.5542 60.514 79.4102 60.062" fill="#FF6D25"/>
<path d="M79.4087 60.062C79.5154 60.526 79.3274 59.7073 78.9207 57.9273C79.3274 59.7073 79.5154 60.526 79.4074 60.062C79.5141 60.526 79.3274 59.7073 78.9207 57.9273C79.3274 59.7073 79.5141 60.526 79.4074 60.062C79.5141 60.526 79.3261 59.7073 78.9194 57.9273C79.3261 59.7073 79.5127 60.526 79.4061 60.062C79.5127 60.526 79.3261 59.7073 78.9194 57.9273C79.3261 59.7073 79.5127 60.526 79.4061 60.0633C79.5114 60.526 79.3247 59.7073 78.9181 57.9273C79.3247 59.7073 79.5114 60.526 79.4047 60.0633C79.5101 60.526 79.3234 59.7073 78.9167 57.9273C79.3221 59.7087 79.5101 60.5273 79.4034 60.0633C79.5087 60.5273 79.3207 59.7087 78.9154 57.9287C79.3207 59.7087 79.5074 60.5273 79.4007 60.0633C79.506 60.5273 79.3181 59.7087 78.9114 57.9287C79.3167 59.7087 79.5034 60.5287 79.398 60.0647C79.502 60.5287 79.3141 59.71 78.9074 57.93C79.3114 59.71 79.498 60.53 79.3927 60.066C79.494 60.53 79.3074 59.7113 78.8994 57.9313C79.302 59.714 79.4861 60.5327 79.3807 60.0687C79.4807 60.5327 79.2914 59.7153 78.8861 57.9353C79.1487 59.7273 79.2101 60.558 79.0421 60.0993C79.1767 60.5567 79.0807 59.7233 78.7914 57.93C78.814 59.65 78.6634 60.4153 78.394 59.9233C78.6047 60.386 78.694 59.5887 78.63 57.846C78.4754 59.4367 78.1701 60.094 77.8367 59.5593C78.0887 60.0287 78.3114 59.298 78.4154 57.6593C78.1314 59.1153 77.73 59.6753 77.3674 59.1167C77.6407 59.578 77.9527 58.914 78.1847 57.3887C77.8021 58.7153 77.3327 59.1953 76.9634 58.6327C77.242 59.0753 77.6221 58.4687 77.9541 57.0553C77.4887 58.262 76.9714 58.6727 76.6007 58.1233C76.8807 58.5367 77.3167 57.982 77.7367 56.6807C77.2021 57.77 76.6434 58.1247 76.2794 57.602C76.5581 57.9753 77.038 57.466 77.5314 56.274C76.9354 57.2474 76.3434 57.5487 75.9861 57.058C76.2621 57.39 76.7821 56.922 77.3421 55.8407C76.6927 56.6994 76.0714 56.9527 75.7221 56.5007C75.9954 56.786 76.5527 56.358 77.1727 55.39C76.4727 56.1313 75.8234 56.3367 75.4834 55.926C75.7567 56.1607 76.3474 55.774 77.0221 54.9193C76.2781 55.542 75.6074 55.6993 75.2701 55.3327C75.5461 55.522 76.1687 55.1807 76.89 54.4447C76.1207 55.0033 75.4407 55.1713 75.1221 54.8807C75.3847 54.998 76.0167 54.654 76.7674 53.9833C75.97 54.4767 75.2807 54.6473 74.9727 54.43C75.2221 54.474 75.8634 54.1247 76.6434 53.5207C75.8154 53.9487 75.118 54.126 74.8247 53.982C75.062 53.9553 75.7141 53.6047 76.5221 53.0687C75.6674 53.4313 74.9594 53.6114 74.6781 53.5367C74.9021 53.438 75.5634 53.0833 76.3994 52.6113C75.5167 52.9073 74.798 53.0887 74.5287 53.086C74.7394 52.9127 75.4101 52.5513 76.2741 52.1447C75.3621 52.3713 74.6341 52.5567 74.3767 52.6273C74.5754 52.382 75.2554 52.018 76.1474 51.678C75.2074 51.838 74.47 52.0274 74.226 52.1714C74.4114 51.8527 75.1007 51.4833 76.0247 51.21C75.0527 51.3033 74.3061 51.4953 74.0741 51.7113C74.2461 51.3193 74.946 50.9474 75.898 50.742C74.898 50.7687 74.1407 50.9647 73.9234 51.2553C74.082 50.786 74.7914 50.4087 75.7701 50.2687C74.7421 50.2247 73.9727 50.4233 73.7687 50.786C73.9141 50.2433 74.6341 49.8593 75.6434 49.7887C74.5754 49.6433 73.7861 49.8113 73.5874 50.2313C73.7127 49.582 74.4407 49.1793 75.4847 49.1793C74.3794 48.926 73.5754 49.0807 73.3887 49.5833C73.5074 48.854 74.2581 48.466 75.3461 48.5754C74.2034 48.2087 73.3834 48.342 73.2074 48.9247C73.3247 48.1167 74.1007 47.754 75.23 47.9793C74.0554 47.4913 73.2181 47.5927 73.0487 48.2447C73.1727 47.37 73.9767 47.0447 75.1434 47.3967C73.9447 46.7727 73.0927 46.826 72.926 47.538C73.0647 46.6114 73.898 46.342 75.0967 46.8367C73.886 46.0567 73.0287 46.0367 72.8594 46.7873C73.0207 45.8313 73.8821 45.65 75.1061 46.3113C73.9114 45.338 73.0594 45.2007 72.8874 45.9553C73.0794 45.0247 73.9607 44.9913 75.1821 45.866C74.0567 44.6567 73.258 44.3407 73.1007 45.0447C73.306 44.214 74.1541 44.4113 75.3127 45.5553C74.3674 44.0767 73.7274 43.5207 73.6434 44.106C73.7927 43.442 74.4994 43.9273 75.4834 45.3673C74.8234 43.6767 74.4501 42.9193 74.5114 43.394C74.5607 42.858 75.0394 43.5607 75.7607 45.2233C75.39 43.4313 75.2781 42.5913 75.4701 43.0313C75.3581 42.5687 75.5447 43.3873 75.958 45.166C75.5447 43.3873 75.3581 42.5687 75.4701 43.0313C75.3594 42.5687 75.546 43.3873 75.9594 45.166C75.546 43.3873 75.3594 42.5687 75.4714 43.0313C75.3594 42.5687 75.5474 43.386 75.9607 45.1647C75.5474 43.386 75.3607 42.5687 75.4727 43.0313C75.3607 42.5687 75.5487 43.386 75.9607 45.1647C75.5487 43.386 75.3621 42.5687 75.4741 43.03C75.3634 42.5673 75.55 43.386 75.9634 45.1647C75.55 43.386 75.3647 42.5673 75.4754 43.03C75.3647 42.5673 75.5527 43.386 75.9647 45.1633C75.5527 43.3847 75.3674 42.5673 75.4781 43.03C75.3674 42.5673 75.5567 43.3847 75.9674 45.1633C75.558 43.3847 75.3714 42.566 75.4807 43.0287C75.3727 42.566 75.5607 43.3833 75.9727 45.162C75.5634 43.3833 75.3767 42.5647 75.4861 43.0273C75.3794 42.5647 75.5687 43.382 75.9781 45.1607C75.5714 43.382 75.386 42.562 75.4954 43.026C75.3914 42.562 75.5807 43.3793 75.99 45.1593C75.5874 43.378 75.4047 42.558 75.5141 43.0207C75.4127 42.5553 75.6034 43.374 76.0101 45.154C75.7754 43.3433 75.7661 42.4954 75.9887 42.942C75.9141 42.4794 76.0634 43.3113 76.3741 45.1113C76.4341 43.322 76.6781 42.506 77.0087 42.9887C76.7834 42.5273 76.6407 43.3593 76.6367 45.1567C77.0087 43.49 77.5327 42.8073 78.0034 43.382C77.6221 42.8633 77.186 43.594 76.866 45.2847C77.4727 43.8127 78.1967 43.3247 78.7541 44.0127C78.2887 43.4287 77.6581 44.014 77.1114 45.5354C77.8567 44.262 78.6767 43.942 79.2487 44.7047C78.7634 44.0914 78.0354 44.5527 77.3514 45.9047C78.1754 44.8047 79.0341 44.6073 79.5861 45.3913C79.1061 44.786 78.3327 45.1567 77.5674 46.354C78.4367 45.406 79.3047 45.294 79.8234 46.062C79.3634 45.4873 78.5687 45.79 77.7514 46.8487C78.6474 46.0327 79.5114 45.9767 79.9994 46.706C79.5607 46.1834 78.7594 46.4394 77.9087 47.374C78.8247 46.6834 79.6821 46.6713 80.1381 47.3487C79.7221 46.8847 78.9207 47.1047 78.0461 47.9207C78.9767 47.3447 79.8207 47.366 80.2474 47.978C79.8554 47.5847 79.0567 47.778 78.1687 48.4833C79.1047 48.0207 79.9381 48.0727 80.3394 48.614C79.9687 48.294 79.1781 48.4633 78.2794 49.058C79.2194 48.678 80.0367 48.7233 80.4141 49.1767C80.0661 48.938 79.2874 49.1073 78.3861 49.6153C79.3274 49.322 80.1354 49.3687 80.4847 49.7367C80.1621 49.5834 79.398 49.7527 78.4914 50.174C79.438 49.9674 80.2327 50.0153 80.5607 50.2993C80.2594 50.2327 79.5074 50.4007 78.598 50.738C79.5487 50.6167 80.33 50.666 80.634 50.866C80.358 50.8807 79.6167 51.046 78.7034 51.294C79.6567 51.258 80.4261 51.3073 80.7061 51.4233C80.4554 51.5233 79.7274 51.69 78.8114 51.8553C79.7687 51.9073 80.5247 51.958 80.7821 51.9887C80.5527 52.174 79.8367 52.3393 78.9167 52.4167C79.8781 52.554 80.6221 52.606 80.8554 52.5513C80.6501 52.8233 79.9487 52.9873 79.0247 52.9793C79.9874 53.2047 80.7194 53.2593 80.9287 53.1207C80.7487 53.4767 80.058 53.638 79.1314 53.5433C80.0994 53.854 80.8167 53.9087 81.0021 53.6847C80.8474 54.1273 80.1687 54.2927 79.2381 54.1127C80.2101 54.514 80.9194 54.5713 81.0794 54.2633C80.9461 54.794 80.2834 54.9567 79.3487 54.6887C80.3234 55.1767 81.0167 55.2354 81.1514 54.8394C81.0341 55.41 80.3714 55.526 79.4234 55.1433C80.4034 55.7487 81.086 55.8553 81.2007 55.418C81.0954 56.0247 80.4341 56.0913 79.4781 55.5887C80.4567 56.3167 81.1261 56.4754 81.2221 56.0034C81.1274 56.6394 80.4687 56.646 79.5061 56.0207C80.4781 56.8753 81.1314 57.0953 81.2114 56.5913C81.1234 57.25 80.4714 57.1873 79.5087 56.4313C80.4647 57.422 81.0967 57.7153 81.1607 57.19C81.0807 57.8607 80.4354 57.718 79.4821 56.8207C80.4114 57.958 81.0167 58.3313 81.062 57.7953C80.9887 58.4593 80.3634 58.218 79.4274 57.166C80.31 58.4553 80.8767 58.9247 80.9034 58.3873C80.8421 59.03 80.2447 58.67 79.3474 57.454C80.1581 58.8993 80.666 59.4767 80.6674 58.9553C80.6247 59.5553 80.0781 59.062 79.2434 57.6714C79.9501 59.27 80.3687 59.958 80.3367 59.4647C80.3261 60.01 79.8634 59.378 79.1274 57.818C79.6874 59.538 79.9861 60.318 79.9074 59.8513C79.9394 60.3487 79.59 59.6007 78.9954 57.9034C79.3834 59.6887 79.5421 60.5167 79.4087 60.062" fill="#FF7E3E"/>
<path d="M79.406 60.0634C79.5127 60.526 79.3247 59.7074 78.918 57.9274C79.3247 59.7074 79.5114 60.526 79.406 60.0634C79.5114 60.526 79.3247 59.7074 78.918 57.9274C79.3247 59.7074 79.5114 60.526 79.4047 60.0634C79.5114 60.526 79.3247 59.7074 78.918 57.9274C79.3247 59.7074 79.5114 60.526 79.4047 60.0634C79.5114 60.526 79.3234 59.7074 78.9167 57.9274C79.3234 59.7074 79.51 60.526 79.4047 60.0634C79.51 60.5274 79.3234 59.7074 78.9167 57.9274C79.322 59.7087 79.51 60.5274 79.4034 60.0634C79.51 60.5274 79.322 59.7087 78.9154 57.9287C79.322 59.7087 79.5087 60.5274 79.402 60.0634C79.5087 60.5274 79.3207 59.7087 78.914 57.9287C79.3207 59.7087 79.5074 60.5274 79.4007 60.0634C79.506 60.5274 79.3194 59.7087 78.9127 57.9287C79.318 59.7087 79.5047 60.5274 79.3993 60.0647C79.5033 60.5287 79.3154 59.71 78.91 57.93C79.314 59.71 79.5007 60.5287 79.3953 60.0647C79.4993 60.5287 79.3114 59.7114 78.9047 57.9314C79.3087 59.7114 79.494 60.53 79.3874 60.066C79.4914 60.5314 79.3033 59.714 78.8967 57.934C79.2113 59.7154 79.3154 60.534 79.17 60.07C79.2927 60.53 79.1647 59.7047 78.8327 57.9193C78.9847 59.61 78.946 60.35 78.7313 59.846C78.906 60.3167 78.902 59.5407 78.7207 57.8247C78.746 59.374 78.598 59.9967 78.3394 59.4447C78.5407 59.9247 78.6287 59.226 78.5674 57.6247C78.4967 59.0313 78.278 59.5487 77.9967 58.9714C78.2113 59.4474 78.3647 58.8207 78.3953 57.3407C78.25 58.614 77.9807 59.0474 77.6953 58.466C77.9127 58.922 78.1127 58.3567 78.218 56.9954C78.01 58.1434 77.702 58.5047 77.418 57.9367C77.634 58.3634 77.874 57.854 78.0447 56.61C77.7834 57.638 77.4447 57.9407 77.166 57.398C77.378 57.7887 77.6514 57.326 77.8794 56.194C77.5674 57.1034 77.2033 57.3527 76.9313 56.842C77.1393 57.1887 77.4407 56.77 77.7207 55.754C77.366 56.546 76.978 56.7447 76.7154 56.274C76.9167 56.5754 77.2474 56.2007 77.5754 55.298C77.1767 55.97 76.7687 56.1207 76.5127 55.69C76.7114 55.9433 77.066 55.61 77.438 54.8233C77.0034 55.3767 76.5767 55.478 76.3273 55.0913C76.522 55.298 76.9034 55.0127 77.3154 54.3473C76.858 54.8353 76.4247 54.946 76.194 54.6354C76.374 54.7714 76.7607 54.4833 77.1993 53.8847C76.7153 54.306 76.2793 54.418 76.0607 54.1807C76.2273 54.2433 76.6194 53.9527 77.082 53.4207C76.5754 53.7767 76.1327 53.894 75.9287 53.73C76.0833 53.722 76.4807 53.43 76.966 52.9674C76.4353 53.2554 75.9873 53.3753 75.798 53.2807C75.9367 53.2033 76.3407 52.906 76.85 52.5087C76.2967 52.7287 75.8407 52.85 75.6647 52.826C75.79 52.6727 76.198 52.3714 76.7313 52.0407C76.1513 52.1914 75.6913 52.314 75.53 52.3634C75.6393 52.138 76.054 51.834 76.6114 51.5714C76.0087 51.6554 75.542 51.782 75.3953 51.9047C75.49 51.606 75.9113 51.298 76.4927 51.1034C75.866 51.1167 75.3927 51.246 75.258 51.4407C75.3407 51.07 75.7674 50.7594 76.3727 50.6327C75.722 50.5794 75.2433 50.7127 75.1247 50.9807C75.1913 50.5327 75.6247 50.218 76.254 50.158C75.578 50.034 75.0914 50.1674 74.9847 50.5074C75.0367 49.986 75.478 49.6673 76.1313 49.6767C75.4233 49.45 74.9207 49.5527 74.8233 49.9487C74.854 49.322 75.298 48.9834 75.9807 49.066C75.238 48.73 74.7247 48.818 74.6434 49.298C74.662 48.5887 75.122 48.2687 75.842 48.462C75.066 48.0114 74.5407 48.0767 74.4727 48.634C74.4834 47.8514 74.9634 47.5567 75.718 47.8674C74.9127 47.2954 74.3727 47.3287 74.314 47.9567C74.326 47.106 74.8247 46.8513 75.6154 47.2887C74.7834 46.5807 74.2314 46.5673 74.1794 47.2513C74.1954 46.354 74.7167 46.1554 75.5407 46.7354C74.69 45.874 74.126 45.786 74.074 46.51C74.1047 45.5847 74.654 45.474 75.5047 46.2193C74.646 45.17 74.0807 44.9674 74.0273 45.6954C74.0807 44.7967 74.6514 44.8327 75.5207 45.7887C74.69 44.5127 74.142 44.138 74.0953 44.8167C74.162 44.018 74.7327 44.2794 75.582 45.494C74.846 43.9674 74.382 43.3714 74.374 43.9394C74.4207 43.298 74.9207 43.83 75.678 45.3233C75.1114 43.61 74.8087 42.838 74.886 43.3087C74.8754 42.786 75.2447 43.514 75.8474 45.2034C75.4634 43.414 75.3234 42.5807 75.482 43.0287C75.374 42.566 75.562 43.3834 75.9727 45.162C75.562 43.3834 75.374 42.566 75.482 43.0287C75.374 42.566 75.562 43.3834 75.9727 45.162C75.562 43.3834 75.374 42.5647 75.4834 43.0287C75.3754 42.5647 75.562 43.3834 75.974 45.162C75.5634 43.3834 75.3754 42.5647 75.4834 43.0287C75.3754 42.5647 75.5634 43.3834 75.974 45.162C75.5634 43.3834 75.3767 42.5647 75.4847 43.0274C75.3767 42.5647 75.5647 43.3834 75.9754 45.162C75.5647 43.382 75.378 42.5647 75.486 43.0274C75.378 42.5647 75.566 43.382 75.9767 45.162C75.566 43.382 75.3794 42.5647 75.4874 43.0274C75.3794 42.5647 75.5687 43.382 75.978 45.1607C75.5687 43.382 75.382 42.5634 75.49 43.0274C75.382 42.5634 75.5714 43.382 75.9807 45.1607C75.5727 43.382 75.3847 42.5633 75.4927 43.026C75.3873 42.562 75.5754 43.3807 75.9847 45.1593C75.578 43.3807 75.3913 42.562 75.4993 43.0247C75.394 42.5607 75.5833 43.3793 75.9913 45.158C75.5873 43.378 75.4034 42.558 75.5114 43.022C75.4074 42.5567 75.5967 43.3753 76.0047 45.1553C75.7074 43.3593 75.6354 42.5247 75.814 42.982C75.73 42.522 75.8927 43.3513 76.2394 45.1433C76.1367 43.39 76.2314 42.6087 76.486 43.1074C76.302 42.638 76.274 43.4434 76.414 45.2074C76.526 43.6007 76.814 42.9714 77.166 43.5727C76.8767 43.034 76.6487 43.7167 76.574 45.3513C76.854 43.954 77.2874 43.5313 77.706 44.2513C77.358 43.6407 76.9914 44.166 76.754 45.6167C77.1407 44.4247 77.6514 44.1767 78.0847 44.97C77.7194 44.33 77.2807 44.726 76.9407 45.998C77.3914 44.9834 77.9353 44.858 78.3593 45.6714C77.998 45.0394 77.522 45.342 77.1167 46.4567C77.61 45.5953 78.1674 45.5527 78.5687 46.3487C78.222 45.7487 77.7274 45.9833 77.2767 46.9567C77.798 46.226 78.358 46.242 78.734 46.994C78.406 46.4474 77.902 46.6353 77.422 47.486C77.966 46.8793 78.5247 46.9367 78.874 47.6354C78.5674 47.1487 78.0607 47.302 77.5554 48.0327C78.1154 47.5407 78.67 47.63 78.9967 48.2647C78.7087 47.846 78.2034 47.974 77.678 48.5967C78.2554 48.2154 78.8034 48.3314 79.106 48.8967C78.8407 48.5514 78.3367 48.6554 77.7967 49.1674C78.3807 48.8687 78.9193 48.9793 79.1993 49.454C78.954 49.1913 78.4594 49.2967 77.91 49.7233C78.502 49.51 79.034 49.6207 79.2913 50.01C79.07 49.834 78.582 49.938 78.0247 50.282C78.626 50.1527 79.1474 50.2634 79.3847 50.5687C79.1847 50.478 78.7047 50.5847 78.138 50.8433C78.75 50.7993 79.2634 50.91 79.478 51.13C79.3007 51.1234 78.8274 51.226 78.2514 51.398C78.87 51.438 79.3767 51.5473 79.57 51.6833C79.414 51.7633 78.9513 51.8687 78.366 51.958C78.9953 52.0833 79.494 52.194 79.662 52.2447C79.53 52.4087 79.0754 52.514 78.4794 52.5167C79.118 52.7273 79.6073 52.838 79.7567 52.8034C79.6447 53.0527 79.198 53.1593 78.5927 53.078C79.242 53.3753 79.7247 53.486 79.85 53.3674C79.758 53.702 79.3207 53.8074 78.7074 53.6394C79.366 54.0207 79.8394 54.1314 79.942 53.9274C79.8754 54.35 79.446 54.458 78.8233 54.2074C79.4913 54.678 79.958 54.7914 80.0367 54.5007C79.994 55.0114 79.5727 55.1193 78.9407 54.782C79.6167 55.338 80.074 55.45 80.1327 55.0727C80.0993 55.6247 79.6767 55.686 79.0273 55.2354C79.714 55.9074 80.1674 56.0647 80.2087 55.646C80.19 56.2327 79.762 56.2433 79.0953 55.6767C79.794 56.4673 80.2447 56.6767 80.27 56.2207C80.2567 56.838 79.8274 56.7927 79.1487 56.102C79.8514 57.018 80.2967 57.286 80.3087 56.798C80.3047 57.4367 79.8714 57.3247 79.1847 56.506C79.886 57.554 80.3233 57.8927 80.3233 57.382C80.3233 58.034 79.8913 57.8433 79.198 56.886C79.8927 58.0753 80.3194 58.4914 80.3074 57.966C80.3114 58.614 79.882 58.3273 79.19 57.2207C79.8673 58.5553 80.2754 59.062 80.25 58.538C80.2594 59.162 79.8407 58.762 79.1593 57.4967C79.8033 58.9807 80.182 59.5873 80.142 59.0767C80.1607 59.6607 79.7647 59.1327 79.1087 57.7034C79.698 59.3274 80.026 60.0367 79.966 59.5487C80.002 60.0847 79.6474 59.4274 79.0434 57.8367C79.546 59.57 79.8034 60.3594 79.7154 59.894C79.7754 60.386 79.4887 59.6247 78.966 57.91C79.3607 59.694 79.53 60.5194 79.406 60.0634" fill="#FF8E56"/>
<path d="M79.4035 60.0633C79.5102 60.5273 79.3222 59.7086 78.9155 57.9286C79.3222 59.7086 79.5102 60.5273 79.4035 60.0633C79.5089 60.5273 79.3222 59.7086 78.9155 57.9286C79.3222 59.7086 79.5089 60.5273 79.4035 60.0633C79.5089 60.5273 79.3222 59.7086 78.9155 57.9286C79.3222 59.7086 79.5089 60.5273 79.4035 60.0633C79.5089 60.5273 79.3222 59.7086 78.9155 57.9286C79.3222 59.7086 79.5089 60.5273 79.4035 60.0633C79.5089 60.5273 79.3209 59.7086 78.9155 57.9286C79.3209 59.7086 79.5088 60.5273 79.4022 60.0633C79.5088 60.5273 79.3209 59.7086 78.9142 57.9286C79.3209 59.7086 79.5075 60.5273 79.4022 60.0633C79.5075 60.5273 79.3209 59.7086 78.9142 57.9286C79.3195 59.7086 79.5075 60.5273 79.4022 60.0633C79.5075 60.5273 79.3195 59.7086 78.9129 57.9286C79.3195 59.7086 79.5062 60.5273 79.4008 60.0633C79.5062 60.5273 79.3182 59.7086 78.9115 57.9286C79.3182 59.7086 79.5048 60.5273 79.3995 60.0646C79.5035 60.5286 79.3155 59.71 78.9102 57.93C79.3155 59.71 79.5022 60.5286 79.3968 60.0646C79.5008 60.5286 79.3115 59.71 78.9062 57.93C79.2715 59.7006 79.4222 60.51 79.2968 60.042C79.4115 60.5033 79.2489 59.686 78.8755 57.91C79.1555 59.5713 79.2302 60.2847 79.0715 59.7687C79.2075 60.2473 79.1089 59.4927 78.8129 57.8033C79.0169 59.3113 79.0289 59.898 78.8422 59.33C78.9929 59.822 78.9462 59.1526 78.7182 57.59C78.8622 58.9473 78.8262 59.4246 78.6275 58.8273C78.7835 59.3166 78.7742 58.7273 78.6049 57.2926C78.6969 58.5126 78.6302 58.8993 78.4262 58.298C78.5822 58.7686 78.6022 58.2447 78.4809 56.9353C78.5302 58.0233 78.4355 58.3366 78.2355 57.75C78.3862 58.1913 78.4315 57.726 78.3555 56.5393C78.3635 57.5047 78.2489 57.758 78.0542 57.1966C78.1995 57.6006 78.2648 57.186 78.2275 56.1153C78.1995 56.9593 78.0649 57.1553 77.8782 56.626C78.0155 56.99 78.1008 56.6207 78.1008 55.6673C78.0368 56.3913 77.8862 56.538 77.7075 56.0473C77.8369 56.3646 77.9395 56.042 77.9782 55.206C77.8795 55.81 77.7129 55.9046 77.5435 55.454C77.6649 55.7246 77.7848 55.446 77.8568 54.7286C77.7275 55.2113 77.5462 55.2566 77.3849 54.85C77.4995 55.0753 77.6369 54.846 77.7422 54.25C77.5929 54.6673 77.4128 54.7206 77.2675 54.39C77.3675 54.5446 77.5062 54.3126 77.6302 53.786C77.4635 54.134 77.2782 54.19 77.1489 53.9313C77.2342 54.014 77.3742 53.7793 77.5195 53.3206C77.3329 53.6033 77.1462 53.662 77.0342 53.4766C77.1022 53.49 77.2475 53.2553 77.4102 52.8646C77.2035 53.0793 77.0155 53.1406 76.9182 53.0246C76.9715 52.966 77.1168 52.7273 77.2995 52.4047C77.0755 52.55 76.8835 52.6113 76.8008 52.566C76.8382 52.434 76.9849 52.1913 77.1875 51.9353C76.9435 52.01 76.7489 52.074 76.6822 52.1007C76.7022 51.8953 76.8555 51.6513 77.0755 51.466C76.8115 51.4713 76.6142 51.538 76.5622 51.6367C76.5688 51.3593 76.7222 51.1126 76.9622 50.9953C76.6795 50.9313 76.4795 50.998 76.4435 51.17C76.4342 50.8193 76.5902 50.5713 76.8502 50.5246C76.5462 50.3913 76.3462 50.4607 76.3248 50.706C76.3008 50.2793 76.4568 50.0273 76.7355 50.0486C76.4128 49.8433 76.2089 49.9113 76.2035 50.23C76.1622 49.7286 76.3209 49.474 76.6209 49.566C76.2689 49.2553 76.0542 49.294 76.0595 49.666C75.9955 49.062 76.1555 48.7873 76.4755 48.9526C76.0955 48.534 75.8728 48.5553 75.8968 49.0113C75.8168 48.326 75.9862 48.0713 76.3369 48.3486C75.9289 47.8153 75.6995 47.8126 75.7355 48.346C75.6448 47.586 75.8235 47.3593 76.2062 47.7553C75.7689 47.0993 75.5289 47.0647 75.5809 47.666C75.4795 46.8433 75.6742 46.6566 76.0889 47.1806C75.6222 46.39 75.3675 46.3073 75.4302 46.966C75.3262 46.094 75.5382 45.9673 75.9849 46.634C75.4902 45.69 75.2235 45.5353 75.2915 46.2313C75.1902 45.3366 75.4249 45.298 75.9049 46.1286C75.3835 45.002 75.1008 44.7353 75.1675 45.4353C75.0795 44.5673 75.3448 44.6753 75.8582 45.7126C75.3195 44.3686 75.0262 43.9366 75.0889 44.59C75.0209 43.822 75.3115 44.1473 75.8489 45.434C75.3249 43.858 75.0382 43.2207 75.1062 43.7713C75.0475 43.1553 75.3409 43.734 75.8702 45.2793C75.4009 43.5446 75.1662 42.7553 75.2595 43.222C75.1915 42.714 75.4488 43.4673 75.9328 45.1833C75.5355 43.3993 75.3675 42.5713 75.4955 43.0246C75.3888 42.562 75.5769 43.3806 75.9849 45.1593C75.5769 43.3806 75.3888 42.562 75.4968 43.0246C75.3888 42.562 75.5769 43.3806 75.9849 45.1593C75.5769 43.3806 75.3902 42.562 75.4968 43.0246C75.3902 42.562 75.5769 43.3806 75.9849 45.1593C75.5782 43.3806 75.3902 42.562 75.4968 43.0246C75.3902 42.562 75.5782 43.3806 75.9862 45.1593C75.5782 43.3806 75.3902 42.562 75.4968 43.0246C75.3902 42.562 75.5782 43.3806 75.9862 45.1593C75.5782 43.3806 75.3915 42.562 75.4982 43.0246C75.3915 42.562 75.5795 43.3806 75.9862 45.1593C75.5795 43.3806 75.3915 42.562 75.4982 43.0246C75.3915 42.5606 75.5795 43.3793 75.9875 45.1593C75.5795 43.3793 75.3928 42.5606 75.4995 43.0246C75.3928 42.5606 75.5809 43.3793 75.9889 45.1593C75.5822 43.3793 75.3942 42.5606 75.5008 43.0246C75.3955 42.5606 75.5835 43.3793 75.9902 45.1593C75.5835 43.3793 75.3969 42.5606 75.5035 43.0233C75.3982 42.5593 75.5862 43.378 75.9928 45.158C75.5875 43.378 75.4022 42.558 75.5089 43.022C75.4035 42.558 75.5915 43.3766 75.9982 45.1566C75.6408 43.3753 75.5022 42.5553 75.6422 43.0206C75.5449 42.5646 75.7235 43.3887 76.1035 45.174C75.8395 43.458 75.7848 42.7113 75.9622 43.2273C75.8195 42.7473 75.9075 43.526 76.1915 45.258C76.0408 43.71 76.0942 43.1353 76.3288 43.7646C76.1315 43.2033 76.1129 43.8393 76.2822 45.418C76.2342 44.0953 76.3795 43.7393 76.6595 44.4913C76.4235 43.854 76.3235 44.3193 76.3982 45.698C76.4235 44.5886 76.6262 44.4113 76.9222 45.2367C76.6755 44.5687 76.5262 44.898 76.5302 46.0926C76.6075 45.162 76.8395 45.1086 77.1342 45.9513C76.8902 45.2926 76.7128 45.5273 76.6675 46.5606C76.7835 45.7833 77.0315 45.8127 77.3129 46.6353C77.0822 46.01 76.8835 46.1753 76.8008 47.0646C76.9475 46.4206 77.2035 46.5046 77.4688 47.2846C77.2515 46.7113 77.0462 46.8313 76.9328 47.5966C77.1048 47.0766 77.3675 47.2006 77.6129 47.9246C77.4129 47.4113 77.2008 47.498 77.0622 48.146C77.2568 47.738 77.5195 47.8926 77.7475 48.55C77.5635 48.1086 77.3502 48.1687 77.1902 48.7073C77.4022 48.41 77.6662 48.5913 77.8755 49.178C77.7102 48.81 77.4955 48.8486 77.3142 49.278C77.5422 49.0606 77.8009 49.2353 77.9862 49.73C77.8435 49.446 77.6302 49.486 77.4342 49.8327C77.6768 49.698 77.9315 49.8713 78.0982 50.282C77.9755 50.0833 77.7662 50.1246 77.5555 50.3886C77.8129 50.338 78.0649 50.5113 78.2102 50.8367C78.1075 50.7247 77.9035 50.7686 77.6769 50.9473C77.9502 50.982 78.1982 51.1526 78.3222 51.394C78.2409 51.3646 78.0382 51.406 77.7982 51.5007C78.0848 51.618 78.3288 51.7873 78.4328 51.942C78.3715 52.0007 78.1755 52.046 77.9209 52.0593C78.2222 52.2606 78.4622 52.43 78.5449 52.5007C78.5049 52.6433 78.3115 52.6886 78.0409 52.618C78.3582 52.902 78.5942 53.07 78.6582 53.054C78.6382 53.282 78.4475 53.33 78.1635 53.1766C78.4942 53.546 78.7275 53.714 78.7702 53.614C78.7715 53.9273 78.5862 53.9753 78.2862 53.7367C78.6315 54.1887 78.8622 54.3553 78.8809 54.17C78.9049 54.5713 78.7222 54.6233 78.4089 54.302C78.7702 54.842 78.9968 55.01 78.9968 54.738C79.0408 55.2287 78.8635 55.282 78.5342 54.8753C78.9102 55.4993 79.1329 55.666 79.1102 55.306C79.1662 55.8367 78.9808 55.8446 78.6288 55.326C79.0262 56.0646 79.2515 56.274 79.2182 55.8713C79.2822 56.4393 79.0902 56.398 78.7155 55.7633C79.1315 56.6193 79.3635 56.8793 79.3169 56.438C79.3875 57.0367 79.1875 56.9393 78.7942 56.1833C79.2262 57.1606 79.4622 57.4767 79.4075 57.0033C79.4849 57.6247 79.2742 57.462 78.8595 56.5793C79.3102 57.6873 79.5502 58.0687 79.4862 57.574C79.5675 58.206 79.3489 57.9673 78.9129 56.9513C79.3769 58.1926 79.6235 58.65 79.5515 58.1393C79.6355 58.7687 79.4049 58.4367 78.9515 57.2753C79.4249 58.658 79.6742 59.1993 79.5968 58.6873C79.6795 59.2953 79.4395 58.854 78.9715 57.5407C79.4502 59.062 79.6969 59.698 79.6142 59.1953C79.6969 59.7673 79.4515 59.206 78.9755 57.734C79.4449 59.386 79.6822 60.1153 79.5928 59.634C79.6768 60.1593 79.4328 59.4753 78.9608 57.8553C79.4062 59.6033 79.6209 60.402 79.5222 59.938C79.6115 60.4233 79.3862 59.6473 78.9355 57.9166C79.3368 59.6993 79.5169 60.522 79.4035 60.0633" fill="#FF9E6E"/>
<path d="M81.445 64.218L80.3023 63.6687L77.765 64.5073C77.765 64.5073 77.2743 66.142 77.573 66.7526C77.8716 67.3633 78.6796 68.934 79.001 69.5073C79.3236 70.0807 80.661 70.1766 81.1703 69.826C81.681 69.4753 81.753 69.3286 81.6383 68.8446C81.5236 68.3606 81.3783 68.314 81.3783 68.314C81.3783 68.314 81.785 67.8073 81.7836 67.502C81.7836 67.1967 81.405 66.7113 81.405 66.7113C81.405 66.7113 81.601 66.514 81.5996 65.9593C81.5983 65.4033 81.177 65.434 81.177 65.434C81.177 65.434 81.677 65.1406 81.445 64.218Z" fill="#FF9E6E"/>
<path d="M82.518 67.8914C82.518 67.8914 83.6193 68.1661 83.6193 66.8661C83.6193 65.5661 82.3327 65.4461 82.0513 64.2074C81.7687 62.9674 81.0766 64.5061 81.502 65.6901C81.9273 66.8754 81.0527 67.7234 82.518 67.8914Z" fill="#FF9E6E"/>
<path d="M97.3983 66.4967C97.3983 66.4967 94.7743 63.0567 94.801 62.2954C94.801 62.0687 94.801 61.842 94.801 61.6154C96.2516 64.13 98.7357 65.9447 102.037 63.15C102.037 63.3767 101.361 64.5754 101.361 64.8007C101.385 65.5927 97.3983 66.4967 97.3983 66.4967Z" fill="#331A1C"/>
<path d="M109.484 92.29L109.365 92.3873L109.484 92.29Z" fill="#FFCCB3"/>
<path d="M95.3914 71.11L104.727 75.4647C104.727 75.4647 105.685 85.3967 107.923 86.6887C110.162 87.982 113.407 88.678 113.407 91.6647C113.407 94.6527 112.735 98.2207 112.735 98.2207C112.735 98.2207 98.7781 95.89 96.4074 94.5927C94.0341 93.2967 94.7994 94.962 94.7994 94.962C94.7994 94.962 93.7567 88.4567 94.2767 86.05C94.7994 83.6434 93.79 81.3247 93.79 79.1287C93.79 76.9314 95.3914 71.11 95.3914 71.11Z" fill="#07A2B2"/>
<path d="M120.377 73.746C118.716 72.0486 118.138 71.7913 118.138 71.7913C118.138 71.7913 116.05 66.3313 112.808 66.7633C109.562 67.1953 107.864 69.578 109.022 72.1353C109.022 72.1353 110.413 73.4926 112.344 74.4473C114.274 75.402 114.7 77.0207 116.205 78.5593C117.71 80.098 120.145 82.598 120.145 82.598C120.145 82.598 117.557 84.754 115.897 86.45L115.868 86.478C116.016 87.0886 116.344 87.7967 117.069 88.2167C117.645 88.5487 118.073 88.7967 118.386 88.9753C120.258 87.734 122.206 86.3967 122.694 85.898C123.7 84.8727 125.63 83.746 125.398 82.81C125.166 81.874 122.037 75.442 120.377 73.746" fill="#FFCCB3"/>
<path d="M115.867 86.478C114.218 88.154 112.73 88.8967 112.73 88.8967L111.262 87.8714L111.339 88.8967C111.339 88.8967 107.939 89.5274 106.588 90.2381C105.238 90.9487 103.554 92.2114 104.202 92.2114C104.85 92.2114 106.703 91.186 107.631 91.186C108.558 91.186 108.867 91.186 108.867 91.186C108.867 91.186 107.19 92.0141 106.588 92.3687C105.986 92.7234 104.382 93.538 104.618 93.7794C104.855 94.0207 105.422 94.2167 106.164 93.7794C106.907 93.342 107.708 92.6047 108.48 92.6047C108.974 92.6047 109.23 92.4807 109.364 92.3874L109.483 92.29L109.364 92.3874L107.631 93.7794C107.631 93.7794 106.634 94.5607 106.318 94.882C106.003 95.2047 106.086 95.5487 106.588 95.5487C107.09 95.5487 108.558 94.322 108.558 94.322L110.952 93.0794L109.408 94.4754L108.944 96.1567C108.944 96.1567 109.36 96.3034 109.871 95.7807C110.382 95.258 110.335 94.4754 110.335 94.4754C110.335 94.4754 113.539 92.6447 113.888 92.29C114.235 91.9354 114.506 91.5007 114.506 91.5007C114.506 91.5007 116.404 90.2914 118.386 88.9754C118.072 88.7967 117.644 88.5487 117.068 88.2167C116.343 87.7967 116.015 87.0887 115.867 86.478" fill="#FF5D0D"/>
<path d="M123.226 78.1913C119.27 69.55 113.584 64.01 109.734 67.17C109.373 67.4647 106.956 71.706 109.285 73.1847C110.565 73.9967 116.746 79.2767 119.186 81.6127C119.84 78.878 120.285 78.0233 123.226 78.1913" fill="#ADD4E1"/>
<path d="M105.212 65.4754C103.011 68.646 102.568 75.5674 102.568 75.5674V75.77H104.758C104.758 75.77 105.298 71.7874 105.976 68.4007C106.652 65.0127 108.283 64.078 108.283 64.078C108.283 64.078 107.416 62.3034 105.212 65.4754Z" fill="#07A2B2"/>
</g>
<defs>
<clipPath id="clip0">
<rect width="150" height="150" fill="white"/>
</clipPath>
</defs>
</svg>
