<svg width="197" height="77" viewBox="0 0 197 77" fill="none" xmlns="http://www.w3.org/2000/svg">
<path d="M31.8028 65.0948C27.4465 59.084 30.3889 42.7773 30.6391 44.563C30.8894 46.3486 32.2798 51.9031 36.089 55.9562C39.8982 60.0094 46.4131 60.8325 46.9238 63.5906C47.4346 66.3487 46.6876 68.971 42.0786 70.2156C37.4695 71.4603 34.7881 69.2137 31.8028 65.0948Z" fill="url(#paint0_linear)"/>
<path d="M15.3362 45.7929C18.0012 38.8644 33.2766 32.4434 31.9159 33.6265C30.5551 34.8096 26.6561 39.0028 25.3341 44.4055C24.0122 49.8083 26.8729 55.7191 24.8389 57.6507C22.8049 59.5822 20.1993 60.3851 16.6436 57.1993C13.0879 54.0134 13.5099 50.5408 15.3362 45.7929Z" fill="url(#paint1_linear)"/>
<path d="M23.2984 18.8759C30.4324 16.8234 44.7665 25.1362 43.0021 24.7643C41.2378 24.3923 35.5415 23.8109 30.4345 26.0145C25.3275 28.2182 22.3377 34.0648 19.5703 33.6071C16.8029 33.1494 14.5911 31.5552 14.9881 26.7975C15.3851 22.0399 18.4097 20.2824 23.2984 18.8759Z" fill="url(#paint2_linear)"/>
<path d="M50.2537 8.75313C56.0173 13.4316 57.3956 29.9442 56.6917 28.2842C55.9878 26.6241 53.2072 21.6188 48.4788 18.6896C43.7504 15.7605 37.2444 16.6515 36.0372 14.1196C34.83 11.5877 34.8728 8.86149 39.0027 6.46633C43.1326 4.07116 46.3041 5.54716 50.2537 8.75313Z" fill="url(#paint3_linear)"/>
<path d="M34.5034 40.9081C34.5034 39.3956 34.764 37.8949 35.2852 36.406C35.83 34.9172 36.6117 33.5701 37.6304 32.3649C38.649 31.1596 39.8927 30.1907 41.3614 29.458C42.8538 28.7254 44.5476 28.3591 46.4427 28.3591C48.6932 28.3591 50.612 28.879 52.1992 29.9189C53.7864 30.9351 54.9708 32.2467 55.7526 33.8537L54.2601 34.7045C53.6679 33.5465 52.9336 32.6248 52.0571 31.9395C51.2042 31.2541 50.2804 30.7697 49.2854 30.4861C48.2905 30.1788 47.2955 30.0252 46.3006 30.0252C44.7134 30.0252 43.2921 30.3443 42.0366 30.9824C40.8047 31.6204 39.7624 32.4712 38.9096 33.5347C38.0568 34.5981 37.4053 35.7798 36.9552 37.0796C36.5288 38.3794 36.3156 39.691 36.3156 41.0144C36.3156 42.5033 36.5762 43.9212 37.0974 45.2683C37.6185 46.5917 38.3292 47.7852 39.2294 48.8486C40.1533 49.8885 41.2193 50.7156 42.4274 51.3301C43.6593 51.9209 44.9859 52.2163 46.4072 52.2163C47.4258 52.2163 48.4563 52.0509 49.4986 51.72C50.5646 51.3655 51.5596 50.8338 52.4835 50.1248C53.4073 49.3922 54.1535 48.4469 54.7221 47.2889L56.2856 48.0333C55.717 49.2858 54.8879 50.3493 53.7982 51.2237C52.7322 52.0981 51.5359 52.7598 50.2093 53.2089C48.8827 53.6579 47.568 53.8824 46.2651 53.8824C44.5594 53.8824 42.9841 53.5161 41.5391 52.7835C40.0941 52.0272 38.8504 51.0346 37.8081 49.8058C36.7657 48.5532 35.9485 47.1589 35.3562 45.6228C34.7877 44.063 34.5034 42.4914 34.5034 40.9081Z" fill="url(#paint4_linear)"/>
<path d="M64.3314 53.6697V28.5009H66.1437V52.039H81.2099V53.6697H64.3314Z" fill="url(#paint5_linear)"/>
<path d="M105.339 52.039V53.6697H88.5318V28.5009H105.019V30.1316H90.344V40.0218H103.172V41.5816H90.344V52.039H105.339Z" fill="url(#paint6_linear)"/>
<path d="M131.467 30.1316H122.229V53.6697H120.416V30.1316H111.178V28.5009H131.467V30.1316Z" fill="url(#paint7_linear)"/>
<path d="M138.945 53.6697V28.5009H140.757V53.6697H138.945Z" fill="url(#paint8_linear)"/>
<path d="M150.931 53.6697V28.5009H159.317C161.97 28.5009 164.185 29.0681 165.962 30.2025C167.738 31.3132 169.065 32.8257 169.941 34.7399C170.842 36.6306 171.292 38.7339 171.292 41.0499C171.292 43.6022 170.794 45.8237 169.799 47.7143C168.828 49.6049 167.442 51.0701 165.642 52.1099C163.865 53.1498 161.757 53.6697 159.317 53.6697H150.931ZM169.479 41.0499C169.479 38.9466 169.077 37.0796 168.271 35.4489C167.49 33.7946 166.341 32.4948 164.825 31.5495C163.308 30.6042 161.473 30.1316 159.317 30.1316H152.743V52.039H159.317C161.52 52.039 163.38 51.5546 164.896 50.5856C166.412 49.6167 167.549 48.3051 168.307 46.6508C169.089 44.9965 169.479 43.1295 169.479 41.0499Z" fill="url(#paint9_linear)"/>
<path d="M196.623 52.039V53.6697H179.816V28.5009H196.304V30.1316H181.628V40.0218H194.456V41.5816H181.628V52.039H196.623Z" fill="url(#paint10_linear)"/>
<defs>
<linearGradient id="paint0_linear" x1="33.5106" y1="43.6412" x2="40.7281" y2="70.5775" gradientUnits="userSpaceOnUse">
<stop stop-color="#1075C7"/>
<stop offset="1" stop-color="#008DFF" stop-opacity="0.68"/>
</linearGradient>
<linearGradient id="paint1_linear" x1="34.2537" y1="35.5315" x2="15.6041" y2="56.2643" gradientUnits="userSpaceOnUse">
<stop stop-color="#1075C7"/>
<stop offset="1" stop-color="#008DFF" stop-opacity="0.68"/>
</linearGradient>
<linearGradient id="paint2_linear" x1="42.8924" y1="27.778" x2="15.1071" y2="25.4045" gradientUnits="userSpaceOnUse">
<stop stop-color="#1075C7"/>
<stop offset="1" stop-color="#008DFF" stop-opacity="0.68"/>
</linearGradient>
<linearGradient id="paint3_linear" x1="54.1567" y1="29.9177" x2="40.2135" y2="5.76727" gradientUnits="userSpaceOnUse">
<stop stop-color="#1075C7"/>
<stop offset="1" stop-color="#008DFF" stop-opacity="0.68"/>
</linearGradient>
<linearGradient id="paint4_linear" x1="115.563" y1="28.3591" x2="115.563" y2="53.8824" gradientUnits="userSpaceOnUse">
<stop stop-color="#1075C7"/>
<stop offset="1" stop-color="#008DFF" stop-opacity="0.68"/>
</linearGradient>
<linearGradient id="paint5_linear" x1="115.563" y1="28.3591" x2="115.563" y2="53.8824" gradientUnits="userSpaceOnUse">
<stop stop-color="#1075C7"/>
<stop offset="1" stop-color="#008DFF" stop-opacity="0.68"/>
</linearGradient>
<linearGradient id="paint6_linear" x1="115.563" y1="28.3591" x2="115.563" y2="53.8824" gradientUnits="userSpaceOnUse">
<stop stop-color="#1075C7"/>
<stop offset="1" stop-color="#008DFF" stop-opacity="0.68"/>
</linearGradient>
<linearGradient id="paint7_linear" x1="115.563" y1="28.3591" x2="115.563" y2="53.8824" gradientUnits="userSpaceOnUse">
<stop stop-color="#1075C7"/>
<stop offset="1" stop-color="#008DFF" stop-opacity="0.68"/>
</linearGradient>
<linearGradient id="paint8_linear" x1="115.563" y1="28.3591" x2="115.563" y2="53.8824" gradientUnits="userSpaceOnUse">
<stop stop-color="#1075C7"/>
<stop offset="1" stop-color="#008DFF" stop-opacity="0.68"/>
</linearGradient>
<linearGradient id="paint9_linear" x1="115.563" y1="28.3591" x2="115.563" y2="53.8824" gradientUnits="userSpaceOnUse">
<stop stop-color="#1075C7"/>
<stop offset="1" stop-color="#008DFF" stop-opacity="0.68"/>
</linearGradient>
<linearGradient id="paint10_linear" x1="115.563" y1="28.3591" x2="115.563" y2="53.8824" gradientUnits="userSpaceOnUse">
<stop stop-color="#1075C7"/>
<stop offset="1" stop-color="#008DFF" stop-opacity="0.68"/>
</linearGradient>
</defs>
</svg>
