<svg width="150" height="150" viewBox="0 0 150 150" fill="none" xmlns="http://www.w3.org/2000/svg">
<g clip-path="url(#clip0)">
<ellipse cx="78.4077" cy="78.7245" rx="49.5488" ry="71.7058" transform="rotate(9.22935 78.4077 78.7245)" fill="#EAEAEA"/>
<path d="M47.5462 28.5086C47.5462 28.5086 44.9222 29.4086 44.1289 34.4246C43.3342 39.4406 45.3769 46.1392 45.3769 48.3352C45.3769 50.5325 44.8476 54.0619 44.8476 57.8445C44.8476 61.6259 45.7462 67.0779 45.7462 67.0779L44.1289 73.2512C44.1289 73.2512 46.6009 76.7512 47.9929 76.7512C49.3849 76.7512 53.7489 71.2886 53.7489 71.2886L47.5462 28.5086Z" fill="#FFB28D"/>
<path d="M48.846 27.4846C48.846 27.4846 45.3234 28.5166 43.9447 31.5419C42.566 34.5672 43.3607 42.8859 43.3607 42.8859C43.3607 42.8859 44.0807 46.6672 47.6087 46.6672C51.138 46.6672 52.6474 44.6512 52.6474 44.6512L48.846 27.4846" fill="#BFE5EC"/>
<path d="M128.316 87.9658C128.468 90.0832 122.01 92.8218 119.996 93.9565C119.996 93.9565 110.771 99.2805 106.294 99.6898C105.25 99.7645 104.099 99.7192 102.951 99.5072L102.89 99.3112L102.951 99.3258C104.099 99.5378 105.25 99.5818 106.294 99.5072C110.771 99.0992 119.996 93.7738 119.996 93.7738C121.95 92.6698 128.12 90.0538 128.316 87.9658" fill="#266F86"/>
<path d="M128.316 87.8912V87.9658C128.12 90.0538 121.949 92.6699 119.996 93.7739C119.996 93.7739 110.771 99.0992 106.293 99.5072C105.249 99.5819 104.099 99.5378 102.951 99.3258L102.889 99.3112C102.693 98.6458 102.633 97.9192 102.724 97.1632C103.025 94.6818 104.463 92.0498 106.369 89.5685C106.792 89.5992 107.216 89.5845 107.608 89.5552C111.224 89.2365 118.667 84.9405 118.667 84.9405C120.119 84.1085 124.489 82.2485 125.26 80.6445C125.519 81.0232 125.745 81.4018 125.973 81.7645V81.7792C126.184 82.1432 126.38 82.5058 126.561 82.8538V82.8685C126.819 83.3832 127.061 83.8978 127.257 84.3512L127.317 84.5018C128.149 86.5592 128.316 87.8912 128.316 87.8912Z" fill="#266F86"/>
<path d="M126.562 82.8687C126.834 83.398 127.076 83.898 127.257 84.3513C127.061 83.898 126.819 83.3833 126.562 82.8687Z" fill="#266F86"/>
<path d="M125.974 81.7793C126.199 82.158 126.396 82.506 126.562 82.854C126.38 82.506 126.184 82.1433 125.974 81.7793Z" fill="#266F86"/>
<path d="M125.277 80.63C125.534 81.0233 125.761 81.402 125.974 81.7646C125.746 81.402 125.519 81.0233 125.261 80.6446L125.277 80.63" fill="#266F86"/>
<path d="M125.276 80.6152V80.6299L125.26 80.6445C125.124 80.4179 124.975 80.1912 124.807 79.9646C124.959 80.1752 125.141 80.4032 125.276 80.6152" fill="#07A2B2"/>
<path d="M124.807 79.9647C124.975 80.1913 125.125 80.418 125.261 80.6447C124.49 82.2487 120.119 84.1087 118.667 84.9407C118.667 84.9407 111.225 89.2367 107.609 89.5553C107.217 89.5847 106.793 89.5994 106.37 89.5687C111.073 83.4287 118.606 78.134 118.606 78.134C119.923 76.9847 121.206 76.742 122.327 76.9087C122.993 77.6047 123.583 78.3153 124.111 78.9967C124.355 79.3287 124.595 79.6473 124.807 79.9647" fill="#3BAAC4"/>
<path d="M122.327 76.9086C121.205 76.7419 119.923 76.9846 118.605 78.1339C118.605 78.1339 111.072 83.4286 106.369 89.5686C105.884 89.5553 105.401 89.5086 104.917 89.4179C101.377 88.7526 97.7467 86.4072 98.1694 82.9446L98.2148 82.6112C101.619 77.6352 106.656 73.6566 110.468 72.4619C115.444 70.8886 121.027 75.5326 122.327 76.9086Z" fill="#07A2B2"/>
<path d="M104.917 89.418C105.401 89.5086 105.884 89.5553 106.369 89.5686C104.463 92.05 103.025 94.682 102.724 97.1633C102.633 97.9193 102.693 98.6459 102.889 99.3113C98.7907 98.5393 94.6 95.9219 94.54 92.0806C94.54 91.8833 94.5547 91.6873 94.5867 91.49C94.9641 88.4353 96.34 85.3646 98.2147 82.6113L98.1694 82.9446C97.7467 86.4073 101.377 88.7526 104.917 89.418" fill="#3394B3"/>
<path d="M102.89 99.3113L102.951 99.5073C98.7753 98.7353 94.4807 96.0433 94.5407 92.0806C94.6007 95.922 98.7913 98.5393 102.89 99.3113Z" fill="#3394B3"/>
<path d="M128.326 87.4207C128.326 89.822 126.642 92.742 124.56 93.9433C122.482 95.1447 120.795 94.1714 120.795 91.7687C120.795 89.3674 122.482 86.4473 124.56 85.246C126.642 84.0447 128.326 85.0193 128.326 87.4207Z" fill="#0D252D"/>
<path d="M127.182 88.082C127.182 89.7527 126.007 91.7847 124.56 92.6207C123.114 93.4554 121.94 92.778 121.94 91.1074C121.94 89.4367 123.114 87.406 124.56 86.5687C126.007 85.734 127.182 86.4114 127.182 88.082Z" fill="#266F86"/>
<path d="M64.0752 114.374V114.821L66.8192 116.407V115.374L64.0752 114.374Z" fill="black"/>
<path d="M68.7687 114.403C68.7567 114.678 68.4793 113.578 68.1153 113.787L66.8193 115.374V116.407L68.206 115.606C68.5207 115.426 68.7033 115.197 68.7553 114.962C68.794 114.785 68.786 114.567 68.7687 114.403Z" fill="#571A04"/>
<path d="M68.7827 113.135V114.422C68.7614 114.422 66.78 115.318 66.0267 116.063C65.2894 116.793 62.4867 119.479 60.7547 120.162C58.2347 121.151 54.9627 120.739 54.8414 120.202C54.7294 119.699 55.3414 117.929 56.148 117.463C57.1614 116.878 59.0374 114.889 59.5227 114.105C60.0081 113.322 61.1214 111.671 61.9134 112.129C62.704 112.585 64.5534 114.105 64.5534 114.105C64.5534 114.105 67.1547 112.687 67.5734 111.979C67.9894 111.27 68.128 110.226 68.128 110.226C68.128 110.226 68.7827 111.941 68.7827 113.135Z" fill="#571A04"/>
<path d="M67.5734 111.979C67.9187 111.393 68.072 110.578 68.1147 110.314C68.0294 110.175 67.8627 110.055 67.5734 109.89C66.748 109.413 65.5934 110.029 64.8347 110.786C64.396 111.225 63.308 111.957 62.4707 112.495C63.3507 113.117 64.5534 114.105 64.5534 114.105C64.5534 114.105 67.1547 112.687 67.5734 111.979" fill="#AB4003"/>
<path d="M66.9208 109.722C66.2061 109.722 65.4088 110.213 64.8354 110.786C64.3968 111.225 62.8461 112.223 62.0088 112.761L64.1128 114.39C64.1128 114.39 67.1555 112.687 67.5741 111.979C67.9195 111.393 68.0728 110.578 68.1155 110.314C68.0301 110.175 67.8635 110.055 67.5741 109.89C67.3715 109.774 67.1501 109.722 66.9208 109.722" fill="#E0A273"/>
<path d="M68.7835 113.135V114.067C68.7715 114.067 68.2369 114.307 67.6169 114.642V114.643C67.0395 114.955 66.3902 115.35 66.0275 115.709C65.7995 115.935 65.3849 116.377 64.8662 116.891C63.7035 118.042 61.9756 119.394 60.7556 119.807C58.4596 120.581 56.5355 120.498 55.5182 120.221C55.1942 120.133 54.9902 119.81 55.0609 119.482C55.2235 118.703 55.4942 117.842 56.1489 117.465C56.7382 117.123 57.6182 116.309 58.3489 115.533C58.8729 114.974 59.3196 114.433 59.5236 114.106C59.8276 113.614 60.3809 112.781 60.9449 112.341C61.2795 112.081 61.6195 111.959 61.9142 112.129C62.0142 112.186 62.1316 112.261 62.2582 112.347L62.4715 112.495C63.3515 113.117 64.5542 114.106 64.5542 114.106C64.5542 114.106 67.1555 112.687 67.5742 111.979C67.9195 111.393 68.0729 110.578 68.1169 110.314L68.1289 110.226C68.1289 110.226 68.4169 110.981 68.6089 111.837C68.7075 112.271 68.7835 112.734 68.7835 113.135" fill="#4D1602"/>
<path d="M61.0353 112.741C61.0353 112.741 59.2313 115.011 58.8526 115.39C58.6633 115.579 58.482 115.579 58.3486 115.533C58.8726 114.974 59.3193 114.433 59.5233 114.106C59.8273 113.614 60.3806 112.781 60.9446 112.341C61.0246 112.546 61.0353 112.741 61.0353 112.741" fill="#732802"/>
<path d="M59.942 115.746L59.8713 115.726L58.886 115.169L58.8193 115.082L58.8326 114.971L58.958 114.898L59.0286 114.917L60.0153 115.477L60.0687 115.673L59.942 115.746" fill="#AB4634"/>
<path d="M60.4341 114.979L60.3648 114.961L59.3795 114.399L59.3262 114.205L59.4515 114.131L59.5248 114.151L60.5075 114.71L60.5621 114.906L60.4341 114.979Z" fill="#AB4634"/>
<path d="M60.9267 114.211L60.8547 114.19L59.872 113.634L59.8174 113.438L59.9427 113.363L60.016 113.383L60.9987 113.941L61.0534 114.137L60.9267 114.211" fill="#AB4634"/>
<path d="M61.4205 113.445L61.3499 113.425L60.3659 112.867L60.2979 112.779L60.3112 112.671L60.4352 112.597L60.5099 112.618L61.4925 113.175L61.5459 113.371L61.4205 113.445" fill="#AB4634"/>
<path d="M51.9912 107.398V107.845L54.7379 109.431V108.399L51.9912 107.398Z" fill="black"/>
<path d="M56.6867 107.429C56.6733 107.702 56.396 106.602 56.0333 106.811L54.7373 108.399V109.431L56.124 108.631C56.4373 108.45 56.62 108.221 56.672 107.986C56.7093 107.809 56.7027 107.591 56.6867 107.429" fill="#571A04"/>
<path d="M56.7 106.159V107.446C56.6813 107.446 55.396 108.399 54.424 108.583C53.404 108.775 50.3586 112.394 48.672 113.186C43.3706 115.67 42.836 113.251 42.876 113.029C43.036 112.154 44.192 110.953 44.9973 110.487C46.012 109.902 46.9546 107.913 47.44 107.129C47.9253 106.346 49.0399 104.695 49.8306 105.153C50.6213 105.609 52.472 107.129 52.472 107.129C52.472 107.129 55.0746 105.711 55.4906 105.003C55.908 104.294 56.0453 103.25 56.0453 103.25C56.0453 103.25 56.7 104.965 56.7 106.159" fill="#571A04"/>
<path d="M55.4913 105.003C55.8367 104.417 55.99 103.602 56.034 103.338C55.9473 103.199 55.7793 103.081 55.4913 102.914C54.6647 102.438 53.51 103.053 52.754 103.809C52.314 104.249 51.226 104.981 50.3887 105.519C51.2687 106.141 52.4727 107.129 52.4727 107.129C52.4727 107.129 55.0753 105.711 55.4913 105.003" fill="#AB4003"/>
<path d="M54.8374 102.746C54.1228 102.746 53.3241 103.237 52.7535 103.809C52.3135 104.249 50.7628 105.247 49.9268 105.786L52.0294 107.414C52.0294 107.414 55.0748 105.711 55.4908 105.003C55.8361 104.417 55.9894 103.602 56.0334 103.338C55.9468 103.199 55.7788 103.08 55.4908 102.914C55.2895 102.798 55.0681 102.746 54.8374 102.746ZM54.8374 102.894C55.0521 102.894 55.2481 102.943 55.4174 103.042C55.6361 103.167 55.7948 103.271 55.8774 103.374C55.8268 103.665 55.6748 104.4 55.3641 104.928C55.0494 105.464 52.9361 106.733 52.0414 107.238L50.1801 105.797C51.0028 105.267 52.4308 104.339 52.8561 103.914C53.3495 103.42 54.1294 102.894 54.8374 102.894Z" fill="#E0A273"/>
<path d="M56.7001 106.159V107.091C56.6895 107.091 56.1521 107.331 55.5348 107.666V107.667C54.9561 107.979 54.0935 107.749 53.7295 108.107C53.5015 108.333 52.9481 109.047 52.4295 109.562C51.2668 110.714 49.8535 112.319 48.6721 112.831C44.6855 114.555 43.4748 114.306 43.0855 112.821C42.8602 111.962 44.4202 110.285 45.2242 109.819C45.8148 109.478 45.7375 109.358 46.4668 108.583C46.9908 108.023 47.2375 107.457 47.4401 107.129C47.7455 106.638 48.2975 105.805 48.8628 105.365C49.1975 105.105 49.5361 104.983 49.8308 105.153C49.9308 105.211 50.0468 105.285 50.1748 105.371L50.3882 105.519C51.2682 106.141 52.4721 107.129 52.4721 107.129C52.4721 107.129 55.0735 105.711 55.4908 105.003C55.8362 104.417 55.9895 103.602 56.0348 103.338L56.0455 103.25C56.0455 103.25 56.3335 104.005 56.5268 104.862C56.6255 105.295 56.7001 105.757 56.7001 106.159" fill="#4D1602"/>
<path d="M48.9523 105.766C48.9523 105.766 47.1483 108.035 46.7683 108.414C46.5803 108.605 46.399 108.605 46.2656 108.557C46.791 107.998 47.2376 107.457 47.4403 107.129C47.7456 106.638 48.2976 105.805 48.863 105.365C48.9403 105.57 48.9523 105.766 48.9523 105.766" fill="#732802"/>
<path d="M47.86 108.77L47.7867 108.75L46.804 108.193L46.7373 108.106L46.7507 107.995L46.8746 107.922L46.9453 107.941L47.932 108.501L47.9853 108.697L47.86 108.77" fill="#AB4634"/>
<path d="M48.3521 108.003L48.2815 107.984L47.2975 107.424L47.2441 107.228L47.3681 107.155L47.4415 107.175L48.4242 107.735L48.4788 107.93L48.3521 108.003" fill="#AB4634"/>
<path d="M48.8447 107.235L48.7727 107.214L47.79 106.658L47.7354 106.462L47.862 106.387L47.934 106.407L48.918 106.966L48.9727 107.162L48.8447 107.235" fill="#AB4634"/>
<path d="M49.3375 106.469L49.2655 106.448L48.2828 105.891L48.2148 105.803L48.2282 105.695L48.3535 105.622L48.4268 105.642L49.4108 106.199L49.4642 106.395L49.3375 106.469" fill="#AB4634"/>
<path d="M46.6501 58.3418C46.6501 58.3418 45.9821 55.0671 45.7594 71.7458C45.6101 82.6738 46.5074 85.0165 47.7181 88.0672C49.3621 92.2098 48.2101 105.079 48.2101 105.079C48.2101 105.079 50.9448 107.9 53.0581 106.811C57.3914 104.58 56.3821 102.247 56.3821 102.247C56.3821 102.247 56.5647 92.5672 55.2314 87.7045C54.7487 85.9405 56.8888 78.8018 57.2928 74.9151C58.6608 61.7245 59.4327 70.7312 57.4394 63.2925C56.6287 60.2645 46.6501 58.3418 46.6501 58.3418" fill="#0AA1C4"/>
<path d="M65.3924 67.0127C65.3924 67.0127 61.4417 65.366 60.7323 64.942C60.0243 64.518 56.239 61.7167 56.239 61.7167C56.239 61.7167 55.8563 83.054 59.3337 92.6513C60.8537 96.842 60.4857 98.158 60.7937 101.609C61.099 105.059 60.5817 112.746 60.5817 112.746C60.5817 112.746 63.5084 115.455 65.623 114.366C69.9564 112.135 68.6083 109.722 68.6083 109.722C68.6083 109.722 70.115 99.0193 68.783 94.1567C68.299 92.3927 68.4484 90.3367 68.8524 86.45C70.2217 73.2593 70.0377 71.4567 68.043 64.018C67.231 60.99 65.3924 67.0127 65.3924 67.0127" fill="#0AA1C4"/>
<path d="M49.6706 61.9472C49.6706 61.9472 48.4453 66.7792 50.9759 69.7699C53.5053 72.7606 54.3893 72.9979 55.0386 73.3739C55.6906 73.7499 58.6826 72.9526 58.8733 72.7606C59.0653 72.5686 61.8693 64.3192 61.4813 64.0952C61.0933 63.8712 49.6706 61.9472 49.6706 61.9472" fill="#0AA1C4"/>
<path d="M60.8686 28.7407C60.8686 28.7407 67.0379 32.182 69.2606 34.79C71.4846 37.3967 69.6099 36.8514 69.0753 42.7554C68.5379 48.6607 66.6206 58.5727 67.6953 60.338C68.7673 62.1007 69.0753 67.2394 69.0753 67.2394C69.0753 67.2394 69.0753 70.4594 62.0193 68.7727C54.9646 67.0847 43.0913 64.1047 46.758 57.73C47.7726 55.9647 48.6699 55.2887 48.2099 52.8354C47.7513 50.3807 45.5553 43.542 44.7886 39.554C44.022 35.566 45.8179 29.4247 48.2099 28.0447C50.6006 26.6647 55.4113 28.2047 57.1433 28.7407C58.8739 29.278 60.8686 28.7407 60.8686 28.7407Z" fill="#ADD4E1"/>
<path d="M54.6964 32.9594C54.1644 31.606 54.8711 31.006 54.8711 31.006C54.8711 31.006 53.5298 31.4514 53.0724 32.5087C52.7258 33.3087 52.6244 35.238 52.5938 36.134L54.8711 35.2874C54.8711 35.2874 55.2244 34.3127 54.6964 32.9594Z" fill="#BFE5EC"/>
<path d="M52.583 36.6086L52.647 36.5739L52.5924 36.206C52.5857 36.4446 52.583 36.6086 52.583 36.6086Z" fill="#D3E2F7"/>
<path d="M45.7418 47.1712L49.3018 39.1045L57.1205 43.6192L58.5618 50.2938C59.4591 54.4432 63.2845 57.2925 67.5151 56.9645L67.5911 56.9565C67.5911 56.9565 70.6911 64.1365 71.0538 66.6952C71.6871 71.1672 69.9685 84.7325 69.9685 84.7325C69.9685 84.7325 65.5071 88.0405 59.6911 88.0405C55.3898 88.0405 44.6098 82.5712 44.6098 82.5712C44.6098 82.5712 44.5018 68.5499 45.2604 63.5739C45.5911 61.3979 47.2245 54.0379 47.2245 54.0379L45.7418 47.1712Z" fill="#FF5D0D"/>
<path d="M49.7482 29.3525C47.8429 31.8419 48.9896 41.8938 48.9896 41.8938L50.8949 41.4818C50.8949 41.4818 49.0375 32.6685 52.9015 28.8045C53.5989 28.1071 50.3482 28.5685 49.7482 29.3525Z" fill="#FF5D0D"/>
<path d="M66.2513 32.2019C66.2513 32.2019 63.5873 32.8526 61.5193 35.1779C58.4006 38.6846 55.4473 43.6605 55.4473 43.6605L57.1859 45.0286C57.1859 45.0286 59.7659 39.1046 63.2393 35.6339C66.3259 32.5446 67.9246 33.5685 67.9246 33.5685L66.2513 32.2019Z" fill="#FF5D0D"/>
<path d="M37.4777 132.829L22.5537 124.211L28.4364 119.671L43.3604 128.287L37.4777 132.829" fill="#709EA8"/>
<path d="M35.924 135.081L21 126.465L22.5534 124.211L37.4773 132.829L35.924 135.081Z" fill="#95D3E0"/>
<path d="M35.9248 135.081L43.3608 131.362V128.287L37.4781 132.829L35.9248 135.081Z" fill="#4B6A70"/>
<path d="M34.2937 126.901C33.479 127.37 32.1577 127.37 31.3444 126.901C30.5297 126.43 30.5297 125.667 31.3444 125.197C32.1577 124.727 33.479 124.727 34.2937 125.197C35.107 125.667 35.107 126.43 34.2937 126.901Z" fill="#95D3E0"/>
<path d="M42.338 116.038L39.386 121.599L39.3407 121.645L34.9247 126.313L34.7633 126.483L31.95 126.69C31.8127 126.769 31.6513 126.643 31.698 126.495L30.874 125.626C31.298 124.219 33.2074 123.475 34.4794 122.731L34.5007 122.719L34.5687 122.651L62.0194 68.7725L64.2834 69.6259C66.5434 69.2259 41.318 113.933 41.318 113.933V114.025L41.4327 114.174L41.5474 114.207C42.338 114.425 42.726 115.318 42.338 116.038" fill="#95D3E0"/>
<path d="M31.5391 125.502C31.9617 124.731 33.0377 124.158 33.9991 123.646C34.2671 123.505 34.5257 123.367 34.7617 123.23C34.9084 123.145 35.0031 123.045 35.0671 122.923L65.8417 62.438H66.2511L33.9924 125.634L32.1137 126.109L31.5391 125.502" fill="#EAF6F9"/>
<path d="M42.3381 116.038L39.3861 121.599L39.3408 121.644L34.9248 126.312L41.3181 114.025L41.4328 114.174L41.5475 114.207C42.3381 114.425 42.7261 115.318 42.3381 116.038" fill="#709EA8"/>
<path d="M102.172 86.5993L102.176 86.5912L102.139 86.5659L102.072 86.5179L102.04 86.4966L100.31 85.5566L97.0068 90.5606L98.6042 91.4112L98.8682 91.5526L98.9122 91.5753L98.9135 91.5739C99.2482 91.6806 99.6668 91.6433 100.137 91.4286C101.369 90.8646 102.472 89.3139 102.599 87.9659C102.659 87.3339 102.49 86.8673 102.172 86.5993" fill="#0D252D"/>
<path d="M100.851 87.0193C100.721 88.3686 99.62 89.9193 98.388 90.4833C97.1547 91.046 96.26 90.4087 96.3894 89.0607C96.516 87.7113 97.6187 86.162 98.852 85.598C99.4387 85.3287 99.9494 85.3326 100.309 85.5566C100.704 85.802 100.919 86.314 100.851 87.0193Z" fill="#1A4A5A"/>
<path d="M99.6948 87.5487C99.6334 88.198 99.1014 88.9447 98.5081 89.2167C97.9148 89.4887 97.4814 89.1807 97.5441 88.5314C97.6054 87.8807 98.1388 87.134 98.7308 86.8634C99.0134 86.734 99.2601 86.7353 99.4348 86.8433C99.6254 86.962 99.7268 87.2087 99.6948 87.5487Z" fill="black"/>
<path d="M89.7835 87.6807C87.5982 86.4194 84.5089 79.514 80.9889 71.298C79.9835 68.9514 79.1169 66.9274 78.5195 65.7314C75.8582 60.414 74.0009 58.8127 70.9449 60.5767C67.3902 62.6287 63.6502 70.9354 63.6209 71.0114L61.5195 69.9074C61.6662 69.5354 65.1702 60.734 69.9035 58.002C73.8422 55.7274 77.3715 57.6367 80.3955 63.6767C81.0115 64.9087 81.8862 66.9527 82.9008 69.318C85.3995 75.1527 89.1768 83.9714 91.2368 85.1634C93.9022 86.7007 99.4155 86.8687 99.4688 86.8314L98.0569 89.2194C97.9809 89.2727 92.1835 89.0674 89.7835 87.6807" fill="black"/>
<path d="M65.794 36.6087C65.538 36.8887 61.5461 40.5087 64.4714 44.3833C67.3954 48.2593 69.7367 54.0286 69.7367 54.0286C69.7367 54.0286 68.3621 54.842 67.5914 56.9566C66.8181 59.074 66.6101 62.062 65.9047 63.402C64.4714 66.1287 62.9287 67.6326 62.9287 67.6326L65.2327 69.626C65.2327 69.626 72.9794 58.47 74.2074 54.4993C75.4381 50.5286 70.8047 31.102 65.794 36.6087" fill="#FFB28D"/>
<path d="M61.6629 66.6952C61.4255 66.7245 60.9282 67.2979 60.3109 68.2392C59.3322 69.7299 59.2696 71.7525 58.5136 72.5085C57.7589 73.2645 58.0269 73.4005 58.8149 73.4005C59.6042 73.4005 61.4082 70.3312 61.7776 70.3312C61.9482 70.3312 62.1375 71.1219 62.2695 71.9979C62.3389 72.4565 61.0082 74.8685 61.0376 75.2712C61.0722 75.7672 62.6082 75.0525 63.3829 74.2778C63.7576 73.9032 64.0882 72.9458 64.8669 71.0112C66.6442 66.6018 61.6629 66.6952 61.6629 66.6952" fill="#FFB28D"/>
<path d="M64.471 35.6339C64.471 35.6339 61.775 39.5632 62.9817 43.1552C64.187 46.7472 67.1177 49.3952 67.1177 49.3952C67.1177 49.3952 68.9137 51.1912 71.371 50.2458C73.8297 49.3005 74.4084 46.9378 74.4084 46.9378C74.4084 46.9378 72.1284 29.4352 64.471 35.6339Z" fill="#BFE5EC"/>
<path d="M106.784 86.3019C108.184 83.4273 114.517 78.5139 115.052 78.1806C115.503 77.8993 115.652 77.2713 115.052 76.9246L111.168 74.6833C110.568 74.3353 109.593 74.3353 108.993 74.6833C108.993 74.6833 102.133 79.1406 100.724 82.8033C100.476 83.4513 100.703 84.0459 101.303 84.3926L104.608 86.3019C105.208 86.6486 106.48 86.9259 106.784 86.3019" fill="#0D252D"/>
<path d="M52.1963 31.6207C52.1963 31.6207 54.6963 32.0967 54.6963 32.9593C54.6963 33.8207 54.4683 34.0807 54.871 35.2873C55.2723 36.4953 57.4016 34.166 59.5843 32.59C62.2083 30.6927 62.1736 29.9247 62.1736 29.9247C62.1736 29.9247 58.3123 27.898 58.3123 26.0567C58.3123 24.2167 52.1963 31.6207 52.1963 31.6207Z" fill="#F4D6AB"/>
<path d="M61.4122 20.4767C60.7349 16.5927 57.0389 13.9927 53.1549 14.6687C50.3269 15.1594 48.1829 17.2527 47.4842 19.8527L47.4815 19.854C47.4815 19.854 46.6002 22.3767 46.8109 23.5887C47.0229 24.7994 47.4482 24.1287 47.3855 25.3341C47.3242 26.5381 46.6255 27.2034 47.9749 29.03C49.3255 30.858 49.9082 32.502 50.1469 32.6687C50.3842 32.8354 50.0842 33.6567 53.3975 32.4287C56.7108 31.1994 58.7882 29.1021 59.6589 27.8647C60.0922 27.2501 60.4082 26.1341 60.6189 25.1647C61.3855 23.7874 61.7029 22.15 61.4122 20.4767" fill="#FFF1D9"/>
<path d="M61.3274 17.9034C63.7194 22.1647 59.8607 27.8927 59.8607 27.8927C59.8607 27.8927 58.202 24.6714 56.3674 24.99C54.502 25.3154 54.8847 21.5087 55.3607 20.298C56.0834 18.454 58.938 13.642 61.3274 17.9034Z" fill="#FFCE83"/>
<path d="M57.4232 24.5527C57.4312 24.5114 57.7872 23.2474 58.3845 23.5287C58.9818 23.8114 59.4538 24.4607 59.4325 25.4514C59.4138 26.4434 59.1098 27.7087 58.4525 27.8047C57.7978 27.902 57.6111 28.0234 57.1738 27.574C56.7378 27.1234 56.8498 26.5034 56.8498 26.5034L57.4232 24.5527" fill="#FFEAE1"/>
<path d="M57.1708 24.6873C57.1815 24.646 57.5361 23.3834 58.1334 23.6647C58.7308 23.946 59.2028 24.5953 59.1828 25.5873C59.1601 26.578 58.8588 27.8447 58.2028 27.9407C57.5441 28.0367 57.3601 28.158 56.9241 27.7087C56.4868 27.2594 56.6001 26.638 56.6001 26.638L57.1708 24.6873Z" fill="#FFF1D9"/>
<path d="M57.7342 24.8982C57.7342 24.8982 58.0315 25.4408 58.1475 25.6782C58.2649 25.9168 58.4102 26.3182 58.3075 26.5395C58.2049 26.7608 58.0982 26.9128 58.0982 26.9128C58.0982 26.9128 57.9675 25.8981 57.8195 25.5288C57.6742 25.1595 57.5915 24.8248 57.7129 24.5168C57.8355 24.2088 57.9128 23.8235 58.2275 24.1128C58.5408 24.4021 58.8142 24.7355 58.8502 25.3541C58.8835 25.9715 58.7915 26.6475 58.5569 26.9688C58.3222 27.2901 57.9729 27.4808 57.9729 27.4808C57.9729 27.4808 58.6675 27.0462 58.7022 26.3288C58.7355 25.6115 58.6275 24.5288 58.3889 24.3782C58.1489 24.2275 58.1129 24.1942 58.1315 24.4582C58.1515 24.7222 58.3609 25.0901 58.1529 24.9928C57.9449 24.8941 57.8675 24.5342 57.7769 24.7008C57.6889 24.8675 57.7342 24.8982 57.7342 24.8982" fill="#E5AC7F"/>
<path d="M57.7661 26.0755L57.4688 25.5582C57.3514 25.5955 57.3274 25.6008 57.2821 25.8048C57.2368 26.0074 57.2354 26.0821 57.0488 26.0568C56.8634 26.0328 56.7154 25.8981 56.9101 26.1315C57.1034 26.3648 57.1048 26.0848 57.3915 26.2208C57.6781 26.3568 57.6288 26.6154 57.8074 26.6048C57.9861 26.5941 57.8235 26.2208 57.7501 26.1181L57.7661 26.0755" fill="#E5AC7F"/>
<path d="M59.9769 16.3993C63.3356 19.9486 55.7796 23.998 55.7796 23.998C55.7796 23.998 50.7169 19.734 48.8822 20.054C47.0182 20.378 46.0009 19.9673 46.4769 18.7566C47.2009 16.914 54.4822 10.594 59.9769 16.3993Z" fill="#FFCE83"/>
<path d="M62.1738 29.5018L60.4111 28.8045C60.4111 28.8045 61.7724 31.6592 56.2258 34.3045C54.8804 34.9472 54.8711 35.2872 54.8711 35.2872L55.5831 37.8818L61.5191 34.4579C63.6098 32.3672 62.1738 29.5018 62.1738 29.5018" fill="#BFE5EC"/>
</g>
<defs>
<clipPath id="clip0">
<rect width="150" height="150" fill="white"/>
</clipPath>
</defs>
</svg>
