<svg width="150" height="150" viewBox="0 0 150 150" fill="none" xmlns="http://www.w3.org/2000/svg">
<g clip-path="url(#clip0)">
<ellipse cx="78.4077" cy="78.7245" rx="49.5488" ry="71.7058" transform="rotate(9.22935 78.4077 78.7245)" fill="#EAEAEA"/>
<path d="M63.2984 88.8492C61.2636 87.6745 59.6089 88.6305 59.6089 90.9799C59.6089 93.3292 61.2636 96.1972 63.2984 97.3719C65.3333 98.5465 66.9885 97.5905 66.9885 95.2412C66.9885 92.8919 65.3333 90.0239 63.2984 88.8492ZM63.2984 98.5879C60.6822 97.0785 58.5537 93.3919 58.5537 90.3719C58.5537 87.3505 60.6822 86.1212 63.2984 87.6319C65.9146 89.1425 68.0426 92.8292 68.0426 95.8505C68.0426 98.8705 65.9146 100.1 63.2984 98.5879Z" fill="#2F444A"/>
<path d="M63.0349 98.4373L62.5078 98.1333V88.3932L63.0349 88.6972V98.4373Z" fill="#4C727E"/>
<path d="M65.5661 98.6877L59.6016 88.357L59.9745 88.1411L65.9385 98.4717L65.5661 98.6877Z" fill="#4C727E"/>
<path d="M66.9885 96.1545L58.5537 91.2839V90.6759L66.9885 95.5452V96.1545Z" fill="#4C727E"/>
<path d="M59.9745 95.4597L59.6016 94.8144L65.5661 91.3691L65.9385 92.0157L59.9745 95.4597" fill="#4C727E"/>
<path d="M62.7712 89.1532C60.7364 87.9785 59.0812 88.9359 59.0812 91.2839C59.0812 93.6332 60.7364 96.5012 62.7712 97.6759C64.8056 98.8505 66.4613 97.8945 66.4613 95.5452C66.4613 93.1959 64.8056 90.3279 62.7712 89.1532ZM62.7712 98.8945C60.1545 97.3825 58.0264 93.6972 58.0264 90.6759C58.0264 87.6545 60.1545 86.4252 62.7712 87.9359C65.3878 89.4465 67.516 93.1332 67.516 96.1545C67.516 99.1759 65.3878 100.404 62.7712 98.8945Z" fill="#ADD4E1"/>
<path d="M62.7712 89.1532C60.7364 87.9785 59.0812 88.9359 59.0812 91.2839C59.0812 93.6332 60.7364 96.5012 62.7712 97.6759C64.8056 98.8505 66.4613 97.8945 66.4613 95.5452C66.4613 93.1959 64.8056 90.3279 62.7712 89.1532ZM62.7712 98.8945C60.1545 97.3825 58.0264 93.6972 58.0264 90.6759C58.0264 87.6545 60.1545 86.4252 62.7712 87.9359C65.3878 89.4465 67.516 93.1332 67.516 96.1545C67.516 99.1759 65.3878 100.404 62.7712 98.8945Z" fill="#0D252D"/>
<path d="M63.6672 85.7012L60.7041 87.4119C63.774 89.1852 66.2614 93.4946 66.2614 97.0386L69.226 95.3279C69.226 91.7839 66.737 87.4746 63.6672 85.7012Z" fill="#5CA9C2"/>
<path d="M78.441 80.0811C76.4066 78.9078 74.7519 79.8625 74.7519 82.2118C74.7519 84.5625 76.4066 87.4291 78.441 88.6038C80.4763 89.7785 82.1318 88.8238 82.1318 86.4731C82.1318 84.1238 80.4763 81.2571 78.441 80.0811ZM78.441 89.8212C75.8254 88.3118 73.6973 84.6238 73.6973 81.6038C73.6973 78.5825 75.8254 77.3531 78.441 78.8638C81.0571 80.3745 83.1865 84.0611 83.1865 87.0825C83.1865 90.1025 81.0571 91.3318 78.441 89.8212" fill="#2F444A"/>
<path d="M78.1774 89.6692L77.6504 89.3652V79.6252L78.1774 79.9292V89.6692Z" fill="#4C727E"/>
<path d="M80.7097 89.9199L74.7451 79.5892L75.1191 79.3746L81.0825 89.7052L80.7097 89.9199" fill="#4C727E"/>
<path d="M82.1318 87.3865L73.6973 82.5171V81.9078L82.1318 86.7771V87.3865Z" fill="#4C727E"/>
<path d="M75.1191 86.6919L74.7451 86.0466L80.7097 82.6026L81.0825 83.2479L75.1191 86.6919" fill="#4C727E"/>
<path d="M77.9142 80.3865C75.8798 79.2105 74.2246 80.1665 74.2246 82.5171C74.2246 84.8665 75.8798 87.7331 77.9142 88.9078C79.9495 90.0825 81.6054 89.1265 81.6054 86.7771C81.6054 84.4278 79.9495 81.5611 77.9142 80.3865ZM77.9142 90.1265C75.2981 88.6158 73.1699 84.9291 73.1699 81.9078C73.1699 78.8865 75.2981 77.6585 77.9142 79.1678C80.5309 80.6785 82.66 84.3651 82.66 87.3865C82.66 90.4078 80.5309 91.6358 77.9142 90.1265Z" fill="#ADD4E1"/>
<path d="M77.9142 80.3865C75.8798 79.2105 74.2246 80.1665 74.2246 82.5171C74.2246 84.8665 75.8798 87.7331 77.9142 88.9078C79.9495 90.0825 81.6054 89.1265 81.6054 86.7771C81.6054 84.4278 79.9495 81.5611 77.9142 80.3865ZM77.9142 90.1265C75.2981 88.6158 73.1699 84.9291 73.1699 81.9078C73.1699 78.8865 75.2981 77.6585 77.9142 79.1678C80.5309 80.6785 82.66 84.3651 82.66 87.3865C82.66 90.4078 80.5309 91.6358 77.9142 90.1265Z" fill="#0D252D"/>
<path d="M78.8101 76.9345L75.8467 78.6452C78.9164 80.4172 81.4051 84.7265 81.4051 88.2705L84.3677 86.5598C84.3677 83.0172 81.8797 78.7052 78.8101 76.9345Z" fill="#5CA9C2"/>
<path d="M81.437 50.9545L79.5429 76.8718V76.9385C79.5429 77.4011 79.2398 77.8558 78.6346 78.2011L66.0138 85.2745C65.5086 85.5611 64.8601 85.7385 64.1956 85.7798C63.2773 85.8478 62.318 85.6785 61.6106 85.2745L53.6221 80.6625C53.1497 80.3918 52.8644 80.0558 52.7538 79.7011V79.6852L52.7117 79.3065L50.8096 53.1785L64.1956 54.2571L81.437 50.9545" fill="#FF7D3D"/>
<path d="M81.4368 50.9545L79.5426 76.8718V76.9384C79.5426 77.4011 79.2396 77.8558 78.6344 78.2011L66.0136 85.2744C65.5084 85.5611 64.8598 85.7385 64.1953 85.7798V54.2571L81.4368 50.9545" fill="#F46E34"/>
<path d="M61.4013 60.3347L51.2508 54.4747C49.7081 53.5827 49.2664 50.168 50.8096 49.276L65.2685 43.3667C66.8112 42.4774 69.3122 42.4774 70.8544 43.3667L81.9264 47.4907C83.469 48.3814 82.5477 51.5627 81.005 52.4534L66.9872 60.3347C65.444 61.2254 62.9434 61.2254 61.4013 60.3347" fill="#FF9E6E"/>
<path d="M63.9498 58.0439C62.9602 58.0439 62.0358 57.8253 61.3457 57.4266L51.1957 51.5666C50.5712 51.2066 50.2285 50.7493 50.2285 50.2813C50.2285 49.8119 50.5712 49.3559 51.1957 48.9946L65.2102 41.116C65.9034 40.716 66.828 40.4973 67.8181 40.4973C68.8077 40.4973 69.7321 40.7159 70.4212 41.1133L80.5722 46.9746C81.1953 47.3346 81.5393 47.7906 81.5393 48.26C81.5393 48.728 81.1953 49.1839 80.5722 49.5439L66.5572 57.4239C65.864 57.8253 64.9394 58.0439 63.9498 58.0439" fill="#FF5D0D"/>
<path d="M67.8185 40.1187C66.8076 40.1187 65.7966 40.3414 65.0258 40.7867L51.0076 48.6681C49.4649 49.5587 49.4649 51.0027 51.0076 51.8934L61.1587 57.7547C61.9295 58.1987 62.9404 58.4214 63.9508 58.4214C64.9612 58.4214 65.9721 58.1987 66.7434 57.7547L80.7616 49.872C82.3042 48.9814 82.3042 47.5374 80.7616 46.6467L70.6112 40.7867C69.8398 40.3414 68.8289 40.1187 67.8185 40.1187V40.1187ZM67.8185 40.8747C68.7294 40.8747 69.6096 41.0814 70.233 41.4414L80.3836 47.3027C80.8789 47.588 81.1629 47.9361 81.1629 48.2601C81.1629 48.5827 80.8789 48.932 80.3914 49.212L66.3653 57.0987C65.742 57.4587 64.8612 57.6654 63.9508 57.6654C63.0398 57.6654 62.1596 57.4587 61.5362 57.0987L51.3857 51.2387C50.8904 50.9534 50.607 50.604 50.607 50.2813C50.607 49.9587 50.8904 49.6094 51.3784 49.3267L65.404 41.4414C66.0273 41.0814 66.907 40.8747 67.8185 40.8747" fill="#FFCCB3"/>
<path d="M82.6954 107.166L83.7167 104.481L81.1914 102.966V105.943C81.1914 106.453 81.5354 107.072 81.9621 107.328L81.9741 107.336C82.2954 107.528 82.5834 107.461 82.6954 107.166" fill="#1A4A5A"/>
<path d="M83.7173 107.553C83.7173 108.121 83.528 108.526 83.2213 108.722L81.636 109.67L79.1016 105.238L80.6718 104.296L80.7693 104.236L80.7746 104.233C81.0853 104.077 81.5026 104.114 81.9586 104.39C82.9293 104.973 83.7173 106.389 83.7173 107.553Z" fill="#2F444A"/>
<path d="M78.6221 106.393C78.6221 107.557 79.4086 108.973 80.3783 109.555C81.349 110.137 82.1357 109.665 82.1357 108.501C82.1357 107.337 81.349 105.921 80.3783 105.339C79.4086 104.756 78.6221 105.229 78.6221 106.393Z" fill="#0D252D"/>
<path d="M79.5039 106.921C79.5039 107.501 79.896 108.207 80.3788 108.497C80.8628 108.787 81.2535 108.552 81.2535 107.972C81.2535 107.392 80.8628 106.687 80.3788 106.397C79.896 106.108 79.5039 106.343 79.5039 106.921Z" fill="#3394B3"/>
<path d="M81.1141 108.114L82.1354 105.43L79.6104 103.914V106.892C79.6104 107.401 79.9552 108.021 80.3797 108.276L80.3931 108.285C80.7145 108.477 81.0021 108.41 81.1141 108.114Z" fill="#5CA9C2"/>
<path d="M79.6104 103.914L81.1914 102.966L83.7167 104.481L82.1354 105.43L79.6104 103.914Z" fill="#ADD4E1"/>
<path d="M82.2668 102.944H81.0628V103.925H81.0655C81.0481 104.029 81.1068 104.136 81.2388 104.215C81.4735 104.356 81.8548 104.356 82.0895 104.215C82.2215 104.136 82.2801 104.029 82.2641 103.925H82.2668V102.944" fill="#73B5CB"/>
<path d="M82.0887 103.2C81.854 103.341 81.4727 103.341 81.238 103.2C81.002 103.059 81.0034 102.831 81.238 102.689C81.5394 102.505 81.97 102.476 82.0887 102.689C82.226 102.932 82.3247 103.059 82.0887 103.2Z" fill="#85BFD1"/>
<path d="M98.9933 97.7572L100.015 95.0719L97.4893 93.5572V96.5332C97.4893 97.0439 97.8333 97.6626 98.2586 97.9186L98.2719 97.9266C98.5933 98.1199 98.8813 98.0519 98.9933 97.7572Z" fill="#1A4A5A"/>
<path d="M100.014 98.1438C100.014 98.7118 99.8264 99.1171 99.5184 99.3131L97.9331 100.262L95.3984 95.8291L96.9678 94.8865L97.0664 94.8264L97.0718 94.8238C97.3824 94.6678 97.7998 94.7051 98.2558 94.9811C99.2264 95.5625 100.014 96.9798 100.014 98.1438" fill="#2F444A"/>
<path d="M94.9189 96.9838C94.9189 98.1478 95.7056 99.5638 96.6763 100.146C97.6469 100.728 98.4336 100.254 98.4336 99.0905C98.4336 97.9265 97.6469 96.5118 96.6763 95.9291C95.7056 95.3478 94.9189 95.8198 94.9189 96.9838" fill="#0D252D"/>
<path d="M95.8008 97.5118C95.8008 98.0931 96.1928 98.7971 96.6754 99.0878C97.1594 99.3771 97.5501 99.1424 97.5501 98.5624C97.5501 97.9824 97.1594 97.2771 96.6754 96.9878C96.1928 96.6985 95.8008 96.9318 95.8008 97.5118Z" fill="#3394B3"/>
<path d="M97.4122 98.7052L98.4335 96.0199L95.9082 94.5052V97.4812C95.9082 97.9919 96.2535 98.6119 96.6775 98.8665L96.6909 98.8746C97.0135 99.0679 97.3002 98.9999 97.4122 98.7052Z" fill="#5CA9C2"/>
<path d="M95.9082 94.5051L97.4895 93.5571L100.015 95.0718L98.4335 96.0198L95.9082 94.5051Z" fill="#ADD4E1"/>
<path d="M98.5637 93.536H97.3584V94.516H97.3611C97.3451 94.62 97.4037 94.7266 97.5357 94.8066C97.7704 94.9466 98.1517 94.9466 98.3864 94.8066C98.5197 94.7266 98.5771 94.62 98.5611 94.516H98.5637V93.536Z" fill="#73B5CB"/>
<path d="M98.3865 93.7905C98.1519 93.9318 97.7705 93.9318 97.5359 93.7905C97.2999 93.6492 97.3012 93.4212 97.5359 93.2798C97.8372 93.0972 98.2679 93.0652 98.3865 93.2798C98.5239 93.5225 98.6225 93.6492 98.3865 93.7905Z" fill="#85BFD1"/>
<path d="M96.9755 91.2931V91.4917L83.4636 83.6917C82.8062 83.3117 81.7409 83.3117 81.0835 83.6917L67.5709 91.4917V91.2931H64.4355V93.7051H64.4366C64.4366 93.9544 64.6011 94.2024 64.9293 94.3917L81.0835 103.718C81.7409 104.098 82.8062 104.098 83.4636 103.718L99.6169 94.3917C99.9462 94.2024 100.11 93.9544 100.11 93.7051V91.2931H96.9755" fill="#3BAAC4"/>
<path d="M99.6119 91.9866L97.8679 92.9946L83.4626 101.309C82.8119 101.687 81.7346 101.687 81.0852 101.309L66.6974 92.9946L64.9354 91.9866C64.2676 91.6093 64.2676 90.9933 64.9354 90.5999L81.0852 81.276C81.7346 80.9 82.8119 80.9 83.4626 81.276L99.6119 90.5999C100.28 90.9933 100.28 91.6093 99.6119 91.9866Z" fill="#3394B3"/>
<path d="M97.8678 92.9946L83.4625 101.309C82.8118 101.687 81.7345 101.687 81.0851 101.309L66.6973 92.9946L81.5118 84.4239C81.6998 84.3213 81.9745 84.2533 82.2825 84.2533C82.5731 84.2533 82.8465 84.3213 83.0345 84.4239L97.8678 92.9946Z" fill="#3BAAC4"/>
<path d="M82.2728 80.9932C81.8408 80.9932 81.4102 81.0879 81.0848 81.2759L64.935 90.5999C64.2678 90.9933 64.2678 91.6093 64.935 91.9866L66.697 92.9946L81.0848 101.309C81.4102 101.497 81.8408 101.591 82.2728 101.591C82.7062 101.591 83.1368 101.497 83.4622 101.309L97.8675 92.9946L99.6115 91.9866C100.279 91.6093 100.279 90.9933 99.6115 90.5999L83.4622 81.2759C83.1368 81.0879 82.7062 80.9932 82.2728 80.9932ZM82.2728 81.3719C82.6555 81.3719 83.0195 81.4573 83.2728 81.6039L99.4195 90.9266C99.6182 91.0426 99.7355 91.1826 99.7342 91.3013C99.7328 91.4159 99.6182 91.5479 99.4222 91.6586L97.6782 92.6679L83.2728 100.981C83.0195 101.129 82.6555 101.213 82.2728 101.213C81.8928 101.213 81.5275 101.129 81.2728 100.981L66.8844 92.6666L65.1203 91.6559C64.9292 91.5479 64.8142 91.4159 64.8126 91.3013C64.811 91.1826 64.9292 91.0426 65.124 90.9266L81.2742 81.6039C81.5275 81.4573 81.8928 81.3719 82.2728 81.3719Z" fill="#79C7D3"/>
<path d="M87.5736 88.0039L86.4629 87.3626V56.1759L87.5736 56.8173V88.0039Z" fill="#79C7D3"/>
<path d="M87.5732 88.0039L88.6839 87.3626V56.1759L87.5732 56.8173V88.0039Z" fill="#3BAAC4"/>
<path d="M91.0492 71.1919V71.3919L84.0918 67.1906C83.4345 66.8119 82.3692 66.8119 81.7132 67.1906L68.2004 74.9919V74.7932H65.0654V77.2039C65.0654 77.4532 65.2296 77.7026 65.5582 77.8919L75.1572 83.6186C75.8149 83.9973 76.8806 83.9973 77.5373 83.6186L93.6918 74.2906C94.0198 74.1026 94.1852 73.8532 94.1852 73.6052V71.1919H91.0492Z" fill="#3BAAC4"/>
<path d="M93.6869 71.8852L91.9416 72.8945L77.5368 81.2092C76.8868 81.5852 75.8087 81.5852 75.1592 81.2092L67.3259 76.4959L65.5639 75.4852C64.8967 75.1092 64.8967 74.4932 65.5639 74.0985L81.7136 64.7759C82.3643 64.3999 83.4416 64.3999 84.0923 64.7759L93.6869 70.4999C94.3536 70.8932 94.3536 71.5092 93.6869 71.8852Z" fill="#3394B3"/>
<path d="M91.9409 72.8945L77.5361 81.2092C76.8861 81.5852 75.808 81.5852 75.1585 81.2092L67.3252 76.4959L82.1409 67.9239C82.3289 67.8199 82.6023 67.7519 82.9116 67.7519C83.2009 67.7519 83.4756 67.8199 83.6636 67.9239L91.9409 72.8945" fill="#3BAAC4"/>
<path d="M82.9029 64.4933C82.4709 64.4933 82.0389 64.588 81.7136 64.776L65.5639 74.0986C64.8967 74.4933 64.8967 75.1093 65.5639 75.4853L67.3259 76.4959L75.1592 81.2093C75.4836 81.3973 75.9159 81.4919 76.3477 81.4919C76.7795 81.4919 77.2117 81.3973 77.5368 81.2093L91.9416 72.8946L93.6869 71.8853C94.3536 71.5093 94.3536 70.8933 93.6869 70.5L84.0923 64.776C83.7669 64.588 83.3349 64.4933 82.9029 64.4933ZM82.9029 64.872C83.2843 64.872 83.6483 64.956 83.8976 65.1L93.4949 70.8253C93.6923 70.9413 93.8096 71.0826 93.8083 71.2013C93.8069 71.3146 93.6923 71.4479 93.4976 71.5586L91.7523 72.5666L77.3472 80.8813C77.0929 81.0293 76.7284 81.1133 76.3477 81.1133C75.9664 81.1133 75.6019 81.0293 75.3544 80.8866L67.5144 76.1666L65.7503 75.1559C65.5581 75.0479 65.4429 74.9146 65.4425 74.8C65.4409 74.6813 65.5581 74.5413 65.7529 74.4266L81.9029 65.1026C82.1576 64.956 82.5216 64.872 82.9029 64.872Z" fill="#79C7D3"/>
<path d="M91.0492 55.5798V55.7798L84.0918 51.5785C83.4345 51.1998 82.3692 51.1998 81.7132 51.5785L68.2004 59.3798V59.1812H65.0654V61.5932C65.0654 61.8412 65.2296 62.0892 65.5582 62.2798L75.1572 68.0065C75.8149 68.3865 76.8806 68.3865 77.5373 68.0065L93.6918 58.6798C94.0198 58.4905 94.1852 58.2412 94.1852 57.9918V55.5798H91.0492" fill="#3BAAC4"/>
<path d="M93.6869 56.2745L91.9416 57.2825L77.5368 65.5972C76.8868 65.9732 75.8087 65.9732 75.1592 65.5972L67.3259 60.8825L65.5639 59.8732C64.8967 59.4958 64.8967 58.8812 65.5639 58.4878L81.7136 49.1638C82.3643 48.7878 83.4416 48.7878 84.0923 49.1638L93.6869 54.8878C94.3536 55.2812 94.3536 55.8972 93.6869 56.2745" fill="#3394B3"/>
<path d="M91.9409 57.2825L77.5361 65.5972C76.8861 65.9732 75.808 65.9732 75.1585 65.5972L67.3252 60.8825L82.1409 52.3118C82.3289 52.2092 82.6023 52.1398 82.9116 52.1398C83.2009 52.1398 83.4756 52.2092 83.6636 52.3118L91.9409 57.2825Z" fill="#3BAAC4"/>
<path d="M82.9029 48.8813C82.4709 48.8813 82.0389 48.976 81.7136 49.164L65.5639 58.488C64.8967 58.8813 64.8967 59.496 65.5639 59.8733L67.3259 60.8827L75.1592 65.5973C75.4836 65.7853 75.9159 65.8787 76.3477 65.8787C76.7795 65.8787 77.2117 65.7853 77.5368 65.5973L91.9416 57.2827L93.6869 56.2747C94.3536 55.8973 94.3536 55.2813 93.6869 54.888L84.0923 49.164C83.7669 48.976 83.3349 48.8813 82.9029 48.8813ZM82.9029 49.26C83.2843 49.26 83.6483 49.344 83.8976 49.488L93.4949 55.2133C93.6923 55.3307 93.8096 55.4707 93.8083 55.588C93.8069 55.7027 93.6923 55.836 93.4976 55.9467L91.7523 56.9547L77.3472 65.2693C77.0929 65.4173 76.7284 65.5013 76.3477 65.5013C75.9664 65.5013 75.6019 65.4173 75.3544 65.2733L67.5144 60.5547L65.7503 59.544C65.5581 59.436 65.4429 59.3027 65.4425 59.188C65.4409 59.0707 65.5581 58.9307 65.7529 58.8147L81.9029 49.4907C82.1576 49.344 82.5216 49.26 82.9029 49.26Z" fill="#79C7D3"/>
<path d="M72.758 96.5586L71.6465 95.9173V64.7293L72.758 65.3706V96.5586Z" fill="#79C7D3"/>
<path d="M72.7578 96.5586L73.8682 95.9173V64.7293L72.7578 65.3706V96.5586Z" fill="#3BAAC4"/>
<path d="M74.1843 81.3599L65.6572 75.7079V72.5719C65.6572 70.5652 66.4046 68.7586 67.8854 68.5866C68.3468 68.5319 69.813 68.5372 69.813 68.5372L69.3926 63.4225C69.3926 62.8825 69.7655 62.6665 70.2332 62.9372L70.2479 62.9439C70.716 63.2145 71.0895 63.8625 71.0895 64.4025L70.7212 68.8292C70.7212 68.8292 73.1234 70.4732 73.5859 71.0612C77.0895 75.5199 74.1843 81.3599 74.1843 81.3599" fill="#2FB299"/>
<path d="M74.1842 78.2225V81.3599L65.0186 76.0665V72.9319C65.0186 70.9239 65.7654 69.3332 67.2451 69.1599C67.7076 69.1052 69.1738 69.1759 69.1738 69.1759L68.7524 63.7826C68.7524 63.2412 69.1257 63.0252 69.5945 63.2959L69.6076 63.3039C70.0763 63.5745 70.4503 64.2212 70.4503 64.7625L70.0424 69.6625C70.0424 69.6625 71.4956 71.2932 71.9576 71.8812C73.4377 73.7706 74.1842 76.2159 74.1842 78.2225" fill="#45CCB8"/>
<path d="M73.9594 79.1533V81.2292L65.2422 76.1972V74.1199C65.2422 72.2133 65.9553 70.7053 67.3673 70.5399C67.8022 70.4853 68.6979 70.3999 69.1933 70.5533C69.3975 70.6226 69.8183 70.8506 70.0219 71.0226C70.5183 71.4266 71.4006 72.5626 71.835 73.1199C73.2475 74.9239 73.9594 77.2466 73.9594 79.1533" fill="#37BFA8"/>
<path d="M78.7827 83.0532L77.3802 83.8625C77.3802 83.8625 77.2521 83.0572 77.3802 82.8359C77.5822 82.4852 78.4322 81.8239 78.7827 82.0252C79.0051 82.1532 78.7827 83.0532 78.7827 83.0532" fill="#FF9E6E"/>
<path d="M88.384 85.4678L87.5826 96.4292V96.4572C87.5826 96.6532 87.4546 96.8452 87.1986 96.9905L81.86 99.9839C81.6466 100.104 81.3733 100.179 81.092 100.197C80.7032 100.225 80.298 100.155 79.9984 99.9839L76.6193 98.0318C76.4198 97.9185 76.2984 97.7758 76.2526 97.6265V97.6185L76.2349 97.4585L75.4297 86.4078L81.092 86.8638L88.384 85.4678" fill="#FF7D3D"/>
<path d="M88.3838 85.4679L87.5825 96.4293V96.4573C87.5825 96.6533 87.4545 96.8453 87.1985 96.9906L81.8598 99.984C81.6465 100.104 81.3731 100.179 81.0918 100.197V86.8639L88.3838 85.4679Z" fill="#F46E34"/>
<path d="M79.9095 89.4345L75.6158 86.9559C74.9638 86.5799 74.7767 85.1345 75.4294 84.7572L81.5463 82.2572C82.197 81.8812 83.2556 81.8812 83.9076 82.2572L88.5903 84.0025C89.2436 84.3785 88.8543 85.7239 88.201 86.1012L82.2716 89.4345C81.6196 89.8119 80.5611 89.8119 79.9095 89.4345" fill="#FF9E6E"/>
<path d="M80.9874 88.4451C80.5713 88.4451 80.1849 88.3531 79.8964 88.1864L75.6036 85.7077C75.3458 85.5597 75.2041 85.3717 75.2041 85.1811C75.2041 84.9917 75.3458 84.805 75.6036 84.657L81.5301 81.3237C81.8208 81.157 82.2074 81.0651 82.6221 81.0651C83.0381 81.0651 83.4261 81.157 83.7141 81.3237L88.0074 83.8024C88.2648 83.9504 88.4061 84.1371 88.4061 84.3264C88.4061 84.5171 88.2648 84.7051 88.0074 84.8531L82.0794 88.1851C81.7901 88.3531 81.4021 88.4451 80.9874 88.4451" fill="#FF5D0D"/>
<path d="M82.6237 80.8839C82.1957 80.8839 81.7677 80.9786 81.4424 81.1666L75.5133 84.4999C74.8601 84.8773 74.8601 85.4879 75.5133 85.8653L79.8065 88.3439C80.1325 88.5319 80.5601 88.6252 80.9877 88.6252C81.4144 88.6252 81.8424 88.5319 82.1691 88.3439L88.0984 85.0093C88.7504 84.6333 88.7504 84.0213 88.0984 83.6453L83.8037 81.1666C83.4784 80.9786 83.0504 80.8839 82.6237 80.8839V80.8839ZM82.6237 81.2453C83.0011 81.2453 83.3664 81.3319 83.6237 81.4799L87.9171 83.9586C88.1104 84.0692 88.2251 84.2079 88.2251 84.3266C88.2251 84.4479 88.1104 84.5852 87.9197 84.6946L81.9877 88.0306C81.7304 88.1786 81.3651 88.2639 80.9877 88.2639C80.6091 88.2639 80.2445 88.1786 79.9872 88.0306L75.6935 85.5506C75.5003 85.4399 75.3852 85.3026 75.3852 85.1813C75.3852 85.0626 75.5003 84.9239 75.6904 84.8159L81.6237 81.4799C81.8811 81.3319 82.2451 81.2453 82.6237 81.2453" fill="#FFCCB3"/>
<path d="M85.6383 86.8292L84.2356 87.6399C84.2356 87.6399 84.1076 86.8346 84.2356 86.6132C84.4383 86.2626 85.2876 85.6012 85.6383 85.8026C85.8609 85.9319 85.6383 86.8292 85.6383 86.8292Z" fill="#FF9E6E"/>
<path d="M85.0256 86.4571C85.0256 86.4571 81.8656 92.1558 81.0923 92.4864C80.0732 92.9238 75.0237 90.4344 75.1201 89.5624C75.1779 89.0264 75.5737 88.3798 75.5737 88.3798L75.5456 87.9944C75.5456 87.9944 74.792 89.0998 74.792 89.6291C74.792 90.5118 79.5096 93.3144 81.0229 92.8318C82.2283 92.4478 85.1803 86.5331 85.1803 86.5331C85.1803 86.5331 85.1229 86.2744 85.0256 86.4571" fill="#0D252D"/>
<path d="M83.8882 72.3599L79.7461 69.9879V68.8052L83.8882 71.1772V72.3599Z" fill="#653338"/>
<path d="M83.8877 72.3599L86.8544 70.6479V69.4639L83.8877 71.1772V72.3599" fill="#190D0E"/>
<path d="M83.8882 70.9919L79.7461 68.62L82.7122 66.9066L86.8549 69.2786L83.8882 70.9919" fill="#FFBE59"/>
<path d="M83.8882 72.1746L79.7461 69.8026V68.6199L83.8882 70.9919V72.1746Z" fill="#FFAE30"/>
<path d="M83.8877 72.1746L86.8544 70.4625V69.2786L83.8877 70.9919V72.1746" fill="#FF5D0D"/>
<path d="M79.6574 76.5906L75.5156 74.2186V73.0359L79.6574 75.4079V76.5906Z" fill="#653338"/>
<path d="M79.6572 76.5906L82.6239 74.8773V73.6946L79.6572 75.4079V76.5906Z" fill="#190D0E"/>
<path d="M79.6574 75.2224L75.5156 72.8504L78.4818 71.1371L82.624 73.5091L79.6574 75.2224Z" fill="#FF884D"/>
<path d="M79.6574 76.4053L75.5156 74.0333V72.8506L79.6574 75.2226V76.4053Z" fill="#FFB28D"/>
<path d="M79.6572 76.4053L82.6239 74.6919V73.5093L79.6572 75.2226V76.4053Z" fill="#FF5D0D"/>
<path d="M86.8369 73.8359L83.2822 70.2626L83.6836 69.516L87.2382 73.088L86.8369 73.8359Z" fill="#653338"/>
<path d="M86.8369 73.8359L89.8036 72.1226V71.9373L87.2382 73.088L86.8369 73.8359" fill="#190D0E"/>
<path d="M87.2383 72.9026L83.6836 69.3306L86.6503 67.6173L90.2049 71.1906L87.2383 72.9026" fill="#45CCB8"/>
<path d="M86.8369 73.6506L83.2822 70.0773L83.6836 69.3306L87.2382 72.9026L86.8369 73.6506Z" fill="#37BFA8"/>
<path d="M86.8369 73.6506L89.8036 71.9373L90.2049 71.1906L87.2382 72.9026L86.8369 73.6506" fill="#2FB299"/>
<path d="M80.7922 53.7745L79.4153 56.6425C78.9956 56.8852 77.2268 55.5172 77.1857 55.1265L76.8398 51.8318C76.8377 50.3932 79.5825 47.4972 79.5825 47.4972C80.3232 46.5998 80.9322 45.6798 81.3616 46.2052L81.4376 46.2345C81.7936 46.3652 81.9949 47.5119 81.9922 48.0012L81.6069 52.4998C81.6056 52.9452 81.2402 53.5145 80.7922 53.7745" fill="#3DECFF"/>
<path d="M82.0975 47.6839L81.3682 48.1039C80.3788 48.6759 79.5762 48.3453 79.5762 47.3679V44.7706L81.2935 43.7799L82.0975 47.6839" fill="#3DECFF"/>
<path d="M83.1423 48.288L82.3237 53.8453C81.333 54.416 80.6221 48.9493 80.6221 47.972V45.3747L82.3383 44.3827L83.1423 48.288" fill="#45CCB8"/>
<path d="M80.433 45.5626L79.3877 44.9586V44.3706L80.433 44.9746V45.5626Z" fill="#6CB3C4"/>
<path d="M82.5336 44.3506L80.4336 45.5626V44.9746L82.5336 43.7626V44.3506Z" fill="#85BFD1"/>
<path d="M77.6235 47.436L77.6209 47.4374C77.5241 47.5147 77.5074 47.424 77.5667 47.276C78.1309 45.9733 77.8038 45.3147 78.5271 44.18C81.1547 42.3653 79.8323 44.4133 80.1891 44.284C79.0277 44.0706 78.1355 47.7053 78.1355 47.7053L77.6235 47.436" fill="#79C7D3"/>
<path d="M78.1378 47.7026L78.1353 47.7053C78.0373 47.7826 78.0206 47.692 78.0816 47.544C78.6446 46.2413 78.3181 45.5826 79.0416 44.4479C81.6692 42.6333 80.3473 44.6813 80.7036 44.5533C79.5421 44.3386 79.2744 45.8333 78.5269 47.2213C78.2572 47.5813 78.1853 47.6666 78.1378 47.7026Z" fill="#6CB3C4"/>
<path d="M81.1855 43.4799L79.2215 44.6719C79.2215 44.6719 78.6184 44.1839 78.1758 44.0679C78.2138 43.8692 78.2299 43.1532 78.271 42.9546L82.2549 41.1839C81.5082 42.0812 81.2308 42.9865 81.1855 43.4799" fill="#AADCE6"/>
<path d="M82.6154 55.0306L79.8223 56.6439C79.4026 56.8866 79.051 56.7746 79.0098 56.3853L78.6641 53.0879C78.6619 51.6519 80.6239 48.0692 80.6239 48.0692C81.3634 47.1719 82.8554 47.0853 82.8554 47.0853C83.5981 47.4399 83.8194 48.7693 83.8167 49.2573L83.4314 53.7572C83.4287 54.2026 83.0647 54.7719 82.6154 55.0306" fill="#45CCB8"/>
<path d="M79.8225 55.936L79.723 55.9054L79.3809 52.6467C79.411 51.896 80.6386 49.9187 81.5075 48.7453C81.6449 48.604 81.7969 48.484 81.9475 48.3974C82.2262 48.236 82.4902 48.1881 82.6902 48.2627L82.7569 48.2854C82.9022 48.3987 83.0955 49.164 83.0995 49.6414L82.7155 54.1374V54.168L82.6155 54.3227L79.8225 55.936" fill="#95D3E0"/>
<path d="M79.8982 55.7119L82.5389 54.188L82.9189 49.7306C82.9136 49.2706 82.7229 48.5906 82.6176 48.4853L82.5656 48.4653C82.3136 48.3733 81.9256 48.5252 81.6029 48.8479C80.644 50.1466 79.6024 51.9106 79.5649 52.5359L79.8982 55.7119ZM82.6162 54.5039L79.8232 56.1159C79.6773 56.2013 79.557 56.1626 79.542 56.0266L79.1982 52.7573L79.1986 52.7439C79.2336 51.8906 80.5649 49.7906 81.3949 48.668L81.4336 48.624C81.5949 48.46 81.7722 48.3186 81.9482 48.2159C82.2736 48.0279 82.5816 47.9733 82.8176 48.0586L82.9042 48.0933C83.0869 48.236 83.2789 49.0506 83.2829 49.5333L82.8989 54.0493V54.0626C82.8976 54.2159 82.7722 54.4133 82.6162 54.5039" fill="#0295AD"/>
<path d="M83.3003 41.7879L79.3164 44.0879V43.5572L82.8563 41.5145L83.3003 41.7879" fill="#BFE5EC"/>
<path d="M82.23 44.0827L81.0607 44.7574C80.2816 44.8507 79.6635 44.788 79.2207 44.672C79.2583 44.4733 79.2431 44.3053 79.2854 44.1053L83.2994 41.788C82.5527 42.6867 82.2754 43.5893 82.23 44.0827" fill="#95D3E0"/>
<path d="M82.8557 41.5147L79.3158 43.5574L78.2705 42.9547L81.809 40.9107L82.8557 41.5147" fill="#D5EDF3"/>
<path d="M79.0578 44.0547C79.0578 43.812 78.888 43.5174 78.677 43.396L78.3865 43.3867L78.3854 43.3854L77.6797 43.9187L77.9068 44.28L78.1516 44.6267L78.8734 44.3227L78.9688 44.2827L78.975 44.28L78.9745 44.2787L79.0578 44.0547Z" fill="#709EA8"/>
<path d="M78.2087 44.4547C78.2087 44.648 78.0734 44.7267 77.9062 44.6294C77.739 44.5334 77.6035 44.2987 77.6035 44.1053C77.6035 43.912 77.739 43.8333 77.9062 43.9307C78.0734 44.0267 78.2087 44.2614 78.2087 44.4547Z" fill="#95D3E0"/>
<path d="M88.1808 57.4467V57.5173H88.1768L88.1808 57.4467Z" fill="#0D252D"/>
<path d="M88.0441 51.4133V57.4466L88.04 57.5173C88.0107 57.8306 87.7894 58.14 87.3734 58.3813C86.476 58.8973 85.0241 58.8973 84.1281 58.3813C83.7147 58.14 83.4947 57.8306 83.4654 57.5173H83.4561V51.4133H88.0441Z" fill="#FFAE30"/>
<path d="M88.0436 51.2693C87.9583 50.1479 86.8849 49.7493 86.8849 49.7493L86.6249 50.1479C86.3263 50.0772 86.0076 50.0452 85.6903 50.0506V50.0133L84.5969 49.7493C84.5969 49.7493 83.6223 50.5719 83.5103 51.0906L83.5089 51.0972C83.3543 51.5212 83.5583 51.9799 84.1276 52.3079C85.0236 52.8253 86.4756 52.8253 87.3716 52.3079C87.8489 52.0333 88.0636 51.6666 88.0329 51.3066L88.0436 51.2693" fill="#FFBE59"/>
<path d="M86.6447 50.5639C86.3687 51.0026 85.47 50.9346 84.8553 50.5639C84.366 50.2692 84.3607 49.8159 84.8553 49.5306C85.3487 49.2452 86.15 49.2452 86.6447 49.5306C87.138 49.8159 86.9487 50.0812 86.6447 50.5639Z" fill="#FFCE83"/>
<path d="M86.5553 49.008V49.864L86.554 49.8893C86.5433 50.0039 86.4633 50.1146 86.3113 50.2026C85.986 50.3906 85.4594 50.3906 85.134 50.2026C84.9834 50.1146 84.9033 50.0039 84.8927 49.8893H84.8887V49.008H86.5553" fill="#FF5D0D"/>
<path d="M86.312 49.3334C85.988 49.5214 85.46 49.5214 85.1346 49.3334C84.8093 49.1454 84.8093 48.8414 85.1346 48.6534C85.46 48.4654 85.988 48.4654 86.312 48.6534C86.6373 48.8414 86.6373 49.1454 86.312 49.3334Z" fill="#FF884D"/>
<path d="M75.023 49.6799V60.4533L75.0184 60.5252C74.9892 60.8452 74.7621 61.1626 74.335 61.4106C73.4146 61.9413 71.9256 61.9413 71.0074 61.4106C70.5834 61.1626 70.3574 60.8452 70.3266 60.5252H70.3184V49.6799H75.023Z" fill="#FFAE30"/>
<path d="M74.3339 50.5986C73.4151 51.1292 71.9255 51.1292 71.0079 50.5986C70.0885 50.0679 70.0885 49.2079 71.0079 48.6785C71.9255 48.1479 73.4151 48.1479 74.3339 48.6785C75.2527 49.2079 75.2527 50.0679 74.3339 50.5986Z" fill="#1A4A5A"/>
<path d="M75.023 47.1146V50.3213L75.0184 50.3946C74.9892 50.7146 74.7621 51.032 74.335 51.28C73.4146 51.8106 71.9256 51.8106 71.0074 51.28C70.5834 51.032 70.3574 50.7146 70.3266 50.3946H70.3184V47.1146H75.023Z" fill="#FF7D3D"/>
<path d="M74.3339 48.0319C73.4151 48.5626 71.9255 48.5626 71.0079 48.0319C70.0885 47.5013 70.0885 46.6425 71.0079 46.1119C71.9255 45.5812 73.4151 45.5812 74.3339 46.1119C75.2527 46.6425 75.2527 47.5013 74.3339 48.0319Z" fill="#FF9E6E"/>
<path d="M77.14 61.136L78.516 64.0053C78.9364 64.248 80.7051 62.8799 80.746 62.4906L81.0913 59.1933C81.094 57.7559 78.3483 54.8599 78.3483 54.8599C77.6087 53.9626 76.9993 53.0426 76.5697 53.5693L76.4941 53.5973C76.1373 53.728 75.9368 54.8746 75.9395 55.3626L76.3233 59.8626C76.3264 60.308 76.6916 60.8773 77.14 61.136" fill="#95D3E0"/>
<path d="M75.835 55.0465L76.5626 55.4665C77.5522 56.0385 78.3547 55.7078 78.3547 54.7305V52.1331L76.6386 51.1425L75.835 55.0465" fill="#AADCE6"/>
<path d="M74.7891 55.6505L75.6089 61.2079C76.598 61.7785 77.3093 56.3119 77.3093 55.3345V52.7359L75.5937 51.7452L74.7891 55.6505" fill="#79C7D3"/>
<path d="M77.498 52.9253L78.5443 52.3213V51.7333L77.498 52.3373V52.9253Z" fill="#FF9764"/>
<path d="M75.3984 51.712L77.498 52.9253V52.3373L75.3984 51.124V51.712Z" fill="#FFB28D"/>
<path d="M80.3079 54.7987L80.3109 54.8C80.4084 54.8773 80.4251 54.7867 80.3641 54.6387C79.8005 53.336 80.1276 52.6773 79.4047 51.5413C76.7771 49.728 78.0989 51.776 77.7427 51.6467C78.9041 51.432 79.7969 55.0693 79.7969 55.0693L80.3079 54.7987Z" fill="#FFB48F"/>
<path d="M79.7929 55.0665L79.7966 55.0692C79.8934 55.1452 79.9101 55.0545 79.8491 54.9079C79.2862 53.6039 79.6127 52.9452 78.8903 51.8105C76.2627 49.9959 77.584 52.0439 77.2278 51.9145C78.3898 51.7012 78.657 53.1959 79.4043 54.5839C79.6747 54.9439 79.7466 55.0292 79.7929 55.0665" fill="#FF9764"/>
<path d="M76.7471 50.8425L78.7111 52.0332C78.7111 52.0332 79.3132 51.5465 79.7564 51.4305C79.7184 51.2319 79.7028 50.5172 79.6616 50.3159L75.6777 48.5465C76.4247 49.4439 76.7012 50.3478 76.7471 50.8425Z" fill="#FF5D0D"/>
<path d="M75.3158 62.3945L78.1095 64.0065C78.5294 64.2492 78.881 64.1372 78.9221 63.7465L79.2679 60.4519C79.269 59.0132 77.3081 55.4319 77.3081 55.4319C76.5679 54.5345 75.0767 54.4479 75.0767 54.4479C74.3325 54.8025 74.1127 56.1319 74.1153 56.6212L74.4991 61.1199C74.5023 61.5665 74.8674 62.1345 75.3158 62.3945" fill="#79C7D3"/>
<path d="M78.109 63.2986L78.2081 63.2666L78.5503 60.0093C78.5201 59.2599 77.292 57.2799 76.4243 56.1079C76.2857 55.9666 76.1346 55.8466 75.983 55.7599C75.7044 55.5986 75.4404 55.5506 75.2404 55.6239L75.1743 55.6479C75.0289 55.7613 74.8357 56.5266 74.8311 57.0039L75.2159 61.4999V61.5292L75.3153 61.6866L78.109 63.2986" fill="#45CCB8"/>
<path d="M78.0339 63.0745L75.3927 61.5492L75.0131 57.0932C75.0183 56.6318 75.2084 55.9532 75.3146 55.8465L75.3656 55.8278C75.6178 55.7358 76.0355 55.8598 76.3298 56.2092C77.323 57.3878 78.5006 58.6798 78.3672 59.8998L78.0339 63.0745ZM75.3151 61.8665L78.1088 63.4798C78.2547 63.5625 78.3751 63.5238 78.3902 63.3905L78.7328 60.1198L78.7323 60.1078C78.6979 59.2532 77.3672 57.1532 76.5366 56.0305L76.4984 55.9865C76.337 55.8212 76.1588 55.6812 75.9823 55.5785C75.6579 55.3918 75.3495 55.3345 75.1136 55.4212L75.0266 55.4572C74.8443 55.5985 74.6532 56.4132 74.6484 56.8972L75.0334 61.4118L75.0323 61.4252C75.0339 61.5785 75.1599 61.7772 75.3151 61.8665Z" fill="#30EBFF"/>
<path d="M74.6309 49.1507L78.6151 51.4507V50.92L75.0761 48.8773L74.6309 49.1507" fill="#FFBE59"/>
<path d="M75.7006 51.4454L76.8694 52.1214C77.6485 52.2134 78.2678 52.1507 78.7105 52.0334C78.6719 51.836 78.687 51.668 78.6459 51.468L74.6309 49.1507C75.3782 50.048 75.6547 50.952 75.7006 51.4454" fill="#FFAE30"/>
<path d="M75.0762 48.8773L78.6152 50.9199L79.6611 50.316L76.121 48.2732L75.0762 48.8773Z" fill="#FFCE83"/>
<path d="M78.873 51.4173C78.873 51.1746 79.0428 50.8786 79.2533 50.7573L79.5444 50.7493L79.546 50.7479L80.2522 51.2813L80.0252 51.6426L79.7793 51.9893L79.058 51.6853L78.9632 51.6466L78.9558 51.6426L78.9574 51.6399L78.873 51.4173" fill="#FF884D"/>
<path d="M79.7217 51.8173C79.7217 52.0106 79.8577 52.0893 80.0254 51.9933C80.1921 51.8959 80.3279 51.6599 80.3279 51.4679C80.3279 51.2746 80.1921 51.1959 80.0254 51.2933C79.8577 51.3893 79.7217 51.6239 79.7217 51.8173Z" fill="#FFC4A7"/>
</g>
<defs>
<clipPath id="clip0">
<rect width="150" height="150" fill="white"/>
</clipPath>
</defs>
</svg>
