<svg width="150" height="150" viewBox="0 0 150 150" fill="none" xmlns="http://www.w3.org/2000/svg">
<g clip-path="url(#clip0)">
<ellipse cx="78.4077" cy="78.7245" rx="49.5488" ry="71.7058" transform="rotate(9.22935 78.4077 78.7245)" fill="#EAEAEA"/>
<path d="M122.381 101.311C122.381 101.311 122.592 101.833 122.592 102.983C122.592 104.13 121.129 105.384 120.607 106.428C120.085 107.472 118.518 109.248 116.429 109.873C114.342 110.501 113.454 110.551 113.118 109.794C112.672 108.792 113.781 106.699 114.759 105.721C116.235 104.245 117.892 102.344 117.892 102.344L122.381 101.311" fill="#9DBDC4"/>
<path d="M93.0337 43.4338L90.2255 43.4501C90.2255 43.4501 88.7569 52.2524 89.429 55.6117C90.7616 62.271 94.429 53.3698 95.8162 50.4245C97.2034 47.478 98.0313 44.5862 93.0337 43.4338" fill="#BFE5EC"/>
<path d="M122.381 100.871C122.381 100.871 122.592 101.393 122.592 102.542C122.592 103.691 121.129 104.944 120.607 105.988C120.085 107.031 118.518 108.807 116.429 109.435C114.342 110.061 113.454 110.112 113.118 109.355C112.672 108.351 113.781 106.259 114.759 105.283C116.235 103.806 117.892 101.905 117.892 101.905L122.381 100.871" fill="#0D252D"/>
<path d="M117.451 102.034C117.451 102.034 118.068 97.3663 117.43 93.257C116.79 89.1465 115.305 87.9535 114.416 86.2326C111.783 81.1338 112.681 72.8058 112.225 67.9651C111.767 63.1244 112.225 61.7535 112.225 61.7535C115.055 57.2791 119.988 59.2884 121.815 61.1152C123.641 62.9419 120.536 82.0314 120.536 82.4884C120.536 82.9442 122.729 87.6931 123.459 89.6117C124.189 91.5291 123.367 100.845 123.367 100.845C123.367 100.845 121.501 102.714 117.451 102.034" fill="#95D3E0"/>
<path d="M111.783 95.1618V96.2269C111.767 96.2269 110.702 97.0164 109.897 97.1687C109.052 97.3292 106.528 100.327 105.132 100.981C100.74 103.041 100.297 101.036 100.331 100.852C100.462 100.127 101.42 99.1327 102.088 98.7466C102.927 98.2617 103.71 96.6141 104.111 95.9641C104.513 95.3152 105.437 93.9478 106.091 94.3268C106.747 94.7048 108.28 95.9641 108.28 95.9641C108.28 95.9641 110.435 94.7908 110.782 94.2036C111.127 93.6152 111.241 92.7513 111.241 92.7513C111.241 92.7513 111.783 94.1722 111.783 95.1618Z" fill="#9DBDC4"/>
<path d="M110.783 94.2036C111.067 93.7176 111.195 93.042 111.231 92.8234C111.159 92.7082 111.021 92.6106 110.781 92.4733C110.098 92.0768 109.141 92.5873 108.513 93.2141C108.149 93.578 107.248 94.185 106.555 94.6303C107.284 95.1454 108.28 95.9641 108.28 95.9641C108.28 95.9641 110.436 94.7908 110.783 94.2036" fill="#AB4003"/>
<path d="M110.239 92.3326C109.65 92.3326 108.987 92.7396 108.513 93.214C108.149 93.578 106.865 94.4059 106.171 94.8512L107.914 96.2012C107.914 96.2012 110.436 94.7908 110.783 94.2036C111.067 93.7175 111.195 93.0419 111.231 92.8233C111.159 92.7082 111.021 92.6105 110.781 92.4733C110.615 92.3756 110.431 92.3326 110.239 92.3326V92.3326ZM110.239 92.4547C110.417 92.4547 110.58 92.4966 110.721 92.578C110.902 92.6826 111.033 92.7687 111.102 92.8535C111.06 93.0942 110.935 93.7036 110.677 94.1408C110.416 94.585 108.665 95.6361 107.924 96.0547L106.383 94.8605C107.064 94.4222 108.246 93.6536 108.599 93.3001C109.007 92.8919 109.653 92.4547 110.239 92.4547Z" fill="#E0A273"/>
<path d="M111.784 95.1617V95.9327C111.774 95.9327 111.33 96.1327 110.817 96.4106C110.338 96.6687 108.674 97.5536 108.245 97.9792C107.281 98.935 106.112 100.264 105.131 100.688C101.83 102.116 100.826 101.911 100.503 100.679C100.317 99.9675 101.608 98.578 102.276 98.1931C102.764 97.9106 102.701 97.8117 103.305 97.1687C103.741 96.7048 103.943 96.2361 104.112 95.9641C104.364 95.5582 104.822 94.8675 105.29 94.5036C105.566 94.2873 105.848 94.1861 106.092 94.3268C106.174 94.3757 106.272 94.4361 106.378 94.5082L106.555 94.6303C107.284 95.1455 108.28 95.1838 108.28 95.1838C108.28 95.1838 110.436 94.7908 110.781 94.2036C111.067 93.7176 111.194 93.042 111.231 92.8234L111.242 92.7513C111.242 92.7513 111.48 93.3757 111.64 94.085C111.721 94.4455 111.784 94.828 111.784 95.1617" fill="#0D252D"/>
<path d="M103.457 55.5454C103.457 55.5454 102.904 52.8314 102.717 66.65C102.595 75.7024 103.338 77.6442 104.341 80.1721C105.703 83.6035 104.749 94.2663 104.749 94.2663C104.749 94.2663 107.015 96.6035 108.766 95.7012C112.356 93.8535 111.52 91.9198 111.52 91.9198C111.52 91.9198 111.671 83.9001 110.566 79.8721C110.166 78.4105 111.939 72.4966 112.274 69.2756C113.407 58.3477 114.047 65.8093 112.395 59.6465C111.723 57.1372 103.457 55.5454 103.457 55.5454" fill="#95D3E0"/>
<path d="M99.0274 34.785C99.0274 34.785 101.119 34.6315 103.915 35.135C106.708 35.6385 106.008 37.4315 108.763 41.499C111.52 45.5641 118.176 49.8373 118.176 53.2106C118.176 53.8792 120.001 55.7362 120.891 57.1978C121.781 58.6594 122.308 61.7327 122.308 61.7327C122.308 61.7327 122.034 65.5838 116.189 64.1873C110.344 62.7896 100.067 61.5873 103.105 56.3071C103.946 54.8454 105.13 53.0152 104.748 50.9827C104.368 48.949 91.1483 44.3315 91.9565 42.192C92.7635 40.0524 95.2472 37.3059 96.639 36.7408C98.0321 36.1757 99.0274 34.785 99.0274 34.785" fill="#AADCE6"/>
<path d="M101.678 36.7861L100.174 36.2698C100.174 36.2698 100.504 39.9 99.5489 40.6814C98.5931 41.464 98.6222 42.1291 98.6222 42.1291L100.44 43.4186C100.44 43.4186 101.887 42.0547 102.13 39.6175C102.372 37.1803 101.678 36.7861 101.678 36.7861" fill="#E0EBFB"/>
<path d="M97.2848 40.7292C96.236 40.1397 96.3732 39.385 96.3732 39.385C96.3732 39.385 95.7476 40.3757 96.0093 41.2932C96.2081 41.9873 97.1546 43.2769 97.6058 43.8664L98.6221 42.1292C98.6221 42.1292 98.336 41.3187 97.2848 40.7292Z" fill="#E0EBFB"/>
<path d="M97.8474 44.1781L97.8695 44.1211L97.6416 43.913C97.7637 44.0699 97.8474 44.1781 97.8474 44.1781Z" fill="#DED2D2"/>
<path d="M103.736 51.1617C103.736 51.9408 103.212 54.4768 102.661 57.5815C102.867 57.6873 103.072 57.8106 103.275 57.9617C104.448 58.8361 105.8 59.764 107.251 60.5803L108.407 46.0303L100.478 49.2431C100.478 49.2431 100.898 47.314 100.365 45.1315C99.834 42.9478 97.2328 42.2606 97.2328 42.2606C97.2328 42.2606 101.646 34.5082 98.6223 35.6082C95.5979 36.7082 88.7351 39.6606 90.5177 45.5257C92.2991 51.3885 103.736 49.6652 103.736 51.1617" fill="#AADCE6"/>
<path d="M99.6534 42.807L95.7139 47.2884L106.555 52.9896L106.186 59.9547C109.281 61.8675 112.965 63.4233 116.419 62.757C118.642 62.3279 120.443 62.064 122.103 60.7175C121.332 57.6977 120.335 53.9105 119.966 53.0512C119.334 51.5721 110.856 37.3803 109.938 36.4989C106.976 33.6489 99.4755 34.4849 99.4755 34.4849C99.4755 34.4849 101.505 37.8535 100.344 40.9279C99.9302 42.0268 99.7348 42.5629 99.6534 42.807" fill="#AADCE6"/>
<path d="M98.2522 33.7907C98.2522 33.7907 101.811 33.2372 104.073 36.2698C105.177 37.7512 105.622 42.5117 105.892 43.8663C106.161 45.221 107.041 47.6907 109.129 48.8744C111.218 50.0582 113.38 51.85 115.652 51.1745C117.923 50.4977 118.168 50.3559 118.168 50.3559L119.352 52.4396C119.352 52.4396 119.677 57.4291 120.009 65.3407C120.342 73.2535 119.792 77.8291 119.792 77.8291C119.792 77.8291 119.316 78.2 115.652 77.1C111.987 76.0012 102.295 72.9093 102.295 72.9093C102.295 72.9093 101.636 58.5686 101.865 56.0721C102.094 53.5756 104.174 52.0907 101.595 51.2942C99.0161 50.4977 93.6894 47.5605 93.165 45.1268C92.6394 42.693 92.8522 38.9093 92.8522 38.9093H93.6289C93.6289 38.9093 93.9533 45.7907 95.7138 46.8407C97.2719 47.7698 104.071 46.7314 103.228 45.1268C101.541 41.9175 105.553 34.6349 98.2522 33.7907" fill="#07A2B2"/>
<path d="M83.6008 30.3443C83.6008 30.3443 81.9845 32.2385 82.5182 32.771C83.0508 33.3036 84.1229 37.2373 86.3148 37.2373C88.5066 37.2373 83.6008 30.3443 83.6008 30.3443" fill="#654C4F"/>
<path d="M93.9951 39.421C93.9951 39.421 96.8323 40.1756 97.2846 40.7291C97.7393 41.2814 98.2091 42.671 99.1021 43.2338C99.994 43.7966 99.6544 40.0814 100.224 37.9268C100.911 35.3314 100.485 34.857 100.485 34.857C100.485 34.857 98.4986 34.314 97.5323 33.1349C96.566 31.9547 93.9951 39.421 93.9951 39.421Z" fill="#FF9E6E"/>
<path d="M99.729 42.3326C99.729 42.3326 100.867 41.628 101.406 38.9722C101.944 36.3152 100.312 34.2489 100.312 34.2489L98.8965 33.9663C98.8965 33.9663 100.419 38.1047 99.8302 38.5873C99.2418 39.0687 99.729 42.3326 99.729 42.3326Z" fill="#EAF6F9"/>
<path d="M96.4268 40.1036C96.4268 40.1036 96.1396 42.4153 96.7175 42.706C97.2954 42.9955 99.1024 43.4501 99.1024 43.4501L97.764 41.3316L96.4268 40.1036" fill="#EAF6F9"/>
<path d="M84.1643 33.9746C84.1643 33.9746 85.6062 37.0292 86.6678 37.4594C87.7283 37.8897 87.4771 37.835 88.2876 38.8246C89.0969 39.8141 90.8888 40.2001 92.0469 40.3153C93.2027 40.4304 95.4062 41.2525 95.9667 38.5792C96.3364 36.8153 97.6609 33.2955 96.8236 31.2653C95.9876 29.2339 92.9585 20.6792 85.5806 26.1885C82.1923 28.7199 84.1643 33.9746 84.1643 33.9746" fill="#FFBE9E"/>
<path d="M86.7739 30.7815C86.7739 30.7815 88.5739 34.0967 90.2251 32.4455C91.8762 30.7943 92.7728 33.0199 93.3658 33.3629C93.9588 33.7048 92.5332 29.7408 93.1135 29.4048C93.6949 29.0699 95.8646 32.6885 95.9448 31.0432C96.0251 29.399 97.5983 25.128 90.8972 22.9001C85.1251 20.9815 82.6111 31.8943 81.4972 33.0083C80.3844 34.1222 85.9902 30.7815 86.7739 30.7815" fill="#654C4F"/>
<path d="M93.1275 30.5163C93.1066 30.4884 92.4903 29.5919 92.9868 29.3605C93.4834 29.1303 94.1462 29.1745 94.7659 29.7129C95.3869 30.2513 96.0322 31.1152 95.745 31.5849C95.4589 32.0536 95.4368 32.2361 94.9194 32.2768C94.4008 32.3152 94.0659 31.914 94.0659 31.914L93.1275 30.5163" fill="#FFEAE1"/>
<path d="M93.0812 30.7477C93.0602 30.7186 92.4428 29.8233 92.9405 29.5919C93.437 29.3617 94.0986 29.4058 94.7196 29.9442C95.3405 30.4826 95.9847 31.3465 95.6986 31.8151C95.4126 32.2849 95.3893 32.4674 94.873 32.5081C94.3544 32.5477 94.0196 32.1454 94.0196 32.1454L93.0812 30.7477" fill="#FFBE9E"/>
<path d="M93.5113 30.5013C93.5113 30.5013 94.0148 30.599 94.2287 30.6513C94.4427 30.7036 94.7753 30.8234 94.8613 31.0071C94.9474 31.1885 94.9892 31.3373 94.9892 31.3373C94.9892 31.3373 94.2718 30.8827 93.9601 30.7804C93.6474 30.678 93.3904 30.5548 93.259 30.3118C93.1276 30.0711 92.9229 29.8176 93.2741 29.7711C93.6253 29.7258 93.9822 29.7281 94.3939 30.0327C94.8055 30.3385 95.1869 30.7548 95.2671 31.0757C95.3473 31.3955 95.2834 31.7199 95.2834 31.7199C95.2834 31.7199 95.3753 31.0467 94.9369 30.6443C94.4985 30.242 93.7508 29.7373 93.5288 29.8094C93.3055 29.8815 93.2648 29.8873 93.4439 30.0152C93.6218 30.142 93.9671 30.2037 93.7939 30.285C93.6229 30.3653 93.352 30.2222 93.4101 30.3687C93.4683 30.5152 93.5113 30.5013 93.5113 30.5013" fill="#FF9E6E"/>
<path d="M94.2802 31.1047L93.7918 31.0198C93.7534 31.114 93.7453 31.1326 93.8499 31.2687C93.9558 31.4059 94.0023 31.4465 93.8872 31.5512C93.772 31.657 93.6081 31.6803 93.8604 31.6803C94.1116 31.6815 93.9348 31.5315 94.1732 31.421C94.4116 31.3105 94.5499 31.4791 94.6383 31.3593C94.7255 31.2396 94.4023 31.1466 94.2976 31.1384L94.2802 31.1047" fill="#FF9E6E"/>
<path d="M105.28 62.7618L103.651 66.1595C103.154 66.4455 101.059 64.8258 101.01 64.3653L100.601 60.463C100.599 58.7606 103.848 55.3328 103.848 55.3328C104.725 54.2688 105.446 53.1792 105.954 53.8025L106.045 53.8362C106.467 53.9909 106.705 55.349 106.701 55.9281L106.247 61.2548C106.244 61.7827 105.811 62.4548 105.28 62.7618Z" fill="#79C7D3"/>
<path d="M106.826 55.5524L105.963 56.05C104.791 56.7268 103.842 56.3361 103.842 55.1779V52.1035L105.873 50.9291L106.826 55.5524Z" fill="#3BAAC4"/>
<path d="M108.063 56.2663L107.094 62.8477C105.922 63.5233 105.079 57.0512 105.079 55.893V52.8186L107.112 51.6453L108.063 56.2663" fill="#BFE5EC"/>
<path d="M104.855 53.0408L103.618 52.3257V51.6304L104.855 52.3443V53.0408" fill="#6CB3C4"/>
<path d="M107.343 51.6059L104.855 53.0408V52.3443L107.343 50.9083V51.6059Z" fill="#85BFD1"/>
<path d="M101.528 55.2582L101.525 55.2606C101.41 55.3513 101.39 55.2443 101.462 55.0699C102.13 53.5269 101.742 52.7466 102.598 51.4036C105.709 49.2547 104.145 51.6792 104.567 51.5268C103.19 51.2745 102.134 55.578 102.134 55.578L101.528 55.2582" fill="#79C7D3"/>
<path d="M102.139 55.5756L102.135 55.5779C102.02 55.6686 102 55.5616 102.072 55.3872C102.739 53.8442 102.353 53.064 103.209 51.7221C106.319 49.5733 104.755 51.9965 105.176 51.8442C103.8 51.5918 103.484 53.3616 102.599 55.0047C102.279 55.4314 102.195 55.5326 102.139 55.5756" fill="#6CB3C4"/>
<path d="M105.745 50.5745L103.421 51.9861C103.421 51.9861 102.707 51.4082 102.183 51.271C102.228 51.0362 102.247 50.1884 102.295 49.9524L107.012 47.8559C106.128 48.9199 105.8 49.9896 105.745 50.5745" fill="#AADCE6"/>
<path d="M107.441 64.2513L104.133 66.1617C103.635 66.4478 103.22 66.3152 103.171 65.8536L102.762 61.9513C102.759 60.2501 105.081 56.0083 105.081 56.0083C105.958 54.9455 107.723 54.8443 107.723 54.8443C108.605 55.2629 108.865 56.8385 108.862 57.4164L108.407 62.7443C108.404 63.2711 107.972 63.9443 107.441 64.2513" fill="#BFE5EC"/>
<path d="M104.132 65.3222L104.015 65.285L103.61 61.428C103.646 60.5397 105.1 58.1978 106.127 56.8094C106.291 56.6408 106.47 56.5001 106.65 56.3966C106.979 56.2059 107.292 56.149 107.529 56.2373L107.607 56.2652C107.78 56.399 108.008 57.3048 108.013 57.8699L107.558 63.1943V63.2292L107.439 63.4129L104.132 65.3222Z" fill="#EAF6F9"/>
<path d="M104.222 65.0571L107.348 63.2525L107.797 57.9746C107.791 57.4304 107.566 56.6258 107.44 56.5002L107.38 56.4781C107.081 56.3688 106.623 56.5478 106.239 56.9292C105.104 58.4676 103.87 60.5572 103.826 61.2978L104.222 65.0571ZM107.439 63.6269L104.132 65.5362C103.96 65.6362 103.816 65.5908 103.8 65.4304L103.393 61.5595V61.5432C103.434 60.5327 105.01 58.0467 105.994 56.7176L106.039 56.6653C106.229 56.4699 106.44 56.3025 106.65 56.1827C107.034 55.9606 107.4 55.8944 107.677 55.9955L107.781 56.0385C107.997 56.2048 108.224 57.1711 108.229 57.7432L107.774 63.0885V63.1048C107.773 63.2862 107.623 63.5199 107.439 63.6269" fill="#0295AD"/>
<path d="M108.25 48.5711L103.532 51.2943V50.6664L107.723 48.2478L108.25 48.5711Z" fill="#BFE5EC"/>
<path d="M106.984 51.2885L105.6 52.0885C104.677 52.1978 103.945 52.1234 103.421 51.9862C103.465 51.7513 103.448 51.5513 103.496 51.3153L108.25 48.5711C107.365 49.635 107.038 50.7048 106.984 51.2885" fill="#95D3E0"/>
<path d="M107.723 48.2478L103.532 50.6664L102.295 49.9524L106.484 47.5327L107.723 48.2478" fill="#D5EDF3"/>
<path d="M103.227 51.2558C103.227 50.9686 103.025 50.6186 102.776 50.4756C102.638 50.3954 102.514 50.3989 102.432 50.4652L102.431 50.4628L101.595 51.0943L101.864 51.5221L102.154 51.9326L103.008 51.5721L103.12 51.5256L103.13 51.5221L103.127 51.5198C103.189 51.4663 103.227 51.3779 103.227 51.2558" fill="#709EA8"/>
<path d="M102.223 51.7293C102.223 51.9595 102.063 52.0514 101.865 51.9374C101.666 51.8223 101.506 51.5444 101.506 51.3153C101.506 51.0862 101.666 50.9932 101.865 51.1084C102.063 51.2223 102.223 51.5014 102.223 51.7293Z" fill="#95D3E0"/>
<path d="M107.904 51.2291C107.904 51.2291 105.152 52.9071 104.1 53.2594C103.047 53.6117 102.114 53.9954 102.114 53.9954C102.114 53.9954 101.704 53.4478 101.024 53.5268C100.345 53.6059 100.073 53.9931 100.631 54.5524C101.19 55.1106 102.095 55.4129 102.095 55.4129L103.786 55.178C103.786 55.178 103.207 55.4315 103.581 55.8059C103.955 56.1803 103.275 56.2071 103.629 56.7908C103.982 57.3722 104.178 57.1175 104.255 57.421C104.335 57.7257 104.918 58.3268 106.072 58.3268C107.226 58.3268 109.094 56.335 109.466 55.9617C109.838 55.5908 110.329 53.8698 110.061 53.2222C109.647 52.2257 110.114 51.4419 107.904 51.2291Z" fill="#FF5D0D"/>
<path d="M105.188 36.2698C105.188 36.2698 104.8 40.1663 108.593 42.2535C111.475 43.8395 114.529 47.2594 114.529 47.2594L109.476 51.3384L110.214 55.0582C110.214 55.0582 117.458 52.871 119.834 50.4931C122.212 48.1152 109.116 30.7605 105.188 36.2698Z" fill="#95D3E0"/>
<path d="M117.461 105.137C117.454 105.123 117.237 104.752 116.569 104.657C115.83 104.551 115.652 104.543 115.646 104.543L115.658 104.213C115.665 104.214 115.845 104.221 116.615 104.33C117.458 104.451 117.74 104.961 117.751 104.983L117.461 105.137Z" fill="#EAF6F9"/>
<path d="M118.502 104.432C118.494 104.407 118.284 103.827 117.629 103.734C116.901 103.632 116.452 103.708 116.445 103.709L116.387 103.384C116.406 103.38 116.89 103.294 117.675 103.408C118.536 103.532 118.803 104.293 118.813 104.325L118.502 104.432Z" fill="#EAF6F9"/>
<path d="M106.395 96.0059C106.392 96.0059 106.285 95.8268 105.706 95.6175C105.048 95.3803 104.567 95.5465 104.562 95.5465L104.448 95.2372C104.473 95.2303 105.039 95.0245 105.818 95.307C106.573 95.5791 106.695 95.8477 106.715 95.9233L106.395 96.0059Z" fill="#EAF6F9"/>
<path d="M105.52 97.1548C105.518 97.1513 105.244 96.7711 104.74 96.5664C104.266 96.3734 103.916 96.5432 103.9 96.549L103.749 96.2559C103.77 96.2443 104.243 96.0083 104.865 96.2606C105.462 96.5048 105.777 96.9467 105.79 96.9653L105.52 97.1548Z" fill="#EAF6F9"/>
<path d="M104.491 98.0861C104.486 98.0826 104.051 97.7024 103.648 97.5361C103.295 97.3931 103.033 97.5175 103.022 97.5222L102.872 97.2291C102.888 97.2198 103.273 97.0268 103.772 97.2315C104.229 97.4187 104.69 97.8222 104.708 97.8385L104.491 98.0861Z" fill="#EAF6F9"/>
<path d="M119.873 103.638C119.867 103.631 119.372 102.909 118.687 102.811C117.942 102.705 117.319 102.729 117.313 102.731L117.299 102.401C117.324 102.402 117.957 102.374 118.733 102.485C119.566 102.605 120.123 103.419 120.147 103.455L119.873 103.638Z" fill="#EAF6F9"/>
<path d="M33.108 106.772C34.1464 107.394 35.8277 107.394 36.865 106.772C37.9033 106.15 37.9033 105.141 36.865 104.519C35.8277 103.895 34.1464 103.895 33.108 104.519C32.0708 105.141 32.0708 106.15 33.108 106.772Z" fill="#4B6A70"/>
<path d="M33.9209 61.3164V67.1664L33.9255 67.228L34.0093 67.4292C34.2628 67.742 34.8035 67.8617 35.2709 67.7873V61.9083C34.8035 61.9862 34.2628 61.8664 34.0093 61.5524L33.9232 61.3164H33.9209Z" fill="#4B6A70"/>
<path d="M35.751 61.7431V67.6199L35.9754 67.4292L36.0591 67.228L36.0649 67.1664V61.3164H36.0614L35.9754 61.5524L35.751 61.7431Z" fill="#4B6A70"/>
<path d="M35.9761 61.5523L36.0622 61.3163H33.9238L34.0099 61.5523C34.2634 61.8663 34.8041 61.9861 35.2715 61.9082C35.4482 61.8814 35.6145 61.8279 35.7517 61.743L35.9761 61.5523Z" fill="#4B6A70"/>
<path d="M33.9209 67.1664V105.548H33.929C33.9523 105.687 34.0558 105.826 34.2372 105.933C34.5151 106.1 34.9116 106.157 35.2709 106.1C35.4476 106.071 35.6139 106.016 35.7511 105.933C35.9325 105.826 36.0337 105.687 36.0593 105.548H36.0651V67.1664L36.0593 67.228L35.9755 67.4292L35.7511 67.6199L35.5162 67.728L35.2709 67.7873C34.8035 67.8617 34.2628 67.742 34.0093 67.4292L33.9255 67.228L33.9209 67.1664" fill="#4B6A70"/>
<path d="M35.2705 61.9082V67.7873L35.5159 67.728L35.7507 67.6199V61.7431C35.6135 61.828 35.4473 61.8815 35.2705 61.9082" fill="#C2D2EC"/>
<path d="M35.2705 67.7873V106.1C35.4473 106.071 35.6135 106.016 35.7507 105.933V67.6199L35.5159 67.728L35.2705 67.7873" fill="#95D3E0"/>
<path d="M35.2705 60.8349V61.9082C35.4473 61.8815 35.6135 61.828 35.7507 61.7431V60.8349H35.7484H35.2705" fill="#95D3E0"/>
<path d="M33.9238 61.3163L34.0099 61.5523C34.2634 61.8663 34.8041 61.9861 35.2715 61.9082C35.4482 61.8814 35.6145 61.8279 35.7517 61.743L35.9761 61.5523L36.0622 61.3163L35.9761 61.0268L35.7517 60.8349H35.7494C35.2459 60.5337 34.3575 60.5965 34.0099 61.0268L33.9238 61.3163Z" fill="#4B6A70"/>
<path d="M68.5631 127.242C69.6003 127.864 71.2828 127.864 72.32 127.242C73.3573 126.62 73.3573 125.611 72.32 124.987C71.2828 124.365 69.6003 124.365 68.5631 124.987C67.5259 125.611 67.5259 126.62 68.5631 127.242Z" fill="#4B6A70"/>
<path d="M69.374 81.7861V87.6349L69.3798 87.6977L69.4636 87.8977C69.7159 88.2116 70.2566 88.3314 70.7252 88.257V82.3768C70.2566 82.4547 69.7159 82.3349 69.4636 82.0221L69.3775 81.7861H69.374" fill="#4B6A70"/>
<path d="M71.2051 82.2128V88.0895L71.4295 87.8977L71.5132 87.6977L71.519 87.6349V81.786H71.5156L71.4295 82.0221L71.2051 82.2128Z" fill="#4B6A70"/>
<path d="M71.4303 82.0221L71.5163 81.7861H69.3779L69.464 82.0221C69.7163 82.3349 70.257 82.4547 70.7256 82.3768C70.9012 82.35 71.0675 82.2966 71.2058 82.2128L71.4303 82.0221" fill="#4B6A70"/>
<path d="M69.374 87.635V126.018H69.3822C69.4066 126.157 69.5101 126.295 69.6903 126.402C69.9694 126.57 70.3659 126.627 70.7252 126.57C70.9008 126.54 71.067 126.485 71.2054 126.402C71.3868 126.295 71.4868 126.157 71.5136 126.018H71.5194V87.635L71.5136 87.6978L71.4298 87.8978L71.2054 88.0897L70.9705 88.1966L70.7252 88.2571C70.2566 88.3315 69.7159 88.2117 69.4636 87.8978L69.3798 87.6978L69.374 87.635" fill="#4B6A70"/>
<path d="M70.7256 82.3768V88.257L70.9709 88.1966L71.2058 88.0896V82.2128C71.0674 82.2966 70.9012 82.35 70.7256 82.3768" fill="#C2D2EC"/>
<path d="M70.7256 88.257V126.57C70.9012 126.54 71.0674 126.485 71.2058 126.402V88.0896L70.9709 88.1966L70.7256 88.257" fill="#95D3E0"/>
<path d="M70.7256 81.3047V82.3768C70.9012 82.35 71.0674 82.2965 71.2058 82.2128V81.3047H71.2035H70.7256" fill="#95D3E0"/>
<path d="M69.3779 81.7861L69.464 82.0221C69.7163 82.3349 70.257 82.4547 70.7256 82.3768C70.9012 82.35 71.0675 82.2966 71.2058 82.2128L71.4303 82.0221L71.5163 81.7861L71.4303 81.4954L71.2058 81.3047H71.2035C70.7 81.0024 69.8116 81.0652 69.464 81.4954L69.3779 81.7861" fill="#4B6A70"/>
<path d="M54.7545 94.2756C55.7917 94.8965 57.4742 94.8965 58.5114 94.2756C59.5487 93.6523 59.5487 92.6442 58.5114 92.0209C57.4742 91.3977 55.7917 91.3977 54.7545 92.0209C53.7173 92.6442 53.7173 93.6523 54.7545 94.2756Z" fill="#4B6A70"/>
<path d="M55.5664 48.8186V54.6687L55.5722 54.7314L55.6548 54.9315C55.9083 55.2454 56.449 55.364 56.9176 55.2896V49.4105C56.449 49.4885 55.9083 49.3687 55.6548 49.0547L55.5687 48.8186H55.5664" fill="#4B6A70"/>
<path d="M57.3975 49.2465V55.1233L57.6219 54.9314L57.7044 54.7314L57.7103 54.6687V48.8186H57.7079L57.6219 49.0547L57.3975 49.2465" fill="#4B6A70"/>
<path d="M57.6218 49.0548L57.7079 48.8187H55.5684L55.6544 49.0548C55.9079 49.3687 56.4486 49.4885 56.9172 49.4106C57.0928 49.3839 57.2591 49.3303 57.3974 49.2466L57.6218 49.0548" fill="#4B6A70"/>
<path d="M55.5664 54.6687V93.0512H55.5746C55.5978 93.1907 55.7013 93.328 55.8827 93.4349C56.1618 93.6035 56.5583 93.6594 56.9176 93.6035C57.0932 93.5733 57.2594 93.5198 57.3978 93.4349C57.5792 93.328 57.6792 93.1907 57.7048 93.0512H57.7106V54.6687L57.7048 54.7314L57.6222 54.9315L57.3978 55.1233L57.1618 55.2303L56.9176 55.2896C56.449 55.364 55.9083 55.2454 55.6548 54.9315L55.5722 54.7314L55.5664 54.6687" fill="#4B6A70"/>
<path d="M56.917 49.4106V55.2896L57.1612 55.2303L57.3972 55.1233V49.2466C57.2588 49.3303 57.0926 49.3838 56.917 49.4106" fill="#C2D2EC"/>
<path d="M56.917 55.2896V93.6036C57.0926 93.5733 57.2588 93.5199 57.3972 93.435V55.1233L57.1612 55.2303L56.917 55.2896" fill="#95D3E0"/>
<path d="M56.917 48.3385V49.4106C57.0926 49.3839 57.2588 49.3304 57.3972 49.2467V48.3385H57.3937H56.917" fill="#95D3E0"/>
<path d="M55.5684 48.8187L55.6544 49.0548C55.9079 49.3687 56.4486 49.4885 56.9172 49.4106C57.0928 49.3839 57.2591 49.3303 57.3974 49.2466L57.6218 49.0548L57.7079 48.8187L57.6218 48.5292L57.3974 48.3385H57.3939C56.8916 48.0362 56.0032 48.099 55.6544 48.5292L55.5684 48.8187" fill="#4B6A70"/>
<path d="M90.2076 114.744C91.246 115.366 92.9274 115.366 93.9646 114.744C95.0018 114.122 95.0018 113.113 93.9646 112.491C92.9274 111.867 91.246 111.867 90.2076 112.491C89.1704 113.113 89.1704 114.122 90.2076 114.744Z" fill="#4B6A70"/>
<path d="M91.0205 69.2884V75.1384L91.0263 75.2L91.1089 75.4012C91.3624 75.7151 91.9019 75.8337 92.3717 75.7593V69.8802C91.9019 69.9582 91.3624 69.8384 91.1089 69.5245L91.0228 69.2884H91.0205Z" fill="#4B6A70"/>
<path d="M92.8525 69.7152V75.592L93.077 75.4013L93.1595 75.2001L93.1653 75.1385V69.2885H93.1618L93.077 69.5245L92.8525 69.7152Z" fill="#4B6A70"/>
<path d="M93.0769 69.5245L93.1618 69.2884H91.0234L91.1095 69.5245C91.363 69.8384 91.9025 69.9582 92.3723 69.8803C92.5467 69.8535 92.7141 69.8 92.8525 69.7152L93.0769 69.5245Z" fill="#4B6A70"/>
<path d="M91.0205 75.1385V113.52H91.0287C91.0519 113.661 91.1542 113.798 91.3356 113.906C91.6147 114.072 92.0124 114.129 92.3717 114.072C92.5461 114.043 92.7135 113.99 92.8519 113.906C93.0321 113.798 93.1333 113.661 93.1589 113.52H93.1647V75.1385L93.1589 75.2001L93.0763 75.4012L92.8519 75.592L92.6159 75.7001L92.3717 75.7594C91.9019 75.8338 91.3624 75.7152 91.1089 75.4012L91.0263 75.2001L91.0205 75.1385" fill="#4B6A70"/>
<path d="M92.3721 69.8802V75.7593L92.6163 75.7L92.8523 75.5918V69.7151C92.7139 69.8 92.5465 69.8535 92.3721 69.8802" fill="#C2D2EC"/>
<path d="M92.3721 75.7593V114.072C92.5465 114.043 92.7139 113.99 92.8523 113.906V75.5919L92.6163 75.7L92.3721 75.7593" fill="#95D3E0"/>
<path d="M92.3721 68.807V69.8802C92.5465 69.8535 92.7139 69.8 92.8523 69.7151V68.807H92.8488H92.3721" fill="#95D3E0"/>
<path d="M91.0234 69.2884L91.1095 69.5245C91.363 69.8384 91.9025 69.9582 92.3723 69.8803C92.5467 69.8535 92.7141 69.8 92.8525 69.7152L93.0769 69.5245L93.1618 69.2884L93.0769 68.9989L92.8525 68.807H92.849C92.3455 68.5058 91.4572 68.5686 91.1095 68.9989L91.0234 69.2884Z" fill="#4B6A70"/>
<path d="M70.3282 118.574L26.1631 92.0768V89.5082L99.3166 98.7849V101.355L70.3282 118.574Z" fill="#6CB3C4"/>
<path d="M70.3282 116.006L26.1631 89.5082L55.1515 72.2873L99.3166 98.785L70.3282 116.006Z" fill="#88C8D3"/>
<path d="M33.108 91.4524C34.1464 92.0757 35.8277 92.0757 36.865 91.4524C37.9033 90.8315 37.9033 89.821 36.865 89.199C35.8277 88.5757 34.1464 88.5757 33.108 89.199C32.0708 89.821 32.0708 90.8315 33.108 91.4524Z" fill="#4B6A70"/>
<path d="M33.9209 65.4175V71.2675L33.9255 71.3291L34.0093 71.5303C34.2628 71.8443 34.8035 71.964 35.2709 71.8885V66.0094C34.8035 66.0861 34.2628 65.9664 34.0093 65.6536L33.9232 65.4175H33.9209Z" fill="#4B6A70"/>
<path d="M35.751 65.8454V71.721L35.9754 71.5303L36.0591 71.3291L36.0649 71.2675V65.4175H36.0614L35.9754 65.6536L35.751 65.8454" fill="#4B6A70"/>
<path d="M35.9761 65.6536L36.0622 65.4176H33.9238L34.0099 65.6536C34.2634 65.9664 34.8041 66.0862 35.2715 66.0094C35.4482 65.9827 35.6145 65.928 35.7517 65.8455L35.9761 65.6536Z" fill="#4B6A70"/>
<path d="M33.9209 71.2675V90.228H33.929C33.9523 90.3687 34.0558 90.5071 34.2372 90.614C34.5151 90.7803 34.9116 90.8373 35.2709 90.7803C35.4476 90.7512 35.6139 90.6978 35.7511 90.614C35.9325 90.5071 36.0337 90.3687 36.0593 90.228H36.0651V71.2675L36.0593 71.3292L35.9755 71.5303L35.7511 71.721L35.5162 71.8292L35.2709 71.8885C34.8035 71.964 34.2628 71.8443 34.0093 71.5303L33.9255 71.3292L33.9209 71.2675" fill="#4B6A70"/>
<path d="M35.2705 66.0093V71.8884L35.5159 71.8291L35.7507 71.721V65.8454C35.6135 65.928 35.4473 65.9826 35.2705 66.0093" fill="#C2D2EC"/>
<path d="M35.2705 71.8884V90.7802C35.4473 90.7511 35.6135 90.6977 35.7507 90.6139V71.7209L35.5159 71.8291L35.2705 71.8884" fill="#95D3E0"/>
<path d="M35.2705 64.9361V66.0094C35.4473 65.9827 35.6135 65.928 35.7507 65.8455V64.9361H35.7484H35.2705" fill="#95D3E0"/>
<path d="M33.9238 65.4176L34.0099 65.6536C34.2634 65.9664 34.8041 66.0862 35.2715 66.0094C35.4482 65.9827 35.6145 65.928 35.7517 65.8455L35.9761 65.6536L36.0622 65.4176L35.9761 65.128L35.7517 64.9362H35.7494C35.2459 64.635 34.3575 64.6978 34.0099 65.128L33.9238 65.4176Z" fill="#4B6A70"/>
<path d="M68.5631 111.923C69.6003 112.545 71.2828 112.545 72.32 111.923C73.3573 111.3 73.3573 110.291 72.32 109.669C71.2828 109.045 69.6003 109.045 68.5631 109.669C67.5259 110.291 67.5259 111.3 68.5631 111.923Z" fill="#4B6A70"/>
<path d="M69.374 85.8873V91.7361L69.3798 91.8001L69.4636 92.0001C69.7159 92.3129 70.2566 92.4327 70.7252 92.3582V86.4792C70.2566 86.5571 69.7159 86.4373 69.4636 86.1234L69.3775 85.8873H69.374Z" fill="#4B6A70"/>
<path d="M71.2051 86.3152V92.1908L71.4295 92.0001L71.5132 91.8001L71.519 91.7361V85.8873H71.5156L71.4295 86.1234L71.2051 86.3152" fill="#4B6A70"/>
<path d="M71.4303 86.1234L71.5163 85.8873H69.3779L69.464 86.1234C69.7163 86.4373 70.257 86.557 70.7256 86.4791C70.9012 86.4524 71.0675 86.3978 71.2058 86.3152L71.4303 86.1234Z" fill="#4B6A70"/>
<path d="M69.374 91.736V110.698H69.3822C69.4066 110.838 69.5101 110.976 69.6903 111.083C69.9694 111.25 70.3659 111.307 70.7252 111.25C70.9008 111.22 71.067 111.167 71.2054 111.083C71.3868 110.976 71.4868 110.838 71.5136 110.698H71.5194V91.736L71.5136 91.8L71.4298 92L71.2054 92.1907L70.9705 92.2988L70.7252 92.3582C70.2566 92.4326 69.7159 92.3128 69.4636 92L69.3798 91.8L69.374 91.736" fill="#4B6A70"/>
<path d="M70.7256 86.4792V92.3583L70.9709 92.299L71.2058 92.1908V86.3153C71.0674 86.3978 70.9012 86.4525 70.7256 86.4792" fill="#C2D2EC"/>
<path d="M70.7256 92.3582V111.25C70.9012 111.22 71.0674 111.168 71.2058 111.083V92.1908L70.9709 92.2989L70.7256 92.3582" fill="#95D3E0"/>
<path d="M70.7256 85.4058V86.4791C70.9012 86.4523 71.0674 86.3977 71.2058 86.3151V85.4058H71.2035H70.7256" fill="#95D3E0"/>
<path d="M69.3779 85.8873L69.464 86.1233C69.7163 86.4373 70.257 86.557 70.7256 86.4791C70.9012 86.4524 71.0675 86.3978 71.2058 86.3152L71.4303 86.1233L71.5163 85.8873L71.4303 85.5978L71.2058 85.4059H71.2035C70.7 85.1047 69.8116 85.1675 69.464 85.5978L69.3779 85.8873Z" fill="#4B6A70"/>
<path d="M54.7545 78.9559C55.7917 79.5792 57.4742 79.5792 58.5114 78.9559C59.5487 78.3338 59.5487 77.3245 58.5114 76.7013C57.4742 76.0792 55.7917 76.0792 54.7545 76.7013C53.7173 77.3245 53.7173 78.3338 54.7545 78.9559Z" fill="#4B6A70"/>
<path d="M55.5664 52.9198V58.7698L55.5722 58.8338L55.6548 59.0326C55.9083 59.3466 56.449 59.4664 56.9176 59.3919V53.5117C56.449 53.5896 55.9083 53.4699 55.6548 53.1571L55.5687 52.9198H55.5664Z" fill="#4B6A70"/>
<path d="M57.3975 53.3477V59.2245L57.6219 59.0326L57.7044 58.8338L57.7103 58.7698V52.9198H57.7079L57.6219 53.157L57.3975 53.3477" fill="#4B6A70"/>
<path d="M57.6218 53.1571L57.7079 52.9199H55.5684L55.6544 53.1571C55.9079 53.4699 56.4486 53.5896 56.9172 53.5117C57.0928 53.485 57.2591 53.4315 57.3974 53.3478L57.6218 53.1571Z" fill="#4B6A70"/>
<path d="M55.5664 58.7699V77.7315H55.5746C55.5978 77.8722 55.7013 78.0094 55.8827 78.1164C56.1618 78.2838 56.5583 78.3408 56.9176 78.2838C57.0932 78.2547 57.2594 78.2001 57.3978 78.1164C57.5792 78.0094 57.6792 77.8722 57.7048 77.7315H57.7106V58.7699L57.7048 58.8338L57.6222 59.0326L57.3978 59.2245L57.1618 59.3315L56.9176 59.392C56.449 59.4664 55.9083 59.3466 55.6548 59.0326L55.5722 58.8338L55.5664 58.7699" fill="#4B6A70"/>
<path d="M56.917 53.5118V59.392L57.1612 59.3316L57.3972 59.2246V53.3478C57.2588 53.4316 57.0926 53.485 56.917 53.5118" fill="#C2D2EC"/>
<path d="M56.917 59.392V78.2838C57.0926 78.2547 57.2588 78.2001 57.3972 78.1164V59.2245L57.1612 59.3315L56.917 59.392" fill="#95D3E0"/>
<path d="M56.917 52.4397V53.5118C57.0926 53.485 57.2588 53.4316 57.3972 53.3478V52.4397H57.3937H56.917" fill="#95D3E0"/>
<path d="M55.5684 52.9199L55.6544 53.1571C55.9079 53.4699 56.4486 53.5896 56.9172 53.5117C57.0928 53.485 57.2591 53.4315 57.3974 53.3478L57.6218 53.1571L57.7079 52.9199L57.6218 52.6303L57.3974 52.4396H57.3939C56.8916 52.1373 56.0032 52.2013 55.6544 52.6303L55.5684 52.9199Z" fill="#4B6A70"/>
<path d="M90.2076 99.4256C91.246 100.048 92.9274 100.048 93.9646 99.4256C95.0018 98.8024 95.0018 97.7931 93.9646 97.171C92.9274 96.5477 91.246 96.5477 90.2076 97.171C89.1704 97.7931 89.1704 98.8024 90.2076 99.4256Z" fill="#4B6A70"/>
<path d="M91.0205 73.3896V79.2396L91.0263 79.3024L91.1089 79.5024C91.3624 79.8152 91.9019 79.9361 92.3717 79.8617V73.9815C91.9019 74.0594 91.3624 73.9396 91.1089 73.6256L91.0228 73.3896H91.0205" fill="#4B6A70"/>
<path d="M92.8525 73.8175V79.6943L93.077 79.5024L93.1595 79.3024L93.1653 79.2396V73.3896H93.1618L93.077 73.6256L92.8525 73.8175" fill="#4B6A70"/>
<path d="M93.0769 73.6256L93.1618 73.3896H91.0234L91.1095 73.6256C91.363 73.9395 91.9025 74.0593 92.3723 73.9814C92.5467 73.9547 92.7141 73.9012 92.8525 73.8175L93.0769 73.6256Z" fill="#4B6A70"/>
<path d="M91.0205 79.2396V98.2001H91.0287C91.0519 98.3408 91.1542 98.478 91.3356 98.5862C91.6147 98.7536 92.0124 98.8106 92.3717 98.7536C92.5461 98.7234 92.7135 98.6699 92.8519 98.5862C93.0321 98.478 93.1333 98.3408 93.1589 98.2001H93.1647V79.2396L93.1589 79.3024L93.0763 79.5024L92.8519 79.6943L92.6159 79.8013L92.3717 79.8618C91.9019 79.9362 91.3624 79.8152 91.1089 79.5024L91.0263 79.3024L91.0205 79.2396" fill="#4B6A70"/>
<path d="M92.3721 73.9815V79.8617L92.6163 79.8012L92.8523 79.6943V73.8175C92.7139 73.9012 92.5465 73.9547 92.3721 73.9815" fill="#C2D2EC"/>
<path d="M92.3721 79.8617V98.7535C92.5465 98.7233 92.7139 98.6698 92.8523 98.5861V79.6943L92.6163 79.8012L92.3721 79.8617" fill="#95D3E0"/>
<path d="M92.3721 72.9094V73.9815C92.5465 73.9548 92.7139 73.9013 92.8523 73.8176V72.9094H92.8488H92.3721" fill="#95D3E0"/>
<path d="M91.0234 73.3896L91.1095 73.6256C91.363 73.9395 91.9025 74.0593 92.3723 73.9814C92.5467 73.9547 92.7141 73.9012 92.8525 73.8175L93.0769 73.6256L93.1618 73.3896L93.0769 73.1L92.8525 72.9093H92.849C92.3455 72.6081 91.4572 72.6698 91.1095 73.1L91.0234 73.3896Z" fill="#4B6A70"/>
<path d="M70.3282 91.9698L26.1631 65.4733V62.9035L99.3166 72.1803V74.7489L70.3282 91.9698" fill="#6CB3C4"/>
<path d="M70.3282 89.4012L26.1631 62.9035L55.1515 45.6826L99.3166 72.1802L70.3282 89.4012Z" fill="#88C8D3"/>
<path d="M77.2122 59.5245C77.2122 59.5245 75.7413 61.8256 74.9029 62.914C74.0657 64.0035 73.8308 64.6477 72.7599 64.4268C71.6878 64.2047 71.1913 65.5419 74.2017 66.1931C77.2122 66.8431 76.7168 65.1582 78.118 65.3407C79.5203 65.5245 80.0203 65.6338 81.3529 64.8652C82.6843 64.0966 83.0994 62.2407 84.3017 62.9338C85.5041 63.628 87.2703 61.2896 85.0436 60.7687C82.818 60.2489 79.932 57.9547 76.875 59.7187L77.2122 59.5245" fill="#FFAE30"/>
<path d="M91.9202 56.2001C91.9202 55.7524 91.0957 53.8268 89.4946 53.8268C87.8934 53.8268 86.8771 55.3303 86.8771 55.3303L81.3516 58.4373C81.3516 58.4373 83.5586 58.7687 84.0527 60.5803C84.5481 62.3919 91.9202 59.407 91.9202 56.2001" fill="#FF9E6E"/>
<path d="M88.9189 56.3826C88.0108 54.743 85.3736 55.3303 85.3736 55.3303L81.805 57.7186L79.7131 57.3384L78.9922 57.1989C78.4631 57.0954 77.9154 57.1477 77.4143 57.3477L76.4957 57.7151C75.6782 58.0419 75.0573 58.7337 74.8305 59.586C74.6584 60.2267 74.455 60.8895 74.3073 61.0372C74.005 61.3395 74.4236 62.3977 74.6689 62.3977L74.0654 64.0035C74.0654 64.0035 74.1829 64.4209 75.091 64.1791C75.9991 63.9372 76.184 62.3977 76.184 62.3977L78.3026 61.4349L80.905 61.4302C80.905 61.4302 79.934 62.0628 79.0898 62.55C78.2445 63.0384 78.7991 64.4268 78.7991 64.4268C78.7991 64.4268 79.4922 64.0268 80.0573 63.7C80.6236 63.3744 82.0747 63.007 82.2364 62.914C82.3631 62.8407 83.4236 62.2942 84.0317 61.5442C85.8782 61.814 89.248 60.0837 89.248 60.0837C89.248 60.0837 89.8247 58.0221 88.9189 56.3826" fill="#FF5D0D"/>
<path d="M107.391 52.6746L111.977 48.5746C111.977 48.5746 114.823 47.8595 115.836 50.1932C116.849 52.5281 116.634 54.7211 116.634 54.7211L109.012 56.035L107.391 52.6746" fill="#FF5D0D"/>
</g>
<defs>
<clipPath id="clip0">
<rect width="150" height="150" fill="white"/>
</clipPath>
</defs>
</svg>
