<svg width="150" height="150" viewBox="0 0 150 150" fill="none" xmlns="http://www.w3.org/2000/svg">
<g clip-path="url(#clip0)">
<ellipse cx="78.4077" cy="78.7245" rx="49.5488" ry="71.7058" transform="rotate(9.22935 78.4077 78.7245)" fill="#EAEAEA"/>
<path d="M36 141.762L39.1307 143.568L86.4333 15.4844L83.3013 13.6777L36 40.9884V141.762Z" fill="#EAF6F9"/>
<path d="M41.6553 44.2524V139.204L79.1739 117.536L83.9086 114.807V19.855L41.6553 44.2524Z" fill="#AADCE6"/>
<path d="M41.6553 49.5657V139.204L79.1739 117.536V27.915L41.6553 49.5657Z" fill="#BFE5EC"/>
<path d="M81.3882 113.343L44.1735 134.83V45.7084L81.3882 24.2244V113.343ZM39.1309 143.568L86.4335 116.258V15.4844L39.1309 42.795V143.568" fill="#E3FAFF"/>
<path d="M78.1845 89.5177L44.1738 65.5897V61.491L79.0218 86.007C78.3952 86.647 78.1725 87.6604 78.1818 89.4017C78.1818 89.4404 78.1832 89.479 78.1845 89.5177Z" fill="#D2EDF2"/>
<path d="M78.7232 97.5457L44.1738 73.2376V71.2177L79.1738 95.8417V96.7177L78.7232 97.5457" fill="#D2EDF2"/>
<path d="M89.2607 139.796H90.7727V6.99999H89.2607V139.796Z" fill="#0295AD"/>
<path d="M106.928 110.348L104.51 112.511C104.02 112.575 102.89 110.594 103.003 110.212L103.968 106.974C104.53 105.619 108.247 103.968 108.247 103.968C109.295 103.412 110.228 102.786 110.427 103.448L110.487 103.504C110.772 103.767 110.511 104.924 110.318 105.384L108.195 109.47C108.018 109.888 107.452 110.28 106.928 110.348" fill="#79C7D3"/>
<path d="M110.54 105.127L109.691 105.239C108.535 105.388 107.909 104.764 108.292 103.843L109.308 101.399L111.312 101.138L110.54 105.127" fill="#3BAAC4"/>
<path d="M111.288 106.104L108.341 111.016C107.187 111.167 108.657 105.742 109.04 104.822L110.056 102.376L112.059 102.115L111.288 106.104Z" fill="#BFE5EC"/>
<path d="M109.806 102.479L109.057 101.502L109.287 100.948L110.035 101.926L109.806 102.479Z" fill="#6CB3C4"/>
<path d="M112.258 102.16L109.806 102.479L110.035 101.926L112.487 101.607L112.258 102.16Z" fill="#85BFD1"/>
<path d="M106.428 103.142L106.423 103.143C106.302 103.178 106.322 103.086 106.436 102.971C107.476 101.964 107.427 101.216 108.552 100.431C111.735 99.751 109.691 101.162 110.076 101.18C109.066 100.524 106.803 103.598 106.803 103.598L106.428 103.142Z" fill="#79C7D3"/>
<path d="M106.807 103.596L106.803 103.598C106.681 103.631 106.7 103.539 106.815 103.424C107.856 102.418 107.805 101.67 108.931 100.886C112.115 100.206 110.069 101.616 110.455 101.635C109.444 100.978 108.609 102.28 107.361 103.295C106.967 103.528 106.864 103.582 106.807 103.596" fill="#6CB3C4"/>
<path d="M111.329 100.812L109.013 101.166C109.013 101.166 108.637 100.471 108.265 100.188C108.378 100.016 108.674 99.3497 108.791 99.1763L113.234 99.071C112.179 99.623 111.565 100.366 111.329 100.812" fill="#AADCE6"/>
<path d="M108.154 112.247L104.892 112.671C104.403 112.735 104.116 112.492 104.23 112.11L105.194 108.871C105.755 107.518 109.003 104.914 109.003 104.914C110.051 104.359 111.488 104.862 111.488 104.862C112.051 105.486 111.738 106.823 111.543 107.283L109.42 111.367C109.244 111.786 108.678 112.179 108.154 112.247Z" fill="#BFE5EC"/>
<path d="M105.17 112.004L105.09 111.936L106.043 108.735C106.365 108.042 108.295 106.66 109.571 105.895C109.757 105.816 109.946 105.763 110.122 105.74C110.446 105.698 110.714 105.756 110.874 105.904L110.927 105.952C111.021 106.116 110.902 106.912 110.719 107.363L108.598 111.444L108.586 111.472L108.431 111.58L105.17 112.004" fill="#EAF6F9"/>
<path d="M105.329 111.823L108.411 111.422L110.513 107.375C110.689 106.94 110.775 106.224 110.718 106.084L110.675 106.047C110.475 105.862 110.05 105.852 109.621 106.028C108.21 106.876 106.538 108.13 106.258 108.704L105.329 111.823ZM108.361 111.75L105.099 112.175C104.93 112.196 104.83 112.114 104.87 111.98L105.827 108.768L105.833 108.756C106.199 107.967 108.274 106.511 109.495 105.779L109.549 105.752C109.765 105.66 109.987 105.598 110.193 105.571C110.573 105.522 110.885 105.588 111.073 105.762L111.141 105.83C111.257 106.034 111.118 106.878 110.933 107.334L108.805 111.432L108.799 111.446C108.738 111.59 108.542 111.726 108.361 111.75Z" fill="#0295AD"/>
<path d="M113.98 100.048L109.331 100.654L109.538 100.155L113.67 99.6163L113.98 100.048Z" fill="#BFE5EC"/>
<path d="M112.077 101.79L110.713 101.968C109.943 101.751 109.385 101.45 109.013 101.166C109.126 100.995 109.178 100.831 109.295 100.658L113.981 100.048C112.927 100.6 112.313 101.343 112.077 101.79Z" fill="#95D3E0"/>
<path d="M113.67 99.6164L109.538 100.155L108.791 99.1764L112.922 98.639L113.67 99.6164" fill="#D5EDF3"/>
<path d="M109.1 100.522C109.195 100.294 109.151 99.9484 109 99.7524L108.73 99.631V99.6283L107.856 99.855L107.928 100.283L108.024 100.706L108.822 100.702H108.927H108.935V100.699L109.1 100.522Z" fill="#709EA8"/>
<path d="M108.146 100.567C108.071 100.748 107.913 100.77 107.793 100.612C107.673 100.456 107.637 100.182 107.713 100C107.787 99.8177 107.946 99.7977 108.066 99.9537C108.186 100.111 108.222 100.386 108.146 100.567Z" fill="#95D3E0"/>
<path d="M98.4723 116.098L81.2217 115.986L83.8363 128.335C83.8363 129.226 84.4217 130.115 85.6057 130.792C87.9483 132.144 91.7457 132.144 94.0897 130.792C95.1843 130.16 95.7617 129.347 95.8337 128.524H95.835L98.0537 117.874L98.4723 116.098" fill="#FF5D0D"/>
<path d="M95.9926 118.947C93.5166 120.378 89.9167 120.764 86.834 120.108C85.69 119.864 84.618 119.478 83.6993 118.947C80.3047 116.987 80.3047 113.81 83.6993 111.851C87.094 109.89 92.598 109.89 95.9926 111.851C99.3873 113.81 99.3873 116.988 95.9926 118.947Z" fill="#FF3C08"/>
<path d="M89.8461 110.758C87.5901 110.758 85.4727 111.262 83.8887 112.178C82.3687 113.055 81.5314 114.199 81.5314 115.399C81.5314 116.599 82.3687 117.743 83.8887 118.62C84.7514 119.118 85.7701 119.494 86.9127 119.738C87.8527 119.938 88.8394 120.039 89.8461 120.039C92.1021 120.039 94.2181 119.535 95.8034 118.62C97.3234 117.743 98.1607 116.599 98.1607 115.399C98.1607 114.199 97.3234 113.055 95.8034 112.178C94.2181 111.262 92.1021 110.758 89.8461 110.758V110.758ZM89.8461 120.796C88.7861 120.796 87.7474 120.688 86.7541 120.478C85.5354 120.219 84.4421 119.814 83.5101 119.275C81.7474 118.256 80.7754 116.88 80.7754 115.399C80.7754 113.918 81.7474 112.542 83.5101 111.523C85.2087 110.542 87.4594 110.002 89.8461 110.002C92.2327 110.002 94.4834 110.542 96.1807 111.523C97.9447 112.542 98.9167 113.918 98.9167 115.399C98.9167 116.88 97.9447 118.256 96.1807 119.275C94.4821 120.255 92.2327 120.796 89.8461 120.796Z" fill="#FFBE9E"/>
<path d="M86.2179 119.859L85.4619 119.842C85.6992 108.716 86.7432 106.812 89.9712 106.418C92.9592 106.052 94.2833 109.252 94.5659 110.998L93.8192 111.119C93.7912 110.943 93.0872 106.82 90.0619 107.168C87.5166 107.48 86.4566 108.715 86.2179 119.859" fill="#3BAAC4"/>
<path d="M89.2101 107.967C88.4661 107.954 88.1354 107.619 87.9874 107.34C87.4341 106.284 88.6514 104.366 88.9007 103.992L89.5301 104.411C89.0141 105.187 88.4007 106.5 88.6581 106.988C88.6861 107.042 88.7701 107.203 89.2221 107.21L89.2101 107.967" fill="#FFBE9E"/>
<path fill-rule="evenodd" clip-rule="evenodd" d="M86.776 97.4457L89.6746 99.663C89.64 102.331 89.6466 103.644 88.6133 104.339C87.356 105.184 85.232 104.503 83.948 103.914L83.6026 102.882C82.3693 102.71 82.6453 103.079 81.3106 102.338C78.7026 100.891 74.6653 98.5244 75.388 95.8324C75.464 95.5457 76.5053 94.6457 76.7933 94.715C78.304 95.083 82.7266 96.5937 82.7266 96.5937L86.776 97.4457" fill="#0A0A0A"/>
<path fill-rule="evenodd" clip-rule="evenodd" d="M97.6603 86.8818L86.267 101.632L86.263 101.642C86.2843 101.81 86.223 101.944 86.071 102.032C85.387 102.431 83.1243 101.767 81.0176 100.55C80.147 100.048 79.439 99.5271 78.955 99.0644C78.703 98.8964 78.4456 98.7204 78.1816 98.5364L87.347 81.7231L97.6603 86.8818" fill="#120A30"/>
<path fill-rule="evenodd" clip-rule="evenodd" d="M72.5658 105.631L75.5551 107.723C75.6338 110.391 75.6951 111.702 74.6925 112.44C73.4711 113.338 71.3218 112.747 70.0138 112.212L69.2711 111.55C67.5125 111.379 68.3485 111.295 66.5605 110.367C64.0485 109.066 60.9045 107.144 61.2418 104.727C61.2911 104.374 62.1538 102.502 63.2418 102.872C65.0845 103.502 69.1165 104.318 69.1165 104.318L72.5658 105.631" fill="#650B14"/>
<path fill-rule="evenodd" clip-rule="evenodd" d="M85.706 89.7564C85.5726 91.5938 83.9713 97.2951 83.358 99.0324C82.334 101.931 78.8287 103.748 78.8287 103.748L75.7073 109.1C75.0246 109.499 72.762 108.834 70.6553 107.618C68.638 106.452 67.494 105.203 68.002 104.751C68.002 104.751 76.9007 92.2804 78.182 87.6391C79.3873 83.2697 85.6273 85.7351 85.706 89.7564" fill="#0295AD"/>
<path fill-rule="evenodd" clip-rule="evenodd" d="M82.4219 99.4417V100.914L94.2099 107.719L114.653 95.9163V94.4443L82.4219 99.4417Z" fill="#653338"/>
<path fill-rule="evenodd" clip-rule="evenodd" d="M102.865 87.6391L82.4219 99.4417L94.2099 106.247L114.653 94.4444L102.865 87.6391Z" fill="#845C60"/>
<path d="M104.387 73.9057H105.942V74.347H105.938C105.959 74.475 105.885 74.6083 105.714 74.707C105.411 74.8817 104.918 74.8817 104.614 74.707C104.445 74.6083 104.37 74.475 104.39 74.347H104.387V73.9057Z" fill="#679B96"/>
<path d="M104.614 74.2231C104.918 74.3991 105.411 74.3991 105.714 74.2231C106.018 74.0471 106.018 73.7631 105.714 73.5871C105.411 73.4138 104.918 73.4138 104.614 73.5871C104.311 73.7631 104.311 74.0471 104.614 74.2231Z" fill="#C9DBF5"/>
<path d="M102.078 91.9363H103.633V92.3777H103.63C103.65 92.5057 103.575 92.639 103.405 92.7377C103.102 92.9123 102.609 92.9123 102.306 92.7377C102.135 92.639 102.061 92.5057 102.082 92.3777H102.078V91.9363Z" fill="#679B96"/>
<path d="M102.306 92.2538C102.609 92.4284 103.102 92.4284 103.405 92.2538C103.709 92.0778 103.709 91.7938 103.405 91.6178C103.102 91.4444 102.61 91.4444 102.306 91.6178C102.002 91.7938 102.002 92.0778 102.306 92.2538Z" fill="#C9DBF5"/>
<path fill-rule="evenodd" clip-rule="evenodd" d="M107.538 90.2551C108.439 94.3418 109.169 96.0084 107.287 97.9791C104.573 100.816 103.538 98.8884 98.2874 97.6871C94.3914 96.7938 94.3315 93.5138 89.7968 90.2844L85.7901 88.2351C85.5208 84.0871 85.8288 82.7498 87.7475 82.0898C91.3701 80.8458 97.5701 84.0951 102.307 86.4151L107.538 90.2551Z" fill="#0295AD"/>
<path fill-rule="evenodd" clip-rule="evenodd" d="M107.357 89.8844L107.369 89.9111C107.481 90.1391 107.567 90.3924 107.623 90.6404C108.482 94.4497 109.11 96.0724 107.287 97.9791C104.573 100.816 98.9419 102.943 93.6926 101.743C89.8633 100.864 86.9113 96.871 82.5086 93.667C82.3539 93.555 82.1873 93.4537 82.018 93.3657L79.9913 92.331C78.8913 91.7697 78.1886 90.635 78.182 89.4017C78.1673 86.8244 78.6633 85.839 80.2233 85.303C83.6059 84.1417 89.2339 86.8964 93.8206 89.1551C94.4486 89.4644 95.1553 89.5644 95.8446 89.4444L103.81 88.0684C105.265 87.8177 106.71 88.5577 107.357 89.8844" fill="#0295AD"/>
<path d="M96.2694 65.6443C96.4601 65.523 100.059 69.8057 103.057 67.643L103.321 62.4443L103.299 62.4497C103.149 62.475 102.331 62.511 102.199 59.963C102.153 59.0977 101.676 58.823 101.036 58.8537C100.585 58.8737 100.059 59.0417 99.5414 59.271C98.4094 59.763 97.3414 60.527 97.3414 60.527C97.3414 60.527 97.3774 60.9844 97.3961 61.5497C97.4188 62.3377 97.4041 63.3297 97.2001 63.563C97.0241 63.7617 96.7414 64.311 96.5321 64.795C96.3188 65.283 96.1734 65.7043 96.2694 65.6443" fill="#E5AC7F"/>
<path d="M91.6247 86.799C90.662 88.9603 90.5994 92.3977 91.41 94.2857C92.0487 95.7777 92.4887 96.7484 96.238 97.587C96.4607 97.6377 96.6967 97.6684 96.946 97.679C100.954 97.8977 108.398 93.767 108.398 92.343C108.398 90.8217 107.23 86.503 107.23 84.3417C107.23 82.1857 106.526 80.5577 107.915 77.5617C109.311 74.5603 109.875 63.6137 108.934 62.567C107.994 61.5137 102.663 61.967 102.663 61.967C102.663 61.967 103.699 62.3844 101.377 63.6444C99.946 64.423 96.8234 64.4844 96.8234 64.4844L93.23 67.2777C93.23 67.2777 88.4354 65.4897 87.922 66.059C86.422 67.743 90.766 78.639 91.5207 80.8017C92.27 82.959 92.5887 84.6363 91.6247 86.799" fill="#3BAAC4"/>
<path d="M94.5919 55.903C94.2506 57.7644 94.5106 59.4537 94.9373 59.9324C95.2426 60.2724 94.6279 62.0831 96.4453 61.7217C96.8146 61.6511 97.1226 61.6004 97.3959 61.5497C98.2586 61.4071 98.7319 61.3257 99.3493 60.9084C99.5039 60.8111 99.6719 60.6844 99.8586 60.5271C100.145 60.2871 100.572 59.6724 101.036 58.8537C102.421 56.4017 104.135 52.1137 103.321 50.6284C102.713 49.519 100.168 49.6817 98.0359 50.0324C96.3559 50.3177 94.9373 50.7244 94.9373 50.7244L94.7879 50.6284C94.7879 50.6284 94.1413 51.9617 94.5186 53.6604C94.8919 55.3644 94.9373 54.047 94.5919 55.903Z" fill="#F2B288"/>
<path d="M94.983 48.5271C96.5563 47.5111 98.1736 45.1684 101.54 46.3404C101.54 46.3404 103.32 46.6618 104.202 47.6471C104.358 47.8231 105.988 49.4871 106.131 52.3657C106.274 55.2457 104.844 57.9658 103.63 59.3244C102.415 60.6844 102.772 60.9404 102.772 60.9404C102.772 60.9404 99.8536 61.4044 99.4549 61.4044C99.0563 61.4044 97.5563 58.6858 97.5563 58.6858C97.5563 58.6858 98.5736 55.3364 98.2496 55.2684C97.867 55.1884 97.7349 56.2138 96.5376 56.3258C96.5376 56.3258 96.0883 53.5604 94.983 52.8458C93.879 52.1324 93.5869 49.8071 93.5869 48.2871C93.5869 46.7684 93.411 49.5444 94.983 48.5271Z" fill="#654C4F"/>
<path d="M97.2216 55.1244C97.2296 55.0884 97.527 54.0244 97.975 54.2777C98.4216 54.5324 98.7656 55.0964 98.727 55.9377C98.691 56.779 98.4323 57.847 97.9323 57.9124C97.431 57.9777 97.287 58.0764 96.9656 57.6844C96.6443 57.291 96.7456 56.767 96.7456 56.767L97.2216 55.1244" fill="#FFEAE1"/>
<path d="M97.0281 55.2324C97.0361 55.1977 97.3334 54.1324 97.7814 54.3871C98.2281 54.6417 98.5721 55.2044 98.5334 56.047C98.4961 56.8884 98.2388 57.9551 97.7388 58.0217C97.2374 58.0871 97.0948 58.1857 96.7734 57.7924C96.4508 57.3991 96.5508 56.875 96.5508 56.875L97.0281 55.2324" fill="#F2B288"/>
<path d="M97.4498 55.4244C97.4498 55.4244 97.6644 55.8924 97.7471 56.0977C97.8311 56.3044 97.9311 56.6484 97.8484 56.8337C97.7658 57.019 97.6831 57.1444 97.6831 57.1444C97.6831 57.1444 97.6044 56.279 97.5018 55.963C97.3991 55.6457 97.3431 55.3604 97.4431 55.1004C97.5431 54.8417 97.6111 54.5164 97.8418 54.771C98.0738 55.0244 98.2738 55.315 98.2858 55.8404C98.3004 56.3644 98.2151 56.9377 98.0284 57.2044C97.8444 57.4724 97.5738 57.6257 97.5738 57.6257C97.5738 57.6257 98.1111 57.2737 98.1538 56.6644C98.1951 56.0564 98.1364 55.1337 97.9578 55.0004C97.7791 54.8657 97.7524 54.8364 97.7618 55.0617C97.7711 55.2857 97.9218 55.6031 97.7658 55.5164C97.6111 55.4271 97.5604 55.1191 97.4884 55.2577C97.4164 55.3977 97.4498 55.4244 97.4498 55.4244" fill="#E5AC7F"/>
<path d="M97.45 56.4271L97.2354 55.979C97.1447 56.007 97.1274 56.0124 97.0874 56.1844C97.0487 56.355 97.046 56.4177 96.9047 56.3924C96.7634 56.3657 96.6554 56.2484 96.7967 56.451C96.9394 56.655 96.946 56.4177 97.162 56.5404C97.3754 56.663 97.3327 56.8817 97.4687 56.8764C97.6047 56.8724 97.4887 56.551 97.4354 56.4617L97.45 56.4271" fill="#E5AC7F"/>
<path d="M96.9457 97.6791C96.6963 97.6684 96.4603 97.6378 96.2377 97.5871C92.4883 96.7484 92.0483 95.7778 91.4097 94.2858C91.0363 93.4164 90.8483 92.2164 90.8483 90.9644C90.8483 89.5004 91.1057 87.9631 91.6243 86.7991C92.0497 85.8444 92.2257 84.9844 92.2243 84.1351C92.223 83.0617 91.939 82.0057 91.5203 80.8017C90.7657 78.6391 88.5163 71.8044 90.0163 70.1191C90.2203 69.8938 90.491 69.8697 90.8083 69.8697C90.8523 69.8697 90.8963 69.8697 90.9417 69.8711C90.987 69.8711 91.0337 69.8711 91.0803 69.8711C91.5057 69.8711 91.9937 69.8337 92.5017 69.4137C90.0977 77.3057 95.1257 74.8231 94.7937 78.1538C94.2803 83.2964 95.0963 81.6004 95.551 85.8431C95.8963 89.0724 94.8217 95.0124 96.9457 97.6791" fill="#3999C4"/>
<path fill-rule="evenodd" clip-rule="evenodd" d="M107.566 83.7231C107.566 83.7231 106.221 81.9031 103.633 82.5724C99.8607 83.5457 97.2407 86.9351 95.826 87.3124C92.2274 88.2764 91.2874 85.8297 91.2874 85.8297L90.7207 89.0831C90.7207 89.0831 92.2887 92.5471 97.3834 91.1604C99.218 90.6604 101.846 86.4764 103.633 86.1017C106.141 85.5751 107.566 87.2311 107.566 87.2311V83.7231Z" fill="black"/>
<path d="M84.2234 99.5884L84.022 99.5297C83.8447 99.419 83.7913 99.1857 83.9033 99.0097L90.4007 88.6737C90.5127 88.4977 90.7447 88.4444 90.922 88.555C91.098 88.667 91.1514 88.9004 91.0407 89.0764L84.5434 99.411C84.4714 99.5257 84.3487 99.5884 84.2234 99.5884Z" fill="black"/>
<path d="M94.4271 104.531C94.2191 104.531 94.0498 104.362 94.0498 104.152C94.0498 102.404 96.2618 88.6124 96.3565 88.027C96.3885 87.8204 96.5858 87.679 96.7898 87.7124C96.9965 87.7457 97.1365 87.9404 97.1031 88.1457C97.0805 88.2897 94.8058 102.464 94.8058 104.152C94.8058 104.362 94.6365 104.531 94.4271 104.531Z" fill="black"/>
<path d="M112.71 94.8218L112.415 94.6804C111.403 93.4138 106.046 84.6538 105.818 84.2818C105.71 84.1031 105.766 83.8711 105.944 83.7618C106.122 83.6551 106.354 83.7084 106.463 83.8871C106.519 83.9778 112.023 92.9791 113.006 94.2071C113.136 94.3711 113.111 94.6098 112.947 94.7391L112.71 94.8218Z" fill="black"/>
<path fill-rule="evenodd" clip-rule="evenodd" d="M93.2295 67.2777L94.7775 66.051C94.7775 66.051 96.6121 65.423 98.2868 66.055C101.485 67.2604 105.164 71.227 105.164 71.227L103.176 72.2737C103.176 72.2737 98.9668 68.5203 96.7295 67.935C94.9522 67.4683 93.2295 67.2777 93.2295 67.2777" fill="black"/>
<path fill-rule="evenodd" clip-rule="evenodd" d="M104.009 61.8897H105.942C105.942 61.8897 107.209 62.3057 107.209 64.8337C107.209 65.9697 106.029 70.5977 106.029 70.5977L103.531 71.9884C103.883 72.2831 105.654 66.3671 104.966 63.8871C104.521 62.2791 104.009 61.8897 104.009 61.8897" fill="black"/>
<path fill-rule="evenodd" clip-rule="evenodd" d="M102.078 85.3284L104.895 83.5457L106.029 70.5977L103.177 72.2737L102.078 85.3284Z" fill="black"/>
<path d="M74.5801 54.9244C74.5801 54.9244 78.6334 67.9924 82.0481 69.9644C85.4614 71.9351 92.0734 74.3711 92.0734 74.3711C92.0734 74.3711 98.4201 69.2644 88.2214 64.9538C82.4214 62.5018 77.5054 54.6778 77.5054 54.6778L74.5801 54.9244Z" fill="#3BAAC4"/>
<path d="M76.8201 39.1671C76.8201 39.1671 81.5801 41.3498 79.6201 43.5804C77.6601 45.8111 77.9615 45.3498 78.1201 46.9818C78.2801 48.6151 76.3042 51.8418 74.7162 52.3204C73.1295 52.7991 70.8428 53.1724 69.4935 52.8564C68.1428 52.5404 65.9241 49.3004 68.1535 46.9751C70.3815 44.6497 71.6308 45.3311 71.9322 42.9417C72.2335 40.5524 74.3388 38.5857 76.8201 39.1671Z" fill="#709EA8"/>
<path d="M77.6787 46.4377C77.2667 47.1057 77.2561 47.9377 77.2561 47.9377L76.8094 48.2204L76.8627 47.0818L77.2001 42.4884C77.2587 42.2191 77.1267 42.0364 76.9041 42.0804L76.8961 42.0831C76.6747 42.1271 76.4481 42.3818 76.3894 42.6511L75.6961 46.5377L75.9134 42.2484C75.9414 41.9858 75.7801 41.8391 75.5521 41.9191L75.5441 41.9231C75.3161 42.0018 75.1094 42.2791 75.0827 42.5404L74.3441 47.0017L74.3227 47.0164L74.1267 43.5498C74.0961 43.3164 73.8867 43.2444 73.6601 43.3884L73.6521 43.3938C73.4241 43.5364 73.2654 43.8417 73.2961 44.0751L73.2281 48.0084L72.6694 46.2151C72.6387 45.9831 72.4294 45.9111 72.2027 46.0551L72.1947 46.0604C71.9681 46.2031 71.8081 46.5084 71.8387 46.7404L72.1121 49.7938L72.1054 49.8151L72.3881 52.2311C72.3881 52.2311 75.8894 59.0284 76.0294 59.0004C76.1694 58.9724 76.1721 56.8124 78.4241 55.5977C79.6734 54.9231 76.0094 51.2311 76.0961 51.1644L78.0694 48.4591L78.5921 46.0311C78.5921 46.0311 78.0894 45.7697 77.6787 46.4377" fill="#FF5D0D"/>
<path d="M102.855 45.1951C102.855 45.1951 98.6408 44.2404 96.2394 45.6271C93.8381 47.0138 92.5381 50.4484 92.5381 50.4484C92.5381 50.4484 93.9474 52.4111 95.4074 53.2537C96.8674 54.0964 98.9234 54.4417 99.8608 55.3804C100.799 56.3177 100.526 58.6764 102.078 59.0004C103.63 59.3244 106.859 58.6164 107.342 56.1524C107.827 53.6884 109.806 48.7871 102.855 45.1951" fill="#FF3C08"/>
</g>
<defs>
<clipPath id="clip0">
<rect width="150" height="150" fill="white"/>
</clipPath>
</defs>
</svg>
