<svg width="150" height="150" viewBox="0 0 150 150" fill="none" xmlns="http://www.w3.org/2000/svg">
<g clip-path="url(#clip0)">
<ellipse cx="78.4075" cy="78.7245" rx="49.5488" ry="71.7058" transform="rotate(64.0473 78.4075 78.7245)" fill="#EAEAEA"/>
<path d="M138.413 100.479L117.275 88.1951L117.961 87.7994L139.1 100.084L138.413 100.479" fill="#FAFBFD"/>
<path d="M113.178 115.049L92.0403 102.765L117.275 88.1952L138.413 100.479L113.178 115.049Z" fill="#FAFBFD"/>
<path d="M112.358 115.522L91.2202 103.238L92.0397 102.765L113.178 115.049L112.358 115.522Z" fill="#FAFBFD"/>
<path d="M112.369 118.844L91.2301 106.56L91.2211 103.238L112.359 115.522L112.369 118.844" fill="#E8E8E8"/>
<path d="M139.1 100.084L139.109 103.406L112.37 118.844L112.36 115.522L113.179 115.049L138.414 100.479L139.1 100.084Z" fill="#CFD5E3"/>
<path d="M114.945 114.029L93.8062 101.745L94.4684 90.3081L115.606 102.592L114.945 114.029Z" fill="#E8E8E8"/>
<path d="M141.922 75.6073L135.9 90.8181L136.633 101.507L114.945 114.029L115.606 102.592C111.462 104.985 108.156 102.235 108.139 96.4919C108.138 96.025 108.163 92.3801 108.204 91.9062L132.245 81.1949L141.922 75.6073" fill="#CFD5E3"/>
<path d="M101.309 97.4126L89.7028 90.6678C88.0547 89.711 87.0097 87.4307 87.0007 84.2076C86.9987 83.7407 87.0247 83.2628 87.0658 82.7899L108.204 92.2067C108.163 92.6796 108.138 96.0249 108.139 96.4918C108.148 99.7149 109.194 101.995 110.842 102.953L101.309 97.4126" fill="#F2F2F2"/>
<path d="M141.827 46.7677L116.716 32.1861C116.957 32.0478 117.184 31.9887 117.386 32.0017L142.496 46.5833C142.295 46.5703 142.067 46.6294 141.827 46.7677" fill="#E1E4EA"/>
<path d="M142.496 46.5822L117.385 32.0006C117.506 32.0086 117.617 32.0417 117.717 32.0988L142.826 46.6804C142.728 46.6233 142.617 46.5903 142.496 46.5822" fill="#E1E4EA"/>
<path d="M134.922 50.7552L109.812 36.1727L116.717 32.1861L141.827 46.7677L134.922 50.7552Z" fill="#FAFBFD"/>
<path d="M133.467 53.4063L108.358 38.8237C108.357 38.478 108.435 38.1084 108.571 37.7527L133.682 52.3343C133.545 52.6899 133.466 53.0597 133.467 53.4063Z" fill="#F2F2F2"/>
<path d="M133.682 52.3342L108.571 37.7526C108.662 37.5202 108.776 37.2938 108.909 37.0844L134.02 51.667C133.886 51.8754 133.771 52.1018 133.682 52.3342Z" fill="#F2F2F2"/>
<path d="M134.019 51.667L108.909 37.0844C109.157 36.6966 109.471 36.37 109.811 36.1727L134.922 50.7553C134.58 50.9516 134.268 51.2793 134.019 51.667Z" fill="#FAFBFD"/>
<path d="M141.827 46.7678C142.631 46.3039 143.292 46.7377 143.295 47.7326L143.337 62.6599L143.369 73.8601L143.371 74.4712L143.219 74.8549L133.544 80.4395L133.543 80.145L133.541 79.5338L133.509 68.3336L133.467 53.4064C133.464 52.4115 134.118 51.2192 134.922 50.7553L141.827 46.7678" fill="#F2F2F2"/>
<path d="M117.431 87.7002C116.244 88.3895 114.93 88.9616 113.532 89.4145C110.096 90.5286 106.15 90.9294 102.344 90.6158L102.33 93.0083C106.137 93.3219 110.082 92.9221 113.519 91.808C114.917 91.3542 116.23 90.7831 117.417 90.0938L133.599 80.689L133.613 78.2965L117.431 87.7002Z" fill="#71C6DB"/>
<path d="M102.345 90.6157L102.331 93.0082C98.6477 92.7047 95.093 91.7338 92.2536 90.0937C88.746 88.0689 86.9937 85.4098 87.0017 82.7548L87.0157 80.3613C87.0077 83.0163 88.76 85.6753 92.2666 87.7002C95.107 89.3403 98.6608 90.3121 102.345 90.6157Z" fill="#71C6DB"/>
<path d="M133.613 78.2964L117.431 87.7002C110.506 91.7248 99.2362 91.7248 92.266 87.7002C85.2958 83.6765 85.2597 77.1492 92.1838 73.1246L108.366 63.7198L133.613 78.2964" fill="#89D8E8"/>
<path d="M131.35 79.6259L133.604 78.3154L133.659 58.9978L131.404 60.3083L131.35 79.6259Z" fill="#60A8BA"/>
<path d="M118.842 38.5582L121.097 37.2478C119.76 36.4753 118.472 35.9713 117.261 35.7159L115.007 37.0263C116.216 37.2818 117.506 37.7858 118.842 38.5582Z" fill="#60A8BA"/>
<path d="M115.007 37.0263L117.262 35.7158C115.404 35.3251 113.732 35.5225 112.356 36.2448L110.102 37.5553C111.478 36.8329 113.149 36.6356 115.007 37.0263Z" fill="#60A8BA"/>
<path d="M110.102 37.5553L112.356 36.2449L112.134 36.3681L109.879 37.6786L110.102 37.5553Z" fill="#174969"/>
<path d="M131.404 60.3083L133.659 58.9979C133.668 55.9361 132.849 52.6198 131.443 49.4658L129.188 50.7763C130.593 53.9303 131.413 57.2466 131.404 60.3083Z" fill="#60A8BA"/>
<path d="M129.188 50.7764L131.443 49.4659C130.351 47.0162 128.906 44.6648 127.22 42.6089L124.966 43.9194C126.651 45.9753 128.096 48.3267 129.188 50.7764Z" fill="#60A8BA"/>
<path d="M124.966 43.9194L127.221 42.6089C125.41 40.3997 123.321 38.5312 121.097 37.2478L118.843 38.5582C121.067 39.8417 123.155 41.7102 124.966 43.9194Z" fill="#60A8BA"/>
<path d="M118.842 38.5582C111.883 34.5405 106.228 37.7637 106.205 45.7598L106.15 65.0764L131.35 79.6259L131.404 60.3083C131.427 52.3122 125.801 42.5758 118.842 38.5582Z" fill="#72CFE3"/>
<path d="M123.744 80.8332L125.732 79.678L115.454 85.6503C113.547 86.7574 111.074 87.5249 108.385 87.8885V71.9654L123.744 80.8332" fill="#F2F2F2"/>
<path d="M91.3035 82.9031C91.7804 81.9834 92.7772 81.0346 94.1829 80.218L108.384 71.9654V87.8886C107.244 88.0429 106.069 88.132 104.876 88.132C100.866 88.132 96.9942 87.2253 94.255 85.6443C92.5228 84.6444 91.3906 83.4502 91.078 82.3461C91.1321 82.5294 91.2073 82.7158 91.3035 82.9031" fill="#E8E8E8"/>
<path d="M94.1829 80.218C92.7772 81.0346 91.7804 81.9834 91.3035 82.9031C91.2073 82.7158 91.1321 82.5294 91.078 82.3461L91.065 82.309C91.0119 82.1197 90.9819 81.9333 90.9819 81.752C90.9798 80.5156 92.1761 79.0809 94.1829 77.9147L108.384 69.6621V71.9654L94.1829 80.218Z" fill="#D9D9D9"/>
<path d="M108.385 71.9655V69.6621L125.732 79.6781L123.744 80.8333L108.385 71.9655Z" fill="#E8E8E8"/>
<path d="M28.0463 107.738L73.626 80.3909V43.2479L28.0463 70.5948V107.738" fill="#AED5E1"/>
<path d="M73.2637 80.1832V43.8899L58.7965 52.5686V88.8647L73.2637 80.1832Z" fill="#AED5E1"/>
<path d="M73.626 43.2479V80.3909L58.4336 89.5053V52.3623L73.626 43.2479ZM72.9008 44.5315L59.1588 52.7747V88.2217L72.9008 79.9795V44.5315" fill="#5CA9C2"/>
<path d="M73.2637 80.1832V63.8225L58.7965 72.505V88.8647L73.2637 80.1832Z" fill="#AED5E1"/>
<path d="M73.626 63.182V80.3909L58.4336 89.5053V72.2989L73.626 63.182ZM72.9008 64.4656L59.1588 72.7088V88.2217L72.9008 79.9795V64.4656Z" fill="#5CA9C2"/>
<path d="M73.2637 62.9757V54.4518L58.7965 63.1319V71.6583L73.2637 62.9757Z" fill="#AED5E1"/>
<path d="M73.626 53.8111V63.1819L58.4336 72.2988V62.9256L73.626 53.8111ZM72.9008 55.0947L59.1588 63.3369V71.0151L72.9008 62.7695V55.0947" fill="#5CA9C2"/>
<path d="M73.2637 53.6051V45.0811L58.7965 53.7611V62.2852L73.2637 53.6051Z" fill="#AED5E1"/>
<path d="M73.626 44.4394V53.8112L58.4336 62.9257V53.5565L73.626 44.4394ZM72.9008 45.7232L59.1588 53.9664V61.643L72.9008 53.3998V45.7232Z" fill="#5CA9C2"/>
<path d="M58.0693 89.3017V53.0054L43.6021 61.684V97.9802L58.0693 89.3017Z" fill="#AED5E1"/>
<path d="M58.4326 52.3622V89.5052L43.239 98.6223V61.4778L58.4326 52.3622ZM57.7049 53.646L43.9654 61.8906V97.3396L57.7049 89.0954V53.646Z" fill="#5CA9C2"/>
<path d="M42.876 98.4161V62.1198L28.4088 70.7999V107.096L42.876 98.4161Z" fill="#AED5E1"/>
<path d="M43.2393 61.4778V98.6224L28.0443 107.738V70.5948L43.2393 61.4778ZM42.5115 62.7615L28.7721 71.0062V106.456L42.5115 98.2095V62.7615Z" fill="#5CA9C2"/>
<path d="M65.1218 56.1954C65.4959 56.1954 65.87 56.1098 66.1608 55.9331L70.4208 53.3783C70.7577 53.1761 70.9512 52.8748 70.9512 52.5545C70.9512 52.2328 70.7577 51.9344 70.4221 51.7332L69.5688 51.2208C69.3984 51.1197 69.1742 51.1708 69.0704 51.3449C68.9679 51.518 69.023 51.7408 69.1947 51.8459L70.0479 52.3559C70.1773 52.4355 70.2235 52.512 70.2235 52.5545C70.2235 52.5981 70.1773 52.6747 70.0467 52.7558L65.7867 55.3101C65.4331 55.5203 64.813 55.5203 64.4568 55.3116L63.6048 54.7976C63.4332 54.6991 63.2102 54.7516 63.1064 54.9233C63.0027 55.0979 63.059 55.3206 63.232 55.4232L64.084 55.9341C64.3748 56.1098 64.7489 56.1954 65.1218 56.1954" fill="#5CA9C2"/>
<path d="M65.1218 65.6932C65.4959 65.6932 65.87 65.6071 66.1608 65.4305L70.4208 62.8781C70.7577 62.6745 70.9512 62.3747 70.9512 62.0534C70.9512 61.7331 70.7577 61.4317 70.4221 61.2321L69.5688 60.7181C69.3984 60.617 69.1742 60.6706 69.0704 60.8438C68.9679 61.0169 69.023 61.2396 69.1947 61.3437L70.0479 61.8547C70.1773 61.9328 70.2235 62.0098 70.2235 62.0534C70.2235 62.0969 70.1773 62.175 70.0467 62.2556L65.7867 64.8079C65.4331 65.0191 64.813 65.0182 64.4568 64.809L63.6048 64.2965C63.4332 64.1978 63.2102 64.2504 63.1064 64.422C63.0027 64.5963 63.059 64.8195 63.232 64.9221L64.084 65.4315C64.3748 65.6071 64.7489 65.6932 65.1218 65.6932" fill="#5CA9C2"/>
<path d="M65.1205 75.1921C65.4959 75.1921 65.87 75.106 66.1608 74.9294L70.4208 72.377C70.7577 72.1733 70.9512 71.8735 70.9512 71.5532C70.9512 71.2329 70.7577 70.9317 70.4221 70.7319L69.5688 70.2194C69.3984 70.1168 69.1742 70.1695 69.0704 70.3436C68.9679 70.5168 69.023 70.74 69.1947 70.8435L70.0479 71.3546C70.1773 71.4331 70.2235 71.5097 70.2235 71.5532C70.2235 71.5957 70.1773 71.6739 70.0467 71.7544L65.7867 74.3068C65.4318 74.5195 64.8104 74.5205 64.4568 74.3077L63.6061 73.7978C63.4332 73.6928 63.2102 73.7493 63.1064 73.9194C63.004 74.0926 63.0591 74.3158 63.2307 74.4193L64.0827 74.9304C64.3748 75.106 64.7477 75.1921 65.1205 75.1921" fill="#5CA9C2"/>
<path d="M46.676 71.7264C46.8157 71.7264 46.9476 71.6918 47.0668 71.6248C47.3474 71.4662 47.5088 71.1393 47.5088 70.7319V65.6213C47.5088 64.9321 47.0565 64.1198 46.48 63.7749L45.628 63.2625C45.4563 63.1629 45.2334 63.2154 45.1296 63.3871C45.0271 63.5598 45.0822 63.783 45.2552 63.8881L46.1059 64.3991C46.4672 64.6142 46.7824 65.1842 46.7824 65.6213V70.7319C46.7824 70.8921 46.7388 70.9766 46.708 70.9947C46.6837 71.0047 46.6004 71.0023 46.48 70.9306L45.628 70.4197C45.4563 70.3195 45.2334 70.3731 45.1296 70.5437C45.0271 70.7164 45.0822 70.9396 45.2552 71.0433L46.1059 71.5547C46.2968 71.6689 46.4928 71.7264 46.676 71.7264" fill="#5CA9C2"/>
<path d="M40.4302 75.4739C40.5686 75.4739 40.7018 75.4418 40.8197 75.3738C41.1016 75.2161 41.2617 74.8884 41.2617 74.481V69.3677C41.2617 68.681 40.8108 67.8689 40.2342 67.524L39.3809 67.0115C39.2105 66.9089 38.9863 66.964 38.8838 67.1356C38.7801 67.3098 38.8364 67.5329 39.0081 67.6356L39.8601 68.1466C40.2201 68.3617 40.5353 68.9333 40.5353 69.3677V74.481C40.5353 74.6421 40.4917 74.7257 40.461 74.7422C40.4392 74.7497 40.3546 74.7512 40.2342 74.6807L39.3809 74.1682C39.2105 74.0656 38.9863 74.1206 38.8838 74.2922C38.7801 74.467 38.8364 74.6897 39.0081 74.7923L39.8601 75.3032C40.051 75.4158 40.2457 75.4739 40.4302 75.4739" fill="#5CA9C2"/>
<path d="M6.86653 94.9159L28.0459 107.738V70.5948L6.86653 57.7729V94.9159" fill="#AED5E1"/>
<path d="M28.1417 70.8064L75 42.6934V39.9667L5.42239 54.4492V57.1767L28.1417 70.8064Z" fill="#3394B3"/>
<path d="M28.1417 68.0815L75 39.9668L52.2806 26.3362L5.42239 54.4492L28.1417 68.0815Z" fill="#5AA8C1"/>
<path d="M31.0887 65.988L49.4456 54.9748C51.4622 53.7652 51.4622 51.8039 49.4456 50.5902L37.4575 43.399C35.4409 42.1894 32.17 42.1894 30.1534 43.399L11.7978 54.4122C9.77991 55.623 9.77991 57.5857 11.7978 58.7963L23.7846 65.988C25.8012 67.1971 29.0721 67.1971 31.0887 65.988" fill="#DEEEF3"/>
<path d="M17.5688 57.5396L20.4669 59.2768L25.8812 62.5249C27.2802 63.3651 29.5467 63.3651 30.9457 62.5249L40.7763 56.6288L43.6743 54.8887C45.0734 54.0484 45.0734 52.6892 43.6743 51.8499L35.3633 46.8623C33.9629 46.0246 31.6965 46.0246 30.2974 46.8623L17.5688 54.4978C16.171 55.3387 16.171 56.6994 17.5688 57.5396" fill="#AED5E1"/>
<path d="M20.466 59.2768L25.8803 62.5249C27.2793 63.3651 29.5458 63.3651 30.9448 62.5249L40.7754 56.6288L35.3624 53.3809C33.962 52.5406 31.6956 52.5406 30.2965 53.3809L20.466 59.2768Z" fill="#A1CEDC"/>
<path d="M21.6989 52.1431L27.9473 48.3956L24.0717 44.1012L18.0501 45.3554L16.4229 48.9772L21.6989 52.1431Z" fill="#E9F3F7"/>
<path d="M20.0163 46.5339L24.0713 44.1012L22.1059 42.921L18.0497 45.3553L20.0163 46.5339" fill="#D4E9EF"/>
<path d="M20.016 46.5339L21.6982 52.1431L16.4223 48.9772L18.0494 45.3554L20.016 46.5339" fill="#C0DEE7"/>
<path d="M20.0356 38.8417V44.9454L20.0664 44.9413L20.9696 44.8338L21.9497 44.7187L21.9036 40.0063C21.9036 38.9098 22.3943 38.2321 23.1835 38.2412L27.4268 38.2847C27.9316 38.2896 28.4915 38.5739 29.018 39.0764L29.0219 39.0814C29.2346 39.2826 29.4396 39.5224 29.6343 39.7911L31.5689 42.6993L33.1191 41.895L30.6093 38.4088C29.387 36.7122 27.888 35.6902 26.603 35.6788L22.3597 35.6353C21.6935 35.6272 21.1477 35.8874 20.7518 36.3689C20.5314 36.6317 20.3598 36.9635 20.2393 37.3503C20.1074 37.7797 20.0356 38.2807 20.0356 38.8417" fill="#AED5E1"/>
<path d="M20.2388 37.3502C20.8038 36.7212 21.5059 36.483 22.2643 36.488L26.9663 36.6537C27.3789 36.6587 27.8388 36.8112 28.2949 37.0966C28.8471 37.4413 29.3916 37.9719 29.8656 38.6314L31.7618 41.2644L31.9873 40.9456L30.0911 38.3127C29.5466 37.557 28.9253 36.9495 28.2962 36.556C27.7671 36.2268 27.2571 36.0566 26.7754 36.0527L22.5321 36.0091C22.003 36.0041 21.3342 36.1066 20.7513 36.3688C20.5309 36.6316 20.3592 36.9635 20.2388 37.3502" fill="#E9F3F7"/>
<path d="M33.3789 42.0192L32.3424 40.4046C32.3424 40.4046 31.6275 41.1504 31.3136 41.2644C31.1099 41.339 30.4475 41.2644 30.4475 41.2644L31.6634 42.921C32.5244 42.7033 33.3789 42.0192 33.3789 42.0192" fill="#DEEEF3"/>
<path d="M20.0351 44.8838L20.0659 44.9414L20.285 45.1506C20.4746 45.2658 20.7193 45.3273 20.9666 45.3298C21.219 45.3298 21.4713 45.2708 21.6635 45.1506C21.8544 45.0316 21.9492 44.8749 21.9492 44.7187C21.9492 44.5651 21.8544 44.4074 21.6635 44.2894C21.4739 44.1702 21.2241 44.1127 20.9742 44.1127C20.7244 44.1127 20.4759 44.1702 20.285 44.2894C20.162 44.3664 20.0774 44.4575 20.0351 44.5546V44.8838" fill="#AED5E1"/>
<path d="M20.9666 45.3298C21.219 45.3298 21.4714 45.2708 21.6635 45.1506C21.8544 45.0316 21.9492 44.8749 21.9492 44.7187L21.9031 40.0064C21.9031 38.9098 22.3938 38.2322 23.183 38.2413L27.4263 38.2847C27.9311 38.2897 28.491 38.574 29.0176 39.0765C28.5768 38.524 28.0682 37.8042 27.4071 37.8042C25.748 37.8042 21.8365 37.2508 21.3932 38.8063C21.1434 39.6876 20.9948 41.9641 20.9743 44.1127C20.9717 44.3614 20.9704 44.6037 20.9691 44.8339C20.9666 45.007 20.9666 45.1711 20.9666 45.3298" fill="#A1CEDC"/>
<path d="M17.7655 47.7014C17.7655 48.4111 18.2639 49.2759 18.8788 49.6308C19.4925 49.9857 19.9922 49.6974 19.9922 48.9862C19.9922 48.278 19.4925 47.4142 18.8788 47.0579C18.2639 46.7046 17.7655 46.9913 17.7655 47.7014Z" fill="#85BFD1"/>
<path d="M17.4053 51.0031L19.6396 49.782L18.1112 46.9739L15.6654 48.4061L17.4053 51.0031Z" fill="#85BFD1"/>
<path d="M15.4481 49.0387C15.4481 49.7484 15.9465 50.6137 16.5615 50.9684C17.1764 51.3233 17.6748 51.0351 17.6748 50.3239C17.6748 49.6152 17.1764 48.752 16.5615 48.3956C15.9465 48.0423 15.4481 48.3291 15.4481 49.0387Z" fill="#9DCCDA"/>
<path d="M28.4086 62.2851L31.29 60.6415C31.29 60.6415 32.7134 61.4637 33.6833 61.255C34.5711 61.067 34.926 60.59 37.1835 58.8809C37.1655 59.4279 37.2334 60.015 37.5025 60.4989C37.8497 61.1279 39.5793 61.5393 40.2109 61.7291C38.1162 62.7294 34.7069 64.1403 33.6474 64.7769C31.9806 65.7778 31.5053 64.7769 30.447 64.1673C29.39 63.5562 29.0236 63.4267 28.046 63.4267C27.0685 63.4267 28.4086 62.2851 28.4086 62.2851" fill="#FF7D3D"/>
<path d="M37.5029 60.499C37.2338 60.015 37.1659 59.428 37.1839 58.8809C37.3901 58.7248 37.5875 58.5747 37.8283 58.3965C40.6956 56.2741 43.6026 55.7961 43.6026 55.7961C43.6026 55.7961 46.2227 57.1298 45.8601 57.9521C45.4962 58.7774 44.1638 60.6672 42.2049 60.6672C41.49 60.6672 40.3792 61.087 39.18 61.6575C38.5471 61.4679 37.8501 61.128 37.5029 60.499Z" fill="#FFBE9E"/>
<path d="M38.7471 47.668L33.9208 44.9034V43.5246L38.7471 46.2897V47.668Z" fill="#653338"/>
<path d="M38.7471 47.668L42.2051 45.6706V44.2933L38.7471 46.2897V47.668Z" fill="#190D0E"/>
<path d="M38.7471 46.0729L33.9209 43.3079L37.3775 41.312L42.2051 44.0766L38.7471 46.0729Z" fill="#FFCE83"/>
<path d="M38.7471 47.4512L33.9208 44.6867V43.3079L38.7471 46.0729V47.4512" fill="#FFAE30"/>
<path d="M38.7471 47.4512L42.2051 45.4554V44.0766L38.7471 46.0729V47.4512" fill="#FFBE59"/>
<path d="M39.5507 44.2563C39.5507 44.2563 41.0459 45.0841 41.6263 44.7673C42.1759 44.4755 42.7294 44.1868 42.796 44.1537L42.8024 44.1487C42.8024 44.1487 42.9279 44.1752 43.1522 44.2253C44.5961 44.5355 50.0475 45.6937 50.8291 45.7027C51.6298 45.7116 52.0154 45.8783 52.551 45.3488L52.7611 45.1196C53.2454 44.5281 52.2935 41.0198 52.2935 41.0198C52.1346 41.1069 49.7977 41.5953 49.1251 41.79C47.7747 42.1834 45.8017 42.6213 44.9369 42.3816C43.639 42.0193 42.9818 42.3755 42.9818 42.3755L39.4303 40.2001L37.8096 39.6826C37.8096 39.6826 36.7039 40.0053 35.8763 40.2075C35.0461 40.4023 34.3658 43.0967 34.8962 42.9686C35.424 42.842 35.8212 41.4327 35.8212 41.4327L39.5507 44.2563" fill="#FF7D3D"/>
<path d="M35.4483 43.955C35.4483 43.955 36.349 43.7678 37.0011 43.955C37.6545 44.1406 39.0612 44.9479 39.6634 44.8558C40.2643 44.7607 41.5391 44.5766 41.5391 44.5766C41.5391 44.5766 39.8914 42.6788 39.5494 42.5562C39.2086 42.4317 38.0209 42.929 37.4495 42.929C36.8768 42.929 36.0389 42.9611 35.6968 43.302C35.3548 43.6428 35.4483 43.955 35.4483 43.955" fill="#FF7D3D"/>
<path d="M63.0302 108.317C63.1814 108.81 63.5043 109.351 64.15 109.723C64.6035 109.985 65.1929 110.142 65.813 110.227C67.271 110.433 68.8853 110.272 69.1876 110.272L69.2773 110.183C69.3888 109.858 69.2479 108.75 69.0967 107.802C69.071 107.665 69.0506 107.534 69.0262 107.408C68.9199 106.788 68.8238 106.313 68.8238 106.313C68.8238 106.313 67.4837 105.734 66.2678 105.32C65.2646 104.973 64.346 104.74 64.346 105.042C64.346 105.719 64.15 106.189 64.15 106.189L63.8476 106.401L63.5888 106.581L62.9188 107.05C62.9188 107.05 62.8227 107.646 63.0302 108.317" fill="#F2B288"/>
<path d="M59.6541 92.4981C60.7636 95.6294 64.3894 101.958 63.8474 106.401C63.7718 107.015 65.0569 107.367 66.0049 107.687L66.2471 107.766C67.4027 108.099 68.4367 107.72 69.026 107.408C69.3527 107.242 67.8127 104.049 67.5757 102.379C67.3374 100.716 69.0542 97.0694 66.4034 92.2238C65.2298 90.0793 65.5399 79.2838 67.0888 74.5639C68.6314 69.8441 66.6853 65.047 66.5648 64.977L63.7308 66.2032L59.59 67.9913C59.59 67.9913 58.5305 74.2591 58.2935 77.4661C58.0564 80.6791 58.5395 89.3607 59.6541 92.4981" fill="#0AA1C4"/>
<path d="M59.0072 108.762C59.6171 110.117 63.0994 110.332 63.5785 110.332C64.0564 110.332 65.385 111.179 65.385 111.179V111.78C66.2011 112.387 67.0659 113.055 67.7552 113.239C68.1229 113.334 68.4906 113.303 68.8404 113.198C69.7577 112.931 70.4893 112.158 70.4893 112.038C70.4893 111.957 70.3868 111.593 70.2817 111.22C70.151 110.787 70.0152 110.343 70.0152 110.343L69.2773 110.181L65.8488 109.415L64.4818 109.113C64.4818 109.113 63.8553 108.755 63.0289 108.317C61.6939 107.615 59.8272 106.712 59.1879 106.799L59.1469 106.808C58.9432 106.845 58.792 106.949 58.6857 107.096C58.6306 107.197 58.4909 107.611 59.0072 108.762" fill="#0A0A0A"/>
<path d="M58.9097 108.124C59.3132 109.233 61.1338 109.83 63.0902 110.066C64.2702 110.206 65.1222 110.858 65.9396 111.428V111.433L66.0613 111.514C66.5545 111.851 67.0439 112.153 67.5936 112.285C67.796 112.334 67.9972 112.35 68.1945 112.35C69.1566 112.329 69.9932 111.754 70.2815 111.22C70.3674 111.053 70.402 110.893 70.3725 110.757C70.2098 110.081 69.6909 108.245 69.3386 107.898L69.0964 107.802C68.9094 107.852 68.8235 108.199 68.8235 108.199C68.3098 108.506 67.3156 108.68 65.9293 108.558H65.9191C64.5379 108.437 63.9473 107.408 63.6859 106.773L63.5886 106.581C63.3772 106.239 63.2017 106.546 62.7174 106.616C62.1626 106.696 60.9929 106.184 59.9026 106.455C59.5695 106.541 59.3184 106.663 59.1467 106.808C58.7534 107.141 58.729 107.61 58.9097 108.124" fill="#FFBE59"/>
<path d="M56.3754 112.167C56.3754 112.167 57.1748 116.125 56.7392 116.125C56.3023 116.125 53.2236 116.455 51.7003 115.576C50.177 114.696 48.7753 112.003 48.7753 112.003L51.7003 112.041L56.3754 112.167Z" fill="#F2B288"/>
<path d="M47.7303 114.873C48.2748 115.726 53.0345 117.564 53.0345 117.564C53.0345 117.564 52.9525 118.124 53.2074 118.188L55.3445 118.966C56.732 119.203 57.625 118.113 57.625 118.113L57.9312 117.197L57.9222 117.08L57.9671 117.126L58.0029 117.161L57.9722 117.111C57.8261 116.975 57.1356 116.727 56.2567 116.727C55.9402 116.727 55.2791 116.505 54.4976 116.173C54.3259 116.102 54.1491 116.022 53.9685 115.935C52.7065 115.366 51.3049 114.583 50.6092 113.999C50.4324 113.848 50.3017 113.712 50.2312 113.597C49.6713 112.659 45.1065 110.769 47.7303 114.873" fill="#0A0A0A"/>
<path d="M51.3201 112.043L51.4367 112.068H51.6083L51.6827 112.043C51.7339 112.013 51.6532 111.993 51.5225 112.008L51.3201 112.043Z" fill="#C100FF"/>
<path d="M47.8456 114.71C48.467 115.734 52.5156 117.515 54.7846 117.953C54.9806 117.991 55.1536 118.044 55.2945 118.068C56.5859 118.276 57.6545 117.742 57.9312 117.197L57.9671 117.126L57.9722 117.111L58.0029 116.925C57.9914 116.242 57.6942 113.58 56.8678 113.752L56.6756 113.851C56.413 114.114 56.4591 114.71 55.1228 114.644C54.7039 114.626 54.2555 114.594 53.8122 114.539C52.5771 114.387 50.0647 113.494 49.6265 112.56C49.3485 111.966 50.8923 112.224 51.1793 112.098L51.3202 112.043C50.5285 111.846 48.2057 111.694 47.6855 112.003C46.863 112.492 47.1615 113.579 47.8456 114.71" fill="#FFBE59"/>
<path d="M48.3224 82.3703C48.7978 90.4187 49.1732 94.8044 50.4454 97.2807C52.5184 101.32 52.3223 111.657 52.5183 111.844L51.5754 112.053L51.5933 112.067C52.0212 112.436 52.7964 112.723 54.0225 113.198L54.2339 113.278C55.1666 113.636 56.6284 113.952 56.5849 113.307C56.0826 105.998 57.9532 105.768 57.8302 102.914C57.7161 100.06 56.5746 97.614 56.3722 96.1882C56.221 95.0887 59.1011 77.9617 59.1011 77.9617C59.1011 77.9617 64.8191 75.1306 64.591 72.9971C64.281 70.0929 62.641 67.5125 62.641 67.5125L49.2782 69.6159C49.2782 69.6159 47.9855 76.6935 48.3224 82.3703" fill="#0AA1C4"/>
<path d="M54.5664 40.3396C54.7996 40.2075 59.18 44.8633 62.8301 42.5136L63.1504 36.8599L63.1222 36.8649C62.9403 36.8929 61.9448 36.9315 61.7846 34.1604C61.7295 33.221 61.1492 32.9228 60.3676 32.9563C59.8218 32.9779 59.18 33.1609 58.5483 33.4097C57.1711 33.9462 55.8719 34.774 55.8719 34.774C55.8719 34.774 55.9168 35.2739 55.9386 35.8874C55.9655 36.7443 55.9488 37.8218 55.7003 38.078C55.485 38.2922 55.1417 38.8893 54.8867 39.4158C54.6279 39.9473 54.4511 40.4047 54.5664 40.3396Z" fill="#FF9E6E"/>
<path d="M51.1031 53.7898C52.0154 56.1355 50.6099 61.1246 49.4389 63.4743C48.2653 65.8249 48.7573 71.884 48.7573 71.884C48.7573 71.884 49.1903 72.7538 50.8764 73.4791C50.8777 73.4815 55.4618 74.5526 55.7654 74.564C60.6429 74.8023 67.6254 69.3883 67.6254 69.3883C67.6254 69.3883 69.3601 64.0789 67.1385 61.8573C65.4794 60.1992 66.2366 50.9252 67.929 47.6681C69.6279 44.4035 67.2833 37.8169 66.5825 36.3616C64.7786 32.6191 61.6448 35.224 61.6448 35.224C61.6448 35.224 63.3628 36.5177 60.6877 38.1658C56.3458 40.8392 55.9332 37.7118 55.9332 37.7118C55.9332 37.7118 50.5023 41.5725 49.877 42.191C49.4197 42.651 49.2095 43.6093 49.1673 44.8249C49.1519 45.2518 49.1557 45.7117 49.1814 46.1922C49.2429 47.5424 50.7239 52.8199 51.1031 53.7898" fill="#79C7D3"/>
<path d="M52.5253 29.7479C52.1102 31.7722 52.4266 33.6084 52.9455 34.1284C53.317 34.4988 52.5701 36.4681 54.7814 36.0757C55.2299 35.9977 55.6065 35.9426 55.9384 35.8875C56.9889 35.7325 57.5642 35.6438 58.3162 35.1904C58.5046 35.0853 58.7083 34.9457 58.9364 34.774C59.2848 34.5153 59.8037 33.8451 60.3674 32.9564C62.0548 30.2898 64.1405 25.6266 63.1502 24.012C62.4097 22.8064 59.3117 22.9836 56.7186 23.3649C54.6713 23.6736 52.9455 24.1171 52.9455 24.1171L52.7636 24.012C52.7636 24.012 51.9782 25.4623 52.4369 27.3076C52.8904 29.1623 52.9455 27.729 52.5253 29.7479" fill="#FFBE9E"/>
<path d="M53.0013 21.7279C54.9154 20.6234 56.8846 18.0738 60.9818 19.3487C60.9818 19.3487 63.1471 19.6985 64.2207 20.7704C64.4103 20.9602 66.3949 22.7709 66.5691 25.9033C66.7421 29.0331 65.0022 31.99 63.5237 33.4688C62.0465 34.9457 62.4808 35.2239 62.4808 35.2239C62.4808 35.2239 59.7916 34.8651 59.3073 34.8651C58.8218 34.8651 56.1325 32.7716 56.1325 32.7716C56.1325 32.7716 57.3702 29.1317 56.9768 29.0587C56.5105 28.9701 56.3491 30.0851 54.8923 30.2068C54.8923 30.2068 53.9212 26.4232 52.5772 25.647C51.232 24.8703 51.0872 22.8319 53.0013 21.7279" fill="#BF8324"/>
<path d="M55.7266 28.901C55.7369 28.8616 56.0994 27.7044 56.6439 27.9813C57.1872 28.2594 57.6061 28.869 57.56 29.7854C57.5139 30.7012 57.2 31.8619 56.5914 31.9323C55.9816 32.0039 55.8073 32.1105 55.4153 31.6837C55.0245 31.2557 55.1462 30.6857 55.1462 30.6857L55.7266 28.901" fill="#FFEAE1"/>
<path d="M55.4917 29.0192C55.5007 28.9806 55.8633 27.8236 56.4078 28.1003C56.9523 28.3761 57.3687 28.9882 57.3238 29.9045C57.2777 30.8189 56.9651 31.9799 56.3553 32.0515C55.7454 32.1236 55.5712 32.2282 55.1804 31.8018C54.7884 31.3749 54.9114 30.8049 54.9114 30.8049L55.4917 29.0192" fill="#FFBE9E"/>
<path d="M56.0044 29.2264C56.0044 29.2264 56.2645 29.7364 56.3657 29.9606C56.4682 30.1838 56.5912 30.5576 56.49 30.7588C56.3887 30.9601 56.2888 31.0987 56.2888 31.0987C56.2888 31.0987 56.1927 30.1568 56.0672 29.812C55.9429 29.4676 55.8737 29.1573 55.9954 28.8756C56.1171 28.5923 56.1991 28.24 56.481 28.5157C56.7641 28.7934 57.0063 29.1087 57.0229 29.6803C57.0383 30.2489 56.9345 30.8714 56.709 31.1627C56.4836 31.4545 56.1543 31.6212 56.1543 31.6212C56.1543 31.6212 56.8077 31.2382 56.8602 30.5757C56.9115 29.916 56.8397 28.9102 56.6232 28.7655C56.4067 28.6209 56.3734 28.5873 56.3836 28.8335C56.3964 29.0767 56.5784 29.4226 56.3887 29.328C56.2004 29.2305 56.1389 28.8961 56.0505 29.0457C55.9621 29.1984 56.0044 29.2264 56.0044 29.2264" fill="#FF7D3D"/>
<path d="M56.004 30.3169L55.7414 29.8299C55.6325 29.8619 55.6107 29.8659 55.562 30.0531C55.5146 30.2389 55.5121 30.3079 55.3404 30.2799C55.1687 30.2513 55.0355 30.1247 55.2084 30.3439C55.3827 30.5656 55.3904 30.3064 55.6517 30.4411C55.9131 30.5731 55.8605 30.8113 56.0258 30.8063C56.1911 30.8013 56.0514 30.4516 55.9848 30.3555L56.004 30.3169" fill="#FF7D3D"/>
<path d="M49.1807 46.1921C49.3062 45.6371 49.483 45.02 49.7188 44.3269C49.5317 44.465 49.3472 44.6357 49.1666 44.8248C49.1602 44.9849 49.1576 45.1506 49.1576 45.3183C49.1576 45.599 49.1653 45.8909 49.1807 46.1921" fill="#76B3D3"/>
<path d="M41.4337 58.94C41.7002 59.0666 42.0256 59.1783 42.4125 59.2818C44.3651 59.8033 46.7609 58.863 48.3419 56.6519C49.9293 54.4328 49.7576 56.5173 53.0439 51.2964C53.6063 50.4011 53.9176 49.5768 54.0381 48.817C54.6364 45.1813 50.9363 43.2094 50.9363 43.2094C46.8864 42.0383 44.5419 48.817 44.1498 50.3841C43.9999 50.9861 43.6348 51.5731 43.1876 52.2048C42.4843 53.1937 41.5772 54.2941 41.0186 55.732C40.9084 56.0213 40.8149 56.2865 40.738 56.5238C40.3332 57.856 40.5266 58.5031 41.4337 58.94" fill="#79C7D3"/>
<path d="M62.4815 35.5477C62.4815 35.5477 63.3143 37.3274 62.1715 38.469C61.0274 39.6131 58.6571 40.8762 56.4778 40.3923C54.2985 39.9077 52.5049 40.1805 52.5049 40.1805L54.5304 38.469C54.5304 38.469 57.3273 40.104 60.6866 38.1657C62.9504 36.8559 62.3944 35.3316 61.7653 35.1313C61.1375 34.9331 62.4815 35.5477 62.4815 35.5477" fill="#FF8E57"/>
<path d="M66.5825 60.7541C66.5825 60.7541 65.2398 63.4291 62.0907 63.7906C58.9415 64.1543 54.1255 64.0107 52.8994 61.4779C51.6733 58.945 51.3094 54.4518 51.3094 54.4518C51.3094 54.4518 48.2679 62.9822 48.2679 66.9605C48.2679 70.9356 47.9194 81.2311 47.9194 81.2311C47.9194 81.2311 48.9239 82.3947 49.936 82.3947C50.9469 82.3947 50.1564 71.7915 52.8994 69.0459C55.3311 66.6156 58.5776 65.437 61.9689 64.9771C65.3602 64.5171 66.1174 63.0553 67.004 63.0553C67.8919 63.0553 68.2686 65.2949 68.2686 65.2949C68.2686 65.2949 68.2801 62.4517 66.5825 60.7541" fill="#FF8E57"/>
<path d="M63.3036 31.8733C63.3036 31.8733 64.121 33.0114 65.1831 34.9087C66.2439 36.8074 67.0382 37.7723 65.8416 39.7912C64.645 41.809 63.1908 44.1603 63.5559 45.2543C63.9185 46.3507 60.7578 40.9983 61.6765 39.007C62.5951 37.0161 60.6233 34.669 61.6765 33.616C62.7309 32.564 63.3036 31.8733 63.3036 31.8733" fill="#BF8324"/>
</g>
<defs>
<clipPath id="clip0">
<rect width="150" height="150" fill="white"/>
</clipPath>
</defs>
</svg>
