<svg width="150" height="150" viewBox="0 0 150 150" fill="none" xmlns="http://www.w3.org/2000/svg">
<g clip-path="url(#clip0)">
<ellipse cx="78.4077" cy="78.7245" rx="49.5488" ry="71.7058" transform="rotate(9.22935 78.4077 78.7245)" fill="#EAEAEA"/>
<path d="M103.895 119.604L101.311 121.097V86.3387L103.895 84.8453V119.604Z" fill="#1A4A5A"/>
<path d="M101.311 121.097L98.7236 119.604V84.8453L101.311 86.3387V121.097Z" fill="#266F86"/>
<path d="M121.26 109.178L118.673 110.672V75.9126L121.26 74.4197V109.178Z" fill="#1A4A5A"/>
<path d="M118.673 110.672L116.088 109.178V74.4197L118.673 75.9126V110.672Z" fill="#266F86"/>
<path d="M58.5537 93.3364L55.9668 94.8306V60.0716L58.5537 58.5787V93.3364Z" fill="#1A4A5A"/>
<path d="M55.9666 94.8306L53.3809 93.3364V58.5787L55.9666 60.0716V94.8306Z" fill="#266F86"/>
<path d="M75.9168 82.9101L73.3311 84.4044V49.6459L75.9168 48.1524V82.9101Z" fill="#1A4A5A"/>
<path d="M73.331 84.4044L70.7441 82.9101V48.1524L73.331 49.6459V84.4044Z" fill="#266F86"/>
<path d="M100.422 91.9613L46.999 59.7017V57.3447L127 73.8172V76.1716L100.422 91.9613Z" fill="#1A4A5A"/>
<path d="M100.422 89.6055L46.999 57.3446L73.5766 41.5566L127 73.8171L100.422 89.6055Z" fill="#266F86"/>
<path d="M60.6235 86.0728H59.0901V86.5091H59.0934C59.0721 86.6349 59.1461 86.7659 59.3133 86.8624C59.6139 87.0363 60.0985 87.0363 60.3992 86.8624C60.5674 86.7659 60.6404 86.6349 60.6202 86.5091H60.6235V86.0728Z" fill="#4B6A70"/>
<path d="M60.3995 86.3869C60.0989 86.5587 59.6143 86.5587 59.3136 86.3869C59.0152 86.213 59.0152 85.9325 59.3136 85.7598C59.6143 85.5871 60.0989 85.5871 60.3995 85.7598C60.6991 85.9325 60.6991 86.213 60.3995 86.3869Z" fill="#EAF6F9"/>
<path d="M65.9551 106.597H67.4886V107.032H67.4852C67.5065 107.16 67.4336 107.29 67.2642 107.388C66.9658 107.562 66.4801 107.562 66.1794 107.388C66.01 107.29 65.9383 107.16 65.9584 107.032H65.9551V106.597Z" fill="#4B6A70"/>
<path d="M66.1797 106.911C66.4804 107.084 66.9661 107.084 67.2645 106.911C67.564 106.737 67.564 106.457 67.2645 106.284C66.9661 106.113 66.4804 106.113 66.1797 106.284C65.8802 106.457 65.8802 106.737 66.1797 106.911Z" fill="#EAF6F9"/>
<path d="M50.924 116.223L51.8629 95.4497C51.9639 93.1939 53.5927 90.4669 55.4919 89.3697L62.1543 85.5232C62.9541 85.0622 63.7024 84.9544 64.206 85.2278C64.6873 85.493 64.9767 86.1121 65.0171 86.9714L65.956 106.661L67.4884 106.587L66.5495 86.8974C66.4833 85.4838 65.9112 84.4115 64.9419 83.8808C63.9413 83.3366 62.6804 83.4479 61.3881 84.1937L54.7246 88.0403C52.3453 89.4145 50.4573 92.5691 50.3283 95.3801L49.3916 116.155L50.924 116.223" fill="#EAF6F9"/>
<path d="M80.2393 114.852H81.7739V115.288H81.7716C81.7907 115.416 81.7167 115.546 81.5495 115.644C81.25 115.816 80.7643 115.816 80.4647 115.644C80.2965 115.546 80.2224 115.416 80.2426 115.288H80.2393V114.852" fill="#4B6A70"/>
<path d="M80.4647 115.167C80.7643 115.339 81.25 115.339 81.5495 115.167C81.849 114.993 81.849 114.713 81.5495 114.538C81.25 114.366 80.7643 114.366 80.4647 114.538C80.1641 114.713 80.1641 114.993 80.4647 115.167Z" fill="#EAF6F9"/>
<path d="M49.3915 116.14H50.9261V116.576H50.9227C50.9418 116.701 50.8677 116.832 50.7006 116.93C50.4011 117.103 49.9153 117.103 49.6158 116.93C49.4475 116.832 49.3735 116.701 49.3926 116.576H49.3915V116.14" fill="#4B6A70"/>
<path d="M49.6161 116.453C49.9156 116.626 50.4014 116.626 50.7009 116.453C51.0004 116.279 51.0004 115.999 50.7009 115.827C50.4014 115.653 49.9156 115.653 49.6161 115.827C49.3155 115.999 49.3155 116.279 49.6161 116.453Z" fill="#EAF6F9"/>
<path d="M65.2093 124.471L66.1471 103.695C66.2503 101.441 67.8769 98.7144 69.7761 97.6159L76.4407 93.7715C77.2394 93.3096 77.9876 93.2018 78.4902 93.4758C78.9737 93.739 79.2609 94.3583 79.3035 95.2189L80.2413 114.907L81.7737 114.835L80.8359 95.1435C80.7675 93.7291 80.1965 92.6576 79.225 92.1283C78.2288 91.5832 76.9657 91.6954 75.6723 92.4402L69.011 96.2877C66.6306 97.661 64.7415 100.816 64.6147 103.627L63.6758 124.401L65.2093 124.471" fill="#EAF6F9"/>
<path d="M81.7845 94.5536L81.4009 94.8284L80.7334 93.0673L81.7845 94.0957V94.5536Z" fill="#527076"/>
<path d="M51.0215 80.4291V78.1922C50.8903 78.0878 50.7646 77.9844 50.6367 77.8814V80.7464C53.3492 82.9755 56.709 84.9163 60.568 86.482V86.0022C56.8717 84.4641 53.6409 82.5838 51.0215 80.4291V80.4291ZM51.0215 86.1625V83.9225C50.8903 83.8203 50.7646 83.7161 50.6367 83.6113V86.482C53.3492 88.7102 56.709 90.6462 60.568 92.2167V91.7321C56.8717 90.1988 53.6409 88.3141 51.0215 86.1625" fill="#AADCE6"/>
<path d="M81.4007 94.7982V94.8284L78.7354 93.2903L78.7612 93.2746L78.953 93.1746L79.0573 93.1242L79.0752 93.1185L79.257 93.048L79.4589 92.9831L79.7169 92.9337H79.7349L79.8358 92.9222C80.0736 92.9056 80.2924 92.9402 80.4921 93.0256L80.5066 93.0335L80.7332 93.1636C80.9408 93.3105 81.1057 93.5238 81.2201 93.7995C81.3345 94.0755 81.4007 94.4099 81.4007 94.7982" fill="#709EA8"/>
<path d="M64.5776 82.9229L64.5743 82.9181C64.4789 82.841 64.3735 82.7849 64.2635 82.7376L64.2624 82.7345L64.2243 82.7231L64.0313 82.6626L63.9517 82.6504L63.7452 82.6298L63.7093 82.6267L63.6532 82.6298H63.5557L63.5579 82.6355L63.5265 82.6376L63.4222 82.6534L63.1496 82.7139L63.0206 82.7555L62.8579 82.8217L62.8478 82.8261C62.7435 82.8721 62.6403 82.9229 62.5326 82.9821L62.5057 82.9992L49.2718 90.6396L49.2012 90.6756C52.5767 92.7105 60.6053 97.0598 64.2669 94.8854V99.2941C64.2669 99.7038 64.3824 100.015 64.5743 100.21C64.8682 100.509 65.3438 100.54 65.8856 100.229L79.1183 92.5884L79.1453 92.5726C79.2541 92.5117 79.3562 92.4625 79.4594 92.4165L79.4728 92.4122L79.6332 92.3469L79.7634 92.3043L80.036 92.2426L80.1403 92.2282L80.3231 92.2167C80.5228 92.2167 80.7068 92.2492 80.8762 92.3232L64.5776 82.9229" fill="#95D3E0"/>
<path d="M47.9594 90.6204C48.2432 90.9064 48.6908 90.9437 49.2013 90.6756C48.2432 90.0967 47.6543 89.7041 47.6543 89.7041C47.6543 90.1133 47.7676 90.4241 47.9594 90.6204Z" fill="#527076"/>
<path d="M51.0215 80.4291V78.1922C50.8903 78.0878 50.7646 77.9844 50.6367 77.8814V80.7464C53.3492 82.9755 56.709 84.9163 60.568 86.482V86.0022C56.8717 84.4641 53.6409 82.5838 51.0215 80.4291V80.4291ZM51.0215 86.1625V83.9225C50.8903 83.8203 50.7646 83.7161 50.6367 83.6113V86.482C53.3492 88.7102 56.709 90.6462 60.568 92.2167V91.7321C56.8717 90.1988 53.6409 88.3141 51.0215 86.1625" fill="#95D3E0"/>
<path d="M47.1236 72.7119L46.0915 71.7632L45.709 72.0818L47.2683 73.6724L47.1236 72.7119" fill="#95D3E0"/>
<path d="M63.8933 99.8182L63.8832 99.6127V86.5091C63.8832 85.1314 63.6375 83.9225 63.1742 82.9483C62.7434 82.0399 62.1298 81.3309 61.339 80.8743H61.3121C55.877 78.668 51.0286 76.0138 46.9284 72.9993C46.5133 72.6988 46.1072 72.3924 45.709 72.0818C46.722 73.1712 47.2739 74.8548 47.2739 76.9177V90.0213C47.2739 90.4521 47.3995 90.7733 47.6104 90.9661L47.6183 90.9705L47.9178 91.1422L64.1906 100.528C64.0324 100.368 63.9258 100.13 63.8933 99.8182" fill="#AADCE6"/>
<path d="M81.7841 94.0957V94.1272L81.2198 93.7994C81.1054 93.5238 80.9405 93.3104 80.733 93.1636L80.5064 93.0335L80.4918 93.0256C80.2921 92.9401 80.0734 92.9056 79.8355 92.9222L79.7346 92.9336H79.7166L79.4586 92.9831L79.2567 93.0479L79.075 93.1185L79.057 93.1242L78.9527 93.1746L78.7609 93.2745L78.7351 93.2902L77.1118 94.2293L77.1017 94.2338L67.6988 99.6621L65.5001 100.931C64.9594 101.243 64.4849 100.828 64.1899 100.528C64.0317 100.368 63.9251 100.13 63.8926 99.8182L63.8825 99.6127V86.5091C63.8825 85.1314 63.6368 83.9225 63.1735 82.9483C62.7427 82.0399 62.1291 81.3309 61.3383 80.8743H61.3113C55.8762 78.668 51.0278 76.0138 46.9277 72.9993C46.6977 72.5292 46.4173 72.1163 46.0908 71.7632C50.4411 75.1544 55.7113 78.1259 61.6961 80.5544H61.723C62.5139 81.0123 63.1264 81.7213 63.5549 82.6297L63.675 82.9023L63.694 82.9483L63.7131 82.9899C63.7591 83.1056 63.8017 83.22 63.8399 83.3435L63.8825 83.4701L63.9206 83.5968V83.6003L63.9464 83.7011L63.9509 83.7081L63.9588 83.7393L64.0048 83.9044L64.0126 83.9347L64.0205 83.9693L64.062 84.1599L64.0855 84.2721L64.1091 84.3864L64.1427 84.6064L64.1685 84.7817V84.794L64.1764 84.8479L64.2089 85.0924L64.2235 85.2247C64.2347 85.3728 64.246 85.5262 64.2538 85.6792C64.2617 85.8484 64.2661 86.0179 64.2661 86.1905V99.2941C64.2661 99.7038 64.3817 100.015 64.5735 100.209C64.8674 100.509 65.3431 100.54 65.8849 100.229L79.1176 92.5883L79.1445 92.5725C79.2533 92.5116 79.3554 92.4625 79.4586 92.4165L79.4721 92.4121L79.6325 92.3468L79.7626 92.3043L80.0352 92.2426L80.1395 92.2281L80.3224 92.2167C80.5221 92.2167 80.7061 92.2491 80.8754 92.3231L80.8912 92.3311L81.1166 92.4625C81.5306 92.7574 81.7841 93.3205 81.7841 94.0957" fill="#BFE5EC"/>
<path d="M121.681 62.4344L115.893 65.7775C112.515 67.7269 109.722 70.5775 109.722 74.4779L97.1881 67.2432L93.1934 69.496V64.8594C93.1934 60.9625 96.0237 58.1098 99.4014 56.1589L105.189 52.8181L121.681 62.4344" fill="#4F7480"/>
<path d="M105.184 54.9976L100.342 57.792C97.2771 59.5637 95.5383 61.6131 95.1592 63.8936L108.274 71.4814C109.198 68.6568 111.461 66.1572 114.95 64.1437L117.922 62.4264L105.184 54.9976Z" fill="#1A4A5A"/>
<path d="M121.682 62.4344V72.2409L109.723 79.1131V74.4778C109.723 70.5775 112.516 67.7269 115.894 65.7774L121.682 62.4344" fill="#1A4A5A"/>
<path d="M109.722 79.1131L93.1934 69.5959V64.975L109.722 74.4778V79.1131" fill="#4F7480"/>
<path d="M116.59 63.2117L103.857 55.7979L104.901 55.1954L117.634 62.6092L116.59 63.2117" fill="black"/>
<path d="M116.392 63.0973L115.76 62.7283L117.493 57.2941L118.139 57.2267L116.392 63.0973Z" fill="#3A7C91"/>
<path d="M115.759 62.7284L117.492 57.2942L107 51.2365L105.354 56.8197L115.759 62.7284Z" fill="#ADD4E1"/>
<path d="M118.138 57.2267L107.646 51.1704L107 51.2364L117.492 57.2941L118.197 57.2267H118.138" fill="#56A6C0"/>
<path d="M114.331 62.0806C114.331 62.0806 114.886 59.9909 115.443 58.3047C116 56.6189 117.53 53.8074 117.53 53.8074L109.671 49.2689C109.671 49.2689 108.141 52.0814 107.585 53.7671C107.027 55.452 106.471 57.5422 106.471 57.5422L114.331 62.0806" fill="white"/>
<path d="M108.619 77.9869L94.334 69.747V66.9167L108.619 75.1588V77.9869Z" fill="black"/>
<path d="M91.5547 72.0134L104.081 79.2455L104.073 79.5439L91.5547 72.3228V72.0134Z" fill="#0A0A0A"/>
<path d="M91.5547 72.0134L104.081 79.2455L104.073 79.5439L91.5547 72.3228V72.0134Z" fill="#0A0A0A"/>
<path d="M118.354 63.6973C118.044 63.8769 117.539 63.8769 117.227 63.6973C116.915 63.5181 116.915 63.2254 117.227 63.047C117.539 62.866 118.044 62.866 118.354 63.047C118.665 63.2254 118.665 63.5181 118.354 63.6973Z" fill="black"/>
<path d="M118.127 63.5663C117.942 63.6741 117.64 63.6741 117.455 63.5663C117.269 63.4585 117.269 63.2859 117.455 63.1767C117.64 63.0694 117.942 63.0694 118.127 63.1767C118.313 63.2859 118.313 63.4585 118.127 63.5663Z" fill="#3A7C91"/>
<path d="M94.9353 70.0937L97.4032 68.6884L96.7851 68.3303L94.334 69.7471L94.9353 70.0937Z" fill="#266F86"/>
<path d="M108.646 78.0202V76.9501L107.687 77.4664L108.646 78.0202Z" fill="#266F86"/>
<path d="M104.073 79.2398L91.8194 72.1717L91.5547 72.3228L104.073 79.5439L107.719 77.4665L108.619 76.9626L108.645 76.6452L104.073 79.2398" fill="black"/>
<path d="M91.5547 72.0187L91.8194 72.1717L104.073 79.2398L108.619 76.6497V75.1588L107.821 74.6979L103.348 77.2442L93.6592 71.6555V71.1419L103.348 76.7281L103.349 76.7272L93.6648 71.1384L97.6831 68.8496L97.4037 68.6884L94.9358 70.0937L91.5547 72.0187" fill="#ADD4E1"/>
<path d="M103.349 76.7272L103.356 76.7302L103.348 77.2442L107.82 74.6978L107.37 74.4385L103.349 76.7272" fill="#CDE5ED"/>
<path d="M93.6641 71.1384L103.349 76.7272L107.37 74.4385L97.6823 68.8496L93.6641 71.1384" fill="white"/>
<path d="M103.348 76.7272L103.347 76.7281L93.6582 71.1419V71.6554L103.347 77.2442L103.355 76.7302L103.348 76.7272" fill="#E1F0F4"/>
<path d="M99.0345 75.8363L99.0367 76.4064L98.791 76.5488V75.9787C98.791 75.6816 98.551 75.3035 98.2526 75.1295L97.3181 74.5909L97.1386 74.4866L96.8795 74.4051L96.7752 74.4183L96.7617 74.4038L97.0063 74.2613L97.022 74.2771C97.1162 74.2443 97.243 74.2658 97.3821 74.3454L98.4994 74.9892C98.8269 75.1185 99.1276 75.4147 99.0345 75.8363Z" fill="#3394B3"/>
<path d="M98.7905 75.9787V76.5488L96.5996 75.2819V74.7145C96.5996 74.5576 96.6669 74.4542 96.7746 74.4183L96.8789 74.4051L97.138 74.4866L97.3175 74.5909L98.252 75.1295C98.5504 75.3035 98.7905 75.6816 98.7905 75.9787" fill="#0A0A0A"/>
<path d="M109.422 75.412L109.035 75.1877L108.849 75.1868L108.667 75.2911L108.8 75.317L108.798 75.3235V75.3293C108.798 75.4809 108.903 75.6636 109.035 75.7385L109.396 75.9476L109.41 76.0821L109.588 75.9787L109.657 75.8262V75.8205C109.657 75.6702 109.551 75.4888 109.422 75.412" fill="#85BFD1"/>
<path d="M108.619 75.427V75.4337C108.619 75.584 108.727 75.768 108.856 75.8408L109.244 76.0651L109.326 76.0932C109.413 76.1089 109.478 76.0471 109.478 75.9297V75.924C109.478 75.7737 109.373 75.5896 109.244 75.5156L108.856 75.2899L108.661 75.2999L108.619 75.427" fill="#8EC3D4"/>
<path d="M108.619 75.427V75.4336C108.619 75.5839 108.727 75.7679 108.856 75.8407L109.244 76.065L109.326 76.0931L109.366 75.9651V75.9598C109.366 75.8082 109.26 75.6255 109.13 75.5501L108.744 75.3258L108.661 75.2999L108.619 75.427Z" fill="#A4CFDD"/>
<path d="M109.094 75.7811L109.139 75.8263L109.183 75.7811L109.139 75.7356L109.094 75.7811Z" fill="#8EC3D4"/>
<path d="M109.422 74.5183L109.035 74.293L108.849 74.2916L108.667 74.396L108.8 74.4227L108.798 74.4284V74.4341C108.798 74.5843 108.903 74.7684 109.035 74.8434L109.396 75.0523L109.41 75.1856L109.588 75.0835L109.657 74.931V74.9252C109.657 74.775 109.551 74.5909 109.422 74.5183" fill="#58A7C1"/>
<path d="M108.619 74.5319V74.5375C108.619 74.6887 108.727 74.8728 108.856 74.9455L109.244 75.1712L109.326 75.197C109.413 75.2137 109.478 75.1519 109.478 75.0354V75.0287C109.478 74.8784 109.373 74.6944 109.244 74.6204L108.856 74.3947L108.661 74.4052L108.619 74.5319" fill="#5CA9C2"/>
<path d="M108.619 74.5318V74.5374C108.619 74.6886 108.727 74.8727 108.856 74.9454L109.244 75.1711L109.326 75.1969L109.366 75.0702V75.0633C109.366 74.913 109.26 74.7289 109.13 74.6562L108.744 74.4296L108.661 74.4051L108.619 74.5318" fill="#80BCCF"/>
<path d="M109.094 74.988L109.139 75.0331L109.183 74.988L109.139 74.9416L109.094 74.988Z" fill="#0D252D"/>
<path d="M58.3241 57.2728L78.9101 69.1581C79.2231 69.3378 79.6965 69.358 79.9669 69.202L88.2345 65.2734C88.5049 65.1175 88.7808 61.6873 88.4207 62.799L66.051 53.5371C65.7369 53.3566 65.2635 53.3377 64.9932 53.4938L58.2489 56.0971C57.9774 56.2531 58.0111 57.0923 58.3241 57.2728" fill="#6CB3C4"/>
<path d="M58.3241 56.7089L78.9101 68.5919C79.2231 68.7734 79.6965 68.7926 79.9669 68.6353C79.9669 68.6353 89.3373 63.0983 88.5475 62.5834L67.8324 50.9144C67.5206 50.7326 65.2635 52.0463 64.9932 52.2024L58.2489 56.0971C57.9774 56.2531 58.0111 56.5257 58.3241 56.7089" fill="#79C7D3"/>
<path d="M66.1271 53.5341L64.9189 52.836L65.5539 52.4705L66.761 53.1672L66.1271 53.5341Z" fill="#065A6E"/>
<path d="M67.625 54.3986L66.418 53.7023L67.0518 53.3364L68.2588 54.0331L67.625 54.3986" fill="#065A6E"/>
<path d="M64.8594 54.2653L63.6523 53.5687L64.6979 52.9639L65.9038 53.6607L64.8594 54.2653Z" fill="#065A6E"/>
<path d="M66.3594 55.1292L65.1523 54.4324L66.1979 53.8303L67.4038 54.5266L66.3594 55.1292Z" fill="#065A6E"/>
<path d="M85.3927 64.9132L84.3483 65.5159L81.6426 63.9546V63.7008L85.3927 64.66V64.9132Z" fill="#065A6E"/>
<path d="M65.4164 54.7869L64.3709 55.3917L62.4336 54.272L63.478 53.6695L65.4164 54.7869Z" fill="#065A6E"/>
<path d="M63.4818 56.2845L61.2158 54.9753L62.2602 54.3731L64.5274 55.6812L63.4818 56.2845" fill="#065A6E"/>
<path d="M76.243 63.6512L75.0371 62.9549L76.0815 62.3524L77.2874 63.0491L76.243 63.6512Z" fill="#065A6E"/>
<path d="M82.954 66.3212L81.9096 66.9237L79.7266 65.6639L80.771 65.0592L82.954 66.3212Z" fill="#065A6E"/>
<path d="M62.7019 57.2413L59.9961 55.68L61.0405 55.0765L63.7462 56.6379L62.7019 57.2413Z" fill="#065A6E"/>
<path d="M64.2001 58.1075L62.9941 57.4109L64.0385 56.8061L65.2456 57.5042L64.2001 58.1075Z" fill="#065A6E"/>
<path d="M76.1934 65.0325L74.9863 64.3344L76.033 63.731L77.2389 64.4277L76.1934 65.0325" fill="#065A6E"/>
<path d="M80.6918 67.627L78.0938 66.1292V65.8759L81.7374 66.7712V67.0245L80.6918 67.627Z" fill="#065A6E"/>
<path d="M64.4805 59.6768L63.2734 58.9805L64.3178 58.3766L65.5249 59.0733L64.4805 59.6768Z" fill="#065A6E"/>
<path d="M76.0196 65.1311L74.9741 65.7345L64.7725 59.8442V59.5927L76.0196 64.88V65.1311" fill="#065A6E"/>
<path d="M76.4735 66.6007L75.2676 65.904V65.6516L77.0288 66.0271V66.2809L76.4735 66.6007" fill="#065A6E"/>
<path d="M77.9725 67.4653L76.7666 66.769V66.5175L79.018 66.6108V66.8632L77.9725 67.4653Z" fill="#065A6E"/>
<path d="M79.4725 68.3325L78.2666 67.6362V67.3825L80.0267 67.7594V68.0118L79.4725 68.3325" fill="#065A6E"/>
<path d="M65.6627 52.836H64.9189V52.5604H65.6627V52.836Z" fill="#065A6E"/>
<path d="M66.2773 53.1256H66.7608V52.9148H66.2773V53.1256Z" fill="#065A6E"/>
<path d="M67.4531 54.0117H68.2586V53.7794H67.4531V54.0117Z" fill="#065A6E"/>
<path d="M67.2425 53.7023H66.418V53.4485H67.2425V53.7023Z" fill="#065A6E"/>
<path d="M66.2035 54.4437H65.1523V54.1812H66.2035V54.4437Z" fill="#065A6E"/>
<path d="M66.6514 54.2653H67.403V54.5266H66.6514V54.2653Z" fill="#065A6E"/>
<path d="M64.5369 53.5341H63.6787V53.2817H64.5369V53.5341Z" fill="#065A6E"/>
<path d="M64.7725 53.396H65.9044V53.6607H64.7725V53.396Z" fill="#065A6E"/>
<path d="M63.377 54.2653H62.4336V54.0117H63.377V54.2653Z" fill="#065A6E"/>
<path d="M63.4023 54.5301H65.4171V54.7869H63.4023V54.5301Z" fill="#065A6E"/>
<path d="M61.9719 54.9643H61.2158V54.7229H61.9719V54.9643Z" fill="#065A6E"/>
<path d="M62.8711 55.4218H64.5269V55.6813H62.8711V55.4218Z" fill="#065A6E"/>
<path d="M61.5029 56.3933H63.7465V56.6379H61.5029V56.3933Z" fill="#065A6E"/>
<path d="M60.6366 55.4218H59.9961V55.6799H60.6366V55.4218Z" fill="#065A6E"/>
<path d="M63.9258 57.2596H65.2461V57.5042H63.9258V57.2596Z" fill="#065A6E"/>
<path d="M63.8097 57.1496H62.9941V57.4108H63.8097V57.1496Z" fill="#065A6E"/>
<path d="M66.1271 53.2816L64.9189 52.5849L65.5539 52.218L66.761 52.9148L66.1271 53.2816Z" fill="url(#paint0_linear)"/>
<path d="M67.625 54.1453L66.418 53.4485L67.0518 53.083L68.2588 53.7793L67.625 54.1453" fill="url(#paint1_linear)"/>
<path d="M85.6154 64.7844L84.4072 64.089V63.8353L86.2481 64.1661V64.4198L85.6154 64.7844Z" fill="#065A6E"/>
<path d="M85.6154 64.5321L84.4072 63.8354L85.0422 63.4708L86.2481 64.1662L85.6154 64.5321" fill="url(#paint2_linear)"/>
<path d="M64.8594 54.0117L63.6523 53.3141L64.6979 52.7116L65.9038 53.4083L64.8594 54.0117Z" fill="url(#paint3_linear)"/>
<path d="M66.3594 54.8779L65.1523 54.1812L66.1979 53.5779L67.4038 54.2742L66.3594 54.8779" fill="url(#paint4_linear)"/>
<path d="M81.3505 63.7863L80.1445 63.0895V62.8358L82.3949 62.9291V63.1824L81.3505 63.7863" fill="#065A6E"/>
<path d="M81.3505 63.5326L80.1445 62.8358L81.1889 62.2324L82.3949 62.9292L81.3505 63.5326Z" fill="url(#paint5_linear)"/>
<path d="M79.8505 62.9199L78.6445 62.2245V61.9708L80.896 62.0641V62.3179L79.8505 62.9199Z" fill="#065A6E"/>
<path d="M79.8505 62.6675L78.6445 61.9707L79.6889 61.3673L80.896 62.0641L79.8505 62.6675Z" fill="url(#paint6_linear)"/>
<path d="M78.3524 62.054L77.1465 61.3572V61.1062L79.3979 61.199V61.4514L78.3524 62.054" fill="#065A6E"/>
<path d="M78.3524 61.8024L77.1465 61.1061L78.1909 60.5014L79.3979 61.199L78.3524 61.8024" fill="url(#paint7_linear)"/>
<path d="M76.8526 61.189L75.6455 60.4922V60.2389L77.8981 60.3332V60.5856L76.8526 61.189" fill="#065A6E"/>
<path d="M76.8526 60.9356L75.6455 60.2389L76.6899 59.6363L77.8981 60.3331L76.8526 60.9356" fill="url(#paint8_linear)"/>
<path d="M75.3545 60.3231L74.1475 59.6264V59.374L76.4 59.4681V59.7198L75.3545 60.3231" fill="#065A6E"/>
<path d="M75.3545 60.0706L74.1475 59.374L75.193 58.7706L76.4 59.4681L75.3545 60.0706" fill="url(#paint9_linear)"/>
<path d="M73.8545 59.4581L72.6475 58.7605V58.5081L74.9 58.601V58.8547L73.8545 59.4581" fill="#065A6E"/>
<path d="M73.8545 59.2044L72.6475 58.5081L73.693 57.9056L74.9 58.601L73.8545 59.2044Z" fill="url(#paint10_linear)"/>
<path d="M72.3565 58.5922L71.1494 57.8955V57.6431L73.4009 57.736V57.9897L72.3565 58.5922" fill="#065A6E"/>
<path d="M72.3565 58.3407L71.1494 57.6431L72.1938 57.0396L73.4009 57.7359L72.3565 58.3407" fill="url(#paint11_linear)"/>
<path d="M70.8563 57.7272L69.6504 57.0305V56.7772L71.9018 56.8701V57.1238L70.8563 57.7272" fill="#065A6E"/>
<path d="M70.8563 57.4734L69.6504 56.7771L70.6948 56.1746L71.9018 56.87L70.8563 57.4734Z" fill="url(#paint12_linear)"/>
<path d="M69.3576 56.8613L68.1494 56.1645V55.9121L70.402 56.0063V56.2574L69.3576 56.8613" fill="#065A6E"/>
<path d="M69.3576 56.6089L68.1494 55.9121L69.1949 55.3096L70.402 56.0064L69.3576 56.6089" fill="url(#paint13_linear)"/>
<path d="M67.8573 55.9949L66.6514 55.2986V55.0462L68.9028 55.1392V55.3929L67.8573 55.9949" fill="#065A6E"/>
<path d="M67.8573 55.7425L66.6514 55.0462L67.6969 54.4437L68.9028 55.1392L67.8573 55.7425" fill="url(#paint14_linear)"/>
<path d="M85.3927 64.66L84.3483 65.2646L81.6426 63.7008L82.687 63.0982L85.3927 64.66Z" fill="url(#paint15_linear)"/>
<path d="M65.4164 54.5344L64.3709 55.137L62.4336 54.0195L63.478 53.4148L65.4164 54.5344Z" fill="url(#paint16_linear)"/>
<path d="M83.1309 65.968L81.9238 65.2712V65.5237L83.1309 66.2204L84.173 65.6165V65.3632L83.1309 65.968" fill="#065A6E"/>
<path d="M81.9238 65.2642V65.2714L81.9359 65.2652L81.9238 65.2642Z" fill="#065A6E"/>
<path d="M84.173 65.3633L82.9671 64.6666L81.935 65.2656L81.9238 65.2713L83.1309 65.9681L84.173 65.3633" fill="url(#paint17_linear)"/>
<path d="M63.4818 56.0309L61.2158 54.7229L62.2602 54.1195L64.5274 55.4288L63.4818 56.0309Z" fill="url(#paint18_linear)"/>
<path d="M77.8527 64.3291L76.6445 63.6311V63.8835L77.8527 64.5803L78.8971 63.9777V63.7244L77.8527 64.3291Z" fill="#065A6E"/>
<path d="M78.8971 63.7245L77.6901 63.0277L76.6445 63.6311L77.8527 64.3291L78.8971 63.7245" fill="url(#paint19_linear)"/>
<path d="M76.2285 63.4059L75.0215 62.71V62.9629L76.2285 63.6583L77.2729 63.0558V62.802L76.2285 63.4059" fill="#065A6E"/>
<path d="M77.2729 62.802L76.067 62.1057L75.0215 62.71L76.2285 63.4058L77.2729 62.802" fill="url(#paint20_linear)"/>
<path d="M74.6044 62.4847L73.3984 61.788V62.0404L74.6044 62.7385L75.651 62.1346V61.8822L74.6044 62.4847Z" fill="#065A6E"/>
<path d="M75.651 61.8823L74.444 61.1846L73.3984 61.7881L74.6044 62.4848L75.651 61.8823" fill="url(#paint21_linear)"/>
<path d="M72.9834 61.5628L71.7764 60.8669V61.1184L72.9834 61.8152L74.0267 61.2113V60.9603L72.9834 61.5628" fill="#065A6E"/>
<path d="M74.0267 60.9602L72.8207 60.2634L71.7764 60.8668L72.9834 61.5627L74.0267 60.9602" fill="url(#paint22_linear)"/>
<path d="M71.3584 60.6404L70.1514 59.9441V60.1965L71.3584 60.8928L72.4028 60.2906V60.0369L71.3584 60.6404Z" fill="#065A6E"/>
<path d="M72.4028 60.037L71.1969 59.3403L70.1514 59.9441L71.3584 60.6404L72.4028 60.037Z" fill="url(#paint23_linear)"/>
<path d="M69.7343 59.7184L68.5283 59.0217V59.2754L69.7343 59.973L70.7797 59.3683V59.1159L69.7343 59.7184" fill="#065A6E"/>
<path d="M70.7797 59.1159L69.5738 58.4196L68.5283 59.0216L69.7343 59.7184L70.7797 59.1159Z" fill="url(#paint24_linear)"/>
<path d="M68.1111 58.7973L66.9062 58.101V58.3529L68.1111 59.0497L69.1566 58.4449V58.1939L68.1111 58.7973Z" fill="#065A6E"/>
<path d="M69.1566 58.1939L67.9495 57.4971L66.9062 58.101L68.1111 58.7973L69.1566 58.1939" fill="url(#paint25_linear)"/>
<path d="M66.4891 57.8762L65.2832 57.1799V57.4309L66.4891 58.1277L67.5335 57.5252V57.2728L66.4891 57.8762" fill="#065A6E"/>
<path d="M67.5335 57.2727L66.3276 56.5751L65.2832 57.1799L66.4891 57.8762L67.5335 57.2727" fill="url(#paint26_linear)"/>
<path d="M64.8641 56.9532L63.6582 56.2565V56.5098L64.8641 57.2065L65.9097 56.6031V56.3495L64.8641 56.9532Z" fill="#065A6E"/>
<path d="M65.9097 56.3495L64.7037 55.654L63.6582 56.2565L64.8641 56.9532L65.9097 56.3495Z" fill="url(#paint27_linear)"/>
<path d="M79.46 65.2568L78.2529 64.5614V64.8125L79.46 65.5092L80.5055 64.9054V64.6543L79.46 65.2568Z" fill="#065A6E"/>
<path d="M80.5055 64.6543L79.2984 63.9576L78.2529 64.5614L79.46 65.2568L80.5055 64.6543Z" fill="url(#paint28_linear)"/>
<path d="M82.954 66.0678L81.9096 66.6713L79.7266 65.4101L80.771 64.8067L82.954 66.0678Z" fill="url(#paint29_linear)"/>
<path d="M62.7019 56.9893L59.9961 55.4276L61.0405 54.8228L63.7462 56.3855L62.7019 56.9893Z" fill="url(#paint30_linear)"/>
<path d="M64.2001 57.8539L62.9941 57.1576L64.0385 56.5551L65.2456 57.2518L64.2001 57.8539Z" fill="url(#paint31_linear)"/>
<path d="M77.6934 65.6437L76.4863 64.9483V65.2007L77.6934 65.897L78.7389 65.2936V65.0412L77.6934 65.6437Z" fill="#065A6E"/>
<path d="M78.7389 65.0412L77.5318 64.3436L76.4863 64.9483L77.6934 65.6437L78.7389 65.0412" fill="url(#paint32_linear)"/>
<path d="M76.1934 64.7778L74.9863 64.0811V64.3335L76.1934 65.0311L77.2389 64.4265V64.1753L76.1934 64.7778Z" fill="#065A6E"/>
<path d="M77.2389 64.1753L76.033 63.4786L74.9863 64.0811L76.1934 64.7778L77.2389 64.1753" fill="url(#paint33_linear)"/>
<path d="M74.6952 63.9107L73.4893 63.2139V63.4663L74.6952 64.1631L75.7407 63.5606V63.3068L74.6952 63.9107" fill="#065A6E"/>
<path d="M75.7407 63.3068L74.5348 62.6105L73.4893 63.214L74.6952 63.9107L75.7407 63.3068Z" fill="url(#paint34_linear)"/>
<path d="M73.1952 63.0443L71.9893 62.3481V62.6005L73.1952 63.2968L74.2407 62.6947V62.4409L73.1952 63.0443" fill="#065A6E"/>
<path d="M74.2407 62.4409L73.0337 61.7442L71.9893 62.348L73.1952 63.0443L74.2407 62.4409Z" fill="url(#paint35_linear)"/>
<path d="M71.6962 62.1784L70.4902 61.4795V61.7341L71.6962 62.4308L72.7417 61.8261V61.5737L71.6962 62.1784Z" fill="#065A6E"/>
<path d="M72.7417 61.5738L71.5357 60.877L70.4902 61.4795L71.6962 62.1785L72.7417 61.5738Z" fill="url(#paint36_linear)"/>
<path d="M70.1971 61.3112L68.9912 60.6144V60.8682L70.1971 61.5649L71.2427 60.9611V60.7087L70.1971 61.3112" fill="#065A6E"/>
<path d="M71.2427 60.7088L70.0367 60.0125L68.9912 60.6145L70.1971 61.3113L71.2427 60.7088Z" fill="url(#paint37_linear)"/>
<path d="M68.6981 60.4454L67.4922 59.7486V60.0002L68.6981 60.6965L69.7425 60.0943V59.8419L68.6981 60.4454Z" fill="#065A6E"/>
<path d="M69.7425 59.8419L68.5366 59.1439L67.4922 59.7486L68.6981 60.4453L69.7425 59.8419Z" fill="url(#paint38_linear)"/>
<path d="M67.1992 59.5769L65.9922 58.8815V59.1339L67.1992 59.8306L68.2436 59.2272V58.9748L67.1992 59.5769Z" fill="#065A6E"/>
<path d="M68.2436 58.9748L67.0377 58.278L65.9922 58.8814L67.1992 59.5768L68.2436 58.9748Z" fill="url(#paint39_linear)"/>
<path d="M65.6992 58.7109L64.4922 58.0141V58.2665L65.6992 58.9633L66.7436 58.3598V58.1083L65.6992 58.7109Z" fill="#065A6E"/>
<path d="M66.7436 58.1084L65.5377 57.4121L64.4922 58.0142L65.6992 58.7109L66.7436 58.1084Z" fill="url(#paint40_linear)"/>
<path d="M80.6918 67.3747L78.0938 65.876L79.1404 65.2735L81.7374 66.7713L80.6918 67.3747Z" fill="url(#paint41_linear)"/>
<path d="M61.0059 56.21L61.0291 56.2241V56.21H61.0059Z" fill="#065A6E"/>
<path d="M59.9843 56.8275L58.7783 56.1307V56.3932H58.7929L59.9843 57.0799L61.0286 56.4774V56.2241L59.9843 56.8275Z" fill="#065A6E"/>
<path d="M59.8216 55.5274L58.7783 56.1308L59.9843 56.8276L61.0286 56.2242L61.0062 56.2106L59.8216 55.5274Z" fill="url(#paint42_linear)"/>
<path d="M62.5117 57.0798L62.5287 57.09V57.0798H62.5117Z" fill="#065A6E"/>
<path d="M61.4823 57.6935L60.2764 56.9959V57.2413H60.2876L60.2764 57.2492L61.4823 57.945L62.5278 57.3425L62.5132 57.3333H62.5278V57.0901L61.4823 57.6935Z" fill="#065A6E"/>
<path d="M61.3208 56.3933L60.2764 56.9958L61.4823 57.6935L62.5278 57.0901L62.511 57.08L61.3208 56.3933Z" fill="url(#paint43_linear)"/>
<path d="M64.0098 57.9449L64.0256 57.956V57.9449H64.0098Z" fill="#065A6E"/>
<path d="M62.9823 58.5584L61.7764 57.8617V58.1075H61.7876L61.7764 58.1141L62.9823 58.8122L64.0256 58.2083L64.0121 58.1996H64.0256V57.9559L62.9823 58.5584" fill="#065A6E"/>
<path d="M62.8196 57.2596L61.7764 57.8617L62.9823 58.5584L64.0256 57.9559L64.0099 57.9449L62.8196 57.2596Z" fill="url(#paint44_linear)"/>
<path d="M65.4805 58.8086L65.4963 58.8167V58.8086H65.4805Z" fill="#065A6E"/>
<path d="M64.4501 59.4212L63.2441 58.7244V58.969H63.2576L63.2441 58.9768L64.4501 59.6736L65.4956 59.0689L65.481 59.061H65.4956V58.8165L64.4501 59.4212Z" fill="#065A6E"/>
<path d="M64.2897 58.1199L63.2441 58.7245L64.4501 59.4213L65.4956 58.8166L65.4799 58.8087L64.2897 58.1199Z" fill="url(#paint45_linear)"/>
<path d="M76.0196 64.88L74.9741 65.4821L64.7725 59.5926L65.818 58.9892L76.0196 64.88" fill="url(#paint46_linear)"/>
<path d="M76.4735 66.3483L75.2676 65.6515L75.8217 65.3308L77.0288 66.0271L76.4735 66.3483" fill="url(#paint47_linear)"/>
<path d="M77.9725 67.2143L76.7666 66.5175L77.8121 65.9141L79.018 66.6109L77.9725 67.2143Z" fill="url(#paint48_linear)"/>
<path d="M79.4725 68.0792L78.2666 67.3825L78.8197 67.0627L80.0267 67.7594L79.4725 68.0792Z" fill="url(#paint49_linear)"/>
<path d="M81.5489 65.0557L80.3418 64.3594V64.6118L81.5489 65.3094L82.5932 64.7047V64.4536L81.5489 65.0557Z" fill="#065A6E"/>
<path d="M80.3418 64.3517V64.3593L80.3539 64.3517H80.3418Z" fill="#065A6E"/>
<path d="M82.5932 64.4536L81.3873 63.7568L80.353 64.3523L80.3418 64.3594L81.5489 65.0557L82.5932 64.4536" fill="url(#paint50_linear)"/>
<path d="M79.9676 64.1438L78.7617 63.447V63.7008L79.9676 64.3962L81.0131 63.7937V63.5404L79.9676 64.1438" fill="#065A6E"/>
<path d="M78.7617 63.4413V63.447L78.775 63.4413H78.7617Z" fill="#065A6E"/>
<path d="M81.0131 63.5403L79.8072 62.8436L78.774 63.4417L78.7617 63.447L79.9676 64.1437L81.0131 63.5403Z" fill="url(#paint51_linear)"/>
<path d="M78.3876 63.2328L77.1816 62.5374V62.7889L78.3876 63.4866L79.4331 62.8818V62.6308L78.3876 63.2328Z" fill="#065A6E"/>
<path d="M77.1816 62.5279V62.5374L77.1938 62.5288L77.1816 62.5279Z" fill="#065A6E"/>
<path d="M79.4331 62.6307L78.2272 61.934L77.1929 62.5294L77.1816 62.5374L78.3876 63.2328L79.4331 62.6307" fill="url(#paint52_linear)"/>
<path d="M76.8067 62.3209L75.5996 61.6241V61.8779L76.8067 62.5746L77.8522 61.9708V61.7175L76.8067 62.3209" fill="#065A6E"/>
<path d="M75.5996 61.6184V61.6241L75.613 61.6184H75.5996Z" fill="#065A6E"/>
<path d="M77.8522 61.7174L76.644 61.022L75.612 61.6188L75.5996 61.6241L76.8067 62.3209L77.8522 61.7174" fill="url(#paint53_linear)"/>
<path d="M75.2266 61.4112L74.0195 60.7144V60.9659L75.2266 61.6636L76.271 61.0602V60.8078L75.2266 61.4112Z" fill="#065A6E"/>
<path d="M74.0195 60.705V60.7145L74.0328 60.705H74.0195Z" fill="#065A6E"/>
<path d="M76.271 60.8078L75.0639 60.1097L74.0319 60.7057L74.0195 60.7144L75.2266 61.4112L76.271 60.8078Z" fill="url(#paint54_linear)"/>
<path d="M73.6465 60.4979L72.4395 59.8011V60.0549L73.6465 60.7516L74.692 60.1478V59.8954L73.6465 60.4979" fill="#065A6E"/>
<path d="M72.4395 59.7955V59.8011L72.4516 59.7955H72.4395Z" fill="#065A6E"/>
<path d="M74.692 59.8954L73.485 59.199L72.4507 59.7958L72.4395 59.8011L73.6465 60.4979L74.692 59.8954" fill="url(#paint55_linear)"/>
<path d="M72.0643 59.5883L70.8584 58.8907V59.1431L72.0643 59.8407L73.1099 59.2359V58.9835L72.0643 59.5883Z" fill="#065A6E"/>
<path d="M70.8584 58.8829V58.8906L70.8705 58.8844L70.8584 58.8829Z" fill="#065A6E"/>
<path d="M73.1099 58.9835L71.9039 58.2868L70.8696 58.8849L70.8584 58.8906L72.0643 59.5883L73.1099 58.9835" fill="url(#paint56_linear)"/>
<path d="M70.4841 58.675L69.2793 57.9783V58.232L70.4841 58.9288L71.5296 58.3249V58.0725L70.4841 58.675" fill="#065A6E"/>
<path d="M69.2793 57.9712V57.9783L69.2914 57.9726L69.2793 57.9712Z" fill="#065A6E"/>
<path d="M71.5296 58.0725L70.3237 57.3762L69.2905 57.973L69.2793 57.9782L70.4841 58.675L71.5296 58.0725" fill="url(#paint57_linear)"/>
<path d="M68.9042 57.764L67.6982 57.0677V57.3201L68.9042 58.0164L69.9497 57.4129V57.1605L68.9042 57.764Z" fill="#065A6E"/>
<path d="M67.6982 57.0601V57.0677L67.7104 57.0601H67.6982Z" fill="#065A6E"/>
<path d="M69.9497 57.1606L68.7438 56.4639L67.7095 57.0607L67.6982 57.0677L68.9042 57.764L69.9497 57.1606" fill="url(#paint58_linear)"/>
<path d="M67.3242 56.8521L66.1172 56.1567V56.4091L67.3242 57.1059L68.3697 56.502V56.2487L67.3242 56.8521Z" fill="#065A6E"/>
<path d="M66.1172 56.1483V56.1567L66.1305 56.1496L66.1172 56.1483Z" fill="#065A6E"/>
<path d="M68.3697 56.2487L67.1616 55.5519L66.1295 56.1501L66.1172 56.1567L67.3242 56.8521L68.3697 56.2487" fill="url(#paint59_linear)"/>
<path d="M65.7442 55.9411L64.5371 55.2448V55.4972L65.7442 56.1948L66.7874 55.5901V55.3377L65.7442 55.9411" fill="#065A6E"/>
<path d="M64.5371 55.2372V55.2448L64.5492 55.2372H64.5371Z" fill="#065A6E"/>
<path d="M66.7874 55.3377L65.5804 54.6423L64.5483 55.2378L64.5371 55.2449L65.7442 55.9412L66.7874 55.3377" fill="url(#paint60_linear)"/>
<path d="M84.1172 63.9185L82.9102 63.2218V62.9703L84.7499 63.3003V63.5539L84.1172 63.9185Z" fill="#065A6E"/>
<path d="M84.1172 63.667L82.9102 62.9702L83.5428 62.6026L84.7499 63.3003L84.1172 63.667Z" fill="url(#paint61_linear)"/>
<path d="M82.6171 63.0523L81.4111 62.356V62.1023L83.2509 62.4331V62.6868L82.6171 63.0523Z" fill="#065A6E"/>
<path d="M82.6171 62.799L81.4111 62.1022L82.0438 61.7363L83.2509 62.433L82.6171 62.799Z" fill="url(#paint62_linear)"/>
<path d="M81.1182 62.1841L79.9111 61.4887V61.2363L81.7509 61.568V61.8195L81.1182 62.1841Z" fill="#065A6E"/>
<path d="M81.1182 61.9326L79.9111 61.2363L80.5438 60.8717L81.7509 61.568L81.1182 61.9326Z" fill="url(#paint63_linear)"/>
<path d="M79.6182 61.3183L78.4111 60.6216V60.3691L80.252 60.7V60.9537L79.6182 61.3183" fill="#065A6E"/>
<path d="M79.6182 61.0659L78.4111 60.3692L79.045 60.0032L80.252 60.7L79.6182 61.0659Z" fill="url(#paint64_linear)"/>
<path d="M78.12 60.452L76.9141 59.7543V59.5033L78.7527 59.8341V60.0865L78.12 60.452" fill="#065A6E"/>
<path d="M78.12 60.1986L76.9141 59.5032L77.5467 59.1373L78.7527 59.834L78.12 60.1986" fill="url(#paint65_linear)"/>
<path d="M76.62 59.5861L75.4141 58.8893V58.636L77.2538 58.9669V59.2193L76.62 59.5861Z" fill="#065A6E"/>
<path d="M76.62 59.3323L75.4141 58.636L76.0467 58.2702L77.2538 58.9669L76.62 59.3323Z" fill="url(#paint66_linear)"/>
<path d="M75.121 58.7189L73.915 58.0212V57.7697L75.7548 58.101V58.3529L75.121 58.7189" fill="#065A6E"/>
<path d="M75.121 58.4665L73.915 57.7697L74.5477 57.4052L75.7548 58.101L75.121 58.4665Z" fill="url(#paint67_linear)"/>
<path d="M73.621 57.8516L72.415 57.1549V56.9025L74.2548 57.2337V57.487L73.621 57.8516Z" fill="#065A6E"/>
<path d="M73.621 57.6006L72.415 56.9025L73.0477 56.537L74.2548 57.2338L73.621 57.6006Z" fill="url(#paint68_linear)"/>
<path d="M72.124 56.9857L70.917 56.2891V56.0358L72.7568 56.3675V56.619L72.124 56.9857" fill="#065A6E"/>
<path d="M72.124 56.7321L70.917 56.0358L71.5497 55.6712L72.7568 56.3675L72.124 56.7321Z" fill="url(#paint69_linear)"/>
<path d="M70.624 56.1194L69.417 55.4232V55.1694L71.2567 55.5002V55.7526L70.624 56.1194Z" fill="#065A6E"/>
<path d="M70.624 55.8661L69.417 55.1694L70.0508 54.8039L71.2567 55.5002L70.624 55.8661" fill="url(#paint70_linear)"/>
<path d="M69.125 55.2526L67.918 54.5559V54.3035L69.7589 54.6335V54.8868L69.125 55.2526" fill="#065A6E"/>
<path d="M69.125 55.0002L67.918 54.3035L68.5518 53.9368L69.7589 54.6335L69.125 55.0002Z" fill="url(#paint71_linear)"/>
<path d="M75.3193 51.5179L75.3247 51.5143L75.3193 51.5116V51.5179Z" fill="#459EBA"/>
<path d="M76.2605 50.9741L90.9246 59.4393C90.9246 59.4336 94.2328 56.9305 96.2105 56.3696L80.6266 47.3743C78.8822 48.0631 77.1019 49.0881 75.3552 50.411L75.3193 50.4312L75.3238 50.4333L76.2605 50.9741" fill="#459EBA"/>
<path d="M90.918 59.4559L90.9146 59.4545L90.8283 59.4055L90.7688 59.4393L90.8126 59.3954L76.2539 50.9863L76.2606 50.9749L90.9236 59.4393C90.9236 59.4344 92.852 57.9752 94.6435 57.0348L94.6502 57.0454L93.6911 57.6014C93.5329 57.6957 93.3691 57.781 93.2155 57.8831L92.7522 58.1881C92.4437 58.3924 92.1307 58.5865 91.8312 58.8065L90.9416 59.4393L90.918 59.4559" fill="#378199"/>
<path d="M90.9237 59.4393L76.2607 50.9749L76.2664 50.9641C77.5138 51.6222 78.7679 52.273 80.0008 52.961L81.8551 53.9828L83.696 55.0271C84.9255 55.7193 86.1482 56.4227 87.362 57.1427L89.1872 58.2128C89.7773 58.5572 90.3561 58.9174 90.9417 59.2697L91.028 59.1842L91.1716 59.0734L91.2872 58.9971L91.7483 58.6852C92.0523 58.4721 92.3731 58.2838 92.6906 58.0932L93.1673 57.807C93.3255 57.7093 93.4938 57.6308 93.6564 57.5423L94.638 57.0248L94.6436 57.0349C92.8521 57.9753 90.9237 59.4345 90.9237 59.4393" fill="#4CA1BC"/>
<path d="M96.2097 56.3696C94.4597 57.0629 92.675 58.0918 90.9238 59.4235V59.4393C90.9238 59.7947 90.9238 60.1492 90.9238 60.5023C92.6918 59.4826 94.4642 58.4621 96.2311 57.4411C96.2311 57.0808 96.2311 56.7197 96.2311 56.3595L96.2097 56.3696Z" fill="#1C4C5C"/>
<path d="M76.2605 50.9741L75.3238 50.4333L75.3193 50.4312V50.4369C75.3193 50.7958 75.3193 51.1533 75.3193 51.5126L75.3238 51.5148L90.9246 60.5203V60.5023C90.9246 60.1492 90.9246 59.7947 90.9246 59.4393L76.2605 50.9741" fill="#3394B3"/>
<path d="M84.7031 46.6113V53.0069C84.7031 53.1646 84.8086 53.3228 85.0161 53.4428C85.4357 53.6852 86.1144 53.6852 86.5328 53.4428C86.7403 53.3228 86.8457 53.1646 86.8457 53.0069V46.6113H84.7031Z" fill="#1C4C5C"/>
<path d="M90.8561 53.1357L89.8633 52.5612V52.3145L90.8561 52.8877V53.1357" fill="#266F86"/>
<path d="M91.0878 53.5363L89.6328 52.6949V51.9128L91.0878 52.7541V53.5363Z" fill="black"/>
<path d="M92.1259 53.8683L91.1309 53.2939V53.0472L92.1259 53.6203V53.8683" fill="#266F86"/>
<path d="M92.3547 54.2689L90.8975 53.4276V52.6453L92.3547 53.4867V54.2689Z" fill="black"/>
<path d="M93.3924 54.5997L92.3984 54.0266V53.7772L93.3924 54.3517V54.5997Z" fill="#266F86"/>
<path d="M93.6221 55.0002L92.166 54.1589V53.378L93.6221 54.2194V55.0002Z" fill="black"/>
<path d="M97.0437 36.3828L70.1386 20.8493C69.9871 20.7629 69.8469 20.7337 69.7291 20.755L69.6921 20.7191L68.9551 21.178L69.3926 21.9935V39.5865C69.3926 40.0624 69.7258 40.6391 70.1386 40.8766L96.7139 56.2206L96.853 56.8613L97.4352 56.5054C97.6473 56.4774 97.7886 56.2903 97.7886 55.9806V37.6737C97.7886 37.1983 97.4554 36.6195 97.0437 36.3828Z" fill="#459EBA"/>
<path d="M96.4197 56.7714L69.5145 41.2381C69.1028 41.0001 68.7686 40.4213 68.7686 39.9467V21.639C68.7686 21.4214 68.8392 21.2621 68.9548 21.178C69.0916 21.0781 69.2913 21.0815 69.5145 21.2094L96.4197 36.743C96.8325 36.9818 97.1646 37.5585 97.1646 38.034V56.3407C97.1646 56.8162 96.8325 57.0094 96.4197 56.7714" fill="#3394B3"/>
<path d="M96.8513 37.8535V55.4621C96.84 55.7246 96.6527 55.8259 96.4182 55.6878L69.5142 40.1553C69.2753 40.0195 69.0801 39.6829 69.0801 39.4061V21.8185C69.0801 21.6671 69.1384 21.565 69.236 21.5291C69.3067 21.4977 69.4054 21.5089 69.5142 21.5684L96.4182 37.1041C96.6594 37.24 96.8513 37.5796 96.8513 37.8535Z" fill="#459EBA"/>
<path d="M96.8496 37.8512V55.4599C96.7734 55.4893 96.6769 55.4748 96.5726 55.413L69.6663 39.8805C69.4285 39.7425 69.2344 39.4081 69.2344 39.1312V21.5279C69.3062 21.4954 69.4038 21.5077 69.5126 21.5672L96.4166 37.1018C96.6578 37.2386 96.8496 37.5774 96.8496 37.8512Z" fill="#1A4A5A"/>
<path d="M94.6602 55.3311L93.6641 54.7579V54.5099L94.6602 55.0844V55.3311" fill="#459EBA"/>
<path d="M93.5194 54.6559L92.5244 54.0828V53.8347L93.5194 54.4092V54.6559" fill="#459EBA"/>
<path d="M95.9882 56.0087C95.9882 56.2496 95.8166 56.3473 95.6068 56.2273C95.3971 56.105 95.2266 55.8115 95.2266 55.5678C95.2266 55.3255 95.3971 55.2269 95.6068 55.3492C95.8166 55.4701 95.9882 55.7655 95.9882 56.0087Z" fill="#1C4C5C"/>
<path d="M95.4756 55.5585V55.5677C95.4756 55.7237 95.5968 55.9344 95.7314 56.0121L95.7404 56.0151V56.0086C95.7404 55.8526 95.6181 55.6404 95.4823 55.5634L95.4756 55.5585ZM95.7774 56.527L95.4823 56.4415C95.1963 56.2767 94.9775 55.9008 94.9775 55.5677C94.9775 55.1528 95.359 54.9205 95.7314 55.1326C96.0197 55.3009 96.2362 55.6755 96.2362 56.0086C96.2362 56.3148 96.0477 56.527 95.7774 56.527" fill="#459EBA"/>
<path d="M96.8502 37.8167C96.8491 37.8016 96.848 37.7856 96.8457 37.7701C96.848 37.7701 96.8491 37.7701 96.8502 37.771V37.8167" fill="url(#paint72_linear)"/>
<path d="M96.8503 55.2728V37.8512C96.8503 37.8241 96.8492 37.7974 96.8447 37.7706C96.8458 37.7706 96.8458 37.7706 96.8458 37.7706C96.8481 37.7859 96.8492 37.8018 96.8503 37.8167V55.2728" fill="url(#paint73_linear)"/>
<path d="M96.77 55.286C96.7105 55.286 96.6432 55.2672 96.5726 55.2255L69.6663 39.6922C69.4285 39.5555 69.2344 39.2198 69.2344 38.9429V37.9556C71.2592 37.0223 76.0908 35.5122 80.6823 35.5122C91.2844 35.5122 95.4552 37.4529 96.844 37.7706C96.8485 37.7974 96.8496 37.8241 96.8496 37.8513V55.2729C96.825 55.2816 96.798 55.286 96.77 55.286" fill="url(#paint74_linear)"/>
<path d="M63.8098 45.834C63.8098 45.834 60.4287 45.2004 60.2761 47.3743C60.1213 49.5495 61.9207 48.2166 61.0053 50.1183C60.0899 52.0183 62.2965 51.5179 63.9253 51.5179C65.5542 51.5179 64.8508 49.5338 66.787 50.0723C68.7244 50.6082 71.9361 51.6337 63.8098 45.834" fill="#79C7D3"/>
<path d="M46.1018 36.5467C46.6851 35.1444 48.1917 34.3759 49.6657 34.7483C52.1146 35.3688 50.8447 39.7661 55.6853 41.8481C57.6865 42.7108 62.2803 42.5662 63.4021 43.2538C65.8386 44.7481 63.3842 46.6709 63.3842 46.6709L52.5947 46.1323C52.5947 46.1323 48.2882 43.0676 46.2039 40.9844C45.0843 39.8661 45.4881 38.016 46.1018 36.5467" fill="#5CA9C2"/>
<path d="M25.4302 77.9743C25.4302 77.9743 23.4289 79.5944 22.7614 81.1202C22.0928 82.6468 19.4005 93.5752 19.9962 95.3881C20.8566 98.0111 23.55 101.285 23.5231 102.191C23.4894 103.334 23.854 103.43 21.4007 102.954C18.9473 102.475 18.8519 102.38 18.4705 101.333C18.088 100.284 16.7542 96.8959 16.7542 96.8959L16.5635 93.9678C16.5635 93.9678 17.231 93.0379 17.231 92.1809C17.231 91.3216 16.8507 83.6934 17.4217 81.8827C17.9938 80.0712 20.5672 77.1151 20.5672 77.1151C20.5672 77.1151 20.8544 57.2427 21.9032 55.7382C22.951 54.2352 25.1385 50.791 25.1385 50.791L30.4154 52.2498C30.4154 52.2498 32.4089 57.7618 31.4116 60.5274C30.4154 63.2924 26.2883 77.1151 25.4302 77.9743" fill="#FFBE9E"/>
<path d="M35.6045 90.063C35.6045 90.063 36.4717 90.6462 35.8143 91.3034C35.1457 91.9721 31.9767 91.1172 30.5228 90.5664C29.0701 90.0156 29.4033 88.6348 29.4033 88.6348C29.4033 88.6348 28.9512 89.9393 28.9512 90.782C28.9512 91.6247 29.0084 92.0642 29.594 92.402C30.1795 92.7408 32.339 92.1628 32.8965 92.402C33.4552 92.6417 35.6012 94.1856 37.1728 93.9489C38.7467 93.7132 40.6055 92.6725 40.6055 92.6725C40.6055 92.6725 41.5568 91.9634 37.3276 90.314C36.4201 89.9595 35.6045 90.063 35.6045 90.063" fill="#FEF7EC"/>
<path d="M35.06 47.465C35.06 47.465 37.4427 48.1727 37.9195 52.5403C38.3974 56.9039 36.5857 64.1495 35.06 67.1056C33.5355 70.0613 34.3926 71.1721 33.7251 71.8396C33.0576 72.5069 33.0576 72.4442 33.0576 75.7815C33.0576 79.1189 33.0576 88.1774 33.0576 88.1774L36.6799 89.8522C36.6799 89.8522 37.4584 89.364 38.2067 90.1113C38.9549 90.8605 40.0172 90.957 40.0172 91.8544C40.0172 92.751 37.0613 92.5611 36.5385 92.5611C36.0135 92.5611 34.5821 91.2531 32.3901 91.2531C30.1981 91.2531 29.5879 91.9083 29.2255 90.7563C28.8621 89.6055 29.7786 88.5573 29.2255 86.3632C28.6725 84.1713 26.2887 78.1654 27.0515 76.3534C27.8132 74.5419 28.6086 71.6993 28.6086 70.0222C28.6086 68.3448 28.0488 65.2937 28.4549 62.4331C28.8621 59.5725 30.0074 46.6079 35.06 47.465" fill="#FFBE9E"/>
<path d="M25.7404 69.2703C27.1483 63.7937 28.0558 62.6273 28.0861 58.6684C28.1198 54.7072 32.5105 46.4173 36.0093 49.0837L36.6118 48.7349C36.6118 48.7349 38.9911 52.2418 38.3887 56.4538C37.7874 60.6654 35.3699 69.202 34.7776 71.3483C34.2807 73.162 33.4875 75.8701 33.1779 78.3315L33.4932 87.9259C33.4932 87.9259 33.2744 88.9097 31.3449 88.7852C29.4154 88.6621 27.5656 87.7086 27.5656 87.7086C27.5656 87.7086 24.3337 74.7448 25.7404 69.2703" fill="#3394B3"/>
<path d="M35.6045 89.354C35.6045 89.354 36.4717 89.9385 35.8143 90.5959C35.1457 91.2632 31.9767 90.4097 30.5228 89.858C29.0701 89.3072 29.4033 87.9259 29.4033 87.9259C29.4033 87.9259 28.9512 89.2309 28.9512 90.0722C28.9512 90.9157 29.0084 91.3544 29.594 91.6931C30.1795 92.0319 32.339 91.4538 32.8965 91.6931C33.4552 91.9319 35.6012 93.4766 37.1728 93.2399C38.7467 93.0043 40.6055 91.9635 40.6055 91.9635C40.6055 91.9635 38.3025 89.6055 37.3276 89.6055C36.3528 89.6055 35.6045 89.354 35.6045 89.354" fill="#FFBE59"/>
<path d="M21.224 98.6535C21.224 98.6535 22.5286 100.123 21.224 100.558C19.9205 100.995 18.4902 99.6364 17.8463 98.5641C17.2035 97.4914 16.6841 93.9734 16.6841 93.9734C16.6841 93.9734 16.527 94.2022 16.3285 94.8463C16.1299 95.4901 16.3285 96.4954 16.3285 96.4954C16.3285 96.4954 16.4766 100.721 17.7621 102.436C19.05 104.154 23.066 104.356 23.066 104.356C23.066 104.356 24.2102 103.712 23.6381 102.14C23.066 100.565 21.224 98.6535 21.224 98.6535" fill="#FEF7EC"/>
<path d="M21.4584 98.029C21.4584 98.029 22.763 99.4974 21.4584 99.9334C20.1549 100.369 18.7257 99.0106 18.0807 97.9378C17.4379 96.8655 16.9185 93.3486 16.9185 93.3486C16.9185 93.3486 16.7614 93.5777 16.5629 94.2193C16.3643 94.863 16.5629 95.8696 16.5629 95.8696C16.5629 95.8696 16.7109 100.095 17.9976 101.812C19.2843 103.528 23.3004 103.731 23.3004 103.731C23.3004 103.731 24.4446 103.086 23.8725 101.514C23.3004 99.9405 21.4584 98.029 21.4584 98.029" fill="#FFBE59"/>
<path d="M17.1101 82.3821L17.109 82.3786C17.0854 80.1574 19.6386 77.8187 19.6386 77.8187C19.6386 77.8187 19.6386 59.8832 21.0465 55.2917C22.4555 50.7015 28.1923 48.0811 31.8707 50.2045C35.5479 52.3267 26.9123 77.0076 26.9123 77.0076C26.9123 77.0076 21.1564 87.1406 20.7279 89.7141C20.2982 92.2886 20.2982 93.9345 20.2982 93.9345C20.2982 93.9345 20.7773 95.2368 18.5101 94.6377C16.2463 94.0366 15 92.0498 15 92.0498C15 92.0498 16.4718 85.8956 17.1101 82.3821" fill="#5CA9C2"/>
<path d="M23.3421 43.3278C22.2585 46.0088 22.7498 52.3347 22.7498 52.3347C22.7498 52.3347 24.6557 54.5503 28.1187 54.7071C36.5198 55.0923 37.4498 50.3693 37.4498 50.3693C37.4498 50.3693 44.7684 44.4396 46.3916 41.8034C47.7187 39.647 48.9964 33.2778 47.4484 31.7309C47.4484 31.7309 31.4762 23.1882 23.3421 43.3278Z" fill="#85BFD1"/>
<path d="M46.3919 32.2064C46.3919 32.2064 45.0514 33.3728 45.0514 34.3054C45.0514 35.2374 43.8724 38.6869 43.6525 39.0931C42.8269 40.6164 42.7237 33.6581 41.2676 32.425C40.4577 31.741 40.7605 31.741 40.7605 30.0561C40.7605 28.3732 42.874 26.8038 42.874 26.8038L46.3919 32.2064" fill="#FFBE9E"/>
<path d="M48.9673 20.8706C49.1658 20.9671 52.4785 22.9426 52.7724 25.3948C53.0663 27.847 51.8491 28.7748 51.6797 29.394C51.5104 30.0154 51.9467 29.9864 51.6831 30.9531C51.4184 31.918 50.5916 32.2926 50.4503 32.8066C50.3112 33.3203 49.4474 33.4942 49.1804 34.4757C48.9123 35.4573 47.7568 35.1554 46.6855 34.6506C45.1688 33.9337 41.8797 29.5456 41.8607 27.082C41.8382 24.5198 43.0105 17.9831 48.9673 20.8706" fill="#FFDFCF"/>
<path d="M52.1266 23.3554C52.1266 23.3554 49.7529 27.5352 48.2194 28.4102C46.6859 29.2853 41.4157 29.5228 41.4157 29.5228L40.7842 30.5158L38.6045 31.5455L37.126 32.425C37.126 32.425 37.6083 28.0972 38.4385 27.6238C39.2675 27.1504 41.1218 27.7192 41.1218 27.7192C41.1218 27.7192 41.1667 20.285 45.1861 20.0147C49.2055 19.7421 52.1266 23.3554 52.1266 23.3554Z" fill="#FFBE59"/>
<path d="M44.8695 28.3485C44.8583 28.3182 44.4287 27.4219 44.0192 27.7102C43.6109 27.9985 43.3439 28.5426 43.4875 29.2774C43.6322 30.0145 44.0203 30.9185 44.524 30.9049C45.0255 30.8927 45.1803 30.9579 45.4462 30.5674C45.7132 30.1748 45.5482 29.727 45.5482 29.727L44.8695 28.3485" fill="#FF884D"/>
<path d="M45.0732 28.4159C45.0609 28.3867 44.6324 27.4915 44.2229 27.7787C43.8146 28.0659 43.5487 28.6111 43.6912 29.3472C43.8348 30.0829 44.2251 30.9869 44.7266 30.9738C45.2292 30.9601 45.3828 31.0263 45.6509 30.6337C45.9168 30.2433 45.7519 29.7946 45.7519 29.7946L45.0732 28.4159Z" fill="#FFDFCF"/>
<path d="M44.6827 28.6447C44.6827 28.6447 44.5313 29.0877 44.4763 29.281C44.4191 29.4725 44.363 29.7911 44.4696 29.9426C44.5739 30.0952 44.6726 30.1937 44.6726 30.1937C44.6726 30.1937 44.639 29.4199 44.7007 29.1272C44.7613 28.8323 44.7803 28.5729 44.648 28.3586C44.5178 28.1444 44.409 27.8684 44.2127 28.1242C44.0175 28.3811 43.8571 28.666 43.9109 29.1302C43.9659 29.596 44.1207 30.0851 44.3383 30.2959C44.5548 30.5044 44.8409 30.6021 44.8409 30.6021C44.8409 30.6021 44.2654 30.3668 44.1476 29.837C44.0276 29.3077 43.9704 28.4865 44.1275 28.3418C44.2867 28.2005 44.3103 28.1702 44.3294 28.3699C44.3484 28.5684 44.2419 28.8691 44.3832 28.7692C44.5245 28.6705 44.5347 28.3912 44.6255 28.5045C44.7141 28.6166 44.6827 28.6447 44.6827 28.6447" fill="#FF884D"/>
<path d="M44.8097 29.5276L44.9646 29.1021C45.0566 29.1148 45.0756 29.1157 45.1373 29.263C45.1957 29.4084 45.2069 29.4624 45.3426 29.4198C45.4783 29.3773 45.5714 29.2582 45.457 29.458C45.3415 29.6556 45.3045 29.4492 45.1082 29.5859C44.9118 29.7249 44.9836 29.9124 44.849 29.9269C44.7144 29.9426 44.7873 29.6442 44.8288 29.5566L44.8097 29.5276" fill="#FF884D"/>
<path d="M64.62 44.1075C64.62 44.1075 65.6565 45.5895 67.4918 47.4246C69.3259 49.259 69.3551 49.9114 69.3551 49.9114C69.3551 49.9114 67.1384 48.6112 66.2724 48.1113C65.4086 47.6108 64.1286 46.8212 64.1286 46.8212C64.1286 46.8212 65.3357 48.5126 65.3357 49.1095C65.3357 49.7085 65.3357 50.0723 65.3357 50.0723C65.3357 50.0723 61.5014 46.894 61.6977 45.7967C61.8929 44.6999 61.4521 41.3927 64.62 44.1075" fill="#FFBE9E"/>
<path d="M52.8172 28.021C52.8172 28.021 53.7415 27.0821 53.377 25.5699C53.0124 24.0577 51.8603 23.3554 51.8603 23.3554C51.8603 23.3554 50.8271 23.6909 51.3196 24.6825C51.8143 25.6753 52.9888 26.9272 52.8172 28.021" fill="#FFBE59"/>
<path d="M39.1665 56.6369C39.3123 56.6781 39.4559 56.7141 39.5927 56.7399C41.5738 57.0966 42.0742 56.8555 43.4338 57.9055C44.7923 58.9554 45.9354 59.3503 45.9354 59.6535C45.9354 59.9563 45.9354 60.1972 44.219 59.7551C42.5038 59.3134 42.2895 59.5285 42.2895 59.5285C42.3142 59.8393 43.2094 61.3572 43.7737 61.3866C44.4512 61.4225 45.4362 61.9597 46.2943 61.9597C47.1514 61.9597 47.3556 61.9001 48.0096 62.2783C48.6636 62.6564 49.3692 63.0334 48.0096 63.0334C46.6511 63.0334 45.2926 63.2463 45.2926 63.2463C45.2926 63.2463 45.7783 63.6929 44.6341 63.6929C43.491 63.6929 41.7331 63.4978 41.7331 63.4978L39.5927 59.9721C39.5927 59.9721 40.037 59.5097 38.9668 59.281C39.162 58.4226 39.2416 57.5352 39.1665 56.6369" fill="#FFBE9E"/>
<path d="M36.54 34.9569C36.54 34.9569 39.3849 36.1134 39.5924 37.9354C39.8033 39.7583 40.1612 40.0725 38.6725 41.561C37.1828 43.051 32.8067 50.1616 32.8067 50.1616C32.8067 50.1616 35.287 53.4867 37.1334 54.5538C38.9799 55.6204 40.3642 56.8613 40.3642 56.8613C40.3642 56.8613 41.1125 57.874 40.6963 58.9217C40.279 59.9722 39.5924 59.9722 39.5924 59.9722C39.5924 59.9722 27.4434 53.7325 27.4434 51.2094C27.4434 48.6876 31.1801 33.3944 36.54 34.9569" fill="#ADD4E1"/>
</g>
<defs>
<linearGradient id="paint0_linear" x1="64.9189" y1="52.7498" x2="66.7605" y2="52.7498" gradientUnits="userSpaceOnUse">
<stop stop-color="#53B4CB"/>
<stop offset="1" stop-color="#3BAAC4"/>
</linearGradient>
<linearGradient id="paint1_linear" x1="66.418" y1="53.6147" x2="68.2584" y2="53.6147" gradientUnits="userSpaceOnUse">
<stop stop-color="#53B4CB"/>
<stop offset="1" stop-color="#3BAAC4"/>
</linearGradient>
<linearGradient id="paint2_linear" x1="84.4072" y1="64.0015" x2="86.2477" y2="64.0015" gradientUnits="userSpaceOnUse">
<stop stop-color="#53B4CB"/>
<stop offset="1" stop-color="#3BAAC4"/>
</linearGradient>
<linearGradient id="paint3_linear" x1="63.6523" y1="53.3612" x2="65.9036" y2="53.3612" gradientUnits="userSpaceOnUse">
<stop stop-color="#53B4CB"/>
<stop offset="1" stop-color="#3BAAC4"/>
</linearGradient>
<linearGradient id="paint4_linear" x1="65.1523" y1="54.2272" x2="67.4036" y2="54.2272" gradientUnits="userSpaceOnUse">
<stop stop-color="#53B4CB"/>
<stop offset="1" stop-color="#3BAAC4"/>
</linearGradient>
<linearGradient id="paint5_linear" x1="80.1445" y1="62.8819" x2="82.3958" y2="62.8819" gradientUnits="userSpaceOnUse">
<stop stop-color="#53B4CB"/>
<stop offset="1" stop-color="#3BAAC4"/>
</linearGradient>
<linearGradient id="paint6_linear" x1="78.6445" y1="62.0181" x2="80.8958" y2="62.0181" gradientUnits="userSpaceOnUse">
<stop stop-color="#53B4CB"/>
<stop offset="1" stop-color="#3BAAC4"/>
</linearGradient>
<linearGradient id="paint7_linear" x1="77.1465" y1="61.1531" x2="79.3978" y2="61.1531" gradientUnits="userSpaceOnUse">
<stop stop-color="#53B4CB"/>
<stop offset="1" stop-color="#3BAAC4"/>
</linearGradient>
<linearGradient id="paint8_linear" x1="75.6455" y1="60.286" x2="77.8978" y2="60.286" gradientUnits="userSpaceOnUse">
<stop stop-color="#53B4CB"/>
<stop offset="1" stop-color="#3BAAC4"/>
</linearGradient>
<linearGradient id="paint9_linear" x1="74.1475" y1="59.4211" x2="76.3998" y2="59.4211" gradientUnits="userSpaceOnUse">
<stop stop-color="#53B4CB"/>
<stop offset="1" stop-color="#3BAAC4"/>
</linearGradient>
<linearGradient id="paint10_linear" x1="72.6475" y1="58.5551" x2="74.8998" y2="58.5551" gradientUnits="userSpaceOnUse">
<stop stop-color="#53B4CB"/>
<stop offset="1" stop-color="#3BAAC4"/>
</linearGradient>
<linearGradient id="paint11_linear" x1="71.1494" y1="57.6902" x2="73.4007" y2="57.6902" gradientUnits="userSpaceOnUse">
<stop stop-color="#53B4CB"/>
<stop offset="1" stop-color="#3BAAC4"/>
</linearGradient>
<linearGradient id="paint12_linear" x1="69.6504" y1="56.8242" x2="71.9016" y2="56.8242" gradientUnits="userSpaceOnUse">
<stop stop-color="#53B4CB"/>
<stop offset="1" stop-color="#3BAAC4"/>
</linearGradient>
<linearGradient id="paint13_linear" x1="68.1494" y1="55.9593" x2="70.4018" y2="55.9593" gradientUnits="userSpaceOnUse">
<stop stop-color="#53B4CB"/>
<stop offset="1" stop-color="#3BAAC4"/>
</linearGradient>
<linearGradient id="paint14_linear" x1="66.6514" y1="55.0932" x2="68.9026" y2="55.0932" gradientUnits="userSpaceOnUse">
<stop stop-color="#53B4CB"/>
<stop offset="1" stop-color="#3BAAC4"/>
</linearGradient>
<linearGradient id="paint15_linear" x1="81.6426" y1="64.1809" x2="85.3936" y2="64.1809" gradientUnits="userSpaceOnUse">
<stop stop-color="#53B4CB"/>
<stop offset="1" stop-color="#3BAAC4"/>
</linearGradient>
<linearGradient id="paint16_linear" x1="62.4336" y1="54.2765" x2="65.4155" y2="54.2765" gradientUnits="userSpaceOnUse">
<stop stop-color="#53B4CB"/>
<stop offset="1" stop-color="#3BAAC4"/>
</linearGradient>
<linearGradient id="paint17_linear" x1="81.9238" y1="65.3173" x2="84.174" y2="65.3173" gradientUnits="userSpaceOnUse">
<stop stop-color="#53B4CB"/>
<stop offset="1" stop-color="#3BAAC4"/>
</linearGradient>
<linearGradient id="paint18_linear" x1="61.2158" y1="55.0752" x2="64.5275" y2="55.0752" gradientUnits="userSpaceOnUse">
<stop stop-color="#53B4CB"/>
<stop offset="1" stop-color="#3BAAC4"/>
</linearGradient>
<linearGradient id="paint19_linear" x1="76.6445" y1="63.6784" x2="78.8969" y2="63.6784" gradientUnits="userSpaceOnUse">
<stop stop-color="#53B4CB"/>
<stop offset="1" stop-color="#3BAAC4"/>
</linearGradient>
<linearGradient id="paint20_linear" x1="75.0215" y1="62.7562" x2="77.2728" y2="62.7562" gradientUnits="userSpaceOnUse">
<stop stop-color="#53B4CB"/>
<stop offset="1" stop-color="#3BAAC4"/>
</linearGradient>
<linearGradient id="paint21_linear" x1="73.3984" y1="61.8342" x2="75.6508" y2="61.8342" gradientUnits="userSpaceOnUse">
<stop stop-color="#53B4CB"/>
<stop offset="1" stop-color="#3BAAC4"/>
</linearGradient>
<linearGradient id="paint22_linear" x1="71.7764" y1="60.913" x2="74.0276" y2="60.913" gradientUnits="userSpaceOnUse">
<stop stop-color="#53B4CB"/>
<stop offset="1" stop-color="#3BAAC4"/>
</linearGradient>
<linearGradient id="paint23_linear" x1="70.1514" y1="59.991" x2="72.4026" y2="59.991" gradientUnits="userSpaceOnUse">
<stop stop-color="#53B4CB"/>
<stop offset="1" stop-color="#3BAAC4"/>
</linearGradient>
<linearGradient id="paint24_linear" x1="68.5283" y1="59.0689" x2="70.7796" y2="59.0689" gradientUnits="userSpaceOnUse">
<stop stop-color="#53B4CB"/>
<stop offset="1" stop-color="#3BAAC4"/>
</linearGradient>
<linearGradient id="paint25_linear" x1="66.9062" y1="58.1468" x2="69.1564" y2="58.1468" gradientUnits="userSpaceOnUse">
<stop stop-color="#53B4CB"/>
<stop offset="1" stop-color="#3BAAC4"/>
</linearGradient>
<linearGradient id="paint26_linear" x1="65.2832" y1="57.2269" x2="67.5345" y2="57.2269" gradientUnits="userSpaceOnUse">
<stop stop-color="#53B4CB"/>
<stop offset="1" stop-color="#3BAAC4"/>
</linearGradient>
<linearGradient id="paint27_linear" x1="63.6582" y1="56.3036" x2="65.9095" y2="56.3036" gradientUnits="userSpaceOnUse">
<stop stop-color="#53B4CB"/>
<stop offset="1" stop-color="#3BAAC4"/>
</linearGradient>
<linearGradient id="paint28_linear" x1="78.2529" y1="64.6072" x2="80.5053" y2="64.6072" gradientUnits="userSpaceOnUse">
<stop stop-color="#53B4CB"/>
<stop offset="1" stop-color="#3BAAC4"/>
</linearGradient>
<linearGradient id="paint29_linear" x1="79.7266" y1="65.7391" x2="82.955" y2="65.7391" gradientUnits="userSpaceOnUse">
<stop stop-color="#53B4CB"/>
<stop offset="1" stop-color="#3BAAC4"/>
</linearGradient>
<linearGradient id="paint30_linear" x1="59.9961" y1="55.9054" x2="63.7471" y2="55.9054" gradientUnits="userSpaceOnUse">
<stop stop-color="#53B4CB"/>
<stop offset="1" stop-color="#3BAAC4"/>
</linearGradient>
<linearGradient id="paint31_linear" x1="62.9941" y1="57.2045" x2="65.2465" y2="57.2045" gradientUnits="userSpaceOnUse">
<stop stop-color="#53B4CB"/>
<stop offset="1" stop-color="#3BAAC4"/>
</linearGradient>
<linearGradient id="paint32_linear" x1="76.4863" y1="64.9931" x2="78.7387" y2="64.9931" gradientUnits="userSpaceOnUse">
<stop stop-color="#53B4CB"/>
<stop offset="1" stop-color="#3BAAC4"/>
</linearGradient>
<linearGradient id="paint33_linear" x1="74.9863" y1="64.1282" x2="77.2387" y2="64.1282" gradientUnits="userSpaceOnUse">
<stop stop-color="#53B4CB"/>
<stop offset="1" stop-color="#3BAAC4"/>
</linearGradient>
<linearGradient id="paint34_linear" x1="73.4893" y1="63.26" x2="75.7405" y2="63.26" gradientUnits="userSpaceOnUse">
<stop stop-color="#53B4CB"/>
<stop offset="1" stop-color="#3BAAC4"/>
</linearGradient>
<linearGradient id="paint35_linear" x1="71.9893" y1="62.395" x2="74.2405" y2="62.395" gradientUnits="userSpaceOnUse">
<stop stop-color="#53B4CB"/>
<stop offset="1" stop-color="#3BAAC4"/>
</linearGradient>
<linearGradient id="paint36_linear" x1="70.4902" y1="61.5268" x2="72.7415" y2="61.5268" gradientUnits="userSpaceOnUse">
<stop stop-color="#53B4CB"/>
<stop offset="1" stop-color="#3BAAC4"/>
</linearGradient>
<linearGradient id="paint37_linear" x1="68.9912" y1="60.6619" x2="71.2425" y2="60.6619" gradientUnits="userSpaceOnUse">
<stop stop-color="#53B4CB"/>
<stop offset="1" stop-color="#3BAAC4"/>
</linearGradient>
<linearGradient id="paint38_linear" x1="67.4922" y1="59.7947" x2="69.7424" y2="59.7947" gradientUnits="userSpaceOnUse">
<stop stop-color="#53B4CB"/>
<stop offset="1" stop-color="#3BAAC4"/>
</linearGradient>
<linearGradient id="paint39_linear" x1="65.9922" y1="58.9275" x2="68.2435" y2="58.9275" gradientUnits="userSpaceOnUse">
<stop stop-color="#53B4CB"/>
<stop offset="1" stop-color="#3BAAC4"/>
</linearGradient>
<linearGradient id="paint40_linear" x1="64.4922" y1="58.0615" x2="66.7435" y2="58.0615" gradientUnits="userSpaceOnUse">
<stop stop-color="#53B4CB"/>
<stop offset="1" stop-color="#3BAAC4"/>
</linearGradient>
<linearGradient id="paint41_linear" x1="78.0937" y1="66.3247" x2="81.7363" y2="66.3247" gradientUnits="userSpaceOnUse">
<stop stop-color="#53B4CB"/>
<stop offset="1" stop-color="#3BAAC4"/>
</linearGradient>
<linearGradient id="paint42_linear" x1="58.7783" y1="56.1769" x2="61.0285" y2="56.1769" gradientUnits="userSpaceOnUse">
<stop stop-color="#53B4CB"/>
<stop offset="1" stop-color="#3BAAC4"/>
</linearGradient>
<linearGradient id="paint43_linear" x1="60.2764" y1="57.043" x2="62.5276" y2="57.043" gradientUnits="userSpaceOnUse">
<stop stop-color="#53B4CB"/>
<stop offset="1" stop-color="#3BAAC4"/>
</linearGradient>
<linearGradient id="paint44_linear" x1="61.7764" y1="57.9089" x2="64.0265" y2="57.9089" gradientUnits="userSpaceOnUse">
<stop stop-color="#53B4CB"/>
<stop offset="1" stop-color="#3BAAC4"/>
</linearGradient>
<linearGradient id="paint45_linear" x1="63.2441" y1="58.7705" x2="65.4954" y2="58.7705" gradientUnits="userSpaceOnUse">
<stop stop-color="#53B4CB"/>
<stop offset="1" stop-color="#3BAAC4"/>
</linearGradient>
<linearGradient id="paint46_linear" x1="64.7725" y1="62.2346" x2="76.0189" y2="62.2346" gradientUnits="userSpaceOnUse">
<stop stop-color="#53B4CB"/>
<stop offset="1" stop-color="#3BAAC4"/>
</linearGradient>
<linearGradient id="paint47_linear" x1="75.2676" y1="65.8389" x2="77.0291" y2="65.8389" gradientUnits="userSpaceOnUse">
<stop stop-color="#53B4CB"/>
<stop offset="1" stop-color="#3BAAC4"/>
</linearGradient>
<linearGradient id="paint48_linear" x1="76.7666" y1="66.5648" x2="79.0178" y2="66.5648" gradientUnits="userSpaceOnUse">
<stop stop-color="#53B4CB"/>
<stop offset="1" stop-color="#3BAAC4"/>
</linearGradient>
<linearGradient id="paint49_linear" x1="78.2666" y1="67.5709" x2="80.0271" y2="67.5709" gradientUnits="userSpaceOnUse">
<stop stop-color="#53B4CB"/>
<stop offset="1" stop-color="#3BAAC4"/>
</linearGradient>
<linearGradient id="paint50_linear" x1="80.3418" y1="64.4064" x2="82.5931" y2="64.4064" gradientUnits="userSpaceOnUse">
<stop stop-color="#53B4CB"/>
<stop offset="1" stop-color="#3BAAC4"/>
</linearGradient>
<linearGradient id="paint51_linear" x1="78.7617" y1="63.4943" x2="81.013" y2="63.4943" gradientUnits="userSpaceOnUse">
<stop stop-color="#53B4CB"/>
<stop offset="1" stop-color="#3BAAC4"/>
</linearGradient>
<linearGradient id="paint52_linear" x1="77.1816" y1="62.5835" x2="79.4329" y2="62.5835" gradientUnits="userSpaceOnUse">
<stop stop-color="#53B4CB"/>
<stop offset="1" stop-color="#3BAAC4"/>
</linearGradient>
<linearGradient id="paint53_linear" x1="75.5996" y1="61.6715" x2="77.852" y2="61.6715" gradientUnits="userSpaceOnUse">
<stop stop-color="#53B4CB"/>
<stop offset="1" stop-color="#3BAAC4"/>
</linearGradient>
<linearGradient id="paint54_linear" x1="74.0195" y1="60.7606" x2="76.2719" y2="60.7606" gradientUnits="userSpaceOnUse">
<stop stop-color="#53B4CB"/>
<stop offset="1" stop-color="#3BAAC4"/>
</linearGradient>
<linearGradient id="paint55_linear" x1="72.4395" y1="59.8485" x2="74.6918" y2="59.8485" gradientUnits="userSpaceOnUse">
<stop stop-color="#53B4CB"/>
<stop offset="1" stop-color="#3BAAC4"/>
</linearGradient>
<linearGradient id="paint56_linear" x1="70.8584" y1="58.9376" x2="73.1097" y2="58.9376" gradientUnits="userSpaceOnUse">
<stop stop-color="#53B4CB"/>
<stop offset="1" stop-color="#3BAAC4"/>
</linearGradient>
<linearGradient id="paint57_linear" x1="69.2793" y1="58.0256" x2="71.5295" y2="58.0256" gradientUnits="userSpaceOnUse">
<stop stop-color="#53B4CB"/>
<stop offset="1" stop-color="#3BAAC4"/>
</linearGradient>
<linearGradient id="paint58_linear" x1="67.6982" y1="57.1147" x2="69.9495" y2="57.1147" gradientUnits="userSpaceOnUse">
<stop stop-color="#53B4CB"/>
<stop offset="1" stop-color="#3BAAC4"/>
</linearGradient>
<linearGradient id="paint59_linear" x1="66.1172" y1="56.2027" x2="68.3695" y2="56.2027" gradientUnits="userSpaceOnUse">
<stop stop-color="#53B4CB"/>
<stop offset="1" stop-color="#3BAAC4"/>
</linearGradient>
<linearGradient id="paint60_linear" x1="64.5371" y1="55.2919" x2="66.7884" y2="55.2919" gradientUnits="userSpaceOnUse">
<stop stop-color="#53B4CB"/>
<stop offset="1" stop-color="#3BAAC4"/>
</linearGradient>
<linearGradient id="paint61_linear" x1="82.9102" y1="63.1354" x2="84.7495" y2="63.1354" gradientUnits="userSpaceOnUse">
<stop stop-color="#53B4CB"/>
<stop offset="1" stop-color="#3BAAC4"/>
</linearGradient>
<linearGradient id="paint62_linear" x1="81.4111" y1="62.2682" x2="83.2516" y2="62.2682" gradientUnits="userSpaceOnUse">
<stop stop-color="#53B4CB"/>
<stop offset="1" stop-color="#3BAAC4"/>
</linearGradient>
<linearGradient id="paint63_linear" x1="79.9111" y1="61.4022" x2="81.7516" y2="61.4022" gradientUnits="userSpaceOnUse">
<stop stop-color="#53B4CB"/>
<stop offset="1" stop-color="#3BAAC4"/>
</linearGradient>
<linearGradient id="paint64_linear" x1="78.4111" y1="60.5351" x2="80.2527" y2="60.5351" gradientUnits="userSpaceOnUse">
<stop stop-color="#53B4CB"/>
<stop offset="1" stop-color="#3BAAC4"/>
</linearGradient>
<linearGradient id="paint65_linear" x1="76.9141" y1="59.6668" x2="78.7534" y2="59.6668" gradientUnits="userSpaceOnUse">
<stop stop-color="#53B4CB"/>
<stop offset="1" stop-color="#3BAAC4"/>
</linearGradient>
<linearGradient id="paint66_linear" x1="75.4141" y1="58.8019" x2="77.2545" y2="58.8019" gradientUnits="userSpaceOnUse">
<stop stop-color="#53B4CB"/>
<stop offset="1" stop-color="#3BAAC4"/>
</linearGradient>
<linearGradient id="paint67_linear" x1="73.915" y1="57.9359" x2="75.7544" y2="57.9359" gradientUnits="userSpaceOnUse">
<stop stop-color="#53B4CB"/>
<stop offset="1" stop-color="#3BAAC4"/>
</linearGradient>
<linearGradient id="paint68_linear" x1="72.415" y1="57.0687" x2="74.2544" y2="57.0687" gradientUnits="userSpaceOnUse">
<stop stop-color="#53B4CB"/>
<stop offset="1" stop-color="#3BAAC4"/>
</linearGradient>
<linearGradient id="paint69_linear" x1="70.917" y1="56.2004" x2="72.7564" y2="56.2004" gradientUnits="userSpaceOnUse">
<stop stop-color="#53B4CB"/>
<stop offset="1" stop-color="#3BAAC4"/>
</linearGradient>
<linearGradient id="paint70_linear" x1="69.417" y1="55.3355" x2="71.2563" y2="55.3355" gradientUnits="userSpaceOnUse">
<stop stop-color="#53B4CB"/>
<stop offset="1" stop-color="#3BAAC4"/>
</linearGradient>
<linearGradient id="paint71_linear" x1="67.918" y1="54.4684" x2="69.7584" y2="54.4684" gradientUnits="userSpaceOnUse">
<stop stop-color="#53B4CB"/>
<stop offset="1" stop-color="#3BAAC4"/>
</linearGradient>
<linearGradient id="paint72_linear" x1="82.6412" y1="36.4616" x2="84.094" y2="47.0652" gradientUnits="userSpaceOnUse">
<stop stop-color="#3F9AB7"/>
<stop offset="0.605371" stop-color="#318DAB"/>
<stop offset="1" stop-color="#318DAB"/>
</linearGradient>
<linearGradient id="paint73_linear" x1="82.767" y1="36.4737" x2="84.2069" y2="46.9831" gradientUnits="userSpaceOnUse">
<stop stop-color="#50A4BE"/>
<stop offset="0.605371" stop-color="#4297B2"/>
<stop offset="1" stop-color="#4297B2"/>
</linearGradient>
<linearGradient id="paint74_linear" x1="82.7801" y1="36.4737" x2="84.2213" y2="46.9828" gradientUnits="userSpaceOnUse">
<stop stop-color="#275564"/>
<stop offset="0.605371" stop-color="#194857"/>
<stop offset="1" stop-color="#194857"/>
</linearGradient>
<clipPath id="clip0">
<rect width="150" height="150" fill="white"/>
</clipPath>
</defs>
</svg>
