<svg width="150" height="150" viewBox="0 0 150 150" fill="none" xmlns="http://www.w3.org/2000/svg">
<g clip-path="url(#clip0)">
<ellipse cx="78.4077" cy="78.7245" rx="49.5488" ry="71.7058" transform="rotate(9.22935 78.4077 78.7245)" fill="#EAEAEA"/>
<path d="M67.922 24.4345L43.6671 38.3347C43.5707 38.3895 43.3657 38.5867 43.2006 38.976C43.0094 39.4208 42.9495 39.949 43.0442 40.3539L49.7845 69.5115C49.9027 70.0267 50.695 72.1561 51.1442 71.8981L75.3182 56.1916C75.4138 56.1369 75.6188 55.9414 75.7848 55.5522C75.975 55.1064 76.0341 54.5773 75.9403 54.1724L69.2 25.014C69.0818 24.4988 68.3703 24.1765 67.922 24.4345Z" fill="#D2B42B"/>
<path d="M69.2926 24.4345L45.0378 38.3347C44.9414 38.3894 44.7364 38.5867 44.5713 38.9759C44.3802 39.4207 44.3211 39.949 44.4149 40.3538L51.1552 69.5114C51.2742 70.0266 51.9849 70.3489 52.4341 70.0909L76.6889 56.1915C76.7845 56.1368 76.9895 55.9413 77.1555 55.5521C77.3457 55.1064 77.4057 54.5772 77.311 54.1724L70.5707 25.014C70.4525 24.4987 69.7418 24.1764 69.2926 24.4345" fill="#C99927"/>
<path d="M60.9277 125.545L62.6245 125.19L61.6236 101.871L60.9277 101.957V125.545Z" fill="#B67121"/>
<path d="M75.4555 109.857L61.623 101.871L62.6239 125.19L76.4573 133.176L75.4555 109.857" fill="#CFAC2A"/>
<path d="M53.9209 71.5028L56.0295 122.35V122.372L60.9279 122.223V101.957L70.0636 107.24V113.959V121.967V130.827L76.8369 134.723C77.412 135.065 78.2852 135.086 78.7752 134.809L101.819 121.498C102.032 121.37 102.138 121.2 102.138 121.03L104.246 70.1822L53.9209 71.5028" fill="url(#paint0_linear)"/>
<path d="M54.123 76.0302L62.3603 71.2743L96.7638 70.3768L104.055 74.5862L103.798 80.4013L80.145 94.0574C78.8714 94.7924 76.6272 94.6994 75.1571 93.8506L54.3828 81.8565L54.123 76.0302" fill="#AC6E22"/>
<path d="M77.9798 91.3119C76.9972 91.3119 75.9616 91.0738 75.157 90.609L71.6192 88.5664L70.3916 85.986L51.8805 75.2987C51.0638 74.8269 50.6668 74.2187 50.6789 73.6444H50.665V71.5802V71.5271C50.6937 72.0753 51.1055 72.6479 51.8814 73.0962L75.1588 86.5377C75.9633 87.0008 76.9981 87.238 77.9798 87.238C78.7922 87.238 79.568 87.0755 80.1449 86.7428L106.65 71.4437C107.23 71.1075 107.511 70.6548 107.506 70.1805H107.507V74.2665H107.491C107.49 74.7348 107.223 75.1823 106.648 75.5141L80.1449 90.8158C79.568 91.1486 78.7922 91.3119 77.9798 91.3119" fill="url(#paint1_linear)"/>
<path d="M106.65 71.4437L80.1453 86.7427C78.8698 87.4777 76.6283 87.383 75.1591 86.5377L51.8817 73.0962C50.4117 72.2465 50.2501 70.9554 51.5203 70.2152L51.6506 70.1361L77.8785 54.9995L78.0253 54.9153C79.2999 54.1811 81.5415 54.2749 83.0115 55.1255L106.289 68.5618C107.758 69.4124 107.921 70.7086 106.65 71.4437Z" fill="#D4B82A"/>
<path d="M106.072 71.0866L80.1234 86.066C78.8741 86.7845 76.6803 86.6924 75.2407 85.8653L52.4515 72.7052C51.0136 71.8729 50.8538 70.6088 52.0979 69.8842L52.2256 69.8069L77.9036 54.9874L78.0469 54.9049C79.2954 54.1864 81.4901 54.2776 82.9288 55.1108L105.718 68.2656C107.157 69.0979 107.316 70.3673 106.072 71.0866" fill="#E8CD31"/>
<path d="M78.4696 84.7905C77.8875 84.7905 77.2732 84.6489 76.8744 84.4178L54.306 71.3847C53.8108 71.0997 53.8108 70.3855 54.306 70.0997L78.1742 56.3237L54.306 70.0997C53.9515 70.3039 53.8559 70.7252 54.008 71.0545C54.0679 70.9224 54.1644 70.8051 54.306 70.7235L78.1742 56.9475C78.5591 56.725 78.9874 56.6139 79.4157 56.6139C79.8449 56.6139 80.2741 56.7259 80.659 56.9501C81.282 57.3141 82.1134 57.7989 83.0908 58.3697C83.1343 58.5426 83.1795 58.6877 83.2194 58.8016C83.2464 58.8893 83.2794 58.9744 83.3193 59.057L87.2638 68.1231C87.2673 68.1327 87.2716 68.1431 87.2759 68.1526L87.2864 68.1752C87.6278 68.9372 88.4636 69.4845 89.7208 69.6392L89.786 69.6496C90.0127 69.6757 90.2456 69.6878 90.4828 69.6878C92.8633 69.6878 95.6592 68.4081 97.1197 66.6096C100.42 68.5636 103.035 70.1309 103.644 70.5471C103.745 70.4064 103.799 70.2396 103.792 70.0727C103.803 70.3395 103.678 70.6105 103.411 70.7661L79.4149 84.622C79.3045 84.6854 78.9839 84.7905 78.4696 84.7905V84.7905ZM103.79 70.051C103.79 70.0467 103.79 70.0414 103.79 70.0371C103.782 69.958 101.061 68.3203 97.4385 66.1752C97.4385 66.1752 97.4385 66.1752 97.4394 66.1752C101.061 68.3203 103.782 69.9572 103.79 70.0363C103.79 70.0415 103.79 70.0467 103.79 70.051V70.051ZM82.9544 57.6669C82.0352 57.1308 81.2533 56.6738 80.659 56.3272C80.2741 56.103 79.8449 55.9909 79.4149 55.9909C78.9961 55.9909 78.5773 56.0978 78.1985 56.3098C78.5773 56.0978 78.9961 55.9909 79.4157 55.9909C79.8449 55.9909 80.2741 56.1021 80.659 56.3272C81.2533 56.6738 82.0352 57.1308 82.9544 57.6669Z" fill="url(#paint2_linear)"/>
<path d="M54.3052 70.7234L78.1734 56.9474C78.9441 56.5026 79.8902 56.5026 80.6582 56.95C85.3707 59.699 101.982 69.4107 103.643 70.5471C103.752 70.3959 103.805 70.216 103.789 70.0371C103.77 69.832 85.6192 59.2203 80.6582 56.3271C79.8902 55.8788 78.9441 55.8788 78.1734 56.3236L54.3052 70.0996C53.9507 70.3038 53.8552 70.7252 54.0072 71.0544C54.0671 70.9224 54.1636 70.8051 54.3052 70.7234" fill="#C99927"/>
<path d="M91.2324 80.3421L96.2672 77.435C97.5079 76.7182 97.6539 75.6401 96.5922 75.0267L96.2038 74.8025L86.6729 80.3056L87.0603 80.5298C88.1229 81.1432 89.99 81.0589 91.2324 80.3421Z" fill="#AC6E22"/>
<path d="M95.2301 105.486C95.2831 105.573 95.2753 105.712 95.2232 105.859L95.1762 105.937L91.6836 107.953L91.8452 105.053L94.0277 103.793L95.2301 105.486" fill="#ADA28B"/>
<path d="M88.1351 106.892L85.738 108.276C85.559 108.38 85.4139 108.396 85.3027 108.326L86.8128 105.017L88.8249 105.368L88.1351 106.892" fill="#ADA28B"/>
<path d="M91.1491 102.11L88.0682 104.653L87.5947 101.495L88.3645 101.629L89.7459 98.609C89.9996 98.0547 90.4114 97.5691 90.8398 97.3224L93.1117 96.0104L90.3819 101.977L91.1491 102.11" fill="#ADA28B"/>
<path d="M91.5986 99.8002L92.8801 96.9592C92.9792 96.7333 93.133 96.5613 93.2815 96.4753L93.2972 96.4666L93.371 96.4405L94.9471 98.6569L92.7611 101.432L91.5986 99.8002" fill="#ADA28B"/>
<path d="M93.1367 104.183L94.0038 100.251L96.9969 99.2868L96.1619 100.346L96.9239 101.408C97.1454 101.715 97.1307 102.278 96.8839 102.874L95.7519 105.608L93.9716 103.123L93.1367 104.183" fill="#ADA28B"/>
<path d="M89.2423 106.551L89.3031 105.443L91.3631 106.735L89.0182 110.57L89.0799 109.46L86.8939 110.722C86.4647 110.97 86.0868 110.925 85.9052 110.607L84.9912 109.005L89.2423 106.551Z" fill="#ADA28B"/>
<path d="M55.9307 77.6357L58.2304 80.634L59.4025 79.641L55.9307 77.6357Z" fill="#945D19"/>
<path d="M62.4619 81.4072L64.7634 84.4055L65.9355 83.4125L62.4619 81.4072Z" fill="#945D19"/>
<path d="M54.9648 77.0788L57.2646 80.0763L58.2299 80.634L55.9301 77.6357L54.9648 77.0788Z" fill="#B67429"/>
<path d="M61.4971 80.8503L63.7977 83.8477L64.763 84.4055L62.4615 81.4072L61.4971 80.8503" fill="#B67429"/>
<path d="M58.8777 123.031C58.8777 120.869 57.3512 118.234 55.4668 117.146C54.518 116.599 53.6613 116.549 53.0436 116.909L53.0419 116.908L51.5605 117.856L56.584 126.048L57.8777 125.222C58.4963 124.87 58.8777 124.112 58.8777 123.031Z" fill="#1C1E28"/>
<path d="M57.4868 123.92C57.4868 126.082 55.9585 126.953 54.0749 125.866C52.1905 124.777 50.6631 122.143 50.6631 119.981C50.6631 117.819 52.1905 116.948 54.0749 118.036C55.9585 119.124 57.4868 121.759 57.4868 123.92" fill="#2D2F3A"/>
<path d="M56.5212 123.363C56.5212 124.913 55.4256 125.538 54.0746 124.758C52.7236 123.978 51.6289 122.088 51.6289 120.538C51.6289 118.988 52.7236 118.363 54.0746 119.144C55.4256 119.924 56.5212 121.813 56.5212 123.363" fill="#C2BCAE"/>
<path d="M53.625 67.8633L53.6485 67.9067L53.7553 68.0909C53.7901 68.2838 53.9065 68.4863 54.0568 68.6122L54.0585 68.6131L54.1115 68.7052L54.1802 68.8216L54.1889 68.8381H54.1897L54.2314 68.8147L60.0282 65.5505L60.1533 65.4802C60.2271 65.4428 60.2741 65.3576 60.2793 65.236V65.2108C60.2758 64.9536 60.0942 64.6461 59.8727 64.5236C59.7728 64.4671 59.6824 64.4584 59.6129 64.4897H59.6112L59.579 64.5088L53.6719 67.8373L53.625 67.8633" fill="#F9DC46"/>
<path d="M53.5294 68.1144V68.1257C53.5354 68.3464 53.6718 68.6018 53.8508 68.7452L53.8517 68.746L53.9351 68.8025L54.088 68.8529H54.0889L54.1897 68.8381H54.1905L54.2322 68.8147C54.2939 68.7678 54.3321 68.68 54.3304 68.5618L54.3174 68.4463C54.2739 68.2187 54.1132 67.9789 53.9238 67.8737C53.8282 67.8199 53.7414 67.8095 53.6727 67.8373L53.6258 67.8633C53.5641 67.9111 53.5276 67.9971 53.5294 68.1144" fill="#C18A28"/>
<path d="M53.5293 68.1604C53.5319 68.3915 53.69 68.6687 53.8864 68.7912L53.8873 68.793L53.9107 68.806L54.0879 68.8529H54.0888L54.1809 68.8216C54.2435 68.7791 54.2817 68.6956 54.28 68.5801L54.2687 68.4767C54.2287 68.2612 54.0784 68.0336 53.8994 67.9346C53.803 67.8807 53.7152 67.8746 53.6492 67.9067C53.5823 67.9398 53.5371 68.0154 53.5293 68.1231V68.1257V68.1604" fill="#B57425"/>
<path d="M68.5391 59.3819L68.5634 59.4253L68.6703 59.6095C68.7041 59.8024 68.8214 60.0048 68.9717 60.1308L68.9735 60.1317L69.0265 60.2238L69.0942 60.341L69.1038 60.3567H69.1047L69.1455 60.3332L74.9423 57.0691L75.0674 56.9987C75.1421 56.9614 75.189 56.8762 75.1934 56.7546V56.7294C75.1907 56.4731 75.0092 56.1646 74.7876 56.0421C74.6877 55.9856 74.5965 55.9779 74.527 56.0083L74.5261 56.0091L74.494 56.0274L68.5869 59.3558L68.5391 59.3819" fill="#F9DC46"/>
<path d="M68.4434 59.6339L68.4442 59.6417V59.6442C68.4503 59.8649 68.5867 60.1213 68.7648 60.2637L68.7657 60.2646L68.85 60.3211L69.002 60.3715H69.0038L69.1045 60.3567H69.1054L69.1462 60.3332C69.2088 60.2863 69.2462 60.1994 69.2453 60.0804L69.2314 59.9657C69.1879 59.7381 69.0272 59.4974 68.8378 59.3923C68.7422 59.3393 68.6554 59.3289 68.5876 59.3558L68.5398 59.3819C68.4781 59.4296 68.4425 59.5157 68.4434 59.6339" fill="#C18A28"/>
<path d="M68.4434 59.679C68.446 59.911 68.6049 60.1873 68.8004 60.3098L68.8022 60.3115L68.8248 60.3245L69.002 60.3715H69.0037L69.095 60.341C69.1575 60.2985 69.1957 60.2151 69.1949 60.0986L69.1836 59.9953C69.1436 59.7798 68.9924 59.553 68.8143 59.4531C68.7179 59.4001 68.6293 59.3932 68.5641 59.4253C68.4963 59.4583 68.4512 59.5331 68.4442 59.6417V59.6442L68.4434 59.679Z" fill="#B57425"/>
<path d="M97.2892 41.9273C97.1154 40.7414 96.7887 39.5832 96.4151 38.4433C96.2848 38.048 96.4899 37.6197 96.8791 37.4694H96.88C97.3013 37.3052 97.7722 37.5302 97.913 37.9603C98.3126 39.1749 98.6567 40.4112 98.8435 41.6762C98.9104 42.1193 98.6011 42.5311 98.1563 42.5833H98.1545C97.7366 42.6319 97.3509 42.3435 97.2892 41.9273" fill="white"/>
<path d="M96.9051 49.8917L97.0293 49.4486L97.0458 49.3747L97.2613 48.1584L97.3664 47.5702L97.3768 47.4938L97.4246 46.8977L97.4655 46.3773C97.4993 45.9586 97.8564 45.6406 98.2752 45.6536H98.2761C98.7244 45.6684 99.0702 46.055 99.0345 46.5015L98.9911 47.0498L98.9381 47.6971L98.9285 47.77L98.8156 48.4095L98.581 49.7249L98.5645 49.797L98.4212 50.3139C98.303 50.7371 97.8625 50.982 97.4403 50.8578C97.0285 50.7362 96.7895 50.3061 96.9051 49.8917Z" fill="white"/>
<path d="M93.5505 58.1941C93.2221 57.9248 93.1665 57.4444 93.4263 57.1073C93.7886 56.6364 94.1431 56.1594 94.4376 55.6407C94.6522 55.2749 94.9128 54.9352 95.0901 54.5486L95.3177 54.0933C95.5088 53.7119 95.9667 53.552 96.3525 53.731C96.7547 53.9178 96.9233 54.4 96.726 54.7962L96.4741 55.2992C96.2804 55.7154 96.0041 56.0838 95.7712 56.4774C95.4506 57.0386 95.0675 57.5564 94.6748 58.0664C94.4037 58.4192 93.8946 58.4774 93.5514 58.195L93.5505 58.1941Z" fill="white"/>
<path d="M87.1001 63.421C86.9047 63.0466 87.0402 62.5861 87.4051 62.3758L87.8551 62.1169C88.0376 62.0092 88.2279 61.9128 88.4042 61.7955L88.9212 61.4245L89.9247 60.7077L89.9855 60.6591L90.3304 60.3567C90.6536 60.0726 91.1436 60.1013 91.4321 60.4201C91.7266 60.7459 91.6979 61.2499 91.3669 61.5401L90.9638 61.8928L90.9038 61.9406L89.8195 62.7182L89.26 63.117C89.0689 63.2429 88.8656 63.3489 88.6692 63.4653L88.1896 63.7408C87.8013 63.9632 87.306 63.8181 87.1001 63.4219V63.421" fill="white"/>
<path d="M79.1207 65.7156C79.0868 65.2916 79.3961 64.9171 79.8184 64.8711C80.4092 64.8068 81 64.7425 81.5751 64.5844L82.7793 64.315L82.8549 64.2942L83.2893 64.15C83.6985 64.0144 84.1399 64.2325 84.2806 64.6391C84.424 65.0544 84.1998 65.5062 83.7828 65.6443L83.2745 65.812L83.2015 65.832L81.8992 66.1257C81.2745 66.2933 80.6333 66.3655 79.9921 66.4358C79.5499 66.4845 79.1555 66.1595 79.1207 65.7164V65.7156" fill="white"/>
<path d="M70.8811 64.7016C71.014 64.3054 71.4345 64.083 71.8376 64.1942C72.007 64.2403 72.1765 64.2872 72.345 64.3358L72.9584 64.5079C73.1635 64.5617 73.3746 64.5861 73.5831 64.6269L74.8368 64.8511C74.9984 64.8719 75.1617 64.8875 75.3242 64.9006C75.7551 64.9362 76.0792 65.3081 76.0488 65.739V65.7399C76.0184 66.176 75.6378 66.5053 75.2026 66.4697C75.0097 66.454 74.8177 66.4367 74.6257 66.4106L73.2747 66.1708C73.0505 66.1265 72.822 66.0987 72.6004 66.0414L71.9402 65.8572C71.7647 65.8068 71.59 65.759 71.4154 65.7103C70.981 65.5904 70.7377 65.1299 70.8811 64.7025V64.7016" fill="white"/>
<path d="M63.686 60.554C63.9588 60.2447 64.4244 60.1995 64.752 60.4515C64.8953 60.5609 65.0404 60.6687 65.1821 60.7799C65.5235 61.0319 65.8432 61.3133 66.2012 61.541C66.7129 61.8494 67.2081 62.1883 67.7277 62.4819C68.0943 62.6896 68.2342 63.1457 68.0431 63.521L68.0413 63.5237C67.8406 63.919 67.3472 64.0762 66.9614 63.8573C66.401 63.541 65.8658 63.1778 65.3159 62.8425C64.9301 62.5966 64.5834 62.2951 64.2151 62.0232C64.0769 61.9137 63.9344 61.8077 63.7946 61.7C63.4331 61.422 63.3827 60.8955 63.6851 60.554H63.686" fill="white"/>
<path d="M59.4017 53.5781C59.4911 53.7701 59.5676 53.9691 59.6666 54.1568L59.9846 54.7084L60.598 55.7797L60.6397 55.844L61.3556 56.8484C61.4547 56.9917 61.5546 57.1342 61.6588 57.2732C61.9091 57.6112 61.8613 58.0821 61.5398 58.3523L61.5381 58.3532C61.1914 58.6451 60.6693 58.5825 60.3991 58.2185C60.2922 58.0743 60.1897 57.9283 60.0863 57.7815L59.313 56.6929L59.2731 56.6294L58.6067 55.4721L58.2652 54.8761C58.1592 54.6737 58.0758 54.4609 57.9785 54.2532L59.4017 53.5781" fill="white"/>
<path d="M56.696 45.8501C57.1156 45.8318 57.4675 46.1481 57.5101 46.5668C57.5283 46.7397 57.55 46.9118 57.5726 47.0846L57.7203 48.3097L57.7334 48.3853L58.0018 49.5903L58.1391 50.2115C58.1921 50.4166 58.2686 50.6155 58.3329 50.818L56.8272 51.2776C56.7585 51.0604 56.6769 50.8449 56.6195 50.6242L56.4701 49.9544L56.1817 48.6503L56.1686 48.5764L56.007 47.2506C55.9836 47.0725 55.9618 46.8952 55.9436 46.7171C55.8976 46.2662 56.2407 45.8692 56.6942 45.8501H56.696" fill="white"/>
<path d="M58.0174 37.6484C58.4118 37.7969 58.616 38.2279 58.4848 38.6284C58.2989 39.1957 58.1607 39.7796 57.9913 40.3521C57.8801 40.7613 57.8332 41.1853 57.7506 41.6015C57.7202 41.7796 57.6855 41.9568 57.6542 42.1341C57.5821 42.5407 57.2076 42.8213 56.7967 42.777C56.3431 42.7284 56.0252 42.3061 56.1051 41.8569C56.1364 41.6831 56.1694 41.5085 56.198 41.3339C56.2875 40.8856 56.3414 40.4286 56.4596 39.9872C56.6403 39.3686 56.7906 38.7405 56.9922 38.1288C57.1303 37.7066 57.5995 37.4911 58.0148 37.6475L58.0174 37.6484" fill="white"/>
<path d="M62.4375 30.6153C62.7503 30.9133 62.7625 31.4068 62.4671 31.723C62.3559 31.8429 62.2455 31.9645 62.1404 32.0888L61.3654 33.0992C61.2394 33.2695 61.0996 33.4294 60.984 33.6075L60.6478 34.1478C60.5548 34.2982 60.4618 34.4459 60.3671 34.5944C60.1439 34.948 59.6843 35.0671 59.3185 34.8638L59.3176 34.8629C58.9241 34.6439 58.7937 34.14 59.0335 33.7578C59.13 33.6049 59.2273 33.4511 59.322 33.2973L59.6869 32.716C59.812 32.524 59.9614 32.3494 60.097 32.1652L60.9345 31.0775C61.0587 30.9298 61.189 30.7872 61.3202 30.6456C61.6182 30.3259 62.1213 30.3129 62.4375 30.6144V30.6153" fill="white"/>
<path d="M68.8605 26.9114L68.4409 27.0974L68.3714 27.1321L67.301 27.7446C66.7693 28.0157 66.2897 28.3667 65.8093 28.7169C65.4652 28.9671 64.9856 28.8984 64.725 28.5631L64.7241 28.5622C64.4513 28.2112 64.5234 27.7047 64.884 27.4432C65.4044 27.0635 65.9265 26.6847 66.5008 26.3884L67.6616 25.7272L67.7293 25.6933L68.2176 25.4744C68.6181 25.2954 69.0882 25.4779 69.2628 25.881C69.4322 26.2772 69.2532 26.7351 68.8605 26.9114" fill="white"/>
<path d="M76.6177 24.9697L76.1607 24.9784L76.0816 24.9836L74.8575 25.1296L74.225 25.2043C74.0156 25.2364 73.8106 25.2929 73.6038 25.3355L73.0972 25.4484C72.6854 25.5388 72.2745 25.2894 72.1659 24.882C72.0521 24.4493 72.3197 24.0079 72.7558 23.9115L73.2962 23.7916C73.5204 23.7447 73.7419 23.6865 73.9678 23.6509L74.6498 23.5692L75.9748 23.4128L76.0512 23.4076L76.5873 23.3972C77.0261 23.3885 77.3875 23.7404 77.3901 24.1791C77.3918 24.6092 77.0478 24.9611 76.6177 24.9697" fill="white"/>
<path d="M85.5326 25.8072C85.3684 26.1999 84.921 26.3902 84.5239 26.2373L84.0487 26.054C83.6577 25.888 83.2363 25.8124 82.8315 25.6865C82.2632 25.5014 81.6811 25.3884 81.0947 25.2842C80.6768 25.2103 80.3927 24.8176 80.4535 24.398V24.3962C80.5187 23.9566 80.9331 23.6569 81.371 23.7342C82.0061 23.8471 82.6377 23.9714 83.252 24.1695C83.689 24.3041 84.1425 24.3893 84.5656 24.5665L85.0895 24.769C85.5039 24.928 85.7038 25.398 85.5326 25.8072Z" fill="white"/>
<path d="M92.3973 30.4798C92.0959 30.7735 91.618 30.7778 91.3113 30.4911L90.929 30.1349L90.4929 29.7265L90.4338 29.6761L89.9594 29.313L88.9811 28.5597L88.9186 28.5163L88.5285 28.2721C88.1636 28.0436 88.0506 27.5658 88.2731 27.1983C88.5007 26.8221 88.9924 26.7057 89.3643 26.9394L89.8187 27.2243L89.8786 27.266L90.9386 28.0801L91.4538 28.4763L91.5094 28.5232L91.9855 28.9663L92.386 29.3416C92.7136 29.6483 92.7188 30.167 92.3973 30.4798Z" fill="white"/>
<path d="M95.8797 37.0619C95.3888 35.9672 94.8493 34.8916 94.1785 33.8977C93.9439 33.5493 94.0343 33.0749 94.3766 32.8299L94.3775 32.829C94.7415 32.5675 95.2472 32.6648 95.4974 33.0358C96.2107 34.0966 96.7893 35.2426 97.3132 36.4094C97.4983 36.8212 97.3019 37.3052 96.8805 37.4694H96.8797C96.4904 37.6197 96.0508 37.4416 95.8797 37.0619Z" fill="white"/>
<path d="M68.9175 47.3305L52.2353 45.2801L51.7722 49.0516L51.7713 49.0603L51.7696 49.0716H51.7704C51.6332 50.3001 52.3022 51.6294 53.8139 52.7684C56.8504 55.0569 62.1302 55.7146 65.6072 54.2393C67.3536 53.4982 68.3119 52.3601 68.4509 51.1211H68.4518L68.9175 47.3305" fill="#5B9AD8"/>
<path d="M63.1807 54.3348C63.1807 54.3348 63.4613 52.0542 63.5334 51.4634C65.7923 51.2784 66.8992 50.3635 66.8992 50.3635C66.8992 50.3635 66.6194 52.645 66.5543 53.168C65.2815 54.0525 63.1807 54.3348 63.1807 54.3348Z" fill="#69BBEA"/>
<path d="M65.629 54.0638C62.1511 55.5391 56.8713 54.8814 53.8356 52.5929C52.3239 51.4539 51.6549 50.1246 51.7922 48.8961H51.7913L51.7922 48.8848L51.7939 48.8761L52.2353 45.2801L51.7722 49.0516L51.7713 49.0603L51.7696 49.0716H51.7704C51.6332 50.3001 52.3022 51.6294 53.813 52.7684C56.8496 55.0569 62.1302 55.7146 65.6081 54.2393C67.3536 53.4982 68.3119 52.3601 68.4509 51.1211H68.4518L68.4735 50.9456H68.4717C68.3336 52.1846 67.3753 53.3227 65.629 54.0638" fill="url(#paint3_linear)"/>
<path d="M61.7674 51.4192C59.0506 51.4192 56.1948 50.6225 54.2556 49.1612C52.7439 48.0213 52.0749 46.6928 52.213 45.4643H52.2113L52.2122 45.4548L52.213 45.453V45.4522L52.2139 45.4443L52.2304 45.3079C52.1062 46.5295 52.7778 47.8466 54.2782 48.9778C56.2183 50.4392 59.0732 51.2359 61.79 51.2359C63.3252 51.2359 64.8161 50.9813 66.0724 50.4479C67.7857 49.7215 68.7414 48.612 68.9082 47.3992L68.8943 47.5139H68.8935H68.8926C68.7545 48.7528 67.7953 49.8909 66.049 50.632C64.7935 51.1646 63.3026 51.4192 61.7674 51.4192Z" fill="url(#paint4_linear)"/>
<path d="M66.0725 50.4478C69.5504 48.9725 69.9084 45.9203 66.8727 43.6327C63.8362 41.3451 58.5555 40.6857 55.0776 42.1618C51.5997 43.6379 51.2418 46.6892 54.2783 48.9777C57.3148 51.2653 62.5947 51.9239 66.0725 50.4478Z" fill="#EDEDF3"/>
<path d="M65.867 50.2932C69.2146 48.8726 69.5595 45.9352 66.6377 43.7327C63.7158 41.5303 58.6324 40.8969 55.2857 42.3174C51.9381 43.7379 51.5941 46.6746 54.5159 48.877C57.4378 51.0795 62.5203 51.7137 65.867 50.2932Z" fill="#CCCCD6"/>
<path d="M66.3643 44.029C63.5615 41.916 58.6883 41.3087 55.4771 42.671C52.2677 44.0333 51.9367 46.85 54.7395 48.9613C55.9654 49.8857 57.5875 50.5217 59.2939 50.831C59.5076 50.8692 59.723 50.9014 59.9394 50.93C61.9377 51.1924 63.9959 51.0108 65.6258 50.3193C68.8352 48.957 69.1662 46.1402 66.3643 44.029" fill="#E8E7F2"/>
<path d="M65.8426 44.5599C63.2727 42.6241 58.8043 42.0664 55.8608 43.3148C52.9172 44.5642 52.614 47.1472 55.184 49.0838C57.7522 51.0204 62.2222 51.5773 65.1658 50.3288C68.1094 49.0795 68.4117 46.4973 65.8426 44.5599Z" fill="#CCCCD6"/>
<path d="M65.0192 50.0595C67.8585 48.8535 68.1513 46.3618 65.6726 44.4938C63.193 42.625 58.881 42.088 56.0417 43.2922C53.2007 44.4973 52.9088 46.989 55.3884 48.8579C57.8671 50.7267 62.1791 51.2645 65.0192 50.0595Z" fill="#EDEDF3"/>
<path d="M60.1339 50.2567C58.3676 50.0395 56.7595 49.4409 55.6048 48.5704C54.5075 47.7432 53.9662 46.7797 54.0791 45.8579C54.1912 44.9448 54.9375 44.1516 56.1817 43.6242C57.4927 43.0681 59.1774 42.8805 60.9272 43.0951C62.6926 43.3123 64.3017 43.9109 65.4563 44.7814C66.5528 45.6086 67.0958 46.5721 66.982 47.493C66.8699 48.4062 66.1218 49.1994 64.8786 49.7276C63.5684 50.2837 61.8829 50.4713 60.1348 50.2567H60.1339" fill="#C5C5C3"/>
<path d="M60.1329 50.2566C58.3961 50.0429 56.8131 49.453 55.6776 48.5972C54.5985 47.784 54.065 46.8361 54.1754 45.9291C54.2857 45.0307 55.0216 44.2505 56.2449 43.731C57.5342 43.1845 59.1919 42.9994 60.9131 43.2114C62.6498 43.4243 64.232 44.0133 65.3693 44.87C66.4483 45.6832 66.9818 46.6311 66.8706 47.5381C66.7602 48.4365 66.0243 49.2158 64.801 49.7354C63.5117 50.2827 61.854 50.4678 60.1337 50.2566H60.1329Z" fill="#E8E7F2"/>
<path d="M64.6309 45.1054C62.643 43.6067 59.186 43.1758 56.9088 44.1419C54.6325 45.1089 54.3971 47.1063 56.3849 48.6041C58.3728 50.1028 61.8307 50.5338 64.1079 49.5676C66.3842 48.6015 66.6196 46.6032 64.6309 45.1054" fill="#CCCCD6"/>
<path d="M64.0209 49.3062C66.2286 48.3697 66.4562 46.4322 64.5292 44.9787C62.6021 43.526 59.2485 43.1081 57.0408 44.0455C54.8323 44.9821 54.6055 46.9196 56.5326 48.3723C58.4605 49.8258 61.8133 50.2428 64.0209 49.3062Z" fill="#EDEDF3"/>
<path d="M60.2317 49.38C58.8738 49.2124 57.6357 48.7527 56.7486 48.0846C55.9198 47.4591 55.5105 46.7371 55.5948 46.0499C55.6782 45.3696 56.2412 44.7753 57.1804 44.3774C58.1874 43.9499 59.4828 43.8057 60.8286 43.9716C62.1883 44.1385 63.4255 44.598 64.3117 45.267C65.1405 45.8917 65.5515 46.6146 65.4664 47.3018C65.3838 47.9821 64.82 48.5764 63.8799 48.9743C62.8747 49.4017 61.5793 49.5451 60.2326 49.38H60.2317" fill="#C5C5C3"/>
<path d="M60.2309 49.38C58.9033 49.2167 57.6939 48.7675 56.8277 48.1141C56.0171 47.5034 55.6166 46.797 55.6991 46.1254C55.7816 45.4608 56.3316 44.8804 57.25 44.4903C58.2326 44.0741 59.4985 43.9325 60.8147 44.0941C62.1431 44.2574 63.3517 44.7075 64.2187 45.36C65.0294 45.9716 65.429 46.6771 65.3473 47.3487C65.2648 48.0133 64.7148 48.5946 63.7965 48.9838C62.8139 49.4009 61.548 49.5416 60.2317 49.38H60.2309" fill="#E8E7F2"/>
<path d="M60.2744 48.9726C59.1857 48.838 58.1935 48.4696 57.4828 47.9344C56.8182 47.4331 56.4898 46.8535 56.5576 46.3027C56.6245 45.7571 57.0754 45.2818 57.8286 44.9612C58.6349 44.6198 59.674 44.5043 60.754 44.6363C61.8435 44.771 62.8339 45.1394 63.5446 45.6754C64.2101 46.1759 64.5385 46.7554 64.4707 47.3062C64.4038 47.8518 63.9521 48.3279 63.1988 48.6477C62.3925 48.99 61.3543 49.1047 60.2752 48.9726H60.2744" fill="#CCCCD6"/>
<path d="M60.3054 48.7145C59.281 48.5886 58.3479 48.2419 57.6789 47.738C57.0551 47.2671 56.7458 46.7223 56.8101 46.2037C56.8726 45.6911 57.2966 45.2436 58.0056 44.943C58.7641 44.6207 59.7406 44.5121 60.7563 44.6372C61.7797 44.7631 62.712 45.1098 63.381 45.6137C64.0065 46.0846 64.315 46.6294 64.2515 47.1472C64.189 47.6598 63.765 48.1081 63.056 48.4087C62.2976 48.7302 61.321 48.8388 60.3054 48.7145Z" fill="#EDEDF3"/>
<path d="M66.3049 44.9438C66.1624 44.8135 66.0078 44.6849 65.8418 44.5598C65.6376 44.4069 65.4222 44.2618 65.1963 44.1254C65.2145 44.1246 65.2336 44.1245 65.2519 44.1245C65.4804 44.1245 65.708 44.1845 65.8566 44.2957L66.1893 44.5468C66.3301 44.6493 66.3701 44.7796 66.3223 44.8987L66.3205 44.916C66.3153 44.9247 66.3101 44.9343 66.3049 44.9438" fill="#BCBCC6"/>
<path d="M66.2612 44.9994C66.0865 44.8265 65.8902 44.658 65.6721 44.4938C65.5027 44.366 65.3246 44.2444 65.1387 44.1297C65.1578 44.128 65.1769 44.1263 65.196 44.1254C65.4219 44.2618 65.6374 44.4069 65.8415 44.5598C66.0075 44.6849 66.1621 44.8135 66.3046 44.9438C66.2925 44.9629 66.2777 44.9811 66.2612 44.9994" fill="#A6A7AF"/>
<path d="M65.9441 45.1932C65.7964 45.0525 65.633 44.9152 65.4558 44.7814C65.209 44.5955 64.9432 44.4226 64.6582 44.2627L64.8693 44.1862C64.9536 44.1558 65.0448 44.1376 65.1387 44.1298C65.3246 44.2445 65.5027 44.3661 65.6721 44.4938C65.8902 44.658 66.0865 44.8266 66.2612 44.9994C66.2221 45.0429 66.1691 45.082 66.1022 45.1159L65.9441 45.1932Z" fill="#C1C1C4"/>
<path d="M65.8259 45.2515C65.6869 45.1211 65.5349 44.9943 65.3698 44.87C65.1057 44.6711 64.8172 44.4869 64.5088 44.3175L64.6591 44.2627C64.9441 44.4226 65.2099 44.5955 65.4567 44.7814C65.6339 44.9152 65.7973 45.0525 65.9449 45.1933L65.8259 45.2515Z" fill="#A2A2A1"/>
<path d="M65.1723 45.5693C65.0576 45.439 64.929 45.3113 64.7839 45.1862C64.8143 45.194 64.8465 45.2001 64.8804 45.2045C64.909 45.2079 64.9385 45.2097 64.9681 45.2097C65.0532 45.2097 65.1392 45.1949 65.214 45.1662L65.346 45.0689L65.2765 44.9864L65.0741 44.8308C65.0115 44.7831 64.9299 44.7561 64.8343 44.744C64.8065 44.7414 64.7795 44.7396 64.7517 44.7396C64.6675 44.7396 64.5841 44.7553 64.512 44.7848L64.3877 44.8769C64.2226 44.7614 64.0497 44.6528 63.8682 44.5511L64.5076 44.3174C64.8161 44.4868 65.1045 44.671 65.3686 44.87C65.5337 44.9942 65.6857 45.1211 65.8247 45.2514L65.1723 45.5693" fill="#BCBCC6"/>
<path d="M64.8362 45.7336C64.6868 45.5729 64.5113 45.4174 64.3115 45.2671C64.0421 45.0638 63.7406 44.8796 63.4131 44.718L63.8692 44.5512C64.0508 44.6528 64.2237 44.7614 64.3888 44.877L64.381 44.8822L64.4505 44.9699L64.6529 45.1255C64.6885 45.1515 64.7346 45.1715 64.785 45.1863C64.93 45.3114 65.0586 45.4391 65.1733 45.5694L64.8362 45.7336" fill="#C1C1C4"/>
<path d="M64.7109 45.7944C64.6301 45.7102 64.5432 45.6276 64.4485 45.5459L64.4789 45.519L64.3842 45.4052L64.1149 45.2019C64.0393 45.1419 63.9333 45.1054 63.8247 45.0915C63.6423 44.9795 63.4485 44.8744 63.2461 44.7788L63.4129 44.718C63.7404 44.8796 64.0419 45.0637 64.3113 45.267C64.5111 45.4173 64.6866 45.5729 64.836 45.7336L64.7109 45.7944" fill="#A2A2A1"/>
<path d="M63.9902 46.0751C63.865 45.9378 63.7156 45.804 63.5444 45.6754C63.2716 45.4695 62.9571 45.2879 62.6113 45.135C62.6374 45.049 62.7234 44.969 62.8641 44.9178L63.2456 44.7788C63.448 44.8744 63.6417 44.9795 63.8242 45.0915C63.7947 45.0889 63.7651 45.0872 63.7356 45.0872C63.6635 45.0872 63.594 45.0977 63.5332 45.1194L63.3003 45.2036L63.163 45.3062L63.2621 45.4269L63.5479 45.6433C63.6487 45.7154 63.7938 45.7562 63.9302 45.7562C64.0136 45.7562 64.0953 45.7406 64.1604 45.7076L64.3759 45.6085L64.448 45.5459C64.5427 45.6276 64.6296 45.7102 64.7104 45.7944L64.2951 45.9969C64.2056 46.0412 64.0996 46.0673 63.9902 46.0751" fill="#BCBCC6"/>
<path d="M63.915 46.0785C63.902 46.0785 63.8889 46.0776 63.8759 46.0776C63.743 45.9177 63.5779 45.7622 63.3807 45.6137C63.1513 45.4408 62.8915 45.287 62.6074 45.1532C62.6083 45.1471 62.61 45.141 62.6118 45.1349C62.9576 45.2878 63.2721 45.4694 63.5449 45.6753C63.716 45.8039 63.8655 45.9377 63.9906 46.075C63.9654 46.0776 63.9402 46.0785 63.915 46.0785" fill="#A6A7AF"/>
<path d="M63.8757 46.0776C63.7089 46.0707 63.5456 46.0246 63.4326 45.9421L62.7254 45.406L62.609 45.2383C62.602 45.2097 62.602 45.1819 62.6072 45.1532C62.8913 45.287 63.1511 45.4408 63.3805 45.6137C63.5777 45.7623 63.7428 45.9178 63.8757 46.0776Z" fill="#C1C1C4"/>
<path d="M63.3311 44.9604L63.5631 44.8752C63.7412 44.8118 63.9992 44.8431 64.1443 44.9577L64.4145 45.1611L64.5083 45.2757L64.4067 45.3653L64.1903 45.4634C64.0201 45.5512 63.7403 45.5164 63.5787 45.4L63.292 45.1828L63.1938 45.062L63.3311 44.9604ZM65.3763 44.8248L65.246 44.9221C65.1435 44.9612 65.0235 44.9751 64.9115 44.9612C64.8211 44.9499 64.7403 44.923 64.6821 44.8822L64.4797 44.7258L64.411 44.6389L64.5422 44.5407C64.6378 44.5016 64.7533 44.4869 64.8654 44.5008C64.9601 44.5129 65.0418 44.5398 65.1043 44.5868L65.3077 44.7423L65.3763 44.8248ZM66.3502 44.6719L66.352 44.6554C66.3381 44.5798 66.2912 44.5051 66.2025 44.4382L65.8698 44.1871C65.6361 44.0099 65.2043 43.963 64.8837 44.0768L62.8776 44.8135C62.7525 44.8552 62.6708 44.9247 62.6395 44.9951C62.5874 45.0959 62.6187 45.208 62.7386 45.2966L63.4458 45.8327C63.6595 45.9899 64.0539 46.0151 64.3076 45.8926L66.1157 45.0073C66.2859 44.9204 66.3694 44.7988 66.3502 44.6719Z" fill="#CCCCD6"/>
<path d="M65.2461 44.9222C65.1435 44.9613 65.0236 44.9752 64.9116 44.9612C64.8212 44.95 64.7404 44.923 64.6822 44.8822L64.4798 44.7258L64.4111 44.6389L64.5423 44.5408C64.6379 44.5017 64.7534 44.4869 64.8655 44.5008C64.9602 44.513 65.0419 44.5399 65.1044 44.5868L65.3077 44.7423L65.3764 44.8249L65.2461 44.9222ZM63.2921 45.1828L63.1939 45.062L63.3312 44.9604L63.5631 44.8753C63.7413 44.8118 63.9993 44.8431 64.1444 44.9578L64.4146 45.1611L64.5084 45.2758L64.4068 45.3653L64.1904 45.4635C64.0201 45.5512 63.7404 45.5164 63.5788 45.4L63.2921 45.1828ZM66.22 44.3036L65.8864 44.0525C65.6518 43.8761 65.2209 43.8283 64.8994 43.943L62.8942 44.6737C62.6987 44.7458 62.6092 44.8718 62.6396 44.9951L62.7551 45.162L63.4624 45.698C63.6761 45.8553 64.0705 45.8814 64.3251 45.7528L66.1323 44.8726C66.2417 44.8179 66.313 44.7476 66.3503 44.672L66.3521 44.6554C66.4016 44.5364 66.3608 44.4061 66.22 44.3036" fill="#EDEDF3"/>
<path d="M65.2456 44.9222C65.1431 44.9613 65.0232 44.9752 64.9111 44.9613C64.8208 44.95 64.74 44.9231 64.6818 44.8822L64.4793 44.7258L64.4107 44.6389L64.5419 44.5408C64.6375 44.5017 64.753 44.4869 64.8651 44.5008C64.9598 44.513 65.0415 44.5399 65.104 44.5868L65.3073 44.7423L65.376 44.8249L65.2456 44.9222ZM64.4064 45.3653L64.19 45.4635C64.0197 45.5512 63.74 45.5165 63.5784 45.4L63.2917 45.1828L63.1935 45.0621L63.3308 44.9604L63.5627 44.8753C63.7408 44.8118 63.9989 44.8431 64.144 44.9578L64.4142 45.1611L64.508 45.2758L64.4064 45.3653ZM65.6418 44.5625L65.2874 44.2975C65.1266 44.175 64.8295 44.1385 64.6097 44.2202L62.9589 44.7953C62.8764 44.8249 62.819 44.8744 62.8008 44.9291L62.8712 45.0916L63.6157 45.6485C63.6783 45.6963 63.7652 45.7241 63.8677 45.7311C63.9685 45.7371 64.0615 45.7206 64.1396 45.685L65.5819 44.9526C65.7765 44.8518 65.8034 44.6789 65.6418 44.5625" fill="#CCCCD6"/>
<path d="M64.5087 45.2758L64.4149 45.1611L64.1447 44.9578C63.9996 44.8431 63.7416 44.8118 63.5635 44.8752L63.3315 44.9604L63.1942 45.062C63.1603 44.9673 63.2168 44.8778 63.348 44.8257L63.5808 44.7406C63.7589 44.6771 64.0161 44.7093 64.1612 44.8231L64.4314 45.0273C64.5357 45.1029 64.5591 45.1958 64.5087 45.2758" fill="#CCCCD6"/>
<path d="M65.3768 44.8248L65.3082 44.7423L65.1048 44.5868C65.0423 44.5398 64.9606 44.5129 64.8659 44.5008C64.7538 44.4869 64.6383 44.5016 64.5427 44.5407L64.4115 44.6389C64.3768 44.5546 64.4324 44.4652 64.5592 44.4061C64.6548 44.367 64.7703 44.3531 64.8824 44.3661C64.9771 44.3783 65.0597 44.4052 65.1214 44.453L65.3238 44.6085C65.4133 44.671 65.4263 44.7518 65.3768 44.8248" fill="#CCCCD6"/>
<path d="M65.6279 44.1967C65.7156 44.1593 65.8468 44.1758 65.9233 44.2332C65.9989 44.2905 65.9902 44.367 65.9025 44.4034C65.8164 44.4408 65.6835 44.4243 65.6088 44.367C65.5323 44.3096 65.541 44.2332 65.6279 44.1967Z" fill="#CCCCD6"/>
<path d="M76.3327 62.0665L68.1745 59.7832L66.5186 62.6408L69.4534 66.712L76.8931 65.0674L76.3327 62.0665" fill="#FCFAF9"/>
<path d="M68.07 61.9197L64.5479 65.289L65.3802 68.296L70.0205 68.7208L68.07 61.9197Z" fill="#DDDFEB"/>
<path d="M76.5273 68.541L76.3518 64.898L73.543 65.4706L76.5273 68.541Z" fill="#DDDFEB"/>
<path d="M75.831 65.0179L69.6928 70.7938L66.0742 69.0953L69.4887 64.4427L75.831 65.0179" fill="#A1A6CD"/>
<path d="M71.877 63.9718L70.2236 71.3464L75.2541 72.3412L74.6694 64.9919L71.877 63.9718Z" fill="#FCFAF9"/>
<path d="M72.2611 71.5575L68.1143 65.9119L68.7216 62.9067L74.1951 64.8693L76.9441 69.1969L72.2611 71.5575" fill="#F5EFF8"/>
<path d="M65.0869 64.7747L65.4779 62.1404L67.2147 61.0995L67.6725 58.0891L71.5701 60.3472L65.0869 64.7747" fill="#F5EFF8"/>
<path d="M68.6084 59.6346L70.5398 58.7102L72.8847 60.4982L75.8066 60.5764L75.6285 61.8693L71.9003 61.7824L68.6084 59.6346" fill="#F5EFF8"/>
<path d="M92.2471 48.0264C90.1168 47.6476 86.532 44.9829 87.453 42.0124C89.7692 42.6484 98.9553 44.3313 98.9883 44.8031C99.0743 46.0298 97.3688 48.9378 92.2471 48.0264Z" fill="#49A53B"/>
<path d="M89.3228 38.6606C89.3228 38.6606 89.8884 39.5398 90.0327 39.8526C89.4062 40.6658 88.997 40.8856 88.3584 41.1384C87.7199 41.3895 87.6121 41.6606 87.4531 42.0125C87.5278 43.8214 88.8945 46.0786 92.249 46.9986C95.6027 47.9187 98.4341 46.8874 98.9667 44.9447C99.091 44.4938 98.9711 44.4382 98.8355 44.2645C98.6991 44.0907 97.6322 42.744 97.7677 42.0212C97.991 41.8405 99.1388 41.2584 99.3673 41.1941C99.5958 41.1298 89.3228 38.6606 89.3228 38.6606" fill="#FBC442"/>
<path d="M98.176 43.3304C98.176 43.3304 97.4784 44.7701 92.8945 43.8708C90.3949 43.2896 88.8301 42.3608 88.6207 41.9412C88.1994 41.7231 88.0308 41.7405 88.0308 41.7405C88.0308 41.7405 87.1255 43.432 88.9535 45.1966C90.7806 46.9612 94.5322 47.916 96.838 46.9612C99.1439 46.0064 98.8667 44.5068 98.7182 44.1123C98.5401 43.8691 98.176 43.3304 98.176 43.3304Z" fill="#F3F46F"/>
<path d="M96.3283 46.0724C96.3283 46.0724 95.9782 47.0751 93.2822 46.7501C91.1084 46.4895 90.0389 45.1567 90.4195 45.0333C90.8017 44.91 91.5828 44.6354 93.5698 45.1645C95.5568 45.6945 96.0972 45.7918 96.3283 46.0724" fill="#F7F792"/>
<path d="M101.681 38.657C101.681 38.657 101.781 34.4832 95.9073 32.8629C91.6718 31.6952 88.5528 34.0914 88.1244 35.6535C87.8412 36.6822 88.3347 39.7309 93.7926 41.3686C99.2888 43.0185 101.777 40.28 101.681 38.657Z" fill="#49A53B"/>
<path d="M101.489 38.3139C101.635 39.8152 100.323 41.8925 97.0498 42.1323C93.777 42.3712 89.7769 40.0776 89.028 37.1158C88.2782 34.154 90.5493 33.1583 92.326 32.73C94.1028 32.3016 96.2879 32.9697 96.2879 32.9697C96.2879 32.9697 101.088 34.1826 101.489 38.3139" fill="#56C046"/>
<path d="M98.6296 36.3703C98.3533 37.3807 96.713 37.8125 94.9684 37.3338C93.2238 36.8551 92.0344 35.6474 92.3116 34.6361C92.5879 33.6257 94.2282 33.1947 95.9728 33.6734C97.7182 34.1522 98.9076 35.3598 98.6296 36.3703Z" fill="#53BA44"/>
<path d="M97.7535 35.9029C97.558 36.6153 96.4033 36.9194 95.1748 36.5815C93.9454 36.2444 93.1079 35.3937 93.3025 34.6822C93.498 33.9706 94.6526 33.6666 95.8811 34.0037C97.1105 34.3408 97.9489 35.1913 97.7535 35.9029Z" fill="#50B541"/>
<path d="M96.4602 36.2826C96.4602 36.2826 96.547 36.7353 95.7052 36.7274C94.8633 36.7196 94.4306 36.2766 94.395 36.042C94.3594 35.8074 94.9945 36.2766 95.5271 36.3009C96.0596 36.3243 96.4419 35.929 96.4602 36.2826" fill="#387D33"/>
<path d="M95.3624 35.9386C95.3624 35.9386 95.729 35.8465 95.8341 35.2861C95.9375 34.7257 95.0956 34.7127 95.0339 34.9837C94.9705 35.2548 94.9314 35.737 95.3624 35.9386Z" fill="#65C54A"/>
<path d="M98.218 39.4356C98.8192 38.9178 98.9564 38.2479 98.5307 38.0159C98.1059 37.7831 96.423 38.0342 95.2423 37.7257C94.0607 37.4173 92.8825 36.5024 92.085 36.8247C91.2865 37.1462 91.7826 38.4825 93.0667 39.4382C94.3526 40.3921 96.7201 40.7258 98.218 39.4356Z" fill="#65C54A"/>
<path d="M95.1773 38.3686C95.1773 38.3686 93.7864 37.9881 93.3398 38.0967C92.8941 38.2044 92.9662 38.233 93.034 38.5319C93.1017 38.8317 93.6448 39.373 94.5292 39.6492C95.4128 39.9247 96.5831 39.7578 96.9063 39.386C97.2295 39.015 96.7447 38.8126 96.5353 38.7413C96.3259 38.6692 95.1773 38.3686 95.1773 38.3686Z" fill="#65C54A"/>
<path d="M95.4253 35.4658C95.4253 35.4658 96.1256 32.3555 94.0048 31.2781C93.1421 32.8881 93.5921 35.2347 95.4253 35.4658Z" fill="#65C54A"/>
<path d="M95.1729 36.2349C95.2589 35.7657 95.3909 35.3244 95.5543 34.8839C95.7193 34.4469 95.9209 34.0203 96.1676 33.6145C96.4205 33.2132 96.7228 32.8369 97.0799 32.5051C97.4448 32.1793 97.874 31.9229 98.338 31.7396C98.338 31.7396 98.4596 31.7848 98.4796 32.0029C98.4909 32.1097 98.6238 32.3035 98.5387 32.3321C98.2285 32.4373 97.7758 32.6614 97.4448 32.929C97.1207 33.2027 96.8314 33.5268 96.5812 33.8838C96.3362 34.2461 96.1259 34.6363 95.9496 35.0429C95.7758 35.4486 95.6255 35.8778 95.5265 36.3009C95.5265 36.3009 95.5473 36.3774 95.3753 36.36C95.1781 36.3417 95.1729 36.2349 95.1729 36.2349" fill="#BD624A"/>
<path d="M98.155 31.8855C98.155 31.8855 97.1645 32.2991 96.5459 33.34C97.7197 32.2618 98.36 32.0333 98.36 32.0333C98.36 32.0333 98.168 31.9551 98.2583 31.8751C98.3487 31.7943 98.155 31.8855 98.155 31.8855Z" fill="#DE8756"/>
<path d="M97.8738 63.5695C98.2196 64.3514 98.0502 65.3628 97.2769 66.4071C95.7321 68.4931 92.3785 69.9475 89.7859 69.6495L89.7208 69.6391C88.4636 69.4844 87.6278 68.9371 87.2864 68.1751L87.2759 68.1525C86.9484 67.401 87.1013 66.4401 87.8103 65.4349L87.878 65.3402C89.4228 63.2533 92.7773 61.7997 95.3733 62.096C96.6661 62.242 97.5263 62.7945 97.8738 63.5695" fill="#DDDFEB"/>
<path d="M93.2921 57.2489C91.7482 59.3358 88.3946 60.7876 85.8003 60.4931C83.2051 60.1977 82.3528 58.2663 83.8958 56.1803C85.4397 54.0942 88.7934 52.6424 91.3876 52.937C93.9828 53.2324 94.8351 55.1629 93.2921 57.2489Z" fill="#DDDFEB"/>
<path d="M93.8891 54.4105C94.7727 56.44 88.744 59.6269 85.3704 59.8006C84.3469 59.8571 83.5702 59.6347 83.3017 59.0169C83.1488 58.6659 82.4702 56.7407 83.32 54.8353C83.7909 53.7754 84.7396 52.7154 86.5198 51.9413C91.486 49.7805 93.6276 53.8066 93.8891 54.4105" fill="#DDDFEB"/>
<path d="M89.6183 51.3983C87.6669 51.1759 85.1448 52.268 83.9849 53.8363C82.8241 55.4053 83.4645 56.8571 85.4158 57.0787C87.3672 57.3011 89.8894 56.209 91.0501 54.6408C92.21 53.0717 91.5688 51.6199 89.6183 51.3983" fill="#DDDFEB"/>
<path d="M89.3038 51.1038C87.461 50.8935 85.0796 51.9248 83.9831 53.407C82.8867 54.8883 83.4914 56.2593 85.335 56.4696C87.1778 56.679 89.5601 55.6477 90.6557 54.1655C91.7521 52.6841 91.1465 51.3132 89.3038 51.1038Z" fill="#B9BDD8"/>
<path d="M93.8892 54.4105L97.8736 63.5696L87.2862 68.1752L83.3018 59.017L93.8892 54.4105Z" fill="#DDDFEB"/>
<path d="M95.0738 62.1474C92.6671 61.8737 89.5559 63.2204 88.1241 65.1552C86.6931 67.0901 87.4838 68.8807 89.8904 69.1544C92.2962 69.4281 95.4074 68.0814 96.8392 66.1466C98.2693 64.2117 97.4795 62.421 95.0738 62.1474Z" fill="#B9BDD8"/>
<path d="M89.7206 69.6392C88.4634 69.4845 87.6276 68.9371 87.2861 68.1752L87.6858 68.0014C88.0107 68.5236 88.6154 68.912 89.4651 69.0875C89.5581 69.2881 89.6441 69.4732 89.7206 69.6392Z" fill="#C0C5DA"/>
<path d="M83.3018 59.017C83.2053 58.7963 82.9013 57.9535 82.9004 56.8831C82.8995 56.2524 83.0047 55.5426 83.32 54.8354L83.4373 54.824C83.4373 54.8753 83.4391 54.9248 83.4443 54.9743C83.2705 55.8353 83.6962 56.5547 84.6172 56.8953C84.6033 57.315 84.6502 57.778 84.7979 58.2724L84.824 58.3549L83.3018 59.017" fill="#C0C5DA"/>
<path d="M84.6173 56.8954C83.6963 56.5548 83.2706 55.8354 83.4443 54.9744C83.5017 55.5904 83.93 56.0839 84.6746 56.3289C84.6442 56.507 84.6242 56.6964 84.6173 56.8954" fill="#C0C5DA"/>
<path d="M84.6737 56.3289C83.9291 56.0839 83.5008 55.5903 83.4435 54.9743C83.4383 54.9248 83.4365 54.8753 83.4365 54.824L85.3566 54.6407C85.3566 54.6407 84.851 55.2924 84.6737 56.3289" fill="#A3A8CB"/>
<path d="M87.2862 68.1752L83.3018 59.017L84.8239 58.3549C84.9299 58.6868 85.1211 59.1907 85.3704 59.8007C85.9751 61.2924 86.923 63.4462 87.8101 65.435C87.8274 65.4732 87.8448 65.5114 87.8613 65.5496C87.3131 66.4749 87.2784 67.3437 87.6858 68.0014L87.2862 68.1752" fill="#C0C5DA"/>
<path d="M89.4655 69.0874C88.6158 68.9119 88.0111 68.5235 87.6861 68.0014C87.2786 67.3437 87.3134 66.4749 87.8616 65.5496C88.1761 66.2473 88.4785 66.9188 88.7574 67.5357C89.0197 68.1135 89.2604 68.6408 89.4655 69.0874" fill="#A3A8CB"/>
<path d="M83.0484 54.8258L83.0441 54.8276L83.0215 54.778L82.992 54.7111L82.7539 54.169L82.8816 54.1108C82.8851 53.6546 83.0675 53.1447 83.4559 52.6199C84.6158 51.0517 87.1388 49.9605 89.0893 50.182C89.661 50.2463 90.1163 50.42 90.4499 50.6677L90.6419 50.5808L90.9651 51.2863L90.9747 51.3071L90.979 51.3149H90.9781C91.2266 51.8997 91.0946 52.6477 90.5203 53.4244C89.3595 54.9926 86.8382 56.0847 84.8868 55.8632C83.9581 55.7572 83.3291 55.3697 83.0484 54.8258" fill="#F2566C"/>
<path d="M88.8564 49.6467C86.905 49.4252 84.3837 50.5173 83.223 52.0855C82.0622 53.6546 82.7034 55.1055 84.6539 55.328C86.6053 55.5504 89.1275 54.4574 90.2882 52.8892C91.4481 51.3201 90.8069 49.8692 88.8564 49.6467" fill="#F57B64"/>
<path d="M77.5087 39.4972L62.6867 36.4919L59.0576 25.6673L83.8302 17.4109L87.4602 28.2347L77.5087 39.4972" fill="#8D5E3D"/>
<path d="M83.8285 17.4101L76.3497 25.875L73.8788 28.6743L70.1281 27.9124L59.0576 25.6673L69.0091 14.4066L83.8285 17.4101Z" fill="#CD9F67"/>
<path d="M76.3496 25.875L73.8786 28.6743L70.1279 27.9124L72.5988 25.1165L76.3496 25.875" fill="#D2A875"/>
<path d="M73.8788 28.6734L77.5087 39.4972L62.6867 36.4919L59.0576 25.6673L73.8788 28.6734" fill="#996F51"/>
<path d="M63.4427 29.0575L58.7207 28.1001L59.0569 25.6674L73.8781 28.6735L63.4427 29.0575Z" fill="#FDE09A"/>
<path d="M81.4937 14L86.2158 14.9583L83.83 17.411L69.0088 14.4049L81.4937 14" fill="#DBBC73"/>
<path d="M77.4141 39.2157L73.8789 28.6735L83.8304 17.411L87.3656 27.9532L77.4141 39.2157Z" fill="#CD9F67"/>
<path d="M73.9319 28.8291L73.8789 28.6736L83.8304 17.4111L83.8825 17.5666L73.9319 28.8291" fill="#FBD884"/>
<path d="M73.8789 28.6735L74.3046 29.9429L78.5775 29.1479L84.1762 22.637L83.8304 17.411L73.8789 28.6735" fill="#986C4E"/>
<path d="M81.6922 24.4571L86.74 18.7455L83.8304 17.411L73.8789 28.6735L81.6922 24.4571" fill="#CFAC72"/>
<path d="M58.4343 22.6499L55.2432 26.2616L59.0573 25.6673L69.0087 14.4048L58.4343 22.6499" fill="#FDE09A"/>
<path d="M69.0088 14.4049L72.5988 25.1149L76.2773 25.9594L83.83 17.4111L69.0088 14.4049Z" fill="#996F51"/>
</g>
<defs>
<linearGradient id="paint0_linear" x1="96.8727" y1="102.591" x2="51.9098" y2="102.591" gradientUnits="userSpaceOnUse">
<stop stop-color="#C57C25"/>
<stop offset="0.309182" stop-color="#C57C25"/>
<stop offset="0.416657" stop-color="#C89A2A"/>
<stop offset="0.521622" stop-color="#DDCF2C"/>
<stop offset="0.889574" stop-color="#DAC62B"/>
<stop offset="1" stop-color="#F6AC35"/>
</linearGradient>
<linearGradient id="paint1_linear" x1="100.981" y1="74.9025" x2="46.3415" y2="74.9025" gradientUnits="userSpaceOnUse">
<stop stop-color="#C57C25"/>
<stop offset="0.309182" stop-color="#C57C25"/>
<stop offset="0.416657" stop-color="#C89A2A"/>
<stop offset="0.521622" stop-color="#DDCF2C"/>
<stop offset="0.889574" stop-color="#DAC62B"/>
<stop offset="1" stop-color="#F6AC35"/>
</linearGradient>
<linearGradient id="paint2_linear" x1="58.3955" y1="70.3907" x2="108.253" y2="70.3907" gradientUnits="userSpaceOnUse">
<stop stop-color="#A8661B"/>
<stop offset="0.309182" stop-color="#A8661B"/>
<stop offset="0.416657" stop-color="#B8781F"/>
<stop offset="0.536847" stop-color="#C49229"/>
<stop offset="0.957929" stop-color="#CBA12B"/>
<stop offset="1" stop-color="#CBA12B"/>
</linearGradient>
<linearGradient id="paint3_linear" x1="51.7061" y1="49.5833" x2="68.3889" y2="51.6332" gradientUnits="userSpaceOnUse">
<stop stop-color="#BDC0CB"/>
<stop offset="0.242644" stop-color="#BDC0CB"/>
<stop offset="0.379513" stop-color="#BDC0CB"/>
<stop offset="0.472187" stop-color="#CCCCD6"/>
<stop offset="0.732432" stop-color="#CCCCD6"/>
<stop offset="0.889189" stop-color="#CCCCD6"/>
<stop offset="1" stop-color="#CCCCD6"/>
</linearGradient>
<linearGradient id="paint4_linear" x1="51.9272" y1="47.7797" x2="68.6096" y2="49.8295" gradientUnits="userSpaceOnUse">
<stop stop-color="#BDC0CB"/>
<stop offset="0.242644" stop-color="#BDC0CB"/>
<stop offset="0.379513" stop-color="#BDC0CB"/>
<stop offset="0.472187" stop-color="#CCCCD6"/>
<stop offset="0.732432" stop-color="#CCCCD6"/>
<stop offset="0.889189" stop-color="#CCCCD6"/>
<stop offset="1" stop-color="#CCCCD6"/>
</linearGradient>
<clipPath id="clip0">
<rect width="150" height="150" fill="white"/>
</clipPath>
</defs>
</svg>
