<svg width="150" height="150" viewBox="0 0 150 150" fill="none" xmlns="http://www.w3.org/2000/svg">
<g clip-path="url(#clip0)">
<ellipse cx="78.4077" cy="78.7245" rx="49.5488" ry="71.7058" transform="rotate(9.22935 78.4077 78.7245)" fill="#EAEAEA"/>
<path d="M31.4533 107.505L50.4387 96.4723L49.8232 96.1168L30.8369 107.15L31.4533 107.505" fill="#FAFBFD"/>
<path d="M54.118 120.591L73.1033 109.558L50.4385 96.4723L31.4531 107.506L54.118 120.591Z" fill="#FAFBFD"/>
<path d="M54.8542 121.016L73.8396 109.983L73.1035 109.558L54.1182 120.591L54.8542 121.016Z" fill="#FAFBFD"/>
<path d="M54.8447 124L73.831 112.967L73.8391 109.983L54.8537 121.016L54.8447 124" fill="#E8E8E8"/>
<path d="M30.8362 107.15L30.8281 110.134L54.8446 124L54.8536 121.016L54.1175 120.591L31.4526 107.505L30.8362 107.15Z" fill="#CFD5E3"/>
<path d="M52.5314 119.675L71.5177 108.642L70.9228 98.3701L51.9375 109.403L52.5314 119.675Z" fill="#E8E8E8"/>
<path d="M28.3018 85.1664L33.7099 98.8281L33.0521 108.429L52.5315 119.675L51.9376 109.403C55.6594 111.552 58.629 109.082 58.6443 103.924C58.6452 103.505 58.6227 100.231 58.5858 99.8054L36.9935 90.1849L28.3018 85.1664" fill="#CFD5E3"/>
<path d="M64.779 104.751L75.203 98.6932C76.6833 97.8338 77.6219 95.7857 77.63 92.8908C77.6318 92.4715 77.6084 92.0423 77.5715 91.6175L58.5861 100.075C58.623 100.5 58.6455 103.505 58.6446 103.924C58.6365 106.819 57.6971 108.867 56.2168 109.727L64.779 104.751" fill="#F2F2F2"/>
<path d="M28.3872 59.2638L50.9405 46.1672C50.7246 46.043 50.5203 45.9899 50.3394 46.0016L27.7861 59.0982C27.967 59.0865 28.1713 59.1396 28.3872 59.2638" fill="#E1E4EA"/>
<path d="M27.7862 59.0972L50.3395 46.0006C50.2306 46.0078 50.1307 46.0375 50.0417 46.0888L27.4893 59.1854C27.5774 59.1341 27.6773 59.1044 27.7862 59.0972" fill="#E1E4EA"/>
<path d="M34.5886 62.8452L57.1419 49.7477L50.94 46.1671L28.3867 59.2638L34.5886 62.8452Z" fill="#FAFBFD"/>
<path d="M35.8957 65.2263L58.4481 52.1288C58.449 51.8183 58.3788 51.4863 58.2564 51.1668L35.7031 64.2634C35.8255 64.5829 35.8966 64.915 35.8957 65.2263Z" fill="#F2F2F2"/>
<path d="M35.7027 64.2634L58.256 51.1668C58.175 50.958 58.0724 50.7547 57.9527 50.5666L35.3994 63.6641C35.5191 63.8513 35.6226 64.0547 35.7027 64.2634Z" fill="#F2F2F2"/>
<path d="M35.3996 63.6641L57.953 50.5666C57.7298 50.2183 57.4481 49.925 57.1422 49.7477L34.5889 62.8452C34.8957 63.0216 35.1765 63.3159 35.3996 63.6641Z" fill="#FAFBFD"/>
<path d="M28.3867 59.2638C27.665 58.8472 27.0711 59.2368 27.0684 60.1304L27.0306 73.5375L27.0018 83.5971L27 84.146L27.1368 84.4906L35.8259 89.5065L35.8268 89.2419L35.8286 88.693L35.8574 78.6334L35.8952 65.2263C35.8979 64.3328 35.3112 63.2619 34.5886 62.8453L28.3867 59.2638" fill="#F2F2F2"/>
<path d="M50.2983 96.0278C51.3637 96.6469 52.5443 97.1607 53.7997 97.5674C56.8862 98.5681 60.4298 98.928 63.8484 98.6464L63.861 100.795C60.4416 101.077 56.8988 100.718 53.8114 99.7172C52.5561 99.3096 51.3763 98.7967 50.3109 98.1776L35.7763 89.7305L35.7637 87.5817L50.2983 96.0278Z" fill="#71C6DB"/>
<path d="M63.8486 98.6463L63.8612 100.795C67.1691 100.523 70.3619 99.6506 72.9121 98.1775C76.0625 96.3589 77.6364 93.9706 77.6292 91.586L77.6166 89.4362C77.6238 91.8209 76.0499 94.2091 72.9004 96.0277C70.3493 97.5008 67.1574 98.3737 63.8486 98.6463Z" fill="#71C6DB"/>
<path d="M35.7637 87.5816L50.2983 96.0277C56.5181 99.6425 66.6398 99.6425 72.9002 96.0277C79.1605 92.4138 79.1929 86.5512 72.974 82.9365L58.4394 74.4895L35.7637 87.5816" fill="#89D8E8"/>
<path d="M37.7968 88.7758L35.7722 87.5987L35.7227 70.2484L37.7483 71.4255L37.7968 88.7758Z" fill="#60A8BA"/>
<path d="M49.0306 51.8903L47.0059 50.7133C48.2063 50.0195 49.3635 49.5669 50.4505 49.3374L52.4752 50.5144C51.3891 50.7439 50.231 51.1965 49.0306 51.8903Z" fill="#60A8BA"/>
<path d="M52.4749 50.5145L50.4502 49.3374C52.1185 48.9865 53.6204 49.1638 54.8559 49.8126L56.8806 50.9896C55.6451 50.3408 54.1441 50.1635 52.4749 50.5145Z" fill="#60A8BA"/>
<path d="M56.8811 50.9896L54.8564 49.8126L55.0562 49.9233L57.0818 51.1003L56.8811 50.9896Z" fill="#174969"/>
<path d="M37.7483 71.4255L35.7227 70.2484C35.7146 67.4985 36.4507 64.5199 37.7132 61.6871L39.7388 62.8642C38.4763 65.6969 37.7402 68.6755 37.7483 71.4255Z" fill="#60A8BA"/>
<path d="M39.7385 62.8642L37.7129 61.6872C38.6937 59.487 39.9923 57.375 41.5058 55.5285L43.5305 56.7055C42.017 58.552 40.7193 60.664 39.7385 62.8642Z" fill="#60A8BA"/>
<path d="M43.5306 56.7055L41.5059 55.5285C43.1319 53.5443 45.0081 51.866 47.0058 50.7133L49.0305 51.8903C47.0328 53.0431 45.1575 54.7213 43.5306 56.7055Z" fill="#60A8BA"/>
<path d="M49.0306 51.8903C55.2811 48.2818 60.3608 51.1767 60.3815 58.3585L60.4301 75.7079L37.7967 88.7758L37.7481 71.4255C37.7274 64.2436 42.781 55.4988 49.0306 51.8903Z" fill="#72CFE3"/>
<path d="M44.629 89.8601L42.8428 88.8225L52.0745 94.1866C53.7869 95.1809 56.0087 95.8702 58.4239 96.1969V81.8954L44.629 89.8601" fill="#F2F2F2"/>
<path d="M73.7647 91.7192C73.3364 90.8931 72.441 90.0409 71.1785 89.3076L58.4238 81.8954V96.1969C59.4479 96.3355 60.5025 96.4156 61.5743 96.4156C65.1764 96.4156 68.6535 95.6012 71.1137 94.1812C72.6696 93.2832 73.6864 92.2105 73.9672 91.2189C73.9186 91.3835 73.8511 91.5509 73.7647 91.7192" fill="#E8E8E8"/>
<path d="M71.1785 89.3076C72.441 90.041 73.3364 90.8932 73.7647 91.7192C73.8511 91.551 73.9186 91.3836 73.9672 91.2189L73.9789 91.1856C74.0266 91.0156 74.0536 90.8482 74.0536 90.6853C74.0554 89.5749 72.9809 88.2863 71.1785 87.2388L58.4238 79.8266V81.8954L71.1785 89.3076Z" fill="#D9D9D9"/>
<path d="M58.4239 81.8954V79.8266L42.8428 88.8226L44.629 89.8601L58.4239 81.8954Z" fill="#E8E8E8"/>
<path d="M114.518 83.8371C114.518 83.8371 115.254 84.5393 115.412 85.0567C115.571 85.573 115.353 86.7063 115.135 86.9255C114.916 87.1447 114.777 86.9255 114.777 86.9255C114.777 86.9255 114.315 88.3176 114.3 88.7144C114.282 89.1653 113.941 91.538 112.988 92.6755C112.034 93.812 111.664 93.6593 111.278 93.5118C110.487 93.2084 112.39 89.0323 112.39 89.0323L114.418 83.8371H114.518" fill="black"/>
<path d="M113.408 82.8429C113.408 82.8429 112.934 82.9332 112.104 83.4682C111.269 84.0001 110.823 85.7184 110.303 86.5775C109.787 87.4324 110.437 88.6967 110.497 91.4683C110.538 93.3455 110.859 93.6 111.565 93.492C112.497 93.3497 113.499 91.5743 113.752 90.4118C114.138 88.6583 114.431 87.5156 114.745 86.5764C115.654 83.864 113.408 82.8429 113.408 82.8429" fill="#0D252D"/>
<path d="M106.879 36.922C106.457 36.9553 103.236 40.4946 104.421 42.7385C105.607 44.9793 104.489 50.4997 104.489 50.4997C104.489 50.4997 102.692 53.7596 101.887 54.6956C101.176 55.5235 98.7638 57.3623 99.1523 58.0977C99.5419 58.8353 101.745 58.9984 101.745 58.9984C101.745 58.9984 109.378 53.3264 110.276 51.8938C111.177 50.4633 114.765 36.2894 106.879 36.922" fill="#79C7D3"/>
<path d="M110.326 87.6289C107.741 85.1512 104.645 82.8388 103.88 81.3595C101.613 76.9714 104.162 74.0284 104.844 69.8637C105.519 65.7353 106.51 60.2845 106.51 60.2845C108.946 56.4346 111.333 59.5324 112.903 61.1042C114.476 62.6759 108.964 76.9091 108.964 77.3028C108.964 77.6955 111.045 81.0572 112.546 81.989C114.046 82.9177 114.048 83.3322 114.048 83.3322C114.048 83.3322 112.908 90.1054 110.326 87.6289Z" fill="#07A2B2"/>
<path d="M118.163 95.6871V96.006L120.119 97.1352V96.4007L118.163 95.6871Z" fill="black"/>
<path d="M121.507 95.7068C121.499 95.9031 121.301 95.1209 121.042 95.2684L120.119 96.4007V97.1352L121.107 96.5649C121.331 96.4371 121.46 96.273 121.498 96.1047C121.527 95.98 121.521 95.8242 121.507 95.7068" fill="black"/>
<path d="M121.518 94.804V95.7223C121.504 95.7223 120.59 96.4007 119.896 96.5316C119.169 96.6687 117 99.2482 115.796 99.8112C112.018 101.582 111.636 99.859 111.666 99.7001C111.779 99.0767 112.602 98.2207 113.178 97.8893C113.901 97.4717 114.575 96.0537 114.919 95.4948C115.265 94.937 116.058 93.7589 116.623 94.0851C117.186 94.4113 118.505 95.4948 118.505 95.4948C118.505 95.4948 120.36 94.484 120.657 93.9792C120.955 93.4753 121.053 92.7305 121.053 92.7305C121.053 92.7305 121.518 93.9532 121.518 94.804Z" fill="black"/>
<path d="M120.657 93.9792C120.903 93.5626 121.012 92.9819 121.042 92.7908C120.981 92.6942 120.861 92.61 120.657 92.4905C120.068 92.1519 119.244 92.5892 118.704 93.1294C118.391 93.4411 117.616 93.9636 117.019 94.348C117.647 94.7905 118.505 95.4938 118.505 95.4938C118.505 95.4938 120.359 94.4851 120.657 93.9792Z" fill="#AB4003"/>
<path d="M120.19 92.3711C119.682 92.3711 119.113 92.7201 118.704 93.1294C118.392 93.4411 117.287 94.1527 116.689 94.5381L118.189 95.6974C118.189 95.6974 120.359 94.4851 120.658 93.9792C120.902 93.5616 121.012 92.9819 121.042 92.7918C120.981 92.6942 120.861 92.609 120.658 92.4906C120.512 92.4074 120.353 92.3711 120.19 92.3711V92.3711ZM120.19 92.477C120.344 92.477 120.482 92.5113 120.604 92.582C120.759 92.6713 120.873 92.7451 120.932 92.8188C120.894 93.0256 120.789 93.5502 120.566 93.9252C120.342 94.3075 118.834 95.2134 118.198 95.5738L116.872 94.5454C117.458 94.1693 118.474 93.5076 118.777 93.2022C119.129 92.851 119.685 92.477 120.19 92.477" fill="#E0A273"/>
<path d="M121.518 94.8041V95.469C121.511 95.469 121.13 95.6383 120.687 95.8783C120.276 96.0996 119.661 95.9375 119.402 96.1931C119.24 96.353 118.845 96.8621 118.475 97.2298C117.646 98.0505 116.639 99.1943 115.796 99.5589C112.956 100.788 112.092 100.611 111.814 99.5516C111.655 98.9387 112.764 97.7451 113.339 97.4127C113.76 97.1696 113.706 97.0844 114.225 96.5317C114.599 96.1318 114.773 95.7287 114.919 95.495C115.136 95.1449 115.529 94.5507 115.931 94.238C116.171 94.052 116.414 93.9658 116.623 94.0853L116.869 94.2432L117.019 94.347C117.647 94.7906 118.505 95.495 118.505 95.495C118.505 95.495 120.36 94.4842 120.657 93.9793C120.903 93.5627 121.013 92.9831 121.044 92.7919L121.053 92.7306C121.053 92.7306 121.257 93.2677 121.396 93.8785C121.466 94.1881 121.518 94.5174 121.518 94.8041" fill="#0D252D"/>
<path d="M114.355 60.7208C114.355 60.7208 113.878 58.3855 113.716 70.275C113.613 78.0632 114.25 79.7336 115.115 81.9079C116.287 84.8613 115.464 94.0343 115.464 94.0343C115.464 94.0343 117.416 96.0444 118.921 95.2684C122.012 93.678 121.291 92.0158 121.291 92.0158C121.291 92.0158 121.422 85.1159 120.47 81.6492C120.126 80.3923 121.652 75.303 121.939 72.5334C122.913 63.1309 123.465 69.5509 122.045 64.2487C121.465 62.0921 114.355 60.7208 114.355 60.7208" fill="#07A2B2"/>
<path d="M114.641 39.0652C114.641 39.0652 116.092 40.1383 117.632 42.0332C119.171 43.929 119.356 44.1524 118.874 48.3503C118.392 52.5493 119.098 55.8102 119.098 58.7127C119.098 59.2862 120.669 60.886 121.433 62.1409C122.199 63.3989 122.416 67.0619 122.416 67.0619C122.416 67.0619 122.416 69.3588 117.389 68.1548C112.36 66.9528 103.896 64.8274 106.511 60.2845C107.234 59.0265 107.873 58.5445 107.545 56.7951C107.217 55.0446 103.905 39.2969 105.632 38.3536C107.358 37.4103 110.76 38.5904 111.985 39.0008C113.211 39.4122 114.641 39.0652 114.641 39.0652" fill="#48BAAF"/>
<path d="M108.602 44.5305L108.646 44.5066L108.616 44.2437C108.606 44.4141 108.602 44.5305 108.602 44.5305Z" fill="#48BAAF"/>
<path d="M111.953 50.1599C111.953 50.1599 108.832 48.289 109.711 46.5645C110.588 44.841 109.277 42.9358 109.277 42.9358C109.277 42.9358 119.398 40.802 116.808 39.8245C114.221 38.8459 107.001 34.4038 104.286 38.9249C101.999 42.7384 102.205 45.1288 102.699 47.2854C103.59 51.1863 105.933 56.1976 105.933 56.9487C105.933 58.2369 105.299 59.8814 105.007 65.0953C104.714 70.3144 111.429 69.848 111.429 69.848L114.451 51.6621L111.953 50.1599" fill="#0AA1C4"/>
<path d="M120.861 58.4395C120.316 57.167 122.599 55.322 121.436 44.65C121.054 41.1335 116.193 38.7245 116.193 38.7245C116.193 38.7245 114.548 42.3209 112.067 43.6766C109.585 45.0302 110.917 44.2438 110.917 44.2438L110.254 43.4792C110.254 43.4792 107.161 46.0836 109.113 58.3866C109.549 61.1436 109.113 69.5447 109.113 69.5447C109.113 69.5447 122.614 71.371 122.981 66.2745C123.203 63.1974 121.404 59.7121 120.861 58.4395" fill="#0AA1C4"/>
<path d="M110.256 43.4792C109.527 44.3175 109.222 45.4218 108.986 46.4804C108.741 47.5514 108.649 48.6516 108.594 49.7465C108.511 51.9457 108.683 54.1449 108.958 56.3265C109.09 57.4162 109.287 58.5049 109.347 59.6175C109.406 60.7239 109.406 61.8292 109.394 62.9314C109.376 65.14 109.271 67.3444 109.112 69.5447C109.165 67.3392 109.208 65.1348 109.214 62.9314C109.211 61.8313 109.196 60.727 109.121 59.6321C109.049 58.5434 108.839 57.4568 108.69 56.3597C108.444 54.1636 108.302 51.9499 108.416 49.7382C108.487 48.636 108.592 47.5286 108.858 46.4513C109.139 45.3906 109.492 44.2895 110.256 43.4792" fill="#3394B3"/>
<path d="M108.756 39.2656C108.756 39.2656 110.183 41.3516 110.168 41.9666C110.154 42.5785 109.987 42.7603 110.255 43.6277C110.521 44.4972 112.076 42.8714 113.658 41.7858C115.562 40.4769 115.905 38.7098 115.905 38.7098C115.905 38.7098 114.558 38.4615 114.588 37.1495C114.619 35.8374 108.756 39.2656 108.756 39.2656" fill="#F0A96D"/>
<path d="M105.926 30.3556C105.926 30.3556 105.154 33.1594 105.605 34.0331C106.055 34.9088 106.306 34.2866 106.279 35.3857C106.255 36.4858 105.851 36.9481 106.54 37.6711C107.231 38.3952 107.781 38.4097 107.75 39.6657C107.72 40.9227 109.683 40.7222 111.045 39.9794C112.405 39.2377 115.114 37.481 115.705 35.689C116.299 33.8939 119.119 26.6127 111.218 26.0704C107.588 25.8211 105.926 30.3556 105.926 30.3556Z" fill="#F0CAA9"/>
<path d="M113.938 33.9572C113.95 33.9281 114.374 33.095 114.754 33.3744C115.132 33.6559 115.371 34.1733 115.22 34.8651C115.066 35.5529 114.679 36.3974 114.208 36.3725C113.735 36.3497 113.588 36.4078 113.346 36.0349C113.103 35.6578 113.268 35.2402 113.268 35.2402L113.938 33.9572" fill="#FFEAE1"/>
<path d="M113.744 34.0154C113.756 33.9894 114.18 33.1531 114.559 33.4357C114.938 33.7141 115.177 34.2335 115.023 34.9244C114.872 35.6131 114.485 36.4577 114.011 36.4327C113.541 36.4099 113.394 36.4681 113.15 36.093C112.908 35.718 113.073 35.2994 113.073 35.2994L113.744 34.0154" fill="#F0CAA9"/>
<path d="M114.107 34.2407C114.107 34.2407 114.239 34.6615 114.29 34.8453C114.338 35.0271 114.382 35.3273 114.281 35.4686C114.178 35.6078 114.083 35.6992 114.083 35.6992C114.083 35.6992 114.131 34.971 114.081 34.6937C114.03 34.4163 114.017 34.1701 114.146 33.9706C114.273 33.7722 114.381 33.5146 114.562 33.7618C114.741 34.0059 114.885 34.2771 114.825 34.7144C114.763 35.1507 114.605 35.611 114.397 35.8031C114.187 35.9964 113.914 36.0805 113.914 36.0805C113.914 36.0805 114.461 35.8717 114.585 35.3762C114.711 34.8796 114.784 34.1067 114.636 33.9675C114.489 33.8293 114.47 33.8013 114.447 33.9893C114.425 34.1753 114.52 34.462 114.389 34.3644C114.257 34.2677 114.254 34.0049 114.166 34.1078C114.079 34.2127 114.107 34.2407 114.107 34.2407" fill="#E5AC7F"/>
<path d="M113.968 35.0698L113.831 34.6657C113.745 34.6751 113.726 34.6761 113.667 34.8122C113.607 34.9472 113.595 35.0002 113.469 34.9576C113.341 34.913 113.257 34.7976 113.361 34.9898C113.463 35.1779 113.503 34.9826 113.684 35.1176C113.867 35.2537 113.796 35.4272 113.924 35.4438C114.048 35.4615 113.987 35.1779 113.949 35.0958L113.968 35.0698Z" fill="#E5AC7F"/>
<path d="M106.846 28.0711C106.846 28.0711 104.559 30.422 105.465 30.9445C106.369 31.4671 109.568 30.9747 111.072 31.8431C112.575 32.7116 112.171 36.1948 112.781 35.4437C113.39 34.6937 114.098 32.7075 114.838 32.8332C115.581 32.9547 114.81 37.4269 115.258 36.5584C115.705 35.6889 118.051 31.6634 117.031 29.4174C116.01 27.1715 111.158 23.7568 106.846 28.0711" fill="#3D3430"/>
<path d="M116.68 39.1337L114.838 37.7728C114.838 37.7728 114.238 40.8447 112.38 42.6845C111.626 43.4324 110.255 43.6277 110.255 43.6277L110.72 45.4893C110.72 45.4893 112.428 45.4114 113.954 43.9581C115.479 42.5027 116.68 39.1337 116.68 39.1337Z" fill="#79C7D3"/>
<path d="M110.168 41.9657C109.813 40.9923 109.634 40.6702 109.634 40.6702C109.634 40.6702 108.534 41.0691 108.192 41.8161C107.931 42.3802 108.654 43.554 108.618 44.1909L110.254 43.6278C110.254 43.6278 110.523 42.938 110.168 41.9657" fill="#79C7D3"/>
<path d="M114.309 50.8477V54.2001L112.799 53.9736L111.288 52.4527V49.1014L114.309 50.8477" fill="#79C7D3"/>
<path d="M106.49 46.632V49.9833L104.981 49.7579L103.471 48.2381V44.8847L106.49 46.632" fill="#79C7D3"/>
<path d="M119.865 41.6551C118.686 41.1242 114.922 44.836 116.107 47.0778C117.292 49.3206 116.817 56.5136 116.817 56.5136C116.817 56.5136 109.106 60.403 109.494 61.1406C109.884 61.8761 110.464 63.2899 110.464 63.2899C110.464 63.2899 119.656 60.6741 120.556 59.2416C121.456 57.8121 123.364 43.2299 119.865 41.6551Z" fill="#79C7D3"/>
<path d="M93.4092 98.5262L92.1387 99.2596V93.5658L93.4092 92.8303V98.5262Z" fill="#266F86"/>
<path d="M92.1381 93.5657L94.0714 91.9877L94.9419 89.5995L96.2852 89.0728L95.7367 91.3229L94.0787 92.8302L92.1381 93.5657Z" fill="#3394B3"/>
<path d="M75.9997 108.166V109.933C75.9997 110.05 75.9997 110.148 76.0184 110.264C76.1545 111.725 77.186 113.165 79.1328 114.294C83.3183 116.707 90.0915 116.707 94.276 114.294C96.2041 113.165 97.2346 111.725 97.3717 110.264H97.4102V108.166H75.9997Z" fill="#0D252D"/>
<path d="M79.1352 112.537C83.3165 114.949 90.0939 114.949 94.2742 112.537C98.4555 110.123 98.4555 106.209 94.2742 103.795C90.0939 101.382 83.3165 101.382 79.1352 103.795C74.9549 106.209 74.9549 110.123 79.1352 112.537Z" fill="#1A4A5A"/>
<path d="M90.2896 101.624L89.8107 99.9713L93.2711 97.9725L98.7676 101.176L92.921 108.547L87.4245 103.276L90.2896 101.624" fill="#266F86"/>
<path d="M95.3073 103.175L90.0819 99.6171L91.4605 102.222L95.7852 104.826L95.3073 103.175" fill="#1A4A5A"/>
<path d="M95.7861 104.826L95.3083 103.175L98.7686 101.176L99.8428 102.484V104.551L92.922 108.547V106.48L95.7861 104.826" fill="#0D252D"/>
<path d="M80.2172 106.518V108.36L80.2286 108.556C80.3086 109.424 80.9226 110.281 82.0809 110.953C84.5699 112.387 88.5986 112.387 91.0866 110.953C92.2324 110.281 92.8453 109.424 92.9274 108.556H92.9492V106.518H80.2172" fill="#0D252D"/>
<path d="M82.0811 109.117C84.5681 110.552 88.5988 110.552 91.0848 109.117C93.5707 107.682 93.5707 105.355 91.0848 103.919C88.5988 102.483 84.5681 102.483 82.0811 103.919C79.5952 105.355 79.5952 107.682 82.0811 109.117Z" fill="#1A4A5A"/>
<path d="M93.2844 100.524L95.2125 100.648L103.251 66.3649L101.324 66.2412L93.2844 100.524Z" fill="#5CA9C2"/>
<path d="M99.2324 102.526L97.9619 103.26V97.5652L99.2324 96.8308V102.526Z" fill="#5CA9C2"/>
<path d="M97.9619 97.5652L96.0286 93.629V91.2407L97.5838 90.3432L97.3978 92.8032L99.2324 96.8307L97.9619 97.5652" fill="#85BFD1"/>
<path d="M101.033 61.3035L100.862 60.4164L97.4544 60.433C97.3598 60.4517 97.2705 60.5161 97.2134 60.6262C97.1022 60.8361 97.1459 61.1238 97.31 61.2693L97.5541 61.3472V61.3482L97.5593 61.3461L97.603 61.3368L101.033 61.3035" fill="#0D252D"/>
<path d="M100.945 60.3395L102.029 59.1562L98.1098 57.25C98.0111 57.1928 97.8521 57.197 97.6589 57.277C97.2891 57.4297 96.9328 57.8006 96.8652 58.1039C96.833 58.2421 96.8684 58.3408 96.9473 58.3948V58.3958L96.9535 58.3989L97.0003 58.4207L100.945 60.3395" fill="#0D252D"/>
<path d="M101.57 59.2289C101.501 59.5281 101.145 59.8969 100.775 60.0538C100.404 60.2106 100.161 60.0943 100.228 59.792C100.295 59.4907 100.651 59.1209 101.022 58.9651C101.393 58.8103 101.637 58.9277 101.57 59.2289Z" fill="#1A4A5A"/>
<path d="M104.308 67.039L103.653 67.7143C103.102 68.2815 101.866 68.9121 101.156 68.7988L101.573 65.8059C101.197 64.2186 100.664 60.2959 100.99 58.8592C100.99 58.8592 102.753 57.9378 103.32 58.2079L106.031 59.4836C106.597 59.7464 106.952 60.4081 106.823 60.9639L106.259 63.3958C105.931 64.817 105.262 66.0656 104.308 67.039Z" fill="#0D252D"/>
<path d="M102.478 67.867L101.823 68.5464C101.272 69.1167 100.219 68.6419 100.002 67.7226L99.7431 66.6245C99.367 65.0247 99.339 63.4311 99.6652 61.9819L100.224 59.5012C100.354 58.9361 100.918 58.7002 101.486 58.9724L104.196 60.2564C104.763 60.5203 105.118 61.1883 104.989 61.7461L104.427 64.1967C104.1 65.6272 103.431 66.8863 102.478 67.867" fill="#1A4A5A"/>
<path d="M101.743 67.52C101.504 67.7672 101.066 67.7569 100.983 67.5075L100.961 67.4286L100.703 66.3347C100.347 64.8263 100.32 63.3117 100.624 61.9591L100.993 60.3323C101.051 60.0746 101.449 59.9063 101.709 60.03L103.373 60.8174C103.808 61.0189 104.082 61.5363 103.984 61.9674L103.465 64.231C103.172 65.5233 102.578 66.6598 101.747 67.5158L101.743 67.52" fill="#FF884D"/>
<path d="M109.136 64.1376L110.221 62.9595L106.31 61.2029C106.214 61.1499 106.054 61.1582 105.862 61.2403C105.492 61.4002 105.137 61.769 105.067 62.0661C105.037 62.2001 105.07 62.2967 105.149 62.3476H105.148L105.154 62.3508L105.2 62.3715L109.136 64.1376" fill="#0D252D"/>
<path d="M110.342 63.2534C110.273 63.5464 109.917 63.9152 109.548 64.0772C109.177 64.2403 108.934 64.1323 109.003 63.8383C109.071 63.5422 109.426 63.1745 109.797 63.0135C110.166 62.8524 110.411 62.9605 110.342 63.2534Z" fill="#1A4A5A"/>
<path d="M107.135 66.022L107.899 65.1795L106.031 63.3553C105.961 63.3189 105.85 63.3262 105.713 63.3854C105.451 63.4986 105.202 63.7615 105.153 63.9723C105.132 64.0679 105.155 64.1354 105.211 64.1718L105.215 64.1739L105.247 64.1874L107.135 66.022" fill="#0D252D"/>
<path d="M107.986 65.3894C107.936 65.5982 107.687 65.8631 107.425 65.9784C107.165 66.0937 106.993 66.0189 107.042 65.8091C107.089 65.5993 107.34 65.3364 107.601 65.2201C107.862 65.1048 108.034 65.1806 107.986 65.3894Z" fill="#1A4A5A"/>
<path d="M81.4202 97.8021V106.277L81.4305 106.439C81.497 107.16 82.0071 107.872 82.967 108.428C85.0332 109.621 88.3762 109.621 90.4425 108.428C91.393 107.872 91.9021 107.16 91.9696 106.439H91.9883V97.8021H81.4202" fill="#FF9E6E"/>
<path d="M81.4202 97.343V105.312L81.4305 105.476C81.497 106.197 82.0071 106.907 82.967 107.464C85.0332 108.656 88.3762 108.656 90.4425 107.464C91.393 106.907 91.9021 106.197 91.9696 105.476H91.9883V97.343H81.4202" fill="#0D252D"/>
<path d="M81.4202 97.8021V100.214L81.4305 100.928C81.497 101.649 82.0071 101.809 82.967 102.366C85.0332 103.557 88.3762 103.557 90.4425 102.366C91.393 101.809 91.9021 101.097 91.9696 100.377L91.9883 97.8021H81.4202" fill="#FF7D3D"/>
<path d="M82.9685 99.8663C85.0327 101.058 88.3777 101.058 90.4419 99.8663C92.505 98.6747 92.505 96.7425 90.4419 95.552C88.3777 94.3604 85.0327 94.3604 82.9685 95.552C80.9043 96.7435 80.9043 98.6747 82.9685 99.8663Z" fill="#1A4A5A"/>
<path d="M93.4068 101.174C93.8317 101.425 94.5163 101.432 94.936 101.189C95.3557 100.947 95.3515 100.547 94.9266 100.296C94.5018 100.046 93.8182 100.039 93.3985 100.28C92.9778 100.524 92.9819 100.924 93.4068 101.174" fill="#5CA9C2"/>
<path d="M100.877 108.509C102.343 107.662 103.701 105.372 103.701 103.679C103.701 101.984 101.686 101.039 100.219 101.887C98.7521 102.733 97.5595 104.801 97.5595 106.495C97.5595 108.188 99.4097 109.356 100.877 108.509Z" fill="#0D252D"/>
<path d="M98.802 106.733C98.802 108.166 99.8076 108.746 101.047 108.029C102.288 107.315 103.294 105.573 103.294 104.14C103.294 102.709 102.288 102.129 101.047 102.844C99.8076 103.56 98.802 105.301 98.802 106.733Z" fill="#266F86"/>
<path d="M101.047 103.324C102.058 102.741 102.88 103.214 102.88 104.38C102.88 105.546 102.058 106.969 101.047 107.551C100.038 108.134 99.216 107.66 99.216 106.495C99.216 105.328 100.038 103.906 101.047 103.324ZM101.047 108.509C102.515 107.662 103.709 105.595 103.709 103.902C103.709 102.208 102.515 101.519 101.047 102.365C99.5806 103.213 98.387 105.28 98.387 106.973C98.387 108.667 99.5806 109.356 101.047 108.509Z" fill="#1A4A5A"/>
<path d="M100.26 105.813C100.26 106.315 100.613 106.518 101.047 106.267C101.483 106.016 101.836 105.405 101.836 104.904C101.836 104.4 101.483 104.196 101.047 104.448C100.613 104.699 100.26 105.31 100.26 105.813Z" fill="#1A4A5A"/>
<path d="M96.7679 57.8224C96.6142 58.4197 96.9061 59.2757 96.9871 59.7089C97.1294 60.4641 99.7951 60.4236 99.7951 60.4236C99.7951 60.4236 100.176 59.2529 100.57 58.8581C100.964 58.4644 101.252 58.6057 101.252 58.6057C101.252 58.6057 101.829 57.0806 100.57 56.7274C99.311 56.3732 97.1585 56.287 96.7679 57.8224" fill="#FDEFD9"/>
<path d="M109.998 61.5269C109.618 60.835 109.671 60.0621 107.17 60.1234C106.356 60.1442 105.401 61.8157 105.401 62.1336C105.401 62.4494 105.135 63.4124 105.68 63.4217C106.224 63.4311 106.211 63.6638 106.831 63.8269C107.453 63.99 107.562 64.0959 107.928 64.0959C108.294 64.0959 108.445 63.8445 108.445 63.8445C108.445 63.8445 107.891 62.9958 108.483 62.654C109.076 62.3123 109.393 62.654 109.393 62.654C109.393 62.654 110.721 62.841 109.998 61.5269Z" fill="#FDEFD9"/>
<path d="M100.46 94.0748L97.4778 89.8405C97.4778 89.8405 96.7777 89.5569 96.4941 89.8405C96.2104 90.123 96.1357 90.6165 96.1357 90.6165L99.2979 94.9682C99.2979 94.9682 99.5991 95.4222 100.283 95.0274C100.964 94.6337 100.46 94.0748 100.46 94.0748" fill="#ADD4E1"/>
</g>
<defs>
<clipPath id="clip0">
<rect width="150" height="150" fill="white"/>
</clipPath>
</defs>
</svg>
