<svg width="150" height="150" viewBox="0 0 150 150" fill="none" xmlns="http://www.w3.org/2000/svg">
<g clip-path="url(#clip0)">
<ellipse cx="78.4077" cy="78.7245" rx="49.5488" ry="71.7058" transform="rotate(9.22935 78.4077 78.7245)" fill="#EAEAEA"/>
<path d="M99.5621 96.8033L97.0875 98.2327L59.6875 -3.03666L62.1621 -4.46733L99.5621 17.1273V96.8033Z" fill="#EAF6F9"/>
<path d="M95.0902 19.7073V94.7833L65.4262 77.65L61.6836 75.4927V0.416654L95.0902 19.7073Z" fill="#AADCE6"/>
<path d="M95.0898 23.9087V94.7833L65.4258 77.65V6.79L95.0898 23.9087" fill="#BFE5EC"/>
<path d="M63.6755 74.3353L93.0981 91.3233V20.8593L63.6755 3.87268V74.3353V74.3353ZM97.0875 98.2327L59.6875 76.6393V-3.03666L97.0875 18.5553V98.2327Z" fill="#E3FAFF"/>
<path d="M65.4258 46.8833V43.642L93.0978 24.1727V27.414L65.4258 46.8833Z" fill="#D2EDF2"/>
<path d="M65.4258 52.9301V51.3327L93.0978 31.8634V33.4607L65.4258 52.9301Z" fill="#D2EDF2"/>
<path d="M59.2245 69.4701C59.2245 69.4701 57.7219 68.4447 54.3245 76.5901C50.9285 84.7354 50.8312 84.7154 50.3552 87.61C49.8792 90.5047 50.1912 91.0687 50.1912 91.0687C50.1912 91.0687 57.0712 91.5061 58.6379 91.3341C60.2005 91.1607 62.4592 90.2607 62.4592 90.2607L63.8672 87.0621C63.8672 87.0621 61.4086 88.4194 59.1059 87.9394C56.8046 87.4594 55.2446 87.346 55.2446 87.346C55.2446 87.346 57.6805 80.2581 59.6379 77.9221C61.5965 75.5861 61.4979 69.1661 59.2245 69.4701" fill="#FFCCB3"/>
<path d="M60.3662 68.8353C60.3662 68.8353 59.0542 68.158 57.5075 69.7047C55.9609 71.2513 52.3862 80.402 52.3862 80.402C52.3862 80.402 52.1982 82.0846 54.0529 83.158C55.9115 84.2286 56.7529 84.05 57.2689 84.05C57.7862 84.05 64.3902 76.37 63.8675 74.346C63.3422 72.322 60.3662 68.8353 60.3662 68.8353" fill="#EAF6F9"/>
<path d="M81.4026 41.5993C81.4026 41.5993 76.5533 42.578 77.8746 45.0527C79.196 47.5273 79.0173 47.038 78.52 48.506C78.0213 49.974 79.1426 53.366 80.4986 54.15C81.856 54.9327 83.8786 55.77 85.188 55.77C86.4973 55.77 89.236 53.27 87.6893 50.6487C86.14 48.03 84.8453 48.3873 85.084 46.1247C85.3213 43.862 83.8093 41.5993 81.4026 41.5993" fill="#709EA8"/>
<path d="M79.2326 154.173C79.2326 154.173 81.8539 150.838 80.4233 150.302C78.9953 149.767 78.1326 150.362 78.1326 150.362C78.1326 150.362 77.9233 149.678 77.9233 148.785C77.9233 147.891 78.1326 146.671 78.1326 146.671C78.1326 146.671 78.3406 144.945 76.494 144.587C74.6486 144.23 72.0419 147.009 72.4233 148.159C72.8033 149.311 74.986 151.721 74.986 151.721L79.2326 154.173" fill="#0295AD"/>
<path d="M73.2192 146.91C73.2192 146.91 74.3512 147.385 75.0059 148.041C75.6605 148.695 76.1965 151.733 76.6739 152.207C77.1485 152.685 79.2325 154.173 79.2325 154.173L78.6979 154.293C78.6979 154.293 68.3672 148.458 73.2192 146.91Z" fill="#ADD4E1"/>
<path d="M72.2665 147.389C72.2665 147.389 73.7265 148.101 74.3812 148.754C75.0359 149.41 75.6612 151.851 76.1385 152.326C76.6132 152.803 78.6985 154.293 78.6985 154.293L73.6452 151.375C73.6452 151.375 70.6905 148.369 72.2665 147.389" fill="#9DBDC4"/>
<path d="M74.637 75.1113C74.637 75.1113 77.4477 84.7233 74.9477 87.2233C72.4477 89.7233 72.7264 91.4073 72.4477 94.8793C72.2184 97.738 74.6451 101.825 74.6451 101.825C74.6451 101.825 72.3757 104.326 67.969 104.382C63.2197 104.439 55.9424 99.4646 55.9424 99.4646C55.9424 99.4646 56.2344 94.3206 57.329 90.5993C57.545 89.862 57.7944 89.182 58.0771 88.6073C59.0411 86.6566 55.2624 75.5646 56.5131 72.4393C57.7624 69.3153 60.353 68.1753 61.793 68.8353C65.133 70.366 74.637 75.1113 74.637 75.1113Z" fill="#D5EDF3"/>
<path d="M70.8272 140.533C70.8272 140.533 70.2392 141.198 68.4126 142.251C65.7592 143.783 67.4486 142.355 65.6992 144.282C65.6992 144.282 63.8752 145.142 62.5459 143.814C61.2179 142.486 62.2339 140.533 62.2339 140.533L65.6992 138.658C65.6992 138.658 67.3832 139.439 68.0152 139.439C68.6486 139.439 71.7659 138.189 70.8272 140.533" fill="#ADD4E1"/>
<path d="M70.8272 139.818C70.8272 139.818 70.2392 140.483 68.4126 141.537C65.7592 143.069 67.4486 141.642 65.6992 143.567C65.6992 143.567 63.8752 144.427 62.5459 143.099C61.2179 141.77 62.2339 139.818 62.2339 139.818L65.6992 137.943C65.6992 137.943 65.1592 139.066 68.0152 137.943C68.6046 137.713 71.7659 137.474 70.8272 139.818" fill="#0295AD"/>
<path d="M63.2792 103.785L61.4192 97.0154L58.7619 93.7341C58.7619 93.7341 54.6699 99.6527 55.1379 104.027C55.6059 108.402 60.5739 121.127 59.6365 127.221C58.7005 133.313 61.8245 140.345 61.8245 140.345C61.8245 140.345 66.1405 142.457 68.2299 136.594C69.1205 134.093 67.3765 127.377 67.3765 122.846C67.3765 118.315 63.2792 103.785 63.2792 103.785" fill="#0AA1C4"/>
<path d="M69.4796 69.09C69.4796 69.09 68.9609 69.626 68.9609 70.9246C68.9609 72.222 70.6689 73.27 70.6689 73.27C70.6689 73.27 68.0902 74.4993 66.6476 73.666C65.2062 72.834 62.9182 71.9393 63.3862 70.0646C63.8556 68.19 63.9022 67.8513 63.9022 67.8513L69.4796 69.09Z" fill="#F0A96D"/>
<path d="M72.7609 100.191C72.7609 100.191 69.0116 101.597 65.8863 101.129C64.5956 100.935 63.7862 100.662 63.2796 100.407C62.5569 100.046 62.4489 99.722 62.4489 99.722C62.4489 99.722 59.0756 103.265 59.5436 106.233C60.0129 109.201 71.0702 124.233 71.0702 124.233C71.0702 124.233 72.4649 132.127 72.4649 134.627C72.4649 137.127 74.2529 144.854 74.2529 144.854C74.2529 144.854 76.4716 144.845 77.0356 145.265C77.6689 145.735 78.3742 148.122 78.3742 148.122C78.3742 148.122 84.6556 135.491 80.6449 124.233C78.9782 119.555 76.3956 101.641 73.0742 99.722L72.7609 100.191" fill="#0AA1C4"/>
<path d="M73.3025 63.5606C73.7011 65.51 73.3984 67.2793 72.8971 67.7793C72.5398 68.1366 73.2598 70.0326 71.1291 69.6553C70.6984 69.5793 70.3358 69.526 70.0171 69.474C69.0038 69.3246 68.4504 69.2393 67.7251 68.802C67.5438 68.7006 67.3478 68.5686 67.1291 68.4033C66.7931 68.1526 66.2931 67.5086 65.7491 66.65C64.1251 64.0833 62.1171 59.5926 63.0691 58.0366C63.7838 56.8766 66.7664 57.0473 69.2638 57.414C71.2358 57.7126 72.8971 58.138 72.8971 58.138L73.0745 58.0366C73.0745 58.0366 73.8291 59.4326 73.3878 61.2126C72.9505 62.9966 72.8971 61.6166 73.3025 63.5606Z" fill="#F0CAA9"/>
<path d="M72.8438 55.8367C70.9998 54.7727 69.1038 52.3194 65.1585 53.5474C65.1585 53.5474 63.0731 53.882 62.0385 54.9154C61.8558 55.0994 59.9451 56.842 59.7771 59.8567C59.6105 62.8727 61.2851 65.7194 62.7091 67.1434C64.1331 68.5687 63.7131 68.8354 63.7131 68.8354C63.7131 68.8354 67.3091 69.7047 67.7745 69.7047C68.2425 69.7047 69.8291 66.474 69.8291 66.474C69.8291 66.474 68.6358 62.9674 69.0158 62.8967C69.4651 62.8127 69.6185 63.8847 71.0212 64.0034C71.0212 64.0034 71.9585 60.3594 73.2531 59.6114C74.5478 58.8647 74.6878 56.902 72.8438 55.8367" fill="#702D41"/>
<path d="M70.2194 62.7446C70.2101 62.7086 69.8621 61.5926 69.3368 61.8593C68.8128 62.126 68.4114 62.7153 68.4554 63.598C68.4994 64.4793 68.8008 65.5966 69.3874 65.6646C69.9754 65.734 70.1434 65.8366 70.5208 65.426C70.8968 65.0153 70.7781 64.4646 70.7781 64.4646L70.2194 62.7446" fill="#FFEAE1"/>
<path d="M70.446 62.8594C70.4367 62.8221 70.0887 61.7074 69.5633 61.9727C69.0393 62.2407 68.638 62.8287 68.682 63.7114C68.726 64.5927 69.0273 65.7114 69.614 65.7794C70.2007 65.8487 70.3687 65.9501 70.7473 65.5394C71.1233 65.1287 71.0047 64.578 71.0047 64.578L70.446 62.8594" fill="#F0CAA9"/>
<path d="M69.9524 63.0593C69.9524 63.0593 69.7004 63.55 69.603 63.766C69.5057 63.9806 69.387 64.3406 69.4844 64.534C69.5817 64.7286 69.679 64.8606 69.679 64.8606C69.679 64.8606 69.7697 63.9553 69.891 63.6233C70.0123 63.2913 70.0777 62.9913 69.9603 62.7206C69.843 62.4486 69.763 62.1086 69.491 62.3753C69.2217 62.6406 68.9857 62.9446 68.9724 63.494C68.9564 64.046 69.0564 64.6433 69.2737 64.9233C69.4897 65.2046 69.8084 65.3646 69.8084 65.3646C69.8084 65.3646 69.179 64.9953 69.1297 64.358C69.079 63.722 69.147 62.7553 69.3563 62.6153C69.5657 62.4753 69.5964 62.4433 69.5857 62.6793C69.575 62.9139 69.399 63.2473 69.5817 63.1553C69.763 63.0619 69.823 62.7393 69.907 62.8859C69.9924 63.0313 69.9524 63.0593 69.9524 63.0593" fill="#E5AC7F"/>
<path d="M69.9528 64.1087L70.2048 63.6407C70.3101 63.6701 70.3301 63.6754 70.3781 63.8541C70.4235 64.0341 70.4261 64.1007 70.5901 64.0741C70.7568 64.0474 70.8835 63.9234 70.7181 64.1354C70.5501 64.3487 70.5421 64.0994 70.2915 64.2274C70.0395 64.3554 70.0901 64.5847 69.9315 64.5794C69.7715 64.5754 69.9075 64.2394 69.9715 64.146L69.9528 64.1087" fill="#E5AC7F"/>
<path d="M73.5434 98.0701L73.5273 98.0154L73.5434 98.0701Z" fill="#3BAAC4"/>
<path d="M73.5439 98.07C73.5892 98.234 73.6172 98.838 72.3852 100.321C70.9039 102.103 68.5612 98.538 66.9959 96.9727C65.4319 95.41 65.9639 86.3727 65.9639 84.7594C65.9639 83.146 60.1866 80.558 60.1866 83.1034C60.1866 85.6474 58.2226 90.838 56.5519 94.1994C54.8826 97.562 55.1012 102.327 55.1012 102.327L77.0066 109.029C76.5799 107.301 73.7332 98.6434 73.5439 98.07Z" fill="#0AA1C4"/>
<path d="M71.9232 73.4301C71.9232 73.4301 69.4953 73.1821 67.4393 75.4394C64.9713 78.1501 62.8232 84.0501 62.8232 84.0501L64.8312 84.7594C64.8312 84.7594 69.1592 75.7381 70.3246 75.3514C73.2152 74.3927 72.6899 73.9567 72.6899 73.9567L71.9232 73.4301" fill="#0AA1C4"/>
<path d="M61.7932 68.8354L63.2706 69.5287C63.2706 69.5287 60.7226 68.4807 60.7226 72.4581C60.7226 76.4341 63.2706 83.5581 63.2706 83.5581L61.8639 84.05C61.8639 84.05 58.5159 72.8687 59.1159 70.9034C59.7146 68.9381 61.7932 68.8354 61.7932 68.8354" fill="#0AA1C4"/>
<path d="M72.6503 77.674C72.6503 77.674 70.7477 81.374 72.6503 82.4713C74.553 83.5713 82.9077 79.022 85.3877 76.5393C87.869 74.058 89.4956 73.082 89.4956 73.082C89.4956 73.082 88.0676 64.522 85.7463 59.5606C84.273 56.414 83.9596 52.8633 83.9596 52.8633L81.8156 53.9353C81.8156 53.9353 82.7076 60.082 82.7076 63.6166C82.7076 67.1526 85.3877 71.1153 85.3877 71.1153C85.3877 71.1153 73.4863 74.866 72.6503 77.674" fill="#FFCCB3"/>
<path d="M71.8034 76.442C71.8034 76.442 70.0114 79.9273 71.3501 82.034C72.6901 84.1393 77.9581 84.05 78.7621 84.05C79.5661 84.05 82.8701 80.1207 82.5141 77.3527C82.1554 74.5833 80.9354 72.6967 80.9354 72.6967C80.9354 72.6967 73.4194 73.4793 71.8034 76.442Z" fill="#EAF6F9"/>
<path d="M79.5369 49.894C79.9609 50.502 80.0143 51.286 80.0143 51.286L80.449 51.5287L80.341 50.458L79.7796 46.1446C79.709 45.8926 79.8263 45.714 80.0356 45.7433L80.045 45.7446C80.257 45.7753 80.4836 46.0033 80.553 46.254L81.4116 49.8833L80.981 45.85C80.941 45.6033 81.0863 45.458 81.3049 45.5207L81.3116 45.5233C81.533 45.586 81.741 45.8353 81.781 46.0806L82.7116 50.2513L82.7329 50.2633L82.7356 46.9833C82.7516 46.762 82.9449 46.6833 83.1663 46.806L83.1743 46.8113C83.397 46.9353 83.5636 47.214 83.545 47.434L83.8156 51.142L84.2503 49.4207C84.2663 49.2007 84.4596 49.122 84.6823 49.2446L84.6903 49.25C84.9116 49.3727 85.0769 49.6527 85.0609 49.8727L84.9636 52.7673L84.9716 52.786L84.8316 55.0806C84.8316 55.0806 85.8303 58.8153 85.6983 58.7967C85.5636 58.7767 84.6276 60.974 82.4383 59.946C81.2236 59.3766 81.9249 54.6047 81.9249 54.6047L81.277 54.2687L79.2743 51.8207L78.6543 49.5593C78.6543 49.5593 79.1129 49.2847 79.5369 49.894" fill="#FF5D0D"/>
</g>
<defs>
<clipPath id="clip0">
<rect width="150" height="150" fill="white"/>
</clipPath>
</defs>
</svg>
