<svg width="150" height="150" viewBox="0 0 150 150" fill="none" xmlns="http://www.w3.org/2000/svg">
<g clip-path="url(#clip0)">
<ellipse cx="78.4077" cy="78.7245" rx="49.5488" ry="71.7058" transform="rotate(9.22935 78.4077 78.7245)" fill="#EAEAEA"/>
<path d="M83.1256 52.1905C81.92 52.1905 80.9397 53.1709 80.9397 54.3764V59.9164C80.9397 61.1217 81.92 62.102 83.1256 62.102H85.4393L83.0338 66.5391L91.5616 62.102H94.0205C95.2258 62.102 96.2064 61.1217 96.2064 59.9164V54.3764C96.2064 53.1709 95.2258 52.1905 94.0205 52.1905H83.1256ZM82.3861 67.1757L84.9926 62.3679H83.1256C81.7738 62.3679 80.6738 61.2682 80.6738 59.9164V54.3764C80.6738 53.0246 81.7738 51.9247 83.1256 51.9247H94.0205C95.3723 51.9247 96.4723 53.0246 96.4723 54.3764V59.9164C96.4723 61.2682 95.3723 62.3679 94.0205 62.3679H91.6265L82.3861 67.1757" fill="#52C19D"/>
<path d="M91.464 54.2065H82.3906V53.9407H91.464V54.2065Z" fill="#52C19D"/>
<path d="M94.6547 55.8348H82.3906V55.569H94.6547V55.8348Z" fill="#52C19D"/>
<path d="M94.6547 57.2638H82.3906V56.9979H94.6547V57.2638Z" fill="#52C19D"/>
<path d="M94.6547 58.6923H82.3906V58.4264H94.6547V58.6923Z" fill="#52C19D"/>
<path d="M94.6547 60.1208H82.3906V59.855H94.6547V60.1208Z" fill="#52C19D"/>
<path d="M133.521 131.353H32.4791C31.11 131.353 30 130.798 30 130.113C30 129.428 31.11 128.873 32.4791 128.873H133.521C134.89 128.873 136 129.428 136 130.113C136 130.798 134.89 131.353 133.521 131.353" fill="#A6CDBE"/>
<path d="M65.2891 126.653H68.1306V103.543H65.2891V126.653Z" fill="#494A4B"/>
<path d="M55.0628 128.939C55.0613 128.903 55.0586 128.867 55.0586 128.83C55.0586 127.613 65.7924 124.377 66.7113 124.497C69.793 124.902 78.3644 127.613 78.3644 128.83C78.3644 128.867 78.3614 128.903 78.3604 128.939H55.0628" fill="#6B6C6E"/>
<path d="M64.1055 108.092H69.3131V102.205H64.1055V108.092Z" fill="#292827"/>
<path d="M68.4062 103.3H86.0434V101.978H68.4062V103.3Z" fill="#F36118"/>
<path d="M62.7258 66.5402H46.625C46.625 66.5402 46.6952 69.5944 46.9943 75.4992C47.294 81.4043 49.8662 95.9722 51.4588 98.0993C53.0515 100.226 56.6654 104.281 68.6178 102.486C71.863 97.1022 62.7258 66.5402 62.7258 66.5402" fill="#F36118"/>
<path d="M63.1211 102.932C59.723 102.932 57.3029 102.325 55.5462 101.496C54.7268 99.7367 54.5949 97.671 55.345 95.5458C57.472 88.6327 59.3333 80.922 55.0791 73.7431C53.6728 71.6338 53.9195 69.1116 54.362 66.5399H57.8376C57.6957 67.0541 57.6337 67.5771 57.6337 68.1028C57.635 71.5503 60.3205 75.0983 60.8105 76.8401C60.8111 76.8417 60.8116 76.8433 60.8119 76.8449C60.8121 76.8457 60.8124 76.8465 60.8126 76.8473C60.8126 76.8478 60.8129 76.8483 60.8129 76.8489C60.8132 76.8499 60.8137 76.851 60.814 76.8521C60.814 76.8523 60.8142 76.8529 60.8142 76.8534C60.815 76.8563 60.8158 76.8595 60.8166 76.8624C60.8169 76.8627 60.8169 76.8627 60.8169 76.8627C60.835 76.9294 60.8499 76.9938 60.8613 77.0549C60.8613 77.0552 60.8613 77.0552 60.8613 77.0555C60.8616 77.0571 60.8618 77.0584 60.8621 77.0597C60.9483 77.5343 61.0171 78.1916 61.0719 78.9292C61.0722 78.9294 61.0722 78.9297 61.0722 78.93C61.27 81.5886 61.2867 85.2996 61.287 85.3365V85.3368L67.5438 85.5171C68.5502 90.3554 69.3131 95.1374 69.3133 98.521C69.3136 100.288 69.1059 101.674 68.6162 102.486C66.5446 102.797 64.7241 102.933 63.1211 102.932" fill="#EE541B"/>
<path d="M46.6262 66.5399C46.6472 66.7037 48.7265 83.5867 49.8985 90.5197C51.1495 97.9164 53.1655 100.745 57.6031 101.33C60.2415 101.677 65.7395 101.719 69.7813 101.696V103.294C69.2075 103.297 68.6047 103.3 67.9836 103.3C64.1952 103.3 59.7592 103.223 57.3947 102.912C51.417 102.124 49.493 97.6878 48.3255 90.7856C47.1482 83.821 45.0647 67.4936 45.0439 67.3296L46.6262 66.5399" fill="#F68C11"/>
<path d="M94.8308 80.9668C94.8308 80.9668 97.0908 80.0804 98.3761 79.593C99.6609 79.1056 102.542 82.7836 102.542 82.7836L94.2549 83.2053L94.8308 80.9668Z" fill="#FBC17A"/>
<path d="M78.8281 52.5183C79.0392 53.9743 78.2634 55.4082 77.0953 55.7212C75.9268 56.0339 74.8087 55.1075 74.5971 53.6515C74.3862 52.1958 75.1621 50.7618 76.3301 50.4489C77.4987 50.1362 78.6167 51.0628 78.8281 52.5183" fill="#F36118"/>
<path d="M78.1824 52.5538C78.3935 54.0098 77.6177 55.4437 76.4496 55.7564C75.2813 56.0693 74.1633 55.1427 73.9516 53.6867C73.7405 52.2312 74.5166 50.797 75.6844 50.4841C76.853 50.1717 77.971 51.098 78.1824 52.5538Z" fill="#FAB60F"/>
<path d="M64.8217 40.3295C65.9227 41.8487 65.6975 43.8894 64.3197 44.8876C62.9416 45.8857 60.9328 45.4632 59.832 43.9437C58.7318 42.4244 58.9559 40.3837 60.3343 39.3853C61.7121 38.3874 63.7212 38.8102 64.8217 40.3295Z" fill="#782A19"/>
<path d="M67.354 41.8368C68.4548 43.3563 68.287 46.1954 66.9092 47.1933C65.5311 48.1917 63.116 48.0096 62.0153 46.4898C60.9148 44.9708 61.751 42.9245 62.9238 41.6913C64.4292 40.1085 66.2535 40.3177 67.354 41.8368Z" fill="#FAB60F"/>
<path d="M70.7912 57.641V60.3488L74.6694 61.9893C74.6694 61.9893 71.8689 67.8042 67.6997 67.851C63.5322 67.8978 61.7997 67.2889 62.1736 65.9773C62.5485 64.6662 63.013 62.1443 63.013 62.1443C63.013 62.1443 65.3573 61.1789 65.8508 60.3488C66.486 59.2807 66.2052 55.5527 66.2052 55.5527L70.7912 57.641" fill="#FABB70"/>
<path d="M76.9454 52.5608C76.9454 52.5608 77.4444 51.9011 77.8901 52.0849C78.3352 52.2686 78.1201 54.2441 77.27 55.0171C76.4205 55.7897 75.9526 55.5794 75.9151 55.2907C75.8768 55.0016 76.9454 52.5608 76.9454 52.5608Z" fill="#F5A85F"/>
<path d="M77.9458 50.8438C77.7054 54.2092 76.284 60.9475 72.8032 60.3381C68.858 60.2847 66.2571 55.796 66.2571 55.796C66.2571 55.796 64.711 55.583 64.5514 53.7173C64.3911 51.851 65.1377 51.2647 65.6171 51.9045C65.4571 50.3583 66.3839 47.3533 66.3839 47.3533C66.3839 47.3533 75.574 46.357 76.6937 46.2506C77.8128 46.1435 78.058 49.2772 77.9458 50.8438" fill="#FABB70"/>
<path d="M77.9458 50.8438C77.7054 54.2092 76.284 60.9475 72.8032 60.3381C68.858 60.2847 66.2571 55.796 66.2571 55.796C66.2571 55.796 64.711 55.583 64.5514 53.7173C64.3911 51.851 65.1377 51.2647 65.6171 51.9045C65.4571 50.3583 66.3839 47.3533 66.3839 47.3533C66.3839 47.3533 75.574 46.357 76.6937 46.2506C77.8128 46.1435 78.058 49.2772 77.9458 50.8438" fill="#FABB70"/>
<path d="M72.4287 56.6438C72.4287 56.6438 73.9374 57.1269 74.4561 57.1705C74.7837 57.1982 75.7278 57.0812 75.7278 57.0812C75.7278 57.0812 74.3152 60.3771 72.4287 56.6438Z" fill="white"/>
<path d="M70.2909 47.58C70.2909 47.58 74.9038 47.92 76.0078 47.3805C77.1115 46.8411 77.3117 47.0609 77.5584 47.5135C77.8057 47.9655 77.301 49.5566 77.7249 50.3452C78.2343 51.2941 77.6143 52.2431 77.6584 53.1516C79.2426 48.2635 78.7403 42.8307 73.9509 41.3494C69.1614 39.8684 64.53 39.8426 62.3268 45.6847C61.4183 48.0936 62.5246 53.8724 65.3917 55.3994C65.3917 55.3994 64.0769 53.6036 64.681 52.2508C64.9224 51.71 65.9865 51.8389 66.1309 52.4765C66.2747 53.1144 66.8453 54.4374 66.8453 54.4374C66.8453 54.4374 66.8211 52.3797 66.945 51.845C67.0681 51.3103 67.8881 50.0822 67.6985 49.4188C67.2553 47.8679 68.5403 47.2917 70.2909 47.58Z" fill="#90361C"/>
<path d="M72.4855 42.1361C72.3651 42.0313 72.2388 41.93 72.0986 41.8365C72.2231 41.9362 72.3534 42.0359 72.4855 42.1361Z" fill="#9D3A1E"/>
<path d="M74.4621 41.9626C75.3662 43.0232 75.8187 44.4242 75.8187 45.8254C75.3369 44.1386 73.7639 43.1073 72.4832 42.1368C73.7371 43.2274 74.0043 44.902 74.4893 46.3572C73.6916 45.0278 73.1598 43.6983 72.0963 42.9007C72.8939 43.9642 72.6281 45.2937 72.8939 46.3572C72.0963 44.2301 70.501 42.6348 68.108 41.8371C69.7033 42.9007 71.8304 44.496 71.2986 46.889C70.5587 44.6694 68.2167 41.7659 65.5472 42.6303C65.4954 42.6779 65.4417 42.7225 65.3906 42.7717C65.924 42.6914 66.4667 42.7082 67.0444 42.9007C68.8809 43.688 70.4558 45.2535 70.4972 47.5941C71.405 47.6523 75.0431 47.852 76.0072 47.3809C76.4013 47.1881 76.6786 47.0937 76.8854 47.0708C76.8854 44.8222 75.9253 43.1392 74.4621 41.9626" fill="#9D3A1E"/>
<path d="M73.9522 41.3497C73.7121 41.2758 73.4757 41.2103 73.2412 41.1508C75.371 42.3061 76.8873 44.2422 76.8873 47.0708C77.2601 47.0293 77.4013 47.2226 77.5597 47.5137C77.807 47.9657 77.3024 49.5568 77.7262 50.3454C78.2356 51.2944 77.6156 52.2433 77.6597 53.1519C79.2439 48.2638 78.7416 42.8309 73.9522 41.3497" fill="#A54B1E"/>
<path d="M63.0587 61.8949C63.0587 61.8949 70.9465 67.2126 74.6689 61.8949C77.5937 64.9082 78.3913 65.0855 79.0119 67.0353C79.6325 68.985 82.9999 78.6458 83.2658 79.3546C83.5317 80.064 95.1425 80.2411 95.1425 80.2411V83.7864C95.1425 83.7864 80.984 84.2071 80.5628 83.7864C80.1416 83.3653 76.353 73.8598 76.353 73.8598C76.353 73.8598 77.3573 77.1334 75.7176 78.7287C74.0778 80.3241 73.6056 85.6918 73.6056 85.6918L61.286 85.3371C61.286 85.3371 61.26 79.2536 60.8611 77.06C60.4623 74.8665 55.4105 69.0239 58.7925 64.646C60.0967 63.3573 63.0587 61.8949 63.0587 61.8949" fill="#FBC510"/>
<path d="M76.3469 73.8614C75.8183 70.5974 75.7564 67.3331 76.8885 64.0691C76.324 63.5341 75.6062 62.8606 74.6689 61.8949C70.9465 67.2126 63.0587 61.8949 63.0587 61.8949C63.0587 61.8949 60.0967 63.3573 58.7925 64.646C55.4105 69.0239 60.4623 74.8665 60.8611 77.06C61.26 79.2536 61.286 85.3371 61.286 85.3371L73.6056 85.6918C73.6056 85.6918 74.0778 80.3241 75.7176 78.7287C77.1903 77.2961 76.5306 74.511 76.3807 73.9579L76.3469 73.8614" fill="#FAB60F"/>
<path d="M61.0718 78.9299C61.0718 78.9297 61.0718 78.9294 61.0716 78.9291C61.0168 78.1916 60.9479 77.5343 60.8618 77.0597C60.8615 77.0584 60.8612 77.057 60.861 77.0554C60.8612 77.0568 60.8615 77.0584 60.8618 77.0597C60.9482 77.5346 61.0171 78.1916 61.0718 78.9299ZM60.861 77.0549C60.8495 76.9937 60.8347 76.9294 60.8166 76.8627C60.8347 76.9294 60.8495 76.9937 60.861 77.0549ZM60.8163 76.8624C60.8155 76.8595 60.8147 76.8563 60.8139 76.8534C60.8147 76.8563 60.8155 76.8592 60.8163 76.8624ZM60.8136 76.852C60.8134 76.851 60.8129 76.8499 60.8126 76.8488C60.8131 76.8499 60.8131 76.851 60.8136 76.852ZM60.8123 76.8472C60.8121 76.8464 60.8118 76.8456 60.8115 76.8448C60.8118 76.8456 60.8121 76.8464 60.8123 76.8472Z" fill="#E0481F"/>
<path d="M69.4418 64.2377C68.2975 64.156 67.1674 63.8412 66.1839 63.4674C65.9111 62.1037 65.9792 59.2409 67.4206 58.1382C67.9704 58.5285 68.6181 58.8878 69.3626 59.1422C69.4482 59.2015 69.5357 59.2597 69.6245 59.3164C69.7811 61.0098 69.6365 62.8128 69.4418 64.2377" fill="#EEA149"/>
<path d="M69.6222 59.3165C69.5334 59.2599 69.446 59.2017 69.3604 59.1424C69.4436 59.1708 69.5279 59.1979 69.6132 59.2237C69.6164 59.2546 69.6193 59.2854 69.6222 59.3165" fill="#EEA149"/>
<path d="M69.4396 64.2377C68.2952 64.156 67.1654 63.8412 66.1816 63.4674C67.1652 63.8412 68.2952 64.156 69.4396 64.2377Z" fill="#ECA80F"/>
<path d="M66.3882 84.9937C64.9104 84.9934 63.5778 83.472 63.3239 83.205C62.9604 82.823 62.5895 82.309 61.0745 78.9301C61.0197 78.1917 60.9508 77.5347 60.8644 77.0599C60.8642 77.0585 60.8639 77.0569 60.8636 77.0556C60.8636 77.0556 60.8636 77.0553 60.8636 77.0551C60.8522 76.9939 60.8373 76.9296 60.8192 76.8628C60.8192 76.8628 60.8192 76.8628 60.819 76.8626C60.8182 76.8594 60.8174 76.8565 60.8166 76.8535C60.8163 76.853 60.8163 76.8525 60.8163 76.8522C60.8158 76.8511 60.8158 76.8501 60.8152 76.849C60.8152 76.8485 60.815 76.8479 60.815 76.8474C60.8147 76.8466 60.8144 76.8458 60.8142 76.845C60.8139 76.8434 60.8134 76.8418 60.8128 76.8402C60.3595 75.2287 58.0295 72.071 57.682 68.8775C57.6121 67.8453 57.7583 67.3949 57.7583 67.3949C58.1393 66.4986 58.6578 66.1548 59.2162 66.1548C60.4294 66.1548 61.8291 67.7801 62.4031 68.8905C62.9503 69.9479 64.3265 73.0378 65.402 75.2673C65.071 73.6568 64.9192 71.0532 65.3622 66.9189L66.268 66.9445C66.4435 66.2811 66.732 64.8822 66.3372 63.9942C66.2803 63.866 66.2279 63.686 66.184 63.4675C67.1678 63.8413 68.2976 64.1561 69.4419 64.2377C69.2271 65.8078 68.9516 66.9189 68.9516 66.9189L68.3622 67.0032L68.9564 67.0197C68.9564 67.0197 70.506 73.8729 69.7807 80.4792C68.8886 83.9873 67.5906 84.9939 66.3882 84.9937" fill="#ED9E11"/>
<path d="M68.5457 58.5046C68.2272 58.3438 67.9323 58.1656 67.6611 57.979C67.7311 57.9391 67.8031 57.9032 67.8786 57.871C68.0836 58.0824 68.3064 58.2962 68.5457 58.5046Z" fill="#EEA149"/>
<path d="M69.5818 58.9297C69.212 58.8122 68.8661 58.6673 68.5441 58.5048C68.3048 58.2963 68.082 58.0826 67.877 57.8712C68.1463 57.7563 68.4526 57.6925 68.7988 57.6925C68.9791 57.6925 69.1705 57.7098 69.3734 57.7462C69.464 58.1275 69.5324 58.5245 69.5818 58.9297" fill="#EEA149"/>
<path d="M64.0303 51.2764C64.03 50.9775 64.0731 43.9273 68.1957 41.5795C70.6184 40.1995 72.6163 40.341 74.4054 41.1724C76.2999 42.0533 77.2387 43.7151 77.2387 43.7151C75.7902 42.0384 72.4483 40.0751 68.5905 42.2724C64.8718 44.3904 64.8279 51.2075 64.8279 51.2761L64.0303 51.2764" fill="#9C9C9B"/>
<path d="M74.1875 59.55C74.1711 59.55 74.1543 59.5492 74.1376 59.5479C73.9379 59.5312 73.7704 59.4163 73.677 59.2549C72.957 59.4397 72.2806 59.5213 71.6494 59.5213C71.4449 59.5213 71.2455 59.5126 71.0509 59.4963C70.539 59.4535 70.0599 59.3575 69.6135 59.2235C69.6039 59.1249 69.593 59.027 69.5811 58.9292C70.2064 59.1283 70.9004 59.2501 71.6616 59.2501C72.2657 59.2501 72.9126 59.1736 73.6013 58.9978C73.5997 58.9694 73.5975 58.9412 73.5999 58.9119C73.6209 58.6633 73.7935 58.4636 74.019 58.3966C74.0963 58.4155 74.1716 58.4243 74.2447 58.4243C74.2968 58.4243 74.3479 58.4198 74.3979 58.4113C74.6361 58.5027 74.7959 58.7431 74.7736 59.0103C74.7475 59.3177 74.4904 59.55 74.1875 59.55" fill="#EEA149"/>
<path d="M74.2443 58.4246C74.1712 58.4246 74.0959 58.4158 74.0186 58.3969C74.0717 58.381 74.1278 58.3727 74.1858 58.3727C74.2023 58.3727 74.219 58.3732 74.2358 58.3748C74.2927 58.3796 74.3467 58.3921 74.3974 58.4115C74.3475 58.42 74.2964 58.4246 74.2443 58.4246Z" fill="#EEDEAD"/>
<path d="M66.2635 57.0354L66.2568 56.7634C66.2574 56.7639 66.2579 56.7645 66.2584 56.765C66.2606 56.8525 66.2622 56.9429 66.2635 57.0354Z" fill="#C5E4A6"/>
<path d="M67.4185 58.1382C66.9678 57.8183 66.5831 57.4777 66.2645 57.1571L66.2619 57.035C66.2606 56.9425 66.259 56.8521 66.2568 56.7646C66.6168 57.1507 67.0845 57.5835 67.6586 57.9787C67.5748 58.0265 67.4948 58.08 67.4185 58.1382" fill="#EEA149"/>
<path d="M69.36 59.1426C68.6155 58.8881 67.9678 58.5289 67.418 58.1386C67.4943 58.0804 67.5743 58.0269 67.6581 57.9791C67.9293 58.1657 68.2241 58.3439 68.5427 58.5047C68.7969 58.7259 69.0697 58.9416 69.36 59.1426" fill="#DF8933"/>
<path d="M69.6141 59.2238C69.5288 59.198 69.4445 59.1708 69.3613 59.1424C69.0709 58.9414 68.7981 58.7257 68.5439 58.5045C68.8659 58.667 69.2119 58.8119 69.5817 58.9294C69.5937 59.0273 69.6046 59.1251 69.6141 59.2238" fill="#DF8933"/>
<path d="M71.4656 58.8645C67.5663 58.8645 65.2818 55.668 65.2539 55.6284L65.4719 55.4763C65.5046 55.5228 68.8032 60.1299 74.2231 58.0647L74.3177 58.3133C73.2914 58.7042 72.3379 58.8645 71.4656 58.8645Z" fill="#484849"/>
<path d="M75.1346 58.0685C75.1346 58.3937 74.8711 58.6575 74.546 58.6575C74.2208 58.6575 73.957 58.3937 73.957 58.0685C73.957 57.7434 74.2208 57.4799 74.546 57.4799C74.8711 57.4799 75.1346 57.7434 75.1346 58.0685Z" fill="#F36118"/>
<path d="M66.9206 53.0714C67.2724 54.5859 66.6603 56.0222 65.5534 56.2793C64.4465 56.5364 63.2636 55.5173 62.9118 54.0028C62.5601 52.4885 63.1724 51.0525 64.2793 50.7951C65.3862 50.538 66.5688 51.5571 66.9206 53.0714" fill="#FAB60F"/>
<path d="M66.4352 53.0714C66.787 54.5859 66.1749 56.0222 65.0681 56.2793C63.9612 56.5364 62.7782 55.5173 62.4265 54.0028C62.0747 52.4885 62.687 51.0525 63.7939 50.7951C64.9008 50.538 66.0835 51.5571 66.4352 53.0714" fill="#F36118"/>
<path d="M70.5086 65.8673C70.5086 65.8673 70.3073 63.5685 70.5708 62.9085C70.8343 62.2489 71.4722 61.1619 71.088 60.6788C70.7038 60.1959 71.6025 58.862 71.6025 58.862C71.6676 58.0869 69.8396 56.5879 68.1757 57.7578C66.5121 58.9279 67.3398 61.8309 67.4616 62.8373C67.5836 63.8436 68.0316 65.8942 68.0316 65.8942L70.5086 65.8673" fill="#FBC793"/>
<path d="M57.755 65.7995C57.755 65.7995 56.8026 68.3608 60.2155 73.874C63.6287 79.3871 64.403 81.1425 64.8632 81.6267C65.3235 82.1109 68.9249 86.0141 70.914 78.1944C71.6391 71.5879 70.9879 65.4815 70.9879 65.4815L67.4519 65.2656C66.4213 74.8817 66.5144 76.2912 66.6917 76.0652C66.0275 75.3185 63.2387 68.9165 62.3998 67.2951C61.5615 65.674 58.964 62.9551 57.755 65.7995" fill="#FBC510"/>
<path d="M71.9995 52.5685C71.6062 52.1941 71.1922 52.0146 70.7782 52.0301C70.1276 52.0566 69.6746 52.5557 69.67 52.5608L69.4717 52.3837C69.4932 52.3598 70.0056 51.7955 70.7673 51.7644C71.2576 51.7445 71.7352 51.9503 72.1829 52.376L71.9995 52.5685" fill="#90361C"/>
<path d="M77.2888 52.5414C77.0631 52.1718 76.84 51.9889 76.6154 51.9958C76.2543 52.0085 75.9748 52.5278 75.9722 52.5331L75.7363 52.4108C75.7502 52.3837 76.0854 51.7485 76.606 51.7302C76.9262 51.7198 77.2359 51.945 77.5156 52.4026L77.2888 52.5414Z" fill="#90361C"/>
<path d="M68.6133 51.4977C68.6133 51.4977 68.6468 51.4389 68.718 51.3445C68.7898 51.2515 68.8935 51.1167 69.0382 50.9731C69.1089 50.8994 69.1929 50.8274 69.2809 50.75C69.3761 50.6809 69.4681 50.5961 69.5808 50.532C69.6899 50.4626 69.8042 50.3916 69.9318 50.3392C70.0536 50.2751 70.1927 50.2422 70.3261 50.1972C70.4657 50.1741 70.6066 50.1435 70.7478 50.1475C70.8895 50.1504 71.0286 50.1571 71.1573 50.2012C71.2219 50.2198 71.2868 50.2331 71.3469 50.2557C71.4035 50.2858 71.4588 50.3153 71.5128 50.344C71.5657 50.3735 71.6189 50.399 71.6665 50.4293C71.709 50.4663 71.7502 50.5019 71.7898 50.5362C71.8664 50.6067 71.9446 50.6617 71.9922 50.7314C72.0422 50.7979 72.0855 50.8558 72.1214 50.9037C72.1913 50.9989 72.2275 51.0547 72.2275 51.0547C72.2275 51.0547 72.1724 51.0132 72.0831 50.9385C72.0392 50.9013 71.9861 50.8558 71.9246 50.804C71.8661 50.7497 71.7797 50.7152 71.7013 50.6607C71.6603 50.6351 71.6181 50.6091 71.5745 50.5817C71.5269 50.5628 71.4779 50.5434 71.4274 50.5232C71.3777 50.5035 71.3264 50.4833 71.2743 50.4623C71.2195 50.4517 71.1634 50.4408 71.1065 50.4299C70.9946 50.3964 70.8741 50.4073 70.7537 50.4041C70.6332 50.4025 70.5104 50.4341 70.3891 50.4557C70.27 50.4937 70.1464 50.5179 70.0336 50.5748C69.9177 50.6208 69.8058 50.6737 69.7002 50.7327C69.5925 50.7867 69.4958 50.8545 69.3982 50.9093C69.3075 50.9747 69.2158 51.0297 69.1368 51.0887C68.8154 51.3182 68.6133 51.4977 68.6133 51.4977" fill="#90361C"/>
<path d="M75.8779 50.7452C75.8779 50.7452 75.9367 50.616 76.1148 50.5011C76.1576 50.47 76.2106 50.4463 76.2675 50.4221C76.3262 50.4043 76.3892 50.3801 76.4589 50.3775C76.5272 50.3663 76.5995 50.3727 76.6727 50.3799C76.7421 50.399 76.8181 50.4102 76.883 50.4429C77.0159 50.504 77.135 50.5883 77.2212 50.6851C77.2648 50.7327 77.3105 50.7768 77.34 50.8274C77.373 50.8755 77.4015 50.9228 77.427 50.9662C77.4778 51.0531 77.502 51.1353 77.523 51.1892C77.5421 51.2445 77.5504 51.277 77.5504 51.277C77.5504 51.277 77.523 51.256 77.4786 51.2182C77.4336 51.1815 77.3783 51.1228 77.3068 51.0605C77.2701 51.0302 77.2313 50.9978 77.1933 50.9611C77.1568 50.9225 77.1069 50.897 77.0654 50.8601C77.0239 50.8215 76.9731 50.7957 76.9261 50.7649C76.8803 50.73 76.8282 50.7098 76.7777 50.687C76.729 50.658 76.6751 50.6505 76.6245 50.6317C76.5716 50.6274 76.5206 50.6075 76.4687 50.6109C76.3653 50.603 76.2645 50.6186 76.1768 50.6396C76.0008 50.683 75.8779 50.7452 75.8779 50.7452" fill="#90361C"/>
<path d="M73.917 55.9173C73.917 55.9173 75.072 55.4852 75.4708 55.4188C75.8697 55.3523 75.8534 55.9734 75.8534 55.9734L73.917 55.9173Z" fill="#F1A052"/>
<path d="M90.5932 129.554C90.5932 129.554 85.3196 129.554 84.6549 129.554C83.9902 129.554 82.3508 126.496 82.3508 126.496V129.554H81.4643C81.4643 129.554 80.1261 124.446 82.1024 123.233C83.9461 125.699 88.0843 127.233 88.0843 127.233L90.5932 129.554" fill="#1A1817"/>
<path d="M85.007 119.206C85.007 119.206 84.4753 122.907 84.5641 123.616C84.6529 124.325 87.533 126.762 88.1536 127.294C86.5582 127.87 85.8488 127.87 84.83 127.294C83.8106 126.718 81.994 124.502 81.8164 124.103C82.2152 122.996 82.304 122.419 82.4811 121.533C82.6587 120.646 82.7029 118.741 82.7029 118.741L85.007 119.206Z" fill="#F7AE68"/>
<path d="M67.2802 91.9823C67.2802 91.9823 60.8101 102.071 69.4514 101.871C78.0928 101.672 84.6734 101.874 84.6734 101.874C84.6734 101.874 82.4357 106.126 82.214 110.469C81.9928 114.811 82.214 120.75 82.214 120.75L84.9835 121.458C84.9835 121.458 88.4629 109.494 90.3241 105.151C92.1853 100.808 92.5394 96.0222 86.7787 95.4904C81.018 94.9586 67.2802 91.9823 67.2802 91.9823" fill="#1D3258"/>
<path d="M86.7787 95.4903C81.018 94.9585 67.2802 91.9822 67.2802 91.9822C67.2802 91.9822 60.8101 102.071 69.4514 101.871C78.0928 101.672 84.6735 101.874 84.6735 101.874C84.6735 101.874 84.6219 101.972 84.5352 102.149C85.6945 101.074 87.0268 100.409 88.8465 100.864C89.8827 101.278 90.5932 102.019 91.1092 102.953C92.1308 99.3241 91.5745 95.933 86.7787 95.4903" fill="#172D48"/>
<path d="M84.4731 129.813C84.4731 129.813 79.1995 129.813 78.5348 129.813C77.8701 129.813 76.2306 126.755 76.2306 126.755V129.813H75.3442C75.3442 129.813 74.006 124.705 75.9823 123.492C77.826 125.957 81.9642 127.492 81.9642 127.492L84.4731 129.813" fill="#252323"/>
<path d="M78.8918 119.465C78.8918 119.465 78.36 123.166 78.4488 123.875C78.5377 124.584 81.4177 127.021 82.0383 127.553C80.443 128.129 79.7336 128.129 78.7147 127.553C77.6953 126.977 75.8788 124.761 75.7012 124.362C76.1 123.255 76.1888 122.678 76.3659 121.792C76.5435 120.906 76.5876 119 76.5876 119L78.8918 119.465" fill="#FBC17A"/>
<path d="M59.0814 93.0231C59.0814 93.0231 54.6942 102.329 63.3356 102.13C71.9769 101.93 78.5576 102.133 78.5576 102.133C78.5576 102.133 76.3199 106.384 76.0981 110.727C75.8769 115.07 76.0981 121.008 76.0981 121.008L78.8676 121.717C78.8676 121.717 82.347 109.752 84.2082 105.409C86.0694 101.066 86.4236 96.2805 80.6629 95.7487C74.9022 95.2169 59.0814 93.0231 59.0814 93.0231Z" fill="#253B77"/>
<path d="M85.3523 99.466C85.0442 97.5005 83.7086 96.0299 80.6629 95.7486C74.9022 95.2168 59.0814 93.023 59.0814 93.023C59.0814 93.023 54.6942 102.329 63.3356 102.13C71.9769 101.93 78.5576 102.133 78.5576 102.133C78.5576 102.133 78.4658 102.307 78.3193 102.618C80.2071 100.24 82.589 98.5035 85.3523 99.466" fill="#213563"/>
<path d="M57.3886 129.813V129.281H37.713V86.2238H56.8569V129.813H57.3886V129.281V129.813H57.9204V85.1603H36.6494V130.345H57.9204V129.813H57.3886Z" fill="#292827"/>
<path d="M57.3883 100.066H36.9111V99.0026H57.3883V100.066Z" fill="#292827"/>
<path d="M127.68 100.066H107.202V99.0026H127.68V100.066Z" fill="#292827"/>
<path d="M127.495 128.41V127.879H107.819V86.2233H126.963V128.41H127.495V127.879V128.41H128.027V85.1597H106.756V128.942H128.027V128.41H127.495Z" fill="#292827"/>
<path d="M128.559 94.5104H57.3896V85.692H128.559V94.5104Z" fill="#8A411C"/>
<path d="M59.9521 94.5104H34.3887V85.692H59.9521V94.5104Z" fill="#A24A1E"/>
<path d="M130.412 87.4642H32.5693V83.9192H130.412V87.4642Z" fill="#B2771D"/>
<path d="M58.6264 87.4642H32.5693V83.9192H58.6264V87.4642" fill="#D88E20"/>
<path d="M127.493 128.939H115.547V102.08H127.493V128.939Z" fill="#3E3D3F"/>
<path d="M96.958 128.939H115.548V102.08H96.958V128.939Z" fill="#656769"/>
<path d="M110.983 106.571H99.4834V106.239H110.983V106.571Z" fill="#3E3D3F"/>
<path d="M110.983 107.407H99.4834V107.075H110.983V107.407Z" fill="#3E3D3F"/>
<path d="M110.983 108.244H99.4834V107.911H110.983V108.244Z" fill="#3E3D3F"/>
<path d="M110.983 109.08H99.4834V108.748H110.983V109.08Z" fill="#3E3D3F"/>
<path d="M110.983 109.917H99.4834V109.584H110.983V109.917Z" fill="#3E3D3F"/>
<path d="M110.983 110.753H99.4834V110.421H110.983V110.753Z" fill="#3E3D3F"/>
<path d="M110.983 111.59H99.4834V111.257H110.983V111.59Z" fill="#3E3D3F"/>
<path d="M110.983 112.426H99.4834V112.094H110.983V112.426Z" fill="#3E3D3F"/>
<path d="M110.983 113.262H99.4834V112.93H110.983V113.262Z" fill="#3E3D3F"/>
<path d="M126.507 105.569H117.105V105.237H126.507V105.569Z" fill="#2E2D2D"/>
<path d="M126.507 106.405H117.105V106.073H126.507V106.405Z" fill="#2E2D2D"/>
<path d="M126.507 107.242H117.105V106.91H126.507V107.242Z" fill="#2E2D2D"/>
<path d="M126.507 108.078H117.105V107.745H126.507V108.078Z" fill="#2E2D2D"/>
<path d="M126.507 108.914H117.105V108.582H126.507V108.914Z" fill="#2E2D2D"/>
<path d="M126.507 114.003H117.105V113.671H126.507V114.003Z" fill="#2E2D2D"/>
<path d="M126.507 114.84H117.105V114.508H126.507V114.84Z" fill="#2E2D2D"/>
<path d="M126.507 115.676H117.105V115.344H126.507V115.676Z" fill="#2E2D2D"/>
<path d="M126.507 116.513H117.105V116.181H126.507V116.513Z" fill="#2E2D2D"/>
<path d="M126.507 117.349H117.105V117.016H126.507V117.349Z" fill="#2E2D2D"/>
<path d="M126.507 122.438H117.105V122.106H126.507V122.438Z" fill="#2E2D2D"/>
<path d="M126.507 123.275H117.105V122.943H126.507V123.275Z" fill="#2E2D2D"/>
<path d="M126.507 124.111H117.105V123.778H126.507V124.111Z" fill="#2E2D2D"/>
<path d="M126.507 124.947H117.105V124.615H126.507V124.947Z" fill="#2E2D2D"/>
<path d="M126.507 125.784H117.105V125.451H126.507V125.784Z" fill="#2E2D2D"/>
<path d="M110.983 117.665H99.4834V117.333H110.983V117.665Z" fill="#3E3D3F"/>
<path d="M110.983 118.501H99.4834V118.168H110.983V118.501Z" fill="#3E3D3F"/>
<path d="M110.983 119.337H99.4834V119.005H110.983V119.337Z" fill="#3E3D3F"/>
<path d="M110.983 120.174H99.4834V119.841H110.983V120.174Z" fill="#3E3D3F"/>
<path d="M110.983 121.01H99.4834V120.678H110.983V121.01Z" fill="#3E3D3F"/>
<path d="M110.983 121.846H99.4834V121.514H110.983V121.846Z" fill="#3E3D3F"/>
<path d="M110.983 122.683H99.4834V122.35H110.983V122.683Z" fill="#3E3D3F"/>
<path d="M110.983 123.519H99.4834V123.187H110.983V123.519Z" fill="#3E3D3F"/>
<path d="M110.983 124.356H99.4834V124.023H110.983V124.356Z" fill="#3E3D3F"/>
<path d="M90.918 83.8909H117.241V82.5202H90.918V83.8909Z" fill="#3C3B3D"/>
<path d="M90.9887 83.8909H86.166V82.5202H90.9887V83.8909Z" fill="#656769"/>
<path d="M93.8307 78.1514C93.7302 78.693 94.552 80.0913 95.0936 80.0913L121.387 79.1323C121.929 79.1323 122.449 78.693 122.55 78.1514L126.331 62.0998C126.432 61.5582 125.424 60.3489 124.882 60.3489H98.1245C97.5829 60.3489 97.062 60.7882 96.9612 61.3298L93.8307 78.1514" fill="#656769"/>
<path d="M94.4623 79.1264C94.3615 79.668 94.7189 80.1067 95.2605 80.1067H122.018C122.56 80.1067 123.081 79.668 123.181 79.1264L126.312 62.3042C126.412 61.7626 126.055 61.3237 125.513 61.3237H98.7561C98.2145 61.3237 97.6936 61.7626 97.5929 62.3042L94.4623 79.1264" fill="#3C3B3D"/>
<path d="M114.28 70.2653C114.28 70.2653 115.21 76.7795 115.41 79.1725C115.609 81.5655 116.008 83.892 113.15 83.892C110.291 83.892 106.901 83.892 106.901 83.892L108.41 83.1682L109.05 81.6394L108.059 70.228L114.28 70.2653" fill="#656769"/>
<path d="M100.38 83.892H106.628C107.562 83.892 108.23 83.6585 108.67 83.177C109.457 82.3177 109.329 80.8686 109.192 79.3347L109.153 78.8848C108.955 76.5115 108.069 70.2932 108.06 70.228L107.702 71.503C107.711 71.5678 108.427 76.571 108.623 78.9289L108.663 79.3815C108.788 80.7955 108.907 82.131 108.278 82.8181C107.944 83.1831 107.404 83.3602 106.628 83.3602H100.38V83.892" fill="#848585"/>
<path d="M121.162 115.699C121.35 115.699 121.53 115.632 121.698 115.498C124.161 113.534 123.962 96.0499 123.867 87.6479L123.855 86.5745C123.767 78.24 116.101 76.0334 116.024 76.0121L115.953 76.2682C116.029 76.2892 123.503 78.4466 123.589 86.5771L123.601 87.6511C123.688 95.3581 123.893 113.407 121.532 115.29C121.371 115.419 121.206 115.461 121.028 115.417L120.966 115.676C121.032 115.692 121.098 115.699 121.162 115.699" fill="#C6C5C3"/>
<path d="M123.417 115.699C123.605 115.699 123.785 115.632 123.953 115.498C126.415 113.534 126.217 96.0499 126.122 87.6479L126.11 86.5745C126.022 78.2373 117.596 76.0323 117.511 76.0111L117.446 76.269C117.529 76.29 125.758 78.4482 125.845 86.5771L125.857 87.6511C125.944 95.3581 126.148 113.407 123.788 115.29C123.627 115.419 123.461 115.461 123.283 115.417L123.221 115.676C123.288 115.692 123.353 115.699 123.417 115.699Z" fill="#C6C5C3"/>
<path d="M39.0736 50.6398C38.1302 52.271 39.9318 55.3406 41.1096 56.6254C42.0804 57.6844 43.7402 59.0312 45.2608 59.6531C45.7277 59.8442 46.1757 59.941 46.5926 59.941C47.2807 59.941 47.6186 59.6826 47.6327 59.6717C47.8093 59.5334 48.2294 59.1391 48.6904 58.6536C49.0709 58.2526 48.9199 57.9844 48.7463 57.7956C48.5572 57.5903 47.4139 56.4146 47.0236 56.0234C46.893 55.8932 46.7545 55.8272 46.612 55.8272C46.3948 55.8272 46.2419 55.9745 46.2001 56.0197C46.1183 56.1083 45.9757 56.2564 45.8247 56.4132C45.6181 56.6275 45.3847 56.8703 45.2858 56.9828C45.0542 57.2479 44.7923 57.2713 44.5277 57.0508C43.8143 56.5127 42.218 54.8121 41.7366 54.2391C41.2779 53.6932 41.383 53.4555 41.5175 53.2752L41.5396 53.2449C41.5985 53.1567 41.7122 53.046 41.9389 52.8256C42.0678 52.7004 42.2321 52.5406 42.4401 52.3327C42.888 51.8849 42.764 51.6036 42.5636 51.3667C42.3903 51.162 41.4396 50.1779 40.9014 49.6398C40.5565 49.2946 40.2933 49.2776 39.9824 49.6331C39.7684 49.8775 39.1572 50.548 39.0736 50.6398V50.6398ZM46.5926 60.2069C46.1411 60.2069 45.6591 60.1035 45.16 59.8993C43.6014 59.2617 41.9044 57.8857 40.9135 56.8052C39.6866 55.4667 37.8221 52.2409 38.8514 50.493L38.8676 50.4709C38.8676 50.4709 39.5535 49.7193 39.7825 49.4582C40.1899 48.9923 40.6345 48.9966 41.0893 49.4518C41.5824 49.9447 42.5777 50.9719 42.7664 51.1949C42.9013 51.3539 43.3108 51.8384 42.628 52.5207C42.419 52.7296 42.2536 52.8905 42.1244 53.016C41.9246 53.2104 41.8042 53.3276 41.7608 53.3925L41.7306 53.4345C41.6629 53.5249 41.5786 53.6379 41.9402 54.0679C42.4024 54.618 44.001 56.3207 44.6928 56.8426C44.8553 56.9772 44.9486 56.965 45.0855 56.8078C45.1884 56.6903 45.4147 56.4558 45.633 56.2287C45.783 56.0734 45.9239 55.9272 46.0047 55.8395C46.1656 55.6653 46.3926 55.5613 46.612 55.5613C46.8247 55.5613 47.0318 55.6563 47.2116 55.8355C47.6035 56.2276 48.7519 57.4087 48.942 57.6156C49.3895 58.1021 49.1571 58.548 48.8835 58.8365C48.3916 59.3547 47.9752 59.7411 47.7965 59.8809C47.7543 59.9142 47.3583 60.2069 46.5926 60.2069" fill="#52C19D"/>
<path d="M50.8836 58.0909C50.8836 58.3111 50.7052 58.4897 50.4848 58.4897C50.2646 58.4897 50.0859 58.3111 50.0859 58.0909C50.0859 57.8705 50.2646 57.6921 50.4848 57.6921C50.7052 57.6921 50.8836 57.8705 50.8836 58.0909Z" fill="#52C19D"/>
<path d="M52.4119 58.0909C52.4119 58.3111 52.2335 58.4897 52.0131 58.4897C51.7929 58.4897 51.6143 58.3111 51.6143 58.0909C51.6143 57.8705 51.7929 57.6921 52.0131 57.6921C52.2335 57.6921 52.4119 57.8705 52.4119 58.0909Z" fill="#52C19D"/>
<path d="M53.9402 58.0909C53.9402 58.3111 53.7618 58.4897 53.5414 58.4897C53.3213 58.4897 53.1426 58.3111 53.1426 58.0909C53.1426 57.8705 53.3213 57.6921 53.5414 57.6921C53.7618 57.6921 53.9402 57.8705 53.9402 58.0909Z" fill="#52C19D"/>
<path d="M55.4715 58.0909C55.4715 58.3111 55.2931 58.4897 55.0727 58.4897C54.8525 58.4897 54.6738 58.3111 54.6738 58.0909C54.6738 57.8705 54.8525 57.6921 55.0727 57.6921C55.2931 57.6921 55.4715 57.8705 55.4715 58.0909Z" fill="#52C19D"/>
<path d="M56.9949 58.0909C56.9949 58.3111 56.8165 58.4897 56.5961 58.4897C56.3759 58.4897 56.1973 58.3111 56.1973 58.0909C56.1973 57.8705 56.3759 57.6921 56.5961 57.6921C56.8165 57.6921 56.9949 57.8705 56.9949 58.0909Z" fill="#52C19D"/>
<path d="M58.5272 58.0909C58.5272 58.3111 58.3487 58.4897 58.1283 58.4897C57.9082 58.4897 57.7295 58.3111 57.7295 58.0909C57.7295 57.8705 57.9082 57.6921 58.1283 57.6921C58.3487 57.6921 58.5272 57.8705 58.5272 58.0909Z" fill="#52C19D"/>
<path d="M60.0555 58.0909C60.0555 58.3111 59.8771 58.4897 59.6566 58.4897C59.4365 58.4897 59.2578 58.3111 59.2578 58.0909C59.2578 57.8705 59.4365 57.6921 59.6566 57.6921C59.8771 57.6921 60.0555 57.8705 60.0555 58.0909Z" fill="#52C19D"/>
<path d="M61.5828 58.0909C61.5828 58.3111 61.4044 58.4897 61.184 58.4897C60.9638 58.4897 60.7852 58.3111 60.7852 58.0909C60.7852 57.8705 60.9638 57.6921 61.184 57.6921C61.4044 57.6921 61.5828 57.8705 61.5828 58.0909Z" fill="#52C19D"/>
<path d="M63.115 58.0909C63.115 58.3111 62.9366 58.4897 62.7162 58.4897C62.4961 58.4897 62.3174 58.3111 62.3174 58.0909C62.3174 57.8705 62.4961 57.6921 62.7162 57.6921C62.9366 57.6921 63.115 57.8705 63.115 58.0909Z" fill="#52C19D"/>
<path d="M64.6434 58.0909C64.6434 58.3111 64.465 58.4897 64.2445 58.4897C64.0244 58.4897 63.8457 58.3111 63.8457 58.0909C63.8457 57.8705 64.0244 57.6921 64.2445 57.6921C64.465 57.6921 64.6434 57.8705 64.6434 58.0909Z" fill="#52C19D"/>
<path d="M64.034 34.1729C64.034 34.3931 63.8553 34.5718 63.6352 34.5718C63.4147 34.5718 63.2363 34.3931 63.2363 34.1729C63.2363 33.9525 63.4147 33.7741 63.6352 33.7741C63.8553 33.7741 64.034 33.9525 64.034 34.1729Z" fill="#52C19D"/>
<path d="M65.5662 34.1729C65.5662 34.3931 65.3875 34.5718 65.1674 34.5718C64.947 34.5718 64.7686 34.3931 64.7686 34.1729C64.7686 33.9525 64.947 33.7741 65.1674 33.7741C65.3875 33.7741 65.5662 33.9525 65.5662 34.1729Z" fill="#52C19D"/>
<path d="M67.0936 34.1729C67.0936 34.3931 66.9149 34.5718 66.6947 34.5718C66.4743 34.5718 66.2959 34.3931 66.2959 34.1729C66.2959 33.9525 66.4743 33.7741 66.6947 33.7741C66.9149 33.7741 67.0936 33.9525 67.0936 34.1729Z" fill="#52C19D"/>
<path d="M68.6219 34.1729C68.6219 34.3931 68.4432 34.5718 68.223 34.5718C68.0026 34.5718 67.8242 34.3931 67.8242 34.1729C67.8242 33.9525 68.0026 33.7741 68.223 33.7741C68.4432 33.7741 68.6219 33.9525 68.6219 34.1729Z" fill="#52C19D"/>
<path d="M70.1492 34.1729C70.1492 34.3931 69.9705 34.5718 69.7504 34.5718C69.53 34.5718 69.3516 34.3931 69.3516 34.1729C69.3516 33.9525 69.53 33.7741 69.7504 33.7741C69.9705 33.7741 70.1492 33.9525 70.1492 34.1729Z" fill="#52C19D"/>
<path d="M71.6805 34.1729C71.6805 34.3931 71.5018 34.5718 71.2816 34.5718C71.0612 34.5718 70.8828 34.3931 70.8828 34.1729C70.8828 33.9525 71.0612 33.7741 71.2816 33.7741C71.5018 33.7741 71.6805 33.9525 71.6805 34.1729Z" fill="#52C19D"/>
<path d="M73.2088 34.1729C73.2088 34.3931 73.0301 34.5718 72.81 34.5718C72.5895 34.5718 72.4111 34.3931 72.4111 34.1729C72.4111 33.9525 72.5895 33.7741 72.81 33.7741C73.0301 33.7741 73.2088 33.9525 73.2088 34.1729Z" fill="#52C19D"/>
<path d="M74.7371 34.1729C74.7371 34.3931 74.5584 34.5718 74.3383 34.5718C74.1179 34.5718 73.9395 34.3931 73.9395 34.1729C73.9395 33.9525 74.1179 33.7741 74.3383 33.7741C74.5584 33.7741 74.7371 33.9525 74.7371 34.1729Z" fill="#52C19D"/>
<path d="M76.2654 34.1729C76.2654 34.3931 76.0868 34.5718 75.8666 34.5718C75.6462 34.5718 75.4678 34.3931 75.4678 34.1729C75.4678 33.9525 75.6462 33.7741 75.8666 33.7741C76.0868 33.7741 76.2654 33.9525 76.2654 34.1729Z" fill="#52C19D"/>
<path d="M77.7977 34.1729C77.7977 34.3931 77.619 34.5718 77.3988 34.5718C77.1784 34.5718 77 34.3931 77 34.1729C77 33.9525 77.1784 33.7741 77.3988 33.7741C77.619 33.7741 77.7977 33.9525 77.7977 34.1729Z" fill="#52C19D"/>
<path d="M86.9786 28.6881C82.5766 28.6881 78.9954 32.2696 78.9954 36.6714C78.9954 38.4978 79.5974 40.2175 80.7361 41.6448L80.7776 41.6967L79.6965 45.9227L82.9427 43.5589L83.0172 43.6015C84.2206 44.2904 85.5904 44.6546 86.9786 44.6546C91.3807 44.6546 94.9616 41.0734 94.9616 36.6714C94.9616 32.2696 91.3807 28.6881 86.9786 28.6881V28.6881ZM79.2559 46.5728L80.4873 41.7589C79.337 40.2941 78.7295 38.5363 78.7295 36.6714C78.7295 32.1229 82.4298 28.4223 86.9786 28.4223C91.5269 28.4223 95.2275 32.1229 95.2275 36.6714C95.2275 41.2202 91.5269 44.9205 86.9786 44.9205C85.5729 44.9205 84.1855 44.5592 82.9606 43.8748L79.2559 46.5728" fill="#52C19D"/>
<path d="M90.7054 31.5623C90.3945 31.2068 90.1313 31.2238 89.7867 31.569C89.248 32.1069 88.2978 33.0912 88.1244 33.2959C87.9239 33.5328 87.7998 33.8141 88.2478 34.2619C88.4557 34.4698 88.6203 34.6296 88.7487 34.7548C88.9755 34.9752 89.089 35.0859 89.1483 35.1741L89.1701 35.2044C89.3047 35.3847 89.41 35.6224 88.951 36.1683C88.4695 36.7413 86.8731 38.4419 86.16 38.98C85.8955 39.2005 85.6336 39.1771 85.4017 38.912C85.3033 38.7995 85.0694 38.5567 84.863 38.3424C84.712 38.1856 84.5692 38.0375 84.4876 37.9489C84.4461 37.9037 84.2927 37.7564 84.0757 37.7564C83.9332 37.7564 83.7947 37.8224 83.6644 37.9529C83.2736 38.3438 82.1305 39.5195 81.9415 39.7248C81.7676 39.9138 81.6168 40.1818 81.9973 40.5828C82.4584 41.0683 82.8785 41.4626 83.0553 41.6009C83.0694 41.6118 83.4068 41.8702 84.0949 41.8702C84.5121 41.8702 84.9601 41.7734 85.427 41.5823C86.9476 40.9604 88.6073 39.6136 89.578 38.5546C90.7562 37.2698 92.5575 34.2002 91.6142 32.569C91.5304 32.4772 90.9191 31.8067 90.7054 31.5623V31.5623ZM82.8912 41.8101C82.7125 41.6703 82.2962 41.2839 81.8043 40.7657C81.5307 40.4772 81.2983 40.0313 81.7455 39.5448C81.9359 39.3379 83.0842 38.1571 83.4764 37.7649C83.6559 37.5855 83.863 37.4905 84.0757 37.4905C84.2951 37.4905 84.5222 37.5945 84.683 37.7687C84.7639 37.8564 84.905 38.0029 85.0547 38.1582C85.2733 38.385 85.4993 38.6195 85.6019 38.737C85.7391 38.8941 85.8325 38.9064 85.9949 38.7718C86.6865 38.2499 88.2853 36.5472 88.7474 35.9973C89.1092 35.5671 89.0247 35.4544 88.9572 35.3637L88.9271 35.3217C88.8835 35.2568 88.7631 35.1396 88.5636 34.9452C88.4344 34.8197 88.2688 34.6591 88.0598 34.4498C87.377 33.7676 87.7867 33.2831 87.9213 33.1241C88.1103 32.9011 89.1053 31.8739 89.5985 31.381C90.0531 30.9258 90.498 30.9215 90.9053 31.3874C91.1342 31.6487 91.8202 32.4001 91.8202 32.4001L91.8362 32.4222C92.8657 34.1704 91.0013 37.3959 89.7742 38.7343C88.7833 39.8149 87.0861 41.1909 85.5278 41.8285C85.0287 42.0327 84.5466 42.1361 84.0949 42.1361C83.3291 42.1361 82.9338 41.8434 82.8912 41.8101" fill="#52C19D"/>
<path d="M72.211 25.1168C72.211 27.9429 69.9201 30.2335 67.0943 30.2335C64.2684 30.2335 61.9775 27.9429 61.9775 25.1168C61.9775 22.291 64.2684 20.0001 67.0943 20.0001C69.9201 20.0001 72.211 22.291 72.211 25.1168Z" fill="#52C19D"/>
<path d="M67.626 28.5043H66.659V27.5373H67.626V28.5043ZM66.2434 24.1863H65.3779V24.0762C65.3779 22.7188 65.785 21.7856 67.1934 21.7856C68.4827 21.7856 68.9408 22.5489 68.9408 23.533C68.9408 25.2296 67.5242 25.1195 67.4308 26.7821H66.8454C66.7608 25.111 68.0671 24.6444 68.0671 23.584C68.0671 22.9733 67.8634 22.5575 67.1934 22.5575C66.455 22.5575 66.2434 23.1514 66.2434 24.1863" fill="white"/>
</g>
<defs>
<clipPath id="clip0">
<rect width="150" height="150" fill="white"/>
</clipPath>
</defs>
</svg>
